G04 #@! TF.FileFunction,Copper,L1,Top,Signal*
%FSLAX46Y46*%
G04 Gerber Fmt 4.6, Leading zero omitted, Abs format (unit mm)*
G04 Created by KiCad (PCBNEW 4.0.6-e0-6349~53~ubuntu16.04.1) date Sat May 13 22:22:03 2017*
%MOMM*%
%LPD*%
G01*
G04 APERTURE LIST*
%ADD10C,0.050000*%
%ADD11C,1.778000*%
%ADD12R,1.778000X1.778000*%
%ADD13R,1.800000X1.800000*%
%ADD14C,1.800000*%
%ADD15O,4.000000X2.500000*%
%ADD16R,1.600000X1.600000*%
%ADD17O,1.600000X1.600000*%
%ADD18C,3.000000*%
%ADD19R,2.600000X2.000000*%
%ADD20O,2.600000X2.000000*%
%ADD21R,2.000000X2.600000*%
%ADD22O,2.000000X2.600000*%
%ADD23C,1.524000*%
%ADD24C,1.600000*%
%ADD25C,0.508000*%
G04 APERTURE END LIST*
D10*
D11*
X152110000Y-90900000D03*
D12*
X162270000Y-90900000D03*
D11*
X151370000Y-97570000D03*
D12*
X161530000Y-97570000D03*
D11*
X151940000Y-87390000D03*
D12*
X162100000Y-87390000D03*
D11*
X151820000Y-94010000D03*
D12*
X161980000Y-94010000D03*
D13*
X36470000Y-37620000D03*
D14*
X39010000Y-37620000D03*
D11*
X37430000Y-47420000D03*
D12*
X47590000Y-47420000D03*
D13*
X131380000Y-39260000D03*
D14*
X133920000Y-39260000D03*
D11*
X135020000Y-45940000D03*
D12*
X145180000Y-45940000D03*
D11*
X80580000Y-45070000D03*
D12*
X90740000Y-45070000D03*
D13*
X77300000Y-36920000D03*
D14*
X79840000Y-36920000D03*
D15*
X53910000Y-25450000D03*
X31910000Y-25450000D03*
X151600000Y-24660000D03*
X129600000Y-24660000D03*
X96020000Y-25390000D03*
X74020000Y-25390000D03*
D16*
X118070000Y-87870000D03*
D17*
X135850000Y-80250000D03*
X120610000Y-87870000D03*
X133310000Y-80250000D03*
X123150000Y-87870000D03*
X130770000Y-80250000D03*
X125690000Y-87870000D03*
X128230000Y-80250000D03*
X128230000Y-87870000D03*
X125690000Y-80250000D03*
X130770000Y-87870000D03*
X123150000Y-80250000D03*
X133310000Y-87870000D03*
X120610000Y-80250000D03*
X135850000Y-87870000D03*
X118070000Y-80250000D03*
D18*
X132350000Y-58060000D03*
X32570000Y-17090000D03*
D19*
X43340000Y-80040000D03*
D20*
X43340000Y-77500000D03*
X43340000Y-74960000D03*
X43340000Y-72420000D03*
D19*
X43300000Y-101400000D03*
D20*
X43300000Y-98860000D03*
X43300000Y-96320000D03*
X43300000Y-93780000D03*
D18*
X118220000Y-25070000D03*
X67120000Y-24980000D03*
D19*
X144960000Y-76130000D03*
D20*
X144960000Y-78670000D03*
D19*
X43910000Y-145250000D03*
D20*
X43910000Y-142710000D03*
X43910000Y-140170000D03*
X43910000Y-137630000D03*
D19*
X43700000Y-123210000D03*
D20*
X43700000Y-120670000D03*
X43700000Y-118130000D03*
X43700000Y-115590000D03*
D21*
X73150000Y-59880000D03*
D22*
X75690000Y-59880000D03*
X78230000Y-59880000D03*
X80770000Y-59880000D03*
D21*
X152380000Y-153120000D03*
D22*
X154920000Y-153120000D03*
X157460000Y-153120000D03*
D21*
X131450000Y-156780000D03*
D22*
X133990000Y-156780000D03*
X136530000Y-156780000D03*
D21*
X159900000Y-168160000D03*
D22*
X162440000Y-168160000D03*
X164980000Y-168160000D03*
D21*
X138340000Y-168060000D03*
D22*
X140880000Y-168060000D03*
X143420000Y-168060000D03*
D21*
X92190000Y-180640000D03*
D22*
X94730000Y-180640000D03*
D21*
X84880000Y-172720000D03*
D22*
X87420000Y-172720000D03*
D21*
X94450000Y-164000000D03*
D22*
X96990000Y-164000000D03*
D21*
X104570000Y-172140000D03*
D22*
X107110000Y-172140000D03*
D21*
X88230000Y-60490000D03*
D22*
X90770000Y-60490000D03*
X93310000Y-60490000D03*
D21*
X141020000Y-183060000D03*
D22*
X143560000Y-183060000D03*
D21*
X125170000Y-182650000D03*
D22*
X127710000Y-182650000D03*
D23*
X55160000Y-37450000D03*
X45000000Y-37450000D03*
X149610000Y-39210000D03*
X139450000Y-39210000D03*
X95650000Y-37020000D03*
X85490000Y-37020000D03*
X98410000Y-54380000D03*
X88250000Y-54380000D03*
X82270000Y-192710000D03*
X92430000Y-192710000D03*
X85990000Y-155870000D03*
X96150000Y-155870000D03*
X97080000Y-158900000D03*
X107240000Y-158900000D03*
X100670000Y-190170000D03*
X110830000Y-190170000D03*
X112060000Y-142870000D03*
X112060000Y-153030000D03*
X107230000Y-142770000D03*
X107230000Y-152930000D03*
X109670000Y-142690000D03*
X109670000Y-152850000D03*
X137540000Y-176010000D03*
X147700000Y-176010000D03*
X123440000Y-176010000D03*
X133600000Y-176010000D03*
D16*
X94400000Y-76820000D03*
D17*
X102020000Y-92060000D03*
X94400000Y-79360000D03*
X102020000Y-89520000D03*
X94400000Y-81900000D03*
X102020000Y-86980000D03*
X94400000Y-84440000D03*
X102020000Y-84440000D03*
X94400000Y-86980000D03*
X102020000Y-81900000D03*
X94400000Y-89520000D03*
X102020000Y-79360000D03*
X94400000Y-92060000D03*
X102020000Y-76820000D03*
D16*
X80970000Y-76390000D03*
D17*
X88590000Y-91630000D03*
X80970000Y-78930000D03*
X88590000Y-89090000D03*
X80970000Y-81470000D03*
X88590000Y-86550000D03*
X80970000Y-84010000D03*
X88590000Y-84010000D03*
X80970000Y-86550000D03*
X88590000Y-81470000D03*
X80970000Y-89090000D03*
X88590000Y-78930000D03*
X80970000Y-91630000D03*
X88590000Y-76390000D03*
D16*
X109480000Y-97020000D03*
D17*
X117100000Y-112260000D03*
X109480000Y-99560000D03*
X117100000Y-109720000D03*
X109480000Y-102100000D03*
X117100000Y-107180000D03*
X109480000Y-104640000D03*
X117100000Y-104640000D03*
X109480000Y-107180000D03*
X117100000Y-102100000D03*
X109480000Y-109720000D03*
X117100000Y-99560000D03*
X109480000Y-112260000D03*
X117100000Y-97020000D03*
D11*
X99620000Y-126910000D03*
D12*
X109780000Y-126910000D03*
D11*
X100740000Y-135580000D03*
D12*
X110900000Y-135580000D03*
D11*
X100240000Y-131830000D03*
D12*
X110400000Y-131830000D03*
D21*
X112650000Y-159720000D03*
D22*
X115190000Y-159720000D03*
X117730000Y-159720000D03*
X120270000Y-159720000D03*
X122810000Y-159720000D03*
D23*
X77050000Y-69230000D03*
X77050000Y-79390000D03*
X70220000Y-40020000D03*
X70220000Y-50180000D03*
X113990000Y-134950000D03*
X124150000Y-134950000D03*
X113680000Y-126340000D03*
X123840000Y-126340000D03*
X114860000Y-131180000D03*
X125020000Y-131180000D03*
D24*
X61970000Y-106420000D03*
X49270000Y-106420000D03*
X61970000Y-103880000D03*
X61970000Y-101340000D03*
X61970000Y-98800000D03*
X61970000Y-96260000D03*
X61970000Y-93720000D03*
X61970000Y-91180000D03*
X61970000Y-88640000D03*
X49270000Y-103880000D03*
X49270000Y-101340000D03*
X49270000Y-98800000D03*
X49270000Y-96260000D03*
X49270000Y-93720000D03*
X49270000Y-91180000D03*
X49270000Y-88640000D03*
X61970000Y-85080000D03*
X49270000Y-85080000D03*
X61970000Y-82540000D03*
X61970000Y-80000000D03*
X61970000Y-77460000D03*
X61970000Y-74920000D03*
X61970000Y-72380000D03*
X61970000Y-69840000D03*
X61970000Y-67300000D03*
X49270000Y-82540000D03*
X49270000Y-80000000D03*
X49270000Y-77460000D03*
X49270000Y-74920000D03*
X49270000Y-72380000D03*
X49270000Y-69840000D03*
X49270000Y-67300000D03*
X61970000Y-128140000D03*
X49270000Y-128140000D03*
X61970000Y-125600000D03*
X61970000Y-123060000D03*
X61970000Y-120520000D03*
X61970000Y-117980000D03*
X61970000Y-115440000D03*
X61970000Y-112900000D03*
X61970000Y-110360000D03*
X49270000Y-125600000D03*
X49270000Y-123060000D03*
X49270000Y-120520000D03*
X49270000Y-117980000D03*
X49270000Y-115440000D03*
X49270000Y-112900000D03*
X49270000Y-110360000D03*
X61910000Y-150050000D03*
X49210000Y-150050000D03*
X61910000Y-147510000D03*
X61910000Y-144970000D03*
X61910000Y-142430000D03*
X61910000Y-139890000D03*
X61910000Y-137350000D03*
X61910000Y-134810000D03*
X61910000Y-132270000D03*
X49210000Y-147510000D03*
X49210000Y-144970000D03*
X49210000Y-142430000D03*
X49210000Y-139890000D03*
X49210000Y-137350000D03*
X49210000Y-134810000D03*
X49210000Y-132270000D03*
X71850000Y-143830000D03*
X74390000Y-143830000D03*
X71850000Y-141290000D03*
X71850000Y-138750000D03*
X71850000Y-136210000D03*
X71850000Y-133670000D03*
X71850000Y-131130000D03*
X71850000Y-128590000D03*
X71850000Y-126050000D03*
X71850000Y-123510000D03*
X71850000Y-120970000D03*
X71850000Y-118430000D03*
X71850000Y-115890000D03*
X71850000Y-113350000D03*
X71850000Y-110810000D03*
X71850000Y-108270000D03*
X71850000Y-105730000D03*
X71850000Y-103190000D03*
X71850000Y-100650000D03*
X71850000Y-98110000D03*
X74390000Y-141290000D03*
X74390000Y-138750000D03*
X74390000Y-136210000D03*
X74390000Y-133670000D03*
X74390000Y-131130000D03*
X74390000Y-128590000D03*
X74390000Y-126050000D03*
X74390000Y-123510000D03*
X74390000Y-120970000D03*
X74390000Y-118430000D03*
X74390000Y-115890000D03*
X74390000Y-113350000D03*
X74390000Y-110810000D03*
X74390000Y-108270000D03*
X74390000Y-105730000D03*
X74390000Y-103190000D03*
X74390000Y-100650000D03*
X74390000Y-98110000D03*
X135350000Y-143830000D03*
X132810000Y-143830000D03*
X135350000Y-141290000D03*
X135350000Y-138750000D03*
X135350000Y-136210000D03*
X135350000Y-133670000D03*
X135350000Y-131130000D03*
X135350000Y-128590000D03*
X135350000Y-126050000D03*
X135350000Y-123510000D03*
X135350000Y-120970000D03*
X135350000Y-118430000D03*
X135350000Y-115890000D03*
X135350000Y-113350000D03*
X135350000Y-110810000D03*
X135350000Y-108270000D03*
X135350000Y-105730000D03*
X135350000Y-103190000D03*
X135350000Y-100650000D03*
X135350000Y-98110000D03*
X132810000Y-98110000D03*
X132810000Y-100650000D03*
X132810000Y-103190000D03*
X132810000Y-105730000D03*
X132810000Y-108270000D03*
X132810000Y-110810000D03*
X132810000Y-113350000D03*
X132810000Y-115890000D03*
X132810000Y-118430000D03*
X132810000Y-120970000D03*
X132810000Y-123510000D03*
X132810000Y-126050000D03*
X132810000Y-128590000D03*
X132810000Y-131130000D03*
X132810000Y-133670000D03*
X132810000Y-136210000D03*
X132810000Y-138750000D03*
X132810000Y-141290000D03*
X71850000Y-70170000D03*
X71850000Y-72710000D03*
X135350000Y-70170000D03*
X135350000Y-72710000D03*
X71870000Y-95570000D03*
X74410000Y-95570000D03*
X132830000Y-95570000D03*
X135370000Y-95570000D03*
X68640000Y-143890000D03*
X64490000Y-133490000D03*
X68550000Y-141340000D03*
X64390000Y-131550000D03*
X69858000Y-137440000D03*
X60240000Y-130100000D03*
X70828444Y-134001349D03*
X66180000Y-128940000D03*
D25*
X66950000Y-142250000D02*
X68590000Y-143890000D01*
X68590000Y-143890000D02*
X68640000Y-143890000D01*
X66950000Y-138530000D02*
X66950000Y-142250000D01*
X63690001Y-135270001D02*
X66950000Y-138530000D01*
X64490000Y-133490000D02*
X63690001Y-134289999D01*
X63690001Y-134289999D02*
X63690001Y-135270001D01*
X66160000Y-132188630D02*
X68550000Y-134578630D01*
X68550000Y-134578630D02*
X68550000Y-141340000D01*
X65710000Y-131738630D02*
X66160000Y-132188630D01*
X64390000Y-131550000D02*
X65521370Y-131550000D01*
X65521370Y-131550000D02*
X65710000Y-131738630D01*
X69480000Y-134430986D02*
X69480000Y-137062000D01*
X69480000Y-137062000D02*
X69858000Y-137440000D01*
X60240000Y-130100000D02*
X65149014Y-130100000D01*
X65149014Y-130100000D02*
X69480000Y-134430986D01*
X66180000Y-128940000D02*
X70828444Y-133588444D01*
X70828444Y-133588444D02*
X70828444Y-134001349D01*
M02*
