999
dxfrw 0.5.11
0
SECTION
2
HEADER
9
$ACADVER
1
AC1015
9
$HANDSEED
5
20000
9
$DWGCODEPAGE
3
ANSI_1250
9
$INSBASE
10
0
20
0
30
0
9
$EXTMIN
10
0
20
-420
30
0
9
$EXTMAX
10
594
20
0
30
0
9
$LIMMIN
10
0
20
0
9
$LIMMAX
10
420
20
297
9
$ORTHOMODE
70
0
9
$LTSCALE
40
1
9
$TEXTSTYLE
7
STANDARD
9
$CLAYER
8
DIMENSIONS
9
$DIMASZ
40
3.5
9
$DIMLFAC
40
1
9
$DIMSCALE
40
1
9
$DIMEXO
40
0
9
$DIMEXE
40
2
9
$DIMTXT
40
3.5
9
$DIMTSZ
40
0
9
$DIMAUNIT
70
0
9
$DIMADEC
70
2
9
$DIMLUNIT
70
2
9
$DIMSTYLE
2
STANDARD
9
$DIMGAP
40
1
9
$DIMTIH
70
0
9
$LUNITS
70
2
9
$LUPREC
70
2
9
$AUNITS
70
0
9
$AUPREC
70
2
9
$SPLINESEGS
70
8
9
$GRIDMODE
70
0
9
$SNAPSTYLE
70
0
9
$GRIDUNIT
10
0
20
0
9
$PINSBASE
10
0
20
420
30
0
9
$PLIMMIN
10
0
20
0
9
$PLIMMAX
10
594
20
420
9
$INSUNITS
70
4
9
$PSVPSCALE
40
1
0
ENDSEC
0
SECTION
2
CLASSES
0
ENDSEC
0
SECTION
2
TABLES
0
TABLE
2
VPORT
5
8
330
0
100
AcDbSymbolTable
70
1
0
VPORT
5
31
330
2
100
AcDbSymbolTableRecord
100
AcDbViewportTableRecord
2
*ACTIVE
70
0
10
0
20
0
11
1
21
1
12
300.245901639
22
12.3344262295
13
0
23
0
14
10
24
10
15
10
25
10
16
0
26
0
36
1
17
0
27
0
37
0
40
468.059016393
41
1.29680998613
42
50
43
0
44
0
50
0
51
0
71
0
72
100
73
1
74
3
75
0
76
0
77
0
78
0
281
0
65
1
110
0
120
0
130
0
111
1
121
0
131
0
112
0
122
1
132
0
79
0
146
0
0
ENDTAB
0
TABLE
2
LTYPE
5
5
330
0
100
AcDbSymbolTable
70
4
0
LTYPE
5
14
330
5
100
AcDbSymbolTableRecord
100
AcDbLinetypeTableRecord
2
ByBlock
70
0
3

72
65
73
0
40
0
0
LTYPE
5
15
330
5
100
AcDbSymbolTableRecord
100
AcDbLinetypeTableRecord
2
ByLayer
70
0
3

72
65
73
0
40
0
0
LTYPE
5
16
330
5
100
AcDbSymbolTableRecord
100
AcDbLinetypeTableRecord
2
Continuous
70
0
3
Solid line
72
65
73
0
40
0
0
LTYPE
5
32
330
5
100
AcDbSymbolTableRecord
100
AcDbLinetypeTableRecord
2
DOT
70
0
3
Dot . . . . . . . . . . . . . . . . . . . . . .
72
65
73
2
40
6.35
49
0
74
0
49
-6.35
74
0
0
LTYPE
5
33
330
5
100
AcDbSymbolTableRecord
100
AcDbLinetypeTableRecord
2
DOT2
70
0
3
Dot (.5x) .....................................
72
65
73
2
40
3.175
49
0
74
0
49
-3.175
74
0
0
LTYPE
5
34
330
5
100
AcDbSymbolTableRecord
100
AcDbLinetypeTableRecord
2
DOTX2
70
0
3
Dot (2x) .  .  .  .  .  .  .  .  .  .  .  .  .
72
65
73
2
40
12.7
49
0
74
0
49
-12.7
74
0
0
LTYPE
5
35
330
5
100
AcDbSymbolTableRecord
100
AcDbLinetypeTableRecord
2
DASHED
70
0
3
Dot . . . . . . . . . . . . . . . . . . . . . .
72
65
73
2
40
19.05
49
12.7
74
0
49
-6.35
74
0
0
LTYPE
5
36
330
5
100
AcDbSymbolTableRecord
100
AcDbLinetypeTableRecord
2
DASHED2
70
0
3
Dashed (.5x) _ _ _ _ _ _ _ _ _ _ _ _ _ _ _ _ _
72
65
73
2
40
9.525
49
6.35
74
0
49
-3.175
74
0
0
LTYPE
5
37
330
5
100
AcDbSymbolTableRecord
100
AcDbLinetypeTableRecord
2
DASHEDX2
70
0
3
Dashed (2x) ____  ____  ____  ____  ____  ___
72
65
73
2
40
38.1
49
25.4
74
0
49
-12.7
74
0
0
LTYPE
5
38
330
5
100
AcDbSymbolTableRecord
100
AcDbLinetypeTableRecord
2
DASHDOT
70
0
3
Dash dot __ . __ . __ . __ . __ . __ . __ . __
72
65
73
4
40
25.4
49
12.7
74
0
49
-6.35
74
0
49
0
74
0
49
-6.35
74
0
0
LTYPE
5
39
330
5
100
AcDbSymbolTableRecord
100
AcDbLinetypeTableRecord
2
DASHDOT2
70
0
3
Dash dot (.5x) _._._._._._._._._._._._._._._.
72
65
73
4
40
12.7
49
6.35
74
0
49
-3.175
74
0
49
0
74
0
49
-3.175
74
0
0
LTYPE
5
3A
330
5
100
AcDbSymbolTableRecord
100
AcDbLinetypeTableRecord
2
DASHDOTX2
70
0
3
Dash dot (2x) ____  .  ____  .  ____  .  ___
72
65
73
4
40
50.8
49
25.4
74
0
49
-12.7
74
0
49
0
74
0
49
-12.7
74
0
0
LTYPE
5
3B
330
5
100
AcDbSymbolTableRecord
100
AcDbLinetypeTableRecord
2
DIVIDE
70
0
3
Divide ____ . . ____ . . ____ . . ____ . . ____
72
65
73
6
40
31.75
49
12.7
74
0
49
-6.35
74
0
49
0
74
0
49
-6.35
74
0
49
0
74
0
49
-6.35
74
0
0
LTYPE
5
3C
330
5
100
AcDbSymbolTableRecord
100
AcDbLinetypeTableRecord
2
DIVIDE2
70
0
3
Divide (.5x) __..__..__..__..__..__..__..__.._
72
65
73
6
40
15.875
49
6.35
74
0
49
-3.175
74
0
49
0
74
0
49
-3.175
74
0
49
0
74
0
49
-3.175
74
0
0
LTYPE
5
3D
330
5
100
AcDbSymbolTableRecord
100
AcDbLinetypeTableRecord
2
DIVIDEX2
70
0
3
Divide (2x) ________  .  .  ________  .  .  _
72
65
73
6
40
63.5
49
25.4
74
0
49
-12.7
74
0
49
0
74
0
49
-12.7
74
0
49
0
74
0
49
-12.7
74
0
0
LTYPE
5
3E
330
5
100
AcDbSymbolTableRecord
100
AcDbLinetypeTableRecord
2
BORDER
70
0
3
Border __ __ . __ __ . __ __ . __ __ . __ __ .
72
65
73
6
40
44.45
49
12.7
74
0
49
-6.35
74
0
49
12.7
74
0
49
-6.35
74
0
49
0
74
0
49
-6.35
74
0
0
LTYPE
5
3F
330
5
100
AcDbSymbolTableRecord
100
AcDbLinetypeTableRecord
2
BORDER2
70
0
3
Border (.5x) __.__.__.__.__.__.__.__.__.__.__.
72
65
73
6
40
22.225
49
6.35
74
0
49
-3.175
74
0
49
6.35
74
0
49
-3.175
74
0
49
0
74
0
49
-3.175
74
0
0
LTYPE
5
40
330
5
100
AcDbSymbolTableRecord
100
AcDbLinetypeTableRecord
2
BORDERX2
70
0
3
Border (2x) ____  ____  .  ____  ____  .  ___
72
65
73
6
40
88.9
49
25.4
74
0
49
-12.7
74
0
49
25.4
74
0
49
-12.7
74
0
49
0
74
0
49
-12.7
74
0
0
LTYPE
5
41
330
5
100
AcDbSymbolTableRecord
100
AcDbLinetypeTableRecord
2
CENTER
70
0
3
Center ____ _ ____ _ ____ _ ____ _ ____ _ ____
72
65
73
4
40
50.8
49
31.75
74
0
49
-6.35
74
0
49
6.35
74
0
49
-6.35
74
0
0
LTYPE
5
42
330
5
100
AcDbSymbolTableRecord
100
AcDbLinetypeTableRecord
2
CENTER2
70
0
3
Center (.5x) ___ _ ___ _ ___ _ ___ _ ___ _ ___
72
65
73
4
40
28.575
49
19.05
74
0
49
-3.175
74
0
49
3.175
74
0
49
-3.175
74
0
0
LTYPE
5
43
330
5
100
AcDbSymbolTableRecord
100
AcDbLinetypeTableRecord
2
CENTERX2
70
0
3
Center (2x) ________  __  ________  __  _____
72
65
73
4
40
101.6
49
63.5
74
0
49
-12.7
74
0
49
12.7
74
0
49
-12.7
74
0
0
ENDTAB
0
TABLE
2
LAYER
5
2
330
0
100
AcDbSymbolTable
70
1
0
LAYER
5
10
330
2
100
AcDbSymbolTableRecord
100
AcDbLayerTableRecord
2
0
70
0
62
7
6
CONTINUOUS
370
35
390
F
0
LAYER
5
44
330
2
100
AcDbSymbolTableRecord
100
AcDbLayerTableRecord
2
BORDER
70
0
62
7
6
CONTINUOUS
370
35
390
F
0
LAYER
5
45
330
2
100
AcDbSymbolTableRecord
100
AcDbLayerTableRecord
2
DIMENSIONS
70
0
62
7
6
CONTINUOUS
370
18
390
F
0
LAYER
5
46
330
2
100
AcDbSymbolTableRecord
100
AcDbLayerTableRecord
2
LOGO
70
0
62
7
6
CONTINUOUS
370
35
390
F
0
LAYER
5
47
330
2
100
AcDbSymbolTableRecord
100
AcDbLayerTableRecord
2
PAPERSIZE
70
0
62
136
6
CONTINUOUS
370
0
390
F
0
LAYER
5
48
330
2
100
AcDbSymbolTableRecord
100
AcDbLayerTableRecord
2
TITLEBLOCK
70
0
62
7
6
CONTINUOUS
370
35
390
F
0
ENDTAB
0
TABLE
2
STYLE
5
3
330
0
100
AcDbSymbolTable
70
3
0
STYLE
5
49
330
2
100
AcDbSymbolTableRecord
100
AcDbTextStyleTableRecord
2
standard
70
0
40
0
41
1
50
0
71
0
42
1
3
standard
4

0
ENDTAB
0
TABLE
2
VIEW
5
6
330
0
100
AcDbSymbolTable
70
0
0
ENDTAB
0
TABLE
2
UCS
5
7
330
0
100
AcDbSymbolTable
70
0
0
ENDTAB
0
TABLE
2
APPID
5
9
330
0
100
AcDbSymbolTable
70
1
0
APPID
5
12
330
9
100
AcDbSymbolTableRecord
100
AcDbRegAppTableRecord
2
ACAD
70
0
0
ENDTAB
0
TABLE
2
DIMSTYLE
5
A
330
0
100
AcDbSymbolTable
70
1
100
AcDbDimStyleTable
71
1
0
DIMSTYLE
105
4A
330
A
100
AcDbSymbolTableRecord
100
AcDbDimStyleTableRecord
2
Standard
70
0
40
1
41
3.5
42
0
43
0.38
44
2
45
0
46
0
47
0
48
0
140
3.5
141
0.09
142
0
143
25.4
144
1
145
0
146
1
147
1
148
0
71
0
72
0
73
0
74
1
75
0
76
0
77
0
78
0
79
0
170
0
171
2
172
0
173
0
174
0
175
0
176
0
177
0
178
0
179
0
271
4
272
4
273
2
274
2
275
0
276
0
277
2
278
46
279
0
280
0
281
0
282
0
283
1
284
0
285
0
286
0
288
0
289
3
340
Standard
341

371
-2
372
-2
0
ENDTAB
0
TABLE
2
BLOCK_RECORD
5
1
330
0
100
AcDbSymbolTable
70
2
0
BLOCK_RECORD
5
1F
330
1
100
AcDbSymbolTableRecord
100
AcDbBlockTableRecord
2
*Model_Space
0
BLOCK_RECORD
5
1E
330
1
100
AcDbSymbolTableRecord
100
AcDbBlockTableRecord
2
*Paper_Space
0
ENDTAB
0
ENDSEC
0
SECTION
2
BLOCKS
0
BLOCK
5
20
330
1F
100
AcDbEntity
8
0
100
AcDbBlockBegin
2
*Model_Space
70
0
10
0
20
0
30
0
3
*Model_Space
1

0
ENDBLK
5
21
330
1F
100
AcDbEntity
8
0
100
AcDbBlockEnd
0
BLOCK
5
1C
330
1B
100
AcDbEntity
8
0
100
AcDbBlockBegin
2
*Paper_Space
70
0
10
0
20
0
30
0
3
*Paper_Space
1

0
ENDBLK
5
1D
330
1F
100
AcDbEntity
8
0
100
AcDbBlockEnd
0
BLOCK
5
2711
100
AcDbEntity
8
0
100
AcDbBlockBegin
2
Ortho1
70
0
10
0
20
0
3
Ortho1
1

0
LINE
8
0
6
BYBLOCK
62
0
5
2712
100
AcDbEntity
100
AcDbLine
10
0
20
-160
30
0
11
3
21
-160
31
0
0
LINE
8
0
6
BYBLOCK
62
0
5
2713
100
AcDbEntity
100
AcDbLine
10
0
20
-100
30
0
11
0
21
-160
31
0
0
LINE
8
0
6
BYBLOCK
62
0
5
2714
100
AcDbEntity
100
AcDbLine
10
0
20
5.65592e-12
30
0
11
0
21
-24
31
0
0
LINE
8
0
6
BYBLOCK
62
0
5
2715
100
AcDbEntity
100
AcDbLine
10
0
20
-84.15
30
0
11
0
21
-100
31
0
0
LINE
8
0
6
BYBLOCK
62
0
5
2716
100
AcDbEntity
100
AcDbLine
10
0
20
-24
30
0
11
0
21
-39.85
31
0
0
LINE
8
0
6
BYBLOCK
62
0
5
2717
100
AcDbEntity
100
AcDbLine
10
0
20
-39.85
30
0
11
0
21
-84.15
31
0
0
LINE
8
0
6
BYBLOCK
62
0
5
2718
100
AcDbEntity
100
AcDbLine
10
3
20
-100
30
0
11
3
21
-160
31
0
0
LINE
8
0
6
BYBLOCK
62
0
5
2719
100
AcDbEntity
100
AcDbLine
10
3
20
5.65592e-12
30
0
11
3
21
-24
31
0
0
LINE
8
0
6
BYBLOCK
62
0
5
271a
100
AcDbEntity
100
AcDbLine
10
3
20
-84.15
30
0
11
3
21
-100
31
0
0
LINE
8
0
6
BYBLOCK
62
0
5
271b
100
AcDbEntity
100
AcDbLine
10
3
20
-24
30
0
11
3
21
-39.85
31
0
0
LINE
8
0
6
BYBLOCK
62
0
5
271c
100
AcDbEntity
100
AcDbLine
10
3
20
-39.85
30
0
11
3
21
-84.15
31
0
0
LINE
8
0
6
BYBLOCK
62
0
5
271d
100
AcDbEntity
100
AcDbLine
10
0
20
-160
30
0
11
3
21
-160
31
0
0
LINE
8
0
6
BYBLOCK
62
0
5
271e
100
AcDbEntity
100
AcDbLine
10
0
20
5.65592e-12
30
0
11
3
21
5.65592e-12
31
0
0
LINE
8
0
6
BYBLOCK
62
0
5
271f
100
AcDbEntity
100
AcDbLine
10
0
20
-100
30
0
11
3
21
-100
31
0
0
LINE
8
0
6
BYBLOCK
62
0
5
2720
100
AcDbEntity
100
AcDbLine
10
0
20
-24
30
0
11
3
21
-24
31
0
0
LINE
8
0
6
BYBLOCK
62
0
5
2721
100
AcDbEntity
100
AcDbLine
10
0
20
-24
30
0
11
3
21
-24
31
0
0
LINE
8
0
6
BYBLOCK
62
0
5
2722
100
AcDbEntity
100
AcDbLine
10
0
20
-84.15
30
0
11
3
21
-84.15
31
0
0
LINE
8
0
6
BYBLOCK
62
0
5
2723
100
AcDbEntity
100
AcDbLine
10
0
20
-39.85
30
0
11
3
21
-39.85
31
0
0
LINE
8
0
6
BYBLOCK
62
0
5
2724
100
AcDbEntity
100
AcDbLine
10
0
20
-39.85
30
0
11
3
21
-39.85
31
0
0
ENDBLK
5
2725
100
AcDbEntity
8
0
100
AcDbBlockEnd
0
BLOCK
5
2726
100
AcDbEntity
8
0
100
AcDbBlockBegin
2
Ortho0011
70
0
10
0
20
0
3
Ortho0011
1

0
LINE
8
0
6
BYBLOCK
62
0
5
2727
100
AcDbEntity
100
AcDbLine
10
52
20
100
30
0
11
52
21
120
31
0
0
LINE
8
0
6
BYBLOCK
62
0
5
2728
100
AcDbEntity
100
AcDbLine
10
52
20
100
30
0
11
90
21
100
31
0
0
LINE
8
0
6
BYBLOCK
62
0
5
2729
100
AcDbEntity
100
AcDbLine
10
52
20
120
30
0
11
32
21
120
31
0
0
LINE
8
0
6
BYBLOCK
62
0
5
272a
100
AcDbEntity
100
AcDbLine
10
90
20
100
30
0
11
90
21
34
31
0
0
ARC
8
0
6
BYBLOCK
62
0
5
272b
100
AcDbEntity
100
AcDbCircle
10
90
20
14
30
0
40
20
100
AcDbArc
50
90
51
-180
0
LINE
8
0
6
BYBLOCK
62
0
5
272c
100
AcDbEntity
100
AcDbLine
10
32
20
160
30
0
11
32
21
120
31
0
0
LINE
8
0
6
BYBLOCK
62
0
5
272d
100
AcDbEntity
100
AcDbLine
10
70
20
0
30
0
11
70
21
14
31
0
0
LINE
8
0
6
BYBLOCK
62
0
5
272e
100
AcDbEntity
100
AcDbLine
10
0
20
160
30
0
11
32
21
160
31
0
0
LINE
8
0
6
BYBLOCK
62
0
5
272f
100
AcDbEntity
100
AcDbLine
10
0
20
0
30
0
11
70
21
0
31
0
0
LINE
8
0
6
BYBLOCK
62
0
5
2730
100
AcDbEntity
100
AcDbLine
10
0
20
100
30
0
11
0
21
160
31
0
0
LINE
8
0
6
BYBLOCK
62
0
5
2731
100
AcDbEntity
100
AcDbLine
10
0
20
0
30
0
11
0
21
24
31
0
0
LINE
8
0
6
BYBLOCK
62
0
5
2732
100
AcDbEntity
100
AcDbLine
10
20
20
100
30
0
11
0
21
100
31
0
0
LINE
8
0
6
BYBLOCK
62
0
5
2733
100
AcDbEntity
100
AcDbLine
10
0
20
24
30
0
11
20
21
24
31
0
0
LINE
8
0
6
BYBLOCK
62
0
5
2734
100
AcDbEntity
100
AcDbLine
10
20
20
84.15
30
0
11
20
21
100
31
0
0
LINE
8
0
6
BYBLOCK
62
0
5
2735
100
AcDbEntity
100
AcDbLine
10
20
20
24
30
0
11
20
21
39.85
31
0
0
LINE
8
0
6
BYBLOCK
62
0
5
2736
100
AcDbEntity
100
AcDbLine
10
73
20
84.15
30
0
11
20
21
84.15
31
0
0
LINE
8
0
6
BYBLOCK
62
0
5
2737
100
AcDbEntity
100
AcDbLine
10
20
20
39.85
30
0
11
73
21
39.85
31
0
0
LINE
8
0
6
BYBLOCK
62
0
5
2738
100
AcDbEntity
100
AcDbLine
10
73
20
39.85
30
0
11
73
21
84.15
31
0
0
CIRCLE
8
0
6
BYBLOCK
62
0
5
2739
100
AcDbEntity
100
AcDbCircle
10
60.8
20
93.15
30
0
40
2
0
CIRCLE
8
0
6
BYBLOCK
62
0
5
273a
100
AcDbEntity
100
AcDbCircle
10
50.6
20
93.15
30
0
40
2
0
CIRCLE
8
0
6
BYBLOCK
62
0
5
273b
100
AcDbEntity
100
AcDbCircle
10
30.2
20
93.15
30
0
40
2
0
CIRCLE
8
0
6
BYBLOCK
62
0
5
273c
100
AcDbEntity
100
AcDbCircle
10
40.4
20
93.15
30
0
40
2
0
CIRCLE
8
0
6
BYBLOCK
62
0
5
273d
100
AcDbEntity
100
AcDbCircle
10
16
20
126.8
30
0
40
1.5
0
CIRCLE
8
0
6
BYBLOCK
62
0
5
273e
100
AcDbEntity
100
AcDbCircle
10
16
20
120.4
30
0
40
1.5
0
CIRCLE
8
0
6
BYBLOCK
62
0
5
273f
100
AcDbEntity
100
AcDbCircle
10
22.3
20
133.088
30
0
40
1.5
0
CIRCLE
8
0
6
BYBLOCK
62
0
5
2740
100
AcDbEntity
100
AcDbCircle
10
16
20
144
30
0
40
10.5
0
CIRCLE
8
0
6
BYBLOCK
62
0
5
2741
100
AcDbEntity
100
AcDbCircle
10
22.3
20
154.912
30
0
40
1.5
0
CIRCLE
8
0
6
BYBLOCK
62
0
5
2742
100
AcDbEntity
100
AcDbCircle
10
8
20
8
30
0
40
1.5
0
CIRCLE
8
0
6
BYBLOCK
62
0
5
2743
100
AcDbEntity
100
AcDbCircle
10
40.4
20
30.85
30
0
40
2
0
CIRCLE
8
0
6
BYBLOCK
62
0
5
2744
100
AcDbEntity
100
AcDbCircle
10
30.2
20
30.85
30
0
40
2
0
CIRCLE
8
0
6
BYBLOCK
62
0
5
2745
100
AcDbEntity
100
AcDbCircle
10
61
20
6
30
0
40
1.5
0
CIRCLE
8
0
6
BYBLOCK
62
0
5
2746
100
AcDbEntity
100
AcDbCircle
10
61
20
19
30
0
40
1.5
0
CIRCLE
8
0
6
BYBLOCK
62
0
5
2747
100
AcDbEntity
100
AcDbCircle
10
50.6
20
30.85
30
0
40
2
0
CIRCLE
8
0
6
BYBLOCK
62
0
5
2748
100
AcDbEntity
100
AcDbCircle
10
60.8
20
30.85
30
0
40
2
0
CIRCLE
8
0
6
BYBLOCK
62
0
5
2749
100
AcDbEntity
100
AcDbCircle
10
86
20
90
30
0
40
1.5
0
CIRCLE
8
0
6
BYBLOCK
62
0
5
274a
100
AcDbEntity
100
AcDbCircle
10
76.5
20
67
30
0
40
1.5
0
CIRCLE
8
0
6
BYBLOCK
62
0
5
274b
100
AcDbEntity
100
AcDbCircle
10
76.5
20
81
30
0
40
1.5
0
CIRCLE
8
0
6
BYBLOCK
62
0
5
274c
100
AcDbEntity
100
AcDbCircle
10
3.4
20
144
30
0
40
1.5
0
LINE
8
0
6
BYBLOCK
62
0
5
274d
100
AcDbEntity
100
AcDbLine
10
128
20
100
30
0
11
90
21
100
31
0
0
LINE
8
0
6
BYBLOCK
62
0
5
274e
100
AcDbEntity
100
AcDbLine
10
128
20
100
30
0
11
128
21
120
31
0
0
LINE
8
0
6
BYBLOCK
62
0
5
274f
100
AcDbEntity
100
AcDbLine
10
128
20
120
30
0
11
148
21
120
31
0
0
ARC
8
0
6
BYBLOCK
62
0
5
2750
100
AcDbEntity
100
AcDbCircle
10
90
20
14
30
0
40
20
100
AcDbArc
50
-1.54499e-11
51
90
0
LINE
8
0
6
BYBLOCK
62
0
5
2751
100
AcDbEntity
100
AcDbLine
10
148
20
160
30
0
11
148
21
120
31
0
0
LINE
8
0
6
BYBLOCK
62
0
5
2752
100
AcDbEntity
100
AcDbLine
10
110
20
-1.25486e-12
30
0
11
110
21
14
31
0
0
LINE
8
0
6
BYBLOCK
62
0
5
2753
100
AcDbEntity
100
AcDbLine
10
180
20
160
30
0
11
148
21
160
31
0
0
LINE
8
0
6
BYBLOCK
62
0
5
2754
100
AcDbEntity
100
AcDbLine
10
180
20
-5.65592e-12
30
0
11
110
21
-1.25486e-12
31
0
0
LINE
8
0
6
BYBLOCK
62
0
5
2755
100
AcDbEntity
100
AcDbLine
10
180
20
100
30
0
11
180
21
160
31
0
0
LINE
8
0
6
BYBLOCK
62
0
5
2756
100
AcDbEntity
100
AcDbLine
10
180
20
-5.65592e-12
30
0
11
180
21
24
31
0
0
LINE
8
0
6
BYBLOCK
62
0
5
2757
100
AcDbEntity
100
AcDbLine
10
160
20
100
30
0
11
180
21
100
31
0
0
LINE
8
0
6
BYBLOCK
62
0
5
2758
100
AcDbEntity
100
AcDbLine
10
180
20
24
30
0
11
160
21
24
31
0
0
LINE
8
0
6
BYBLOCK
62
0
5
2759
100
AcDbEntity
100
AcDbLine
10
160
20
84.15
30
0
11
160
21
100
31
0
0
LINE
8
0
6
BYBLOCK
62
0
5
275a
100
AcDbEntity
100
AcDbLine
10
160
20
24
30
0
11
160
21
39.85
31
0
0
LINE
8
0
6
BYBLOCK
62
0
5
275b
100
AcDbEntity
100
AcDbLine
10
107
20
84.15
30
0
11
160
21
84.15
31
0
0
LINE
8
0
6
BYBLOCK
62
0
5
275c
100
AcDbEntity
100
AcDbLine
10
160
20
39.85
30
0
11
107
21
39.85
31
0
0
LINE
8
0
6
BYBLOCK
62
0
5
275d
100
AcDbEntity
100
AcDbLine
10
107
20
39.85
30
0
11
107
21
84.15
31
0
0
CIRCLE
8
0
6
BYBLOCK
62
0
5
275e
100
AcDbEntity
100
AcDbCircle
10
119.2
20
93.15
30
0
40
2
0
CIRCLE
8
0
6
BYBLOCK
62
0
5
275f
100
AcDbEntity
100
AcDbCircle
10
129.4
20
93.15
30
0
40
2
0
CIRCLE
8
0
6
BYBLOCK
62
0
5
2760
100
AcDbEntity
100
AcDbCircle
10
149.8
20
93.15
30
0
40
2
0
CIRCLE
8
0
6
BYBLOCK
62
0
5
2761
100
AcDbEntity
100
AcDbCircle
10
139.6
20
93.15
30
0
40
2
0
CIRCLE
8
0
6
BYBLOCK
62
0
5
2762
100
AcDbEntity
100
AcDbCircle
10
164
20
126.8
30
0
40
1.5
0
CIRCLE
8
0
6
BYBLOCK
62
0
5
2763
100
AcDbEntity
100
AcDbCircle
10
164
20
120.4
30
0
40
1.5
0
CIRCLE
8
0
6
BYBLOCK
62
0
5
2764
100
AcDbEntity
100
AcDbCircle
10
157.7
20
133.088
30
0
40
1.5
0
CIRCLE
8
0
6
BYBLOCK
62
0
5
2765
100
AcDbEntity
100
AcDbCircle
10
164
20
144
30
0
40
10.5
0
CIRCLE
8
0
6
BYBLOCK
62
0
5
2766
100
AcDbEntity
100
AcDbCircle
10
157.7
20
154.912
30
0
40
1.5
0
CIRCLE
8
0
6
BYBLOCK
62
0
5
2767
100
AcDbEntity
100
AcDbCircle
10
172
20
8
30
0
40
1.5
0
CIRCLE
8
0
6
BYBLOCK
62
0
5
2768
100
AcDbEntity
100
AcDbCircle
10
139.6
20
30.85
30
0
40
2
0
CIRCLE
8
0
6
BYBLOCK
62
0
5
2769
100
AcDbEntity
100
AcDbCircle
10
149.8
20
30.85
30
0
40
2
0
CIRCLE
8
0
6
BYBLOCK
62
0
5
276a
100
AcDbEntity
100
AcDbCircle
10
119
20
6
30
0
40
1.5
0
CIRCLE
8
0
6
BYBLOCK
62
0
5
276b
100
AcDbEntity
100
AcDbCircle
10
119
20
19
30
0
40
1.5
0
CIRCLE
8
0
6
BYBLOCK
62
0
5
276c
100
AcDbEntity
100
AcDbCircle
10
129.4
20
30.85
30
0
40
2
0
CIRCLE
8
0
6
BYBLOCK
62
0
5
276d
100
AcDbEntity
100
AcDbCircle
10
119.2
20
30.85
30
0
40
2
0
CIRCLE
8
0
6
BYBLOCK
62
0
5
276e
100
AcDbEntity
100
AcDbCircle
10
94
20
90
30
0
40
1.5
0
CIRCLE
8
0
6
BYBLOCK
62
0
5
276f
100
AcDbEntity
100
AcDbCircle
10
103.5
20
67
30
0
40
1.5
0
CIRCLE
8
0
6
BYBLOCK
62
0
5
2770
100
AcDbEntity
100
AcDbCircle
10
103.5
20
81
30
0
40
1.5
0
CIRCLE
8
0
6
BYBLOCK
62
0
5
2771
100
AcDbEntity
100
AcDbCircle
10
176.6
20
144
30
0
40
1.5
0
ENDBLK
5
2772
100
AcDbEntity
8
0
100
AcDbBlockEnd
0
BLOCK
5
2773
100
AcDbEntity
8
0
100
AcDbBlockBegin
2
Ortho0021
70
0
10
0
20
0
3
Ortho0021
1

0
LINE
8
0
6
BYBLOCK
62
0
5
2774
100
AcDbEntity
100
AcDbLine
10
36.7696
20
60.4207
30
0
11
34.6482
21
59.196
31
0
0
LINE
8
0
6
BYBLOCK
62
0
5
2775
100
AcDbEntity
100
AcDbLine
10
36.7696
20
76.7507
30
0
11
34.6482
21
75.5259
31
0
0
LINE
8
0
6
BYBLOCK
62
0
5
2776
100
AcDbEntity
100
AcDbLine
10
36.7696
20
60.4207
30
0
11
36.7696
21
76.7507
31
0
0
LINE
8
0
6
BYBLOCK
62
0
5
2777
100
AcDbEntity
100
AcDbLine
10
34.6482
20
59.196
30
0
11
34.6482
21
75.5259
31
0
0
LINE
8
0
6
BYBLOCK
62
0
5
2778
100
AcDbEntity
100
AcDbLine
10
36.7696
20
60.4207
30
0
11
63.6396
21
44.9073
31
0
0
LINE
8
0
6
BYBLOCK
62
0
5
2779
100
AcDbEntity
100
AcDbLine
10
34.6482
20
59.196
30
0
11
61.5183
21
43.6826
31
0
0
LINE
8
0
6
BYBLOCK
62
0
5
277a
100
AcDbEntity
100
AcDbLine
10
63.6396
20
44.9073
30
0
11
61.5183
21
43.6826
31
0
0
LINE
8
0
6
BYBLOCK
62
0
5
277b
100
AcDbEntity
100
AcDbLine
10
22.6274
20
84.9156
30
0
11
20.5061
21
83.6909
31
0
0
LINE
8
0
6
BYBLOCK
62
0
5
277c
100
AcDbEntity
100
AcDbLine
10
36.7696
20
76.7507
30
0
11
22.6274
21
84.9156
31
0
0
LINE
8
0
6
BYBLOCK
62
0
5
277d
100
AcDbEntity
100
AcDbLine
10
34.6482
20
75.5259
30
0
11
20.5061
21
83.6909
31
0
0
ELLIPSE
8
0
6
BYBLOCK
62
0
5
277e
100
AcDbEntity
100
AcDbEllipse
10
63.6396
20
-25.3114
30
0
11
-10
21
17.3205
31
0
40
0.57735
41
0.106266
42
0.785398
0
LINE
8
0
6
BYBLOCK
62
0
5
277f
100
AcDbEntity
100
AcDbLine
10
22.6274
20
117.576
30
0
11
22.6274
21
84.9156
31
0
0
LINE
8
0
6
BYBLOCK
62
0
5
2780
100
AcDbEntity
100
AcDbLine
10
49.4975
20
-28.5774
30
0
11
49.4975
21
-17.1464
31
0
0
LINE
8
0
6
BYBLOCK
62
0
5
2781
100
AcDbEntity
100
AcDbLine
10
0
20
130.639
30
0
11
22.6274
21
117.576
31
0
0
LINE
8
0
6
BYBLOCK
62
0
5
2782
100
AcDbEntity
100
AcDbLine
10
0
20
19.5959
30
0
11
12.0208
21
12.6557
31
0
0
LINE
8
0
6
BYBLOCK
62
0
5
2783
100
AcDbEntity
100
AcDbLine
10
14.1421
20
24.3724
30
0
11
49.4975
21
3.96001
31
0
0
ELLIPSE
8
0
6
BYBLOCK
62
0
5
2784
100
AcDbEntity
100
AcDbEllipse
10
11.3137
20
111.044
30
0
11
-5.25
21
9.09327
31
0
40
0.57735
41
0.203431
42
2.93816
0
LINE
8
0
6
BYBLOCK
62
0
5
2785
100
AcDbEntity
100
AcDbLine
10
61.5183
20
43.6826
30
0
11
61.5183
21
-10.2062
31
0
0
ELLIPSE
8
0
6
BYBLOCK
62
0
5
2786
100
AcDbEntity
100
AcDbEllipse
10
61.5183
20
-26.5361
30
0
11
-10
21
17.3205
31
0
40
0.57735
41
5.49779
42
6.28319
0
ELLIPSE
8
0
6
BYBLOCK
62
0
5
2787
100
AcDbEntity
100
AcDbEllipse
10
61.5183
20
-26.5361
30
0
11
-10
21
17.3205
31
0
40
0.57735
41
0
42
0.785398
0
LINE
8
0
6
BYBLOCK
62
0
5
2788
100
AcDbEntity
100
AcDbLine
10
20.5061
20
116.351
30
0
11
20.5061
21
83.6909
31
0
0
LINE
8
0
6
BYBLOCK
62
0
5
2789
100
AcDbEntity
100
AcDbLine
10
47.3762
20
-29.8021
30
0
11
47.3762
21
-18.3712
31
0
0
LINE
8
0
6
BYBLOCK
62
0
5
278a
100
AcDbEntity
100
AcDbLine
10
-2.12132
20
129.415
30
0
11
20.5061
21
116.351
31
0
0
LINE
8
0
6
BYBLOCK
62
0
5
278b
100
AcDbEntity
100
AcDbLine
10
-2.12132
20
-1.22474
30
0
11
47.3762
21
-29.8021
31
0
0
LINE
8
0
6
BYBLOCK
62
0
5
278c
100
AcDbEntity
100
AcDbLine
10
-2.12132
20
80.4249
30
0
11
-2.12132
21
129.415
31
0
0
LINE
8
0
6
BYBLOCK
62
0
5
278d
100
AcDbEntity
100
AcDbLine
10
-2.12132
20
-1.22474
30
0
11
-2.12132
21
18.3712
31
0
0
LINE
8
0
6
BYBLOCK
62
0
5
278e
100
AcDbEntity
100
AcDbLine
10
12.0208
20
72.2599
30
0
11
-2.12132
21
80.4249
31
0
0
LINE
8
0
6
BYBLOCK
62
0
5
278f
100
AcDbEntity
100
AcDbLine
10
-2.12132
20
18.3712
30
0
11
12.0208
21
10.2062
31
0
0
LINE
8
0
6
BYBLOCK
62
0
5
2790
100
AcDbEntity
100
AcDbLine
10
12.0208
20
59.3185
30
0
11
12.0208
21
72.2599
31
0
0
LINE
8
0
6
BYBLOCK
62
0
5
2791
100
AcDbEntity
100
AcDbLine
10
12.0208
20
10.2062
30
0
11
12.0208
21
23.1477
31
0
0
LINE
8
0
6
BYBLOCK
62
0
5
2792
100
AcDbEntity
100
AcDbLine
10
49.4975
20
37.6813
30
0
11
12.0208
21
59.3185
31
0
0
LINE
8
0
6
BYBLOCK
62
0
5
2793
100
AcDbEntity
100
AcDbLine
10
12.0208
20
23.1477
30
0
11
49.4975
21
1.51052
31
0
0
LINE
8
0
6
BYBLOCK
62
0
5
2794
100
AcDbEntity
100
AcDbLine
10
49.4975
20
1.51052
30
0
11
49.4975
21
37.6813
31
0
0
ELLIPSE
8
0
6
BYBLOCK
62
0
5
2795
100
AcDbEntity
100
AcDbEllipse
10
40.8708
20
50.0104
30
0
11
-1
21
1.73205
31
0
40
0.57735
41
3.92699
42
6.28319
0
ELLIPSE
8
0
6
BYBLOCK
62
0
5
2796
100
AcDbEntity
100
AcDbEllipse
10
40.8708
20
50.0104
30
0
11
-1
21
1.73205
31
0
40
0.57735
41
0
42
3.14159
0
ELLIPSE
8
0
6
BYBLOCK
62
0
5
2797
100
AcDbEntity
100
AcDbEllipse
10
40.8708
20
50.0104
30
0
11
-1
21
1.73205
31
0
40
0.57735
41
3.14159
42
3.92699
0
ELLIPSE
8
0
6
BYBLOCK
62
0
5
2798
100
AcDbEntity
100
AcDbEllipse
10
33.6583
20
54.1745
30
0
11
-1
21
1.73205
31
0
40
0.57735
41
3.92699
42
6.28319
0
ELLIPSE
8
0
6
BYBLOCK
62
0
5
2799
100
AcDbEntity
100
AcDbEllipse
10
33.6583
20
54.1745
30
0
11
-1
21
1.73205
31
0
40
0.57735
41
0
42
3.14159
0
ELLIPSE
8
0
6
BYBLOCK
62
0
5
279a
100
AcDbEntity
100
AcDbEllipse
10
33.6583
20
54.1745
30
0
11
-1
21
1.73205
31
0
40
0.57735
41
3.14159
42
3.92699
0
ELLIPSE
8
0
6
BYBLOCK
62
0
5
279b
100
AcDbEntity
100
AcDbEllipse
10
19.2333
20
62.5028
30
0
11
-1
21
1.73205
31
0
40
0.57735
41
3.92699
42
6.28319
0
ELLIPSE
8
0
6
BYBLOCK
62
0
5
279c
100
AcDbEntity
100
AcDbEllipse
10
19.2333
20
62.5028
30
0
11
-1
21
1.73205
31
0
40
0.57735
41
0
42
3.14159
0
ELLIPSE
8
0
6
BYBLOCK
62
0
5
279d
100
AcDbEntity
100
AcDbEllipse
10
19.2333
20
62.5028
30
0
11
-1
21
1.73205
31
0
40
0.57735
41
3.14159
42
3.92699
0
ELLIPSE
8
0
6
BYBLOCK
62
0
5
279e
100
AcDbEntity
100
AcDbEllipse
10
26.4458
20
58.3387
30
0
11
-1
21
1.73205
31
0
40
0.57735
41
3.92699
42
6.28319
0
ELLIPSE
8
0
6
BYBLOCK
62
0
5
279f
100
AcDbEntity
100
AcDbEllipse
10
26.4458
20
58.3387
30
0
11
-1
21
1.73205
31
0
40
0.57735
41
0
42
3.14159
0
ELLIPSE
8
0
6
BYBLOCK
62
0
5
27a0
100
AcDbEntity
100
AcDbEllipse
10
26.4458
20
58.3387
30
0
11
-1
21
1.73205
31
0
40
0.57735
41
3.14159
42
3.92699
0
ELLIPSE
8
0
6
BYBLOCK
62
0
5
27a1
100
AcDbEntity
100
AcDbEllipse
10
9.19239
20
95.775
30
0
11
-0.75
21
1.29904
31
0
40
0.57735
41
3.92699
42
6.28319
0
ELLIPSE
8
0
6
BYBLOCK
62
0
5
27a2
100
AcDbEntity
100
AcDbEllipse
10
9.19239
20
95.775
30
0
11
-0.75
21
1.29904
31
0
40
0.57735
41
0
42
3.14159
0
ELLIPSE
8
0
6
BYBLOCK
62
0
5
27a3
100
AcDbEntity
100
AcDbEllipse
10
9.19239
20
95.775
30
0
11
-0.75
21
1.29904
31
0
40
0.57735
41
3.14159
42
3.92699
0
ELLIPSE
8
0
6
BYBLOCK
62
0
5
27a4
100
AcDbEntity
100
AcDbEllipse
10
9.19239
20
90.5495
30
0
11
-0.75
21
1.29904
31
0
40
0.57735
41
3.92699
42
6.28319
0
ELLIPSE
8
0
6
BYBLOCK
62
0
5
27a5
100
AcDbEntity
100
AcDbEllipse
10
9.19239
20
90.5495
30
0
11
-0.75
21
1.29904
31
0
40
0.57735
41
0
42
3.14159
0
ELLIPSE
8
0
6
BYBLOCK
62
0
5
27a6
100
AcDbEntity
100
AcDbEllipse
10
9.19239
20
90.5495
30
0
11
-0.75
21
1.29904
31
0
40
0.57735
41
3.14159
42
3.92699
0
ELLIPSE
8
0
6
BYBLOCK
62
0
5
27a7
100
AcDbEntity
100
AcDbEllipse
10
13.6472
20
98.3373
30
0
11
-0.75
21
1.29904
31
0
40
0.57735
41
3.92699
42
6.28319
0
ELLIPSE
8
0
6
BYBLOCK
62
0
5
27a8
100
AcDbEntity
100
AcDbEllipse
10
13.6472
20
98.3373
30
0
11
-0.75
21
1.29904
31
0
40
0.57735
41
0
42
3.14159
0
ELLIPSE
8
0
6
BYBLOCK
62
0
5
27a9
100
AcDbEntity
100
AcDbEllipse
10
13.6472
20
98.3373
30
0
11
-0.75
21
1.29904
31
0
40
0.57735
41
3.14159
42
3.92699
0
ELLIPSE
8
0
6
BYBLOCK
62
0
5
27aa
100
AcDbEntity
100
AcDbEllipse
10
9.19239
20
109.819
30
0
11
-5.25
21
9.09327
31
0
40
0.57735
41
3.92699
42
6.28319
0
ELLIPSE
8
0
6
BYBLOCK
62
0
5
27ab
100
AcDbEntity
100
AcDbEllipse
10
9.19239
20
109.819
30
0
11
-5.25
21
9.09327
31
0
40
0.57735
41
0
42
3.14159
0
ELLIPSE
8
0
6
BYBLOCK
62
0
5
27ac
100
AcDbEntity
100
AcDbEllipse
10
9.19239
20
109.819
30
0
11
-5.25
21
9.09327
31
0
40
0.57735
41
3.14159
42
3.92699
0
ELLIPSE
8
0
6
BYBLOCK
62
0
5
27ad
100
AcDbEntity
100
AcDbEllipse
10
13.6472
20
116.156
30
0
11
-0.75
21
1.29904
31
0
40
0.57735
41
3.92699
42
6.28319
0
ELLIPSE
8
0
6
BYBLOCK
62
0
5
27ae
100
AcDbEntity
100
AcDbEllipse
10
13.6472
20
116.156
30
0
11
-0.75
21
1.29904
31
0
40
0.57735
41
0
42
3.14159
0
ELLIPSE
8
0
6
BYBLOCK
62
0
5
27af
100
AcDbEntity
100
AcDbEllipse
10
13.6472
20
116.156
30
0
11
-0.75
21
1.29904
31
0
40
0.57735
41
3.14159
42
3.92699
0
ELLIPSE
8
0
6
BYBLOCK
62
0
5
27b0
100
AcDbEntity
100
AcDbEllipse
10
3.53553
20
2.04124
30
0
11
-0.75
21
1.29904
31
0
40
0.57735
41
3.92699
42
6.28319
0
ELLIPSE
8
0
6
BYBLOCK
62
0
5
27b1
100
AcDbEntity
100
AcDbEllipse
10
3.53553
20
2.04124
30
0
11
-0.75
21
1.29904
31
0
40
0.57735
41
0
42
3.14159
0
ELLIPSE
8
0
6
BYBLOCK
62
0
5
27b2
100
AcDbEntity
100
AcDbEllipse
10
3.53553
20
2.04124
30
0
11
-0.75
21
1.29904
31
0
40
0.57735
41
3.14159
42
3.92699
0
ELLIPSE
8
0
6
BYBLOCK
62
0
5
27b3
100
AcDbEntity
100
AcDbEllipse
10
26.4458
20
7.47094
30
0
11
-1
21
1.73205
31
0
40
0.57735
41
3.92699
42
6.28319
0
ELLIPSE
8
0
6
BYBLOCK
62
0
5
27b4
100
AcDbEntity
100
AcDbEllipse
10
26.4458
20
7.47094
30
0
11
-1
21
1.73205
31
0
40
0.57735
41
0
42
3.14159
0
ELLIPSE
8
0
6
BYBLOCK
62
0
5
27b5
100
AcDbEntity
100
AcDbEllipse
10
26.4458
20
7.47094
30
0
11
-1
21
1.73205
31
0
40
0.57735
41
3.14159
42
3.92699
0
ELLIPSE
8
0
6
BYBLOCK
62
0
5
27b6
100
AcDbEntity
100
AcDbEllipse
10
19.2333
20
11.6351
30
0
11
-1
21
1.73205
31
0
40
0.57735
41
3.92699
42
6.28319
0
ELLIPSE
8
0
6
BYBLOCK
62
0
5
27b7
100
AcDbEntity
100
AcDbEllipse
10
19.2333
20
11.6351
30
0
11
-1
21
1.73205
31
0
40
0.57735
41
0
42
3.14159
0
ELLIPSE
8
0
6
BYBLOCK
62
0
5
27b8
100
AcDbEntity
100
AcDbEllipse
10
19.2333
20
11.6351
30
0
11
-1
21
1.73205
31
0
40
0.57735
41
3.14159
42
3.92699
0
ELLIPSE
8
0
6
BYBLOCK
62
0
5
27b9
100
AcDbEntity
100
AcDbEllipse
10
41.0122
20
-21.2289
30
0
11
-0.75
21
1.29904
31
0
40
0.57735
41
3.92699
42
6.28319
0
ELLIPSE
8
0
6
BYBLOCK
62
0
5
27ba
100
AcDbEntity
100
AcDbEllipse
10
41.0122
20
-21.2289
30
0
11
-0.75
21
1.29904
31
0
40
0.57735
41
0
42
3.14159
0
ELLIPSE
8
0
6
BYBLOCK
62
0
5
27bb
100
AcDbEntity
100
AcDbEllipse
10
41.0122
20
-21.2289
30
0
11
-0.75
21
1.29904
31
0
40
0.57735
41
3.14159
42
3.92699
0
ELLIPSE
8
0
6
BYBLOCK
62
0
5
27bc
100
AcDbEntity
100
AcDbEllipse
10
41.0122
20
-10.6145
30
0
11
-0.75
21
1.29904
31
0
40
0.57735
41
3.92699
42
6.28319
0
ELLIPSE
8
0
6
BYBLOCK
62
0
5
27bd
100
AcDbEntity
100
AcDbEllipse
10
41.0122
20
-10.6145
30
0
11
-0.75
21
1.29904
31
0
40
0.57735
41
0
42
3.14159
0
ELLIPSE
8
0
6
BYBLOCK
62
0
5
27be
100
AcDbEntity
100
AcDbEllipse
10
41.0122
20
-10.6145
30
0
11
-0.75
21
1.29904
31
0
40
0.57735
41
3.14159
42
3.92699
0
ELLIPSE
8
0
6
BYBLOCK
62
0
5
27bf
100
AcDbEntity
100
AcDbEllipse
10
33.6583
20
3.30681
30
0
11
-1
21
1.73205
31
0
40
0.57735
41
3.92699
42
6.28319
0
ELLIPSE
8
0
6
BYBLOCK
62
0
5
27c0
100
AcDbEntity
100
AcDbEllipse
10
33.6583
20
3.30681
30
0
11
-1
21
1.73205
31
0
40
0.57735
41
0
42
3.14159
0
ELLIPSE
8
0
6
BYBLOCK
62
0
5
27c1
100
AcDbEntity
100
AcDbEllipse
10
33.6583
20
3.30681
30
0
11
-1
21
1.73205
31
0
40
0.57735
41
3.14159
42
3.92699
0
ELLIPSE
8
0
6
BYBLOCK
62
0
5
27c2
100
AcDbEntity
100
AcDbEllipse
10
40.8708
20
-0.857321
30
0
11
-1
21
1.73205
31
0
40
0.57735
41
3.92699
42
6.28319
0
ELLIPSE
8
0
6
BYBLOCK
62
0
5
27c3
100
AcDbEntity
100
AcDbEllipse
10
40.8708
20
-0.857321
30
0
11
-1
21
1.73205
31
0
40
0.57735
41
0
42
3.14159
0
ELLIPSE
8
0
6
BYBLOCK
62
0
5
27c4
100
AcDbEntity
100
AcDbEllipse
10
40.8708
20
-0.857321
30
0
11
-1
21
1.73205
31
0
40
0.57735
41
3.14159
42
3.92699
0
ELLIPSE
8
0
6
BYBLOCK
62
0
5
27c5
100
AcDbEntity
100
AcDbEllipse
10
58.6899
20
37.1506
30
0
11
-0.75
21
1.29904
31
0
40
0.57735
41
3.92699
42
6.28319
0
ELLIPSE
8
0
6
BYBLOCK
62
0
5
27c6
100
AcDbEntity
100
AcDbEllipse
10
58.6899
20
37.1506
30
0
11
-0.75
21
1.29904
31
0
40
0.57735
41
0
42
3.14159
0
ELLIPSE
8
0
6
BYBLOCK
62
0
5
27c7
100
AcDbEntity
100
AcDbEllipse
10
58.6899
20
37.1506
30
0
11
-0.75
21
1.29904
31
0
40
0.57735
41
3.14159
42
3.92699
0
ELLIPSE
8
0
6
BYBLOCK
62
0
5
27c8
100
AcDbEntity
100
AcDbEllipse
10
51.9723
20
22.2495
30
0
11
-0.75
21
1.29904
31
0
40
0.57735
41
3.92699
42
6.28319
0
ELLIPSE
8
0
6
BYBLOCK
62
0
5
27c9
100
AcDbEntity
100
AcDbEllipse
10
51.9723
20
22.2495
30
0
11
-0.75
21
1.29904
31
0
40
0.57735
41
0
42
3.14159
0
ELLIPSE
8
0
6
BYBLOCK
62
0
5
27ca
100
AcDbEntity
100
AcDbEllipse
10
51.9723
20
22.2495
30
0
11
-0.75
21
1.29904
31
0
40
0.57735
41
3.14159
42
3.92699
0
ELLIPSE
8
0
6
BYBLOCK
62
0
5
27cb
100
AcDbEntity
100
AcDbEllipse
10
51.9723
20
33.6805
30
0
11
-0.75
21
1.29904
31
0
40
0.57735
41
3.92699
42
6.28319
0
ELLIPSE
8
0
6
BYBLOCK
62
0
5
27cc
100
AcDbEntity
100
AcDbEllipse
10
51.9723
20
33.6805
30
0
11
-0.75
21
1.29904
31
0
40
0.57735
41
0
42
3.14159
0
ELLIPSE
8
0
6
BYBLOCK
62
0
5
27cd
100
AcDbEntity
100
AcDbEllipse
10
51.9723
20
33.6805
30
0
11
-0.75
21
1.29904
31
0
40
0.57735
41
3.14159
42
3.92699
0
ELLIPSE
8
0
6
BYBLOCK
62
0
5
27ce
100
AcDbEntity
100
AcDbEllipse
10
0.282843
20
114.963
30
0
11
-0.75
21
1.29904
31
0
40
0.57735
41
3.92699
42
6.28319
0
ELLIPSE
8
0
6
BYBLOCK
62
0
5
27cf
100
AcDbEntity
100
AcDbEllipse
10
0.282843
20
114.963
30
0
11
-0.75
21
1.29904
31
0
40
0.57735
41
0
42
3.14159
0
ELLIPSE
8
0
6
BYBLOCK
62
0
5
27d0
100
AcDbEntity
100
AcDbEllipse
10
0.282843
20
114.963
30
0
11
-0.75
21
1.29904
31
0
40
0.57735
41
3.14159
42
3.92699
0
LINE
8
0
6
BYBLOCK
62
0
5
27d1
100
AcDbEntity
100
AcDbLine
10
88.3883
20
30.6186
30
0
11
63.6396
21
44.9073
31
0
0
LINE
8
0
6
BYBLOCK
62
0
5
27d2
100
AcDbEntity
100
AcDbLine
10
88.3883
20
28.1691
30
0
11
61.5183
21
43.6826
31
0
0
LINE
8
0
6
BYBLOCK
62
0
5
27d3
100
AcDbEntity
100
AcDbLine
10
22.6274
20
117.576
30
0
11
20.5061
21
116.351
31
0
0
LINE
8
0
6
BYBLOCK
62
0
5
27d4
100
AcDbEntity
100
AcDbLine
10
90.5097
20
45.7238
30
0
11
102.53
21
38.7836
31
0
0
LINE
8
0
6
BYBLOCK
62
0
5
27d5
100
AcDbEntity
100
AcDbLine
10
127.279
20
57.1548
30
0
11
104.652
21
70.2187
31
0
0
LINE
8
0
6
BYBLOCK
62
0
5
27d6
100
AcDbEntity
100
AcDbLine
10
127.279
20
8.16497
30
0
11
127.279
21
57.1548
31
0
0
LINE
8
0
6
BYBLOCK
62
0
5
27d7
100
AcDbEntity
100
AcDbLine
10
127.279
20
-73.4847
30
0
11
127.279
21
-53.8888
31
0
0
LINE
8
0
6
BYBLOCK
62
0
5
27d8
100
AcDbEntity
100
AcDbLine
10
127.279
20
-53.8888
30
0
11
113.137
21
-45.7238
31
0
0
LINE
8
0
6
BYBLOCK
62
0
5
27d9
100
AcDbEntity
100
AcDbLine
10
113.137
20
3.38846
30
0
11
113.137
21
13.8804
31
0
0
LINE
8
0
6
BYBLOCK
62
0
5
27da
100
AcDbEntity
100
AcDbLine
10
113.137
20
-45.7238
30
0
11
113.137
21
-32.7823
31
0
0
LINE
8
0
6
BYBLOCK
62
0
5
27db
100
AcDbEntity
100
AcDbLine
10
113.137
20
-32.7823
30
0
11
75.6604
21
-11.1452
31
0
0
LINE
8
0
6
BYBLOCK
62
0
5
27dc
100
AcDbEntity
100
AcDbLine
10
75.6604
20
-11.1452
30
0
11
75.6604
21
22.5761
31
0
0
ELLIPSE
8
0
6
BYBLOCK
62
0
5
27dd
100
AcDbEntity
100
AcDbEllipse
10
115.966
20
50.6228
30
0
11
5.25
21
-9.09327
31
0
40
0.57735
41
2.93816
42
2.35619
0
ELLIPSE
8
0
6
BYBLOCK
62
0
5
27de
100
AcDbEntity
100
AcDbEllipse
10
115.966
20
50.6228
30
0
11
5.25
21
-9.09327
31
0
40
0.57735
41
2.35619
42
0.203431
0
LINE
8
0
6
BYBLOCK
62
0
5
27df
100
AcDbEntity
100
AcDbLine
10
49.4975
20
-28.5774
30
0
11
47.3762
21
-29.8021
31
0
0
LINE
8
0
6
BYBLOCK
62
0
5
27e0
100
AcDbEntity
100
AcDbLine
10
0
20
130.639
30
0
11
-2.12132
21
129.415
31
0
0
LINE
8
0
6
BYBLOCK
62
0
5
27e1
100
AcDbEntity
100
AcDbLine
10
0
20
19.5959
30
0
11
-2.12132
21
18.3712
31
0
0
LINE
8
0
6
BYBLOCK
62
0
5
27e2
100
AcDbEntity
100
AcDbLine
10
14.1421
20
24.3724
30
0
11
12.0208
21
23.1477
31
0
0
LINE
8
0
6
BYBLOCK
62
0
5
27e3
100
AcDbEntity
100
AcDbLine
10
88.3883
20
28.1691
30
0
11
88.3883
21
44.4991
31
0
0
LINE
8
0
6
BYBLOCK
62
0
5
27e4
100
AcDbEntity
100
AcDbLine
10
88.3883
20
44.4991
30
0
11
102.53
21
36.3341
31
0
0
ELLIPSE
8
0
6
BYBLOCK
62
0
5
27e5
100
AcDbEntity
100
AcDbEllipse
10
61.5183
20
-26.5361
30
0
11
10
21
-17.3205
31
0
40
0.57735
41
5.49779
42
3.92699
0
LINE
8
0
6
BYBLOCK
62
0
5
27e6
100
AcDbEntity
100
AcDbLine
10
102.53
20
68.994
30
0
11
102.53
21
36.3341
31
0
0
LINE
8
0
6
BYBLOCK
62
0
5
27e7
100
AcDbEntity
100
AcDbLine
10
75.6604
20
-46.1321
30
0
11
75.6604
21
-34.7011
31
0
0
LINE
8
0
6
BYBLOCK
62
0
5
27e8
100
AcDbEntity
100
AcDbLine
10
125.158
20
55.93
30
0
11
102.53
21
68.994
31
0
0
LINE
8
0
6
BYBLOCK
62
0
5
27e9
100
AcDbEntity
100
AcDbLine
10
125.158
20
-74.7094
30
0
11
75.6604
21
-46.1321
31
0
0
LINE
8
0
6
BYBLOCK
62
0
5
27ea
100
AcDbEntity
100
AcDbLine
10
125.158
20
6.94022
30
0
11
125.158
21
55.93
31
0
0
LINE
8
0
6
BYBLOCK
62
0
5
27eb
100
AcDbEntity
100
AcDbLine
10
125.158
20
-74.7094
30
0
11
125.158
21
-55.1135
31
0
0
LINE
8
0
6
BYBLOCK
62
0
5
27ec
100
AcDbEntity
100
AcDbLine
10
111.016
20
15.1052
30
0
11
125.158
21
6.94022
31
0
0
LINE
8
0
6
BYBLOCK
62
0
5
27ed
100
AcDbEntity
100
AcDbLine
10
125.158
20
-55.1135
30
0
11
111.016
21
-46.9486
31
0
0
LINE
8
0
6
BYBLOCK
62
0
5
27ee
100
AcDbEntity
100
AcDbLine
10
111.016
20
2.16372
30
0
11
111.016
21
15.1052
31
0
0
LINE
8
0
6
BYBLOCK
62
0
5
27ef
100
AcDbEntity
100
AcDbLine
10
111.016
20
-46.9486
30
0
11
111.016
21
-34.0071
31
0
0
LINE
8
0
6
BYBLOCK
62
0
5
27f0
100
AcDbEntity
100
AcDbLine
10
73.5391
20
23.8009
30
0
11
111.016
21
2.16372
31
0
0
LINE
8
0
6
BYBLOCK
62
0
5
27f1
100
AcDbEntity
100
AcDbLine
10
111.016
20
-34.0071
30
0
11
73.5391
21
-12.3699
31
0
0
LINE
8
0
6
BYBLOCK
62
0
5
27f2
100
AcDbEntity
100
AcDbLine
10
73.5391
20
-12.3699
30
0
11
73.5391
21
23.8009
31
0
0
ELLIPSE
8
0
6
BYBLOCK
62
0
5
27f3
100
AcDbEntity
100
AcDbEllipse
10
82.1658
20
26.1687
30
0
11
1
21
-1.73205
31
0
40
0.57735
41
3.14159
42
2.35619
0
ELLIPSE
8
0
6
BYBLOCK
62
0
5
27f4
100
AcDbEntity
100
AcDbEllipse
10
82.1658
20
26.1687
30
0
11
1
21
-1.73205
31
0
40
0.57735
41
6.28319
42
3.14159
0
ELLIPSE
8
0
6
BYBLOCK
62
0
5
27f5
100
AcDbEntity
100
AcDbEllipse
10
82.1658
20
26.1687
30
0
11
1
21
-1.73205
31
0
40
0.57735
41
2.35619
42
0
0
ELLIPSE
8
0
6
BYBLOCK
62
0
5
27f6
100
AcDbEntity
100
AcDbEllipse
10
89.3783
20
22.0046
30
0
11
1
21
-1.73205
31
0
40
0.57735
41
3.14159
42
2.35619
0
ELLIPSE
8
0
6
BYBLOCK
62
0
5
27f7
100
AcDbEntity
100
AcDbEllipse
10
89.3783
20
22.0046
30
0
11
1
21
-1.73205
31
0
40
0.57735
41
6.28319
42
3.14159
0
ELLIPSE
8
0
6
BYBLOCK
62
0
5
27f8
100
AcDbEntity
100
AcDbEllipse
10
89.3783
20
22.0046
30
0
11
1
21
-1.73205
31
0
40
0.57735
41
2.35619
42
0
0
ELLIPSE
8
0
6
BYBLOCK
62
0
5
27f9
100
AcDbEntity
100
AcDbEllipse
10
103.803
20
13.6763
30
0
11
1
21
-1.73205
31
0
40
0.57735
41
3.14159
42
2.35619
0
ELLIPSE
8
0
6
BYBLOCK
62
0
5
27fa
100
AcDbEntity
100
AcDbEllipse
10
103.803
20
13.6763
30
0
11
1
21
-1.73205
31
0
40
0.57735
41
6.28319
42
3.14159
0
ELLIPSE
8
0
6
BYBLOCK
62
0
5
27fb
100
AcDbEntity
100
AcDbEllipse
10
103.803
20
13.6763
30
0
11
1
21
-1.73205
31
0
40
0.57735
41
2.35619
42
0
0
ELLIPSE
8
0
6
BYBLOCK
62
0
5
27fc
100
AcDbEntity
100
AcDbEllipse
10
96.5908
20
17.8405
30
0
11
1
21
-1.73205
31
0
40
0.57735
41
3.14159
42
2.35619
0
ELLIPSE
8
0
6
BYBLOCK
62
0
5
27fd
100
AcDbEntity
100
AcDbEllipse
10
96.5908
20
17.8405
30
0
11
1
21
-1.73205
31
0
40
0.57735
41
6.28319
42
3.14159
0
ELLIPSE
8
0
6
BYBLOCK
62
0
5
27fe
100
AcDbEntity
100
AcDbEllipse
10
96.5908
20
17.8405
30
0
11
1
21
-1.73205
31
0
40
0.57735
41
2.35619
42
0
0
ELLIPSE
8
0
6
BYBLOCK
62
0
5
27ff
100
AcDbEntity
100
AcDbEllipse
10
113.844
20
35.3543
30
0
11
0.75
21
-1.29904
31
0
40
0.57735
41
3.14159
42
2.35619
0
ELLIPSE
8
0
6
BYBLOCK
62
0
5
2800
100
AcDbEntity
100
AcDbEllipse
10
113.844
20
35.3543
30
0
11
0.75
21
-1.29904
31
0
40
0.57735
41
6.28319
42
3.14159
0
ELLIPSE
8
0
6
BYBLOCK
62
0
5
2801
100
AcDbEntity
100
AcDbEllipse
10
113.844
20
35.3543
30
0
11
0.75
21
-1.29904
31
0
40
0.57735
41
2.35619
42
0
0
ELLIPSE
8
0
6
BYBLOCK
62
0
5
2802
100
AcDbEntity
100
AcDbEllipse
10
113.844
20
30.1287
30
0
11
0.75
21
-1.29904
31
0
40
0.57735
41
3.14159
42
2.35619
0
ELLIPSE
8
0
6
BYBLOCK
62
0
5
2803
100
AcDbEntity
100
AcDbEllipse
10
113.844
20
30.1287
30
0
11
0.75
21
-1.29904
31
0
40
0.57735
41
6.28319
42
3.14159
0
ELLIPSE
8
0
6
BYBLOCK
62
0
5
2804
100
AcDbEntity
100
AcDbEllipse
10
113.844
20
30.1287
30
0
11
0.75
21
-1.29904
31
0
40
0.57735
41
2.35619
42
0
0
ELLIPSE
8
0
6
BYBLOCK
62
0
5
2805
100
AcDbEntity
100
AcDbEllipse
10
109.389
20
43.0605
30
0
11
0.75
21
-1.29904
31
0
40
0.57735
41
3.14159
42
2.35619
0
ELLIPSE
8
0
6
BYBLOCK
62
0
5
2806
100
AcDbEntity
100
AcDbEllipse
10
109.389
20
43.0605
30
0
11
0.75
21
-1.29904
31
0
40
0.57735
41
6.28319
42
3.14159
0
ELLIPSE
8
0
6
BYBLOCK
62
0
5
2807
100
AcDbEntity
100
AcDbEllipse
10
109.389
20
43.0605
30
0
11
0.75
21
-1.29904
31
0
40
0.57735
41
2.35619
42
0
0
ELLIPSE
8
0
6
BYBLOCK
62
0
5
2808
100
AcDbEntity
100
AcDbEllipse
10
113.844
20
49.398
30
0
11
5.25
21
-9.09327
31
0
40
0.57735
41
3.14159
42
2.35619
0
ELLIPSE
8
0
6
BYBLOCK
62
0
5
2809
100
AcDbEntity
100
AcDbEllipse
10
113.844
20
49.398
30
0
11
5.25
21
-9.09327
31
0
40
0.57735
41
6.28319
42
3.14159
0
ELLIPSE
8
0
6
BYBLOCK
62
0
5
280a
100
AcDbEntity
100
AcDbEllipse
10
113.844
20
49.398
30
0
11
5.25
21
-9.09327
31
0
40
0.57735
41
2.35619
42
0
0
ELLIPSE
8
0
6
BYBLOCK
62
0
5
280b
100
AcDbEntity
100
AcDbEllipse
10
109.389
20
60.8796
30
0
11
0.75
21
-1.29904
31
0
40
0.57735
41
3.14159
42
2.35619
0
ELLIPSE
8
0
6
BYBLOCK
62
0
5
280c
100
AcDbEntity
100
AcDbEllipse
10
109.389
20
60.8796
30
0
11
0.75
21
-1.29904
31
0
40
0.57735
41
6.28319
42
3.14159
0
ELLIPSE
8
0
6
BYBLOCK
62
0
5
280d
100
AcDbEntity
100
AcDbEllipse
10
109.389
20
60.8796
30
0
11
0.75
21
-1.29904
31
0
40
0.57735
41
2.35619
42
0
0
ELLIPSE
8
0
6
BYBLOCK
62
0
5
280e
100
AcDbEntity
100
AcDbEllipse
10
119.501
20
-64.9115
30
0
11
0.75
21
-1.29904
31
0
40
0.57735
41
3.14159
42
2.35619
0
ELLIPSE
8
0
6
BYBLOCK
62
0
5
280f
100
AcDbEntity
100
AcDbEllipse
10
119.501
20
-64.9115
30
0
11
0.75
21
-1.29904
31
0
40
0.57735
41
6.28319
42
3.14159
0
ELLIPSE
8
0
6
BYBLOCK
62
0
5
2810
100
AcDbEntity
100
AcDbEllipse
10
119.501
20
-64.9115
30
0
11
0.75
21
-1.29904
31
0
40
0.57735
41
2.35619
42
0
0
ELLIPSE
8
0
6
BYBLOCK
62
0
5
2811
100
AcDbEntity
100
AcDbEllipse
10
96.5908
20
-33.0273
30
0
11
1
21
-1.73205
31
0
40
0.57735
41
3.14159
42
2.35619
0
ELLIPSE
8
0
6
BYBLOCK
62
0
5
2812
100
AcDbEntity
100
AcDbEllipse
10
96.5908
20
-33.0273
30
0
11
1
21
-1.73205
31
0
40
0.57735
41
6.28319
42
3.14159
0
ELLIPSE
8
0
6
BYBLOCK
62
0
5
2813
100
AcDbEntity
100
AcDbEllipse
10
96.5908
20
-33.0273
30
0
11
1
21
-1.73205
31
0
40
0.57735
41
2.35619
42
0
0
ELLIPSE
8
0
6
BYBLOCK
62
0
5
2814
100
AcDbEntity
100
AcDbEllipse
10
103.803
20
-37.1914
30
0
11
1
21
-1.73205
31
0
40
0.57735
41
3.14159
42
2.35619
0
ELLIPSE
8
0
6
BYBLOCK
62
0
5
2815
100
AcDbEntity
100
AcDbEllipse
10
103.803
20
-37.1914
30
0
11
1
21
-1.73205
31
0
40
0.57735
41
6.28319
42
3.14159
0
ELLIPSE
8
0
6
BYBLOCK
62
0
5
2816
100
AcDbEntity
100
AcDbEllipse
10
103.803
20
-37.1914
30
0
11
1
21
-1.73205
31
0
40
0.57735
41
2.35619
42
0
0
ELLIPSE
8
0
6
BYBLOCK
62
0
5
2817
100
AcDbEntity
100
AcDbEllipse
10
82.0244
20
-44.9073
30
0
11
0.75
21
-1.29904
31
0
40
0.57735
41
3.14159
42
2.35619
0
ELLIPSE
8
0
6
BYBLOCK
62
0
5
2818
100
AcDbEntity
100
AcDbEllipse
10
82.0244
20
-44.9073
30
0
11
0.75
21
-1.29904
31
0
40
0.57735
41
6.28319
42
3.14159
0
ELLIPSE
8
0
6
BYBLOCK
62
0
5
2819
100
AcDbEntity
100
AcDbEllipse
10
82.0244
20
-44.9073
30
0
11
0.75
21
-1.29904
31
0
40
0.57735
41
2.35619
42
0
0
ELLIPSE
8
0
6
BYBLOCK
62
0
5
281a
100
AcDbEntity
100
AcDbEllipse
10
82.0244
20
-34.2929
30
0
11
0.75
21
-1.29904
31
0
40
0.57735
41
3.14159
42
2.35619
0
ELLIPSE
8
0
6
BYBLOCK
62
0
5
281b
100
AcDbEntity
100
AcDbEllipse
10
82.0244
20
-34.2929
30
0
11
0.75
21
-1.29904
31
0
40
0.57735
41
6.28319
42
3.14159
0
ELLIPSE
8
0
6
BYBLOCK
62
0
5
281c
100
AcDbEntity
100
AcDbEllipse
10
82.0244
20
-34.2929
30
0
11
0.75
21
-1.29904
31
0
40
0.57735
41
2.35619
42
0
0
ELLIPSE
8
0
6
BYBLOCK
62
0
5
281d
100
AcDbEntity
100
AcDbEllipse
10
89.3783
20
-28.8632
30
0
11
1
21
-1.73205
31
0
40
0.57735
41
3.14159
42
2.35619
0
ELLIPSE
8
0
6
BYBLOCK
62
0
5
281e
100
AcDbEntity
100
AcDbEllipse
10
89.3783
20
-28.8632
30
0
11
1
21
-1.73205
31
0
40
0.57735
41
6.28319
42
3.14159
0
ELLIPSE
8
0
6
BYBLOCK
62
0
5
281f
100
AcDbEntity
100
AcDbEllipse
10
89.3783
20
-28.8632
30
0
11
1
21
-1.73205
31
0
40
0.57735
41
2.35619
42
0
0
ELLIPSE
8
0
6
BYBLOCK
62
0
5
2820
100
AcDbEntity
100
AcDbEllipse
10
82.1658
20
-24.699
30
0
11
1
21
-1.73205
31
0
40
0.57735
41
3.14159
42
2.35619
0
ELLIPSE
8
0
6
BYBLOCK
62
0
5
2821
100
AcDbEntity
100
AcDbEllipse
10
82.1658
20
-24.699
30
0
11
1
21
-1.73205
31
0
40
0.57735
41
6.28319
42
3.14159
0
ELLIPSE
8
0
6
BYBLOCK
62
0
5
2822
100
AcDbEntity
100
AcDbEllipse
10
82.1658
20
-24.699
30
0
11
1
21
-1.73205
31
0
40
0.57735
41
2.35619
42
0
0
ELLIPSE
8
0
6
BYBLOCK
62
0
5
2823
100
AcDbEntity
100
AcDbEllipse
10
64.3467
20
33.8846
30
0
11
0.75
21
-1.29904
31
0
40
0.57735
41
3.14159
42
2.35619
0
ELLIPSE
8
0
6
BYBLOCK
62
0
5
2824
100
AcDbEntity
100
AcDbEllipse
10
64.3467
20
33.8846
30
0
11
0.75
21
-1.29904
31
0
40
0.57735
41
6.28319
42
3.14159
0
ELLIPSE
8
0
6
BYBLOCK
62
0
5
2825
100
AcDbEntity
100
AcDbEllipse
10
64.3467
20
33.8846
30
0
11
0.75
21
-1.29904
31
0
40
0.57735
41
2.35619
42
0
0
ELLIPSE
8
0
6
BYBLOCK
62
0
5
2826
100
AcDbEntity
100
AcDbEllipse
10
71.0642
20
11.2268
30
0
11
0.75
21
-1.29904
31
0
40
0.57735
41
3.14159
42
2.35619
0
ELLIPSE
8
0
6
BYBLOCK
62
0
5
2827
100
AcDbEntity
100
AcDbEllipse
10
71.0642
20
11.2268
30
0
11
0.75
21
-1.29904
31
0
40
0.57735
41
6.28319
42
3.14159
0
ELLIPSE
8
0
6
BYBLOCK
62
0
5
2828
100
AcDbEntity
100
AcDbEllipse
10
71.0642
20
11.2268
30
0
11
0.75
21
-1.29904
31
0
40
0.57735
41
2.35619
42
0
0
ELLIPSE
8
0
6
BYBLOCK
62
0
5
2829
100
AcDbEntity
100
AcDbEllipse
10
71.0642
20
22.6578
30
0
11
0.75
21
-1.29904
31
0
40
0.57735
41
3.14159
42
2.35619
0
ELLIPSE
8
0
6
BYBLOCK
62
0
5
282a
100
AcDbEntity
100
AcDbEllipse
10
71.0642
20
22.6578
30
0
11
0.75
21
-1.29904
31
0
40
0.57735
41
6.28319
42
3.14159
0
ELLIPSE
8
0
6
BYBLOCK
62
0
5
282b
100
AcDbEntity
100
AcDbEllipse
10
71.0642
20
22.6578
30
0
11
0.75
21
-1.29904
31
0
40
0.57735
41
2.35619
42
0
0
ELLIPSE
8
0
6
BYBLOCK
62
0
5
282c
100
AcDbEntity
100
AcDbEllipse
10
122.754
20
44.2541
30
0
11
0.75
21
-1.29904
31
0
40
0.57735
41
3.14159
42
2.35619
0
ELLIPSE
8
0
6
BYBLOCK
62
0
5
282d
100
AcDbEntity
100
AcDbEllipse
10
122.754
20
44.2541
30
0
11
0.75
21
-1.29904
31
0
40
0.57735
41
6.28319
42
3.14159
0
ELLIPSE
8
0
6
BYBLOCK
62
0
5
282e
100
AcDbEntity
100
AcDbEllipse
10
122.754
20
44.2541
30
0
11
0.75
21
-1.29904
31
0
40
0.57735
41
2.35619
42
0
0
LINE
8
0
6
BYBLOCK
62
0
5
282f
100
AcDbEntity
100
AcDbLine
10
90.5097
20
45.7238
30
0
11
88.3883
21
44.4991
31
0
0
LINE
8
0
6
BYBLOCK
62
0
5
2830
100
AcDbEntity
100
AcDbLine
10
104.652
20
70.2187
30
0
11
102.53
21
68.994
31
0
0
LINE
8
0
6
BYBLOCK
62
0
5
2831
100
AcDbEntity
100
AcDbLine
10
127.279
20
57.1548
30
0
11
125.158
21
55.93
31
0
0
LINE
8
0
6
BYBLOCK
62
0
5
2832
100
AcDbEntity
100
AcDbLine
10
127.279
20
-73.4847
30
0
11
125.158
21
-74.7094
31
0
0
LINE
8
0
6
BYBLOCK
62
0
5
2833
100
AcDbEntity
100
AcDbLine
10
127.279
20
8.16497
30
0
11
125.158
21
6.94022
31
0
0
LINE
8
0
6
BYBLOCK
62
0
5
2834
100
AcDbEntity
100
AcDbLine
10
127.279
20
-53.8888
30
0
11
125.158
21
-55.1135
31
0
0
LINE
8
0
6
BYBLOCK
62
0
5
2835
100
AcDbEntity
100
AcDbLine
10
113.137
20
-45.7238
30
0
11
111.016
21
-46.9486
31
0
0
LINE
8
0
6
BYBLOCK
62
0
5
2836
100
AcDbEntity
100
AcDbLine
10
113.137
20
3.38846
30
0
11
111.016
21
2.16372
31
0
0
LINE
8
0
6
BYBLOCK
62
0
5
2837
100
AcDbEntity
100
AcDbLine
10
113.137
20
-32.7823
30
0
11
111.016
21
-34.0071
31
0
0
LINE
8
0
6
BYBLOCK
62
0
5
2838
100
AcDbEntity
100
AcDbLine
10
75.6604
20
-11.1452
30
0
11
73.5391
21
-12.3699
31
0
0
ENDBLK
5
2839
100
AcDbEntity
8
0
100
AcDbBlockEnd
0
ENDSEC
0
SECTION
2
ENTITIES
0
LINE
5
4B
100
AcDbEntity
8
PAPERSIZE
6
ByLayer
62
256
370
-1
100
AcDbLine
10
0
20
-5
11
0
21
0
0
LINE
5
4C
100
AcDbEntity
8
PAPERSIZE
6
ByLayer
62
256
370
-1
100
AcDbLine
10
0
20
0
11
5
21
0
0
LINE
5
4D
100
AcDbEntity
8
PAPERSIZE
6
ByLayer
62
256
370
-1
100
AcDbLine
10
589
20
0
11
594
21
0
0
LINE
5
4E
100
AcDbEntity
8
PAPERSIZE
6
ByLayer
62
256
370
-1
100
AcDbLine
10
594
20
0
11
594
21
-5
0
LINE
5
4F
100
AcDbEntity
8
PAPERSIZE
6
ByLayer
62
256
370
-1
100
AcDbLine
10
589
20
-420
11
594
21
-420
0
LINE
5
50
100
AcDbEntity
8
PAPERSIZE
6
ByLayer
62
256
370
-1
100
AcDbLine
10
594
20
-420
11
594
21
-415
0
LINE
5
51
100
AcDbEntity
8
PAPERSIZE
6
ByLayer
62
256
370
-1
100
AcDbLine
10
0
20
-415
11
0
21
-420
0
LINE
5
52
100
AcDbEntity
8
PAPERSIZE
6
ByLayer
62
256
370
-1
100
AcDbLine
10
0
20
-420
11
5
21
-420
0
LINE
5
53
100
AcDbEntity
8
BORDER
6
ByLayer
62
7
370
-1
100
AcDbLine
10
20
20
-10
11
584
21
-10
0
LINE
5
54
100
AcDbEntity
8
BORDER
6
ByLayer
62
7
370
-1
100
AcDbLine
10
584
20
-10
11
584
21
-410
0
LINE
5
55
100
AcDbEntity
8
BORDER
6
ByLayer
62
7
370
-1
100
AcDbLine
10
584
20
-410
11
20
21
-410
0
LINE
5
56
100
AcDbEntity
8
BORDER
6
ByLayer
62
7
370
-1
100
AcDbLine
10
20
20
-410
11
20
21
-10
0
LINE
5
57
100
AcDbEntity
8
TITLEBLOCK
6
ByLayer
62
7
370
-1
100
AcDbLine
10
404
20
-350
11
584
21
-350
0
LINE
5
58
100
AcDbEntity
8
TITLEBLOCK
6
ByLayer
62
7
370
-1
100
AcDbLine
10
584
20
-350
11
584
21
-410
0
LINE
5
59
100
AcDbEntity
8
TITLEBLOCK
6
ByLayer
62
7
370
-1
100
AcDbLine
10
584
20
-410
11
404
21
-410
0
LINE
5
5A
100
AcDbEntity
8
TITLEBLOCK
6
ByLayer
62
7
370
-1
100
AcDbLine
10
404
20
-410
11
404
21
-350
0
LINE
5
5B
100
AcDbEntity
8
TITLEBLOCK
6
ByLayer
62
7
370
-1
100
AcDbLine
10
404
20
-362
11
584
21
-362
0
LINE
5
5C
100
AcDbEntity
8
TITLEBLOCK
6
ByLayer
62
7
370
-1
100
AcDbLine
10
464
20
-350
11
464
21
-362
0
LINE
5
5D
100
AcDbEntity
8
TITLEBLOCK
6
ByLayer
62
7
370
-1
100
AcDbLine
10
524
20
-362
11
524
21
-410
0
LINE
5
5E
100
AcDbEntity
8
TITLEBLOCK
6
ByLayer
62
7
370
-1
100
AcDbLine
10
544
20
-362
11
544
21
-374
0
LINE
5
5F
100
AcDbEntity
8
TITLEBLOCK
6
ByLayer
62
7
370
-1
100
AcDbLine
10
564
20
-362
11
564
21
-374
0
LINE
5
60
100
AcDbEntity
8
TITLEBLOCK
6
ByLayer
62
7
370
-1
100
AcDbLine
10
524
20
-374
11
584
21
-374
0
LINE
5
61
100
AcDbEntity
8
TITLEBLOCK
6
ByLayer
62
7
370
-1
100
AcDbLine
10
524
20
-398
11
584
21
-398
0
LINE
5
62
100
AcDbEntity
8
TITLEBLOCK
6
ByLayer
62
7
370
-1
100
AcDbLine
10
564
20
-398
11
564
21
-410
0
LINE
5
63
100
AcDbEntity
8
LOGO
6
ByLayer
62
7
370
-1
100
AcDbLine
10
512.6524
20
-399.15254
11
512.6524
21
-408.00744
0
LINE
5
64
100
AcDbEntity
8
LOGO
6
ByLayer
62
7
370
-1
100
AcDbLine
10
512.6524
20
-408.00744
11
514.6268
21
-408.00744
0
LINE
5
65
100
AcDbEntity
8
LOGO
6
ByLayer
62
7
370
-1
100
AcDbLine
10
514.6268
20
-408.00744
11
514.6268
21
-404.54224
0
LINE
5
66
100
AcDbEntity
8
LOGO
6
ByLayer
62
7
370
-1
100
AcDbLine
10
514.6268
20
-404.54224
11
516.0228
21
-404.54224
0
LINE
5
67
100
AcDbEntity
8
LOGO
6
ByLayer
62
7
370
-1
100
AcDbLine
10
516.0228
20
-404.54224
11
516.0228
21
-403.17614
0
LINE
5
68
100
AcDbEntity
8
LOGO
6
ByLayer
62
7
370
-1
100
AcDbLine
10
516.0228
20
-403.17614
11
514.6268
21
-403.17614
0
LINE
5
69
100
AcDbEntity
8
LOGO
6
ByLayer
62
7
370
-1
100
AcDbLine
10
514.6268
20
-403.17614
11
514.6268
21
-401.70164
0
LINE
5
6A
100
AcDbEntity
8
LOGO
6
ByLayer
62
7
370
-1
100
AcDbLine
10
514.6268
20
-401.70164
11
518.0659
21
-401.70164
0
LINE
5
6B
100
AcDbEntity
8
LOGO
6
ByLayer
62
7
370
-1
100
AcDbLine
10
518.0659
20
-401.70164
11
518.0659
21
-399.15754
0
LINE
5
6C
100
AcDbEntity
8
LOGO
6
ByLayer
62
7
370
-1
100
AcDbLine
10
518.0659
20
-399.15754
11
512.6524
21
-399.15254
0
LINE
5
6D
100
AcDbEntity
8
LOGO
6
ByLayer
62
7
370
-1
100
AcDbLine
10
512.6524
20
-399.15254
11
512.6524
21
-399.15254
0
LINE
5
6E
100
AcDbEntity
8
LOGO
6
ByLayer
62
7
370
-1
100
AcDbLine
10
520.2927
20
-402.4504
11
519.78555
21
-402.2744
0
LINE
5
6F
100
AcDbEntity
8
LOGO
6
ByLayer
62
7
370
-1
100
AcDbLine
10
519.78555
20
-402.2744
11
519.30168
21
-401.0378
0
LINE
5
70
100
AcDbEntity
8
LOGO
6
ByLayer
62
7
370
-1
100
AcDbLine
10
519.30168
20
-401.0378
11
518.54053
21
-401.0778
0
LINE
5
71
100
AcDbEntity
8
LOGO
6
ByLayer
62
7
370
-1
100
AcDbLine
10
518.54053
20
-401.0778
11
518.19335
21
-402.3565
0
LINE
5
72
100
AcDbEntity
8
LOGO
6
ByLayer
62
7
370
-1
100
AcDbLine
10
518.19335
20
-402.3565
11
517.70745
21
-402.58919
0
LINE
5
73
100
AcDbEntity
8
LOGO
6
ByLayer
62
7
370
-1
100
AcDbLine
10
517.70745
20
-402.58919
11
516.49555
21
-402.05904
0
LINE
5
74
100
AcDbEntity
8
LOGO
6
ByLayer
62
7
370
-1
100
AcDbLine
10
516.49555
20
-402.05904
11
515.98367
21
-402.62786
0
LINE
5
75
100
AcDbEntity
8
LOGO
6
ByLayer
62
7
370
-1
100
AcDbLine
10
515.98367
20
-402.62786
11
516.64259
21
-403.77636
0
LINE
5
76
100
AcDbEntity
8
LOGO
6
ByLayer
62
7
370
-1
100
AcDbLine
10
516.64259
20
-403.77636
11
516.46253
21
-404.28203
0
LINE
5
77
100
AcDbEntity
8
LOGO
6
ByLayer
62
7
370
-1
100
AcDbLine
10
516.46253
20
-404.28203
11
515.22593
21
-404.7659
0
LINE
5
78
100
AcDbEntity
8
LOGO
6
ByLayer
62
7
370
-1
100
AcDbLine
10
515.22593
20
-404.7659
11
515.269994
21
-405.52853
0
LINE
5
79
100
AcDbEntity
8
LOGO
6
ByLayer
62
7
370
-1
100
AcDbLine
10
515.269994
20
-405.52853
11
516.548694
21
-405.87571
0
LINE
5
7A
100
AcDbEntity
8
LOGO
6
ByLayer
62
7
370
-1
100
AcDbLine
10
516.548694
20
-405.87571
11
516.781384
21
-406.36161
0
LINE
5
7B
100
AcDbEntity
8
LOGO
6
ByLayer
62
7
370
-1
100
AcDbLine
10
516.781384
20
-406.36161
11
516.247174
21
-407.57201
0
LINE
5
7C
100
AcDbEntity
8
LOGO
6
ByLayer
62
7
370
-1
100
AcDbLine
10
516.247174
20
-407.57201
11
516.815994
21
-408.08389
0
LINE
5
7D
100
AcDbEntity
8
LOGO
6
ByLayer
62
7
370
-1
100
AcDbLine
10
516.815994
20
-408.08389
11
517.964494
21
-407.42498
0
LINE
5
7E
100
AcDbEntity
8
LOGO
6
ByLayer
62
7
370
-1
100
AcDbLine
10
517.964494
20
-407.42498
11
518.474224
21
-407.60653
0
LINE
5
7F
100
AcDbEntity
8
LOGO
6
ByLayer
62
7
370
-1
100
AcDbLine
10
518.474224
20
-407.60653
11
518.954024
21
-408.84163
0
LINE
5
80
100
AcDbEntity
8
LOGO
6
ByLayer
62
7
370
-1
100
AcDbLine
10
518.954024
20
-408.84163
11
519.720724
21
-408.79905
0
LINE
5
81
100
AcDbEntity
8
LOGO
6
ByLayer
62
7
370
-1
100
AcDbLine
10
519.720724
20
-408.79905
11
520.063834
21
-407.51885
0
LINE
5
82
100
AcDbEntity
8
LOGO
6
ByLayer
62
7
370
-1
100
AcDbLine
10
520.063834
20
-407.51885
11
520.549734
21
-407.28616
0
LINE
5
83
100
AcDbEntity
8
LOGO
6
ByLayer
62
7
370
-1
100
AcDbLine
10
520.549734
20
-407.28616
11
521.764234
21
-407.82186
0
LINE
5
84
100
AcDbEntity
8
LOGO
6
ByLayer
62
7
370
-1
100
AcDbLine
10
521.764234
20
-407.82186
11
522.276114
21
-407.25304
0
LINE
5
85
100
AcDbEntity
8
LOGO
6
ByLayer
62
7
370
-1
100
AcDbLine
10
522.276114
20
-407.25304
11
521.617204
21
-406.10454
0
LINE
5
86
100
AcDbEntity
8
LOGO
6
ByLayer
62
7
370
-1
100
AcDbLine
10
521.617204
20
-406.10454
11
521.794684
21
-405.59332
0
LINE
5
87
100
AcDbEntity
8
LOGO
6
ByLayer
62
7
370
-1
100
AcDbLine
10
521.794684
20
-405.59332
11
523.029784
21
-405.11352
0
LINE
5
88
100
AcDbEntity
8
LOGO
6
ByLayer
62
7
370
-1
100
AcDbLine
10
523.029784
20
-405.11352
11
522.991274
21
-404.34831
0
LINE
5
89
100
AcDbEntity
8
LOGO
6
ByLayer
62
7
370
-1
100
AcDbLine
10
522.991274
20
-404.34831
11
521.711074
21
-404.0052
0
LINE
5
8A
100
AcDbEntity
8
LOGO
6
ByLayer
62
7
370
-1
100
AcDbLine
10
521.711074
20
-404.0052
11
521.478384
21
-403.5193
0
LINE
5
8B
100
AcDbEntity
8
LOGO
6
ByLayer
62
7
370
-1
100
AcDbLine
10
521.478384
20
-403.5193
11
522.010014
21
-402.3033
0
LINE
5
8C
100
AcDbEntity
8
LOGO
6
ByLayer
62
7
370
-1
100
AcDbLine
10
522.010014
20
-402.3033
11
521.441204
21
-401.79146
0
LINE
5
8D
100
AcDbEntity
8
LOGO
6
ByLayer
62
7
370
-1
100
AcDbLine
10
521.441204
20
-401.79146
11
520.2927
21
-402.4504
0
LINE
5
8E
100
AcDbEntity
8
LOGO
6
ByLayer
62
7
370
-1
100
AcDbLine
10
519.7212
20
-403.6748
11
519.95696
21
-403.81159
0
LINE
5
8F
100
AcDbEntity
8
LOGO
6
ByLayer
62
7
370
-1
100
AcDbLine
10
519.95696
20
-403.81159
11
520.16122
21
-403.99678
0
LINE
5
90
100
AcDbEntity
8
LOGO
6
ByLayer
62
7
370
-1
100
AcDbLine
10
520.16122
20
-403.99678
11
520.32475
21
-404.21779
0
LINE
5
91
100
AcDbEntity
8
LOGO
6
ByLayer
62
7
370
-1
100
AcDbLine
10
520.32475
20
-404.21779
11
520.44238
21
-404.46351
0
LINE
5
92
100
AcDbEntity
8
LOGO
6
ByLayer
62
7
370
-1
100
AcDbLine
10
520.44238
20
-404.46351
11
520.51154
21
-404.7284
0
LINE
5
93
100
AcDbEntity
8
LOGO
6
ByLayer
62
7
370
-1
100
AcDbLine
10
520.51154
20
-404.7284
11
520.523
21
-404.99986
0
LINE
5
94
100
AcDbEntity
8
LOGO
6
ByLayer
62
7
370
-1
100
AcDbLine
10
520.523
20
-404.99986
11
520.48379
21
-405.27125
0
LINE
5
95
100
AcDbEntity
8
LOGO
6
ByLayer
62
7
370
-1
100
AcDbLine
10
520.48379
20
-405.27125
11
520.39431
21
-405.52889
0
LINE
5
96
100
AcDbEntity
8
LOGO
6
ByLayer
62
7
370
-1
100
AcDbLine
10
520.39431
20
-405.52889
11
520.25197
21
-405.76723
0
LINE
5
97
100
AcDbEntity
8
LOGO
6
ByLayer
62
7
370
-1
100
AcDbLine
10
520.25197
20
-405.76723
11
520.07233
21
-405.9689
0
LINE
5
98
100
AcDbEntity
8
LOGO
6
ByLayer
62
7
370
-1
100
AcDbLine
10
520.07233
20
-405.9689
11
519.85132
21
-406.13243
0
LINE
5
99
100
AcDbEntity
8
LOGO
6
ByLayer
62
7
370
-1
100
AcDbLine
10
519.85132
20
-406.13243
11
519.6056
21
-406.25006
0
LINE
5
9A
100
AcDbEntity
8
LOGO
6
ByLayer
62
7
370
-1
100
AcDbLine
10
519.6056
20
-406.25006
11
519.34071
21
-406.31922
0
LINE
5
9B
100
AcDbEntity
8
LOGO
6
ByLayer
62
7
370
-1
100
AcDbLine
10
519.34071
20
-406.31922
11
519.06776
21
-406.33475
0
LINE
5
9C
100
AcDbEntity
8
LOGO
6
ByLayer
62
7
370
-1
100
AcDbLine
10
519.06776
20
-406.33475
11
518.79586
21
-406.29475
0
LINE
5
9D
100
AcDbEntity
8
LOGO
6
ByLayer
62
7
370
-1
100
AcDbLine
10
518.79586
20
-406.29475
11
518.53826
21
-406.20575
0
LINE
5
9E
100
AcDbEntity
8
LOGO
6
ByLayer
62
7
370
-1
100
AcDbLine
10
518.53826
20
-406.20575
11
518.29996
21
-406.06275
0
LINE
5
9F
100
AcDbEntity
8
LOGO
6
ByLayer
62
7
370
-1
100
AcDbLine
10
518.29996
20
-406.06275
11
518.09976
21
-405.87975
0
LINE
5
A0
100
AcDbEntity
8
LOGO
6
ByLayer
62
7
370
-1
100
AcDbLine
10
518.09976
20
-405.87975
11
517.93476
21
-405.66275
0
LINE
5
A1
100
AcDbEntity
8
LOGO
6
ByLayer
62
7
370
-1
100
AcDbLine
10
517.93476
20
-405.66275
11
517.81706
21
-405.41675
0
LINE
5
A2
100
AcDbEntity
8
LOGO
6
ByLayer
62
7
370
-1
100
AcDbLine
10
517.81706
20
-405.41675
11
517.74946
21
-405.14775
0
LINE
5
A3
100
AcDbEntity
8
LOGO
6
ByLayer
62
7
370
-1
100
AcDbLine
10
517.74946
20
-405.14775
11
517.73386
21
-404.87475
0
LINE
5
A4
100
AcDbEntity
8
LOGO
6
ByLayer
62
7
370
-1
100
AcDbLine
10
517.73386
20
-404.87475
11
517.773066
21
-404.60335
0
LINE
5
A5
100
AcDbEntity
8
LOGO
6
ByLayer
62
7
370
-1
100
AcDbLine
10
517.773066
20
-404.60335
11
517.86255
21
-404.34571
0
LINE
5
A6
100
AcDbEntity
8
LOGO
6
ByLayer
62
7
370
-1
100
AcDbLine
10
517.86255
20
-404.34571
11
518.0034
21
-404.11144
0
LINE
5
A7
100
AcDbEntity
8
LOGO
6
ByLayer
62
7
370
-1
100
AcDbLine
10
518.0034
20
-404.11144
11
518.18453
21
-403.9057
0
LINE
5
A8
100
AcDbEntity
8
LOGO
6
ByLayer
62
7
370
-1
100
AcDbLine
10
518.18453
20
-403.9057
11
518.40554
21
-403.74218
0
LINE
5
A9
100
AcDbEntity
8
LOGO
6
ByLayer
62
7
370
-1
100
AcDbLine
10
518.40554
20
-403.74218
11
518.65126
21
-403.62455
0
LINE
5
AA
100
AcDbEntity
8
LOGO
6
ByLayer
62
7
370
-1
100
AcDbLine
10
518.65126
20
-403.62455
11
518.92021
21
-403.55687
0
LINE
5
AB
100
AcDbEntity
8
LOGO
6
ByLayer
62
7
370
-1
100
AcDbLine
10
518.92021
20
-403.55687
11
519.19168
21
-403.54541
0
LINE
5
AC
100
AcDbEntity
8
LOGO
6
ByLayer
62
7
370
-1
100
AcDbLine
10
519.19168
20
-403.54541
11
519.46307
21
-403.58462
0
LINE
5
AD
100
AcDbEntity
8
LOGO
6
ByLayer
62
7
370
-1
100
AcDbLine
10
519.46307
20
-403.58462
11
519.72071
21
-403.6741
0
LINE
5
AE
100
AcDbEntity
8
LOGO
6
ByLayer
62
7
370
-1
100
AcDbLine
10
519.72071
20
-403.6741
11
519.7212
21
-403.6748
0
TEXT
5
AF
100
AcDbEntity
8
TITLEBLOCK
6
ByLayer
62
256
370
20
100
AcDbText
10
405
20
-353
30
0
40
2.2
1
Created by:
50
0
41
1
51
0
7
standard
71
0
210
0
220
0
230
1
100
AcDbText
0
TEXT
5
B0
100
AcDbEntity
8
TITLEBLOCK
6
ByLayer
62
256
370
20
100
AcDbText
10
405
20
-365
30
0
40
2.2
1
Supplementary information:
50
0
41
1
51
0
7
standard
71
0
210
0
220
0
230
1
100
AcDbText
0
TEXT
5
B1
100
AcDbEntity
8
TITLEBLOCK
6
ByLayer
62
256
370
20
100
AcDbText
10
465
20
-353
30
0
40
2.2
1
Title:
50
0
41
1
51
0
7
standard
71
0
210
0
220
0
230
1
100
AcDbText
0
TEXT
5
B2
100
AcDbEntity
8
TITLEBLOCK
6
ByLayer
62
256
370
20
100
AcDbText
10
525
20
-365
30
0
40
2.2
1
Size:
50
0
41
1
51
0
7
standard
71
0
210
0
220
0
230
1
100
AcDbText
0
TEXT
5
B3
100
AcDbEntity
8
TITLEBLOCK
6
ByLayer
62
256
370
20
100
AcDbText
10
545
20
-365
30
0
40
2.2
1
Sheet:
50
0
41
1
51
0
7
standard
71
0
210
0
220
0
230
1
100
AcDbText
0
TEXT
5
B4
100
AcDbEntity
8
TITLEBLOCK
6
ByLayer
62
256
370
20
100
AcDbText
10
565
20
-365
30
0
40
2.2
1
Scale:
50
0
41
1
51
0
7
standard
71
0
210
0
220
0
230
1
100
AcDbText
0
TEXT
5
B5
100
AcDbEntity
8
TITLEBLOCK
6
ByLayer
62
256
370
20
100
AcDbText
10
525
20
-377
30
0
40
2.2
1
Part number:
50
0
41
1
51
0
7
standard
71
0
210
0
220
0
230
1
100
AcDbText
0
TEXT
5
B6
100
AcDbEntity
8
TITLEBLOCK
6
ByLayer
62
256
370
20
100
AcDbText
10
525
20
-389
30
0
40
2.2
1
Drawing number:
50
0
41
1
51
0
7
standard
71
0
210
0
220
0
230
1
100
AcDbText
0
TEXT
5
B7
100
AcDbEntity
8
TITLEBLOCK
6
ByLayer
62
256
370
20
100
AcDbText
10
525
20
-401
30
0
40
2.2
1
Date:
50
0
41
1
51
0
7
standard
71
0
210
0
220
0
230
1
100
AcDbText
0
TEXT
5
B8
100
AcDbEntity
8
TITLEBLOCK
6
ByLayer
62
256
370
20
100
AcDbText
10
565
20
-401
30
0
40
2.2
1
Revision:
50
0
41
1
51
0
7
standard
71
0
210
0
220
0
230
1
100
AcDbText
0
TEXT
5
B9
100
AcDbEntity
8
TITLEBLOCK
6
ByLayer
62
256
370
35
100
AcDbText
10
434
20
-359
30
0
40
3.7
1
Robotronik
50
0
41
1
51
0
7
standard
71
0
72
1
11
434
21
-359
31
0
210
0
220
0
230
1
100
AcDbText
0
TEXT
5
BA
100
AcDbEntity
8
TITLEBLOCK
6
ByLayer
62
256
370
35
100
AcDbText
10
524
20
-359
30
0
40
3.7
1
DRAWING TITLE
50
0
41
1
51
0
7
standard
71
0
72
1
11
524
21
-359
31
0
210
0
220
0
230
1
100
AcDbText
0
TEXT
5
BB
100
AcDbEntity
8
TITLEBLOCK
6
ByLayer
62
256
370
35
100
AcDbText
10
464
20
-371
30
0
40
3.7
1

50
0
41
1
51
0
7
standard
71
0
72
1
11
464
21
-371
31
0
210
0
220
0
230
1
100
AcDbText
0
TEXT
5
BC
100
AcDbEntity
8
TITLEBLOCK
6
ByLayer
62
256
370
35
100
AcDbText
10
464
20
-378
30
0
40
3.7
1

50
0
41
1
51
0
7
standard
71
0
72
1
11
464
21
-378
31
0
210
0
220
0
230
1
100
AcDbText
0
TEXT
5
BD
100
AcDbEntity
8
TITLEBLOCK
6
ByLayer
62
256
370
35
100
AcDbText
10
464
20
-385
30
0
40
3.7
1
FreeCAD DRAWING
50
0
41
1
51
0
7
standard
71
0
72
1
11
464
21
-385
31
0
210
0
220
0
230
1
100
AcDbText
0
TEXT
5
BE
100
AcDbEntity
8
TITLEBLOCK
6
ByLayer
62
256
370
35
100
AcDbText
10
464
20
-392
30
0
40
3.7
1

50
0
41
1
51
0
7
standard
71
0
72
1
11
464
21
-392
31
0
210
0
220
0
230
1
100
AcDbText
0
TEXT
5
BF
100
AcDbEntity
8
TITLEBLOCK
6
ByLayer
62
256
370
35
100
AcDbText
10
464
20
-399
30
0
40
3.7
1

50
0
41
1
51
0
7
standard
71
0
72
1
11
464
21
-399
31
0
210
0
220
0
230
1
100
AcDbText
0
TEXT
5
C0
100
AcDbEntity
8
TITLEBLOCK
6
ByLayer
62
256
370
35
100
AcDbText
10
464
20
-406
30
0
40
3.7
1

50
0
41
1
51
0
7
standard
71
0
72
1
11
464
21
-406
31
0
210
0
220
0
230
1
100
AcDbText
0
TEXT
5
C1
100
AcDbEntity
8
TITLEBLOCK
6
ByLayer
62
256
370
35
100
AcDbText
10
554
20
-383
30
0
40
3.7
1
PN
50
0
41
1
51
0
7
standard
71
0
72
1
11
554
21
-383
31
0
210
0
220
0
230
1
100
AcDbText
0
TEXT
5
C2
100
AcDbEntity
8
TITLEBLOCK
6
ByLayer
62
256
370
35
100
AcDbText
10
554
20
-395
30
0
40
3.7
1
DN
50
0
41
1
51
0
7
standard
71
0
72
1
11
554
21
-395
31
0
210
0
220
0
230
1
100
AcDbText
0
TEXT
5
C3
100
AcDbEntity
8
TITLEBLOCK
6
ByLayer
62
256
370
35
100
AcDbText
10
534
20
-371
30
0
40
3.7
1
A2
50
0
41
1
51
0
7
standard
71
0
72
1
11
534
21
-371
31
0
210
0
220
0
230
1
100
AcDbText
0
TEXT
5
C4
100
AcDbEntity
8
TITLEBLOCK
6
ByLayer
62
256
370
35
100
AcDbText
10
554
20
-371
30
0
40
3.7
1
X / Y
50
0
41
1
51
0
7
standard
71
0
72
1
11
554
21
-371
31
0
210
0
220
0
230
1
100
AcDbText
0
TEXT
5
C5
100
AcDbEntity
8
TITLEBLOCK
6
ByLayer
62
256
370
35
100
AcDbText
10
574
20
-371
30
0
40
3.7
1
SCALE
50
0
41
1
51
0
7
standard
71
0
72
1
11
574
21
-371
31
0
210
0
220
0
230
1
100
AcDbText
0
TEXT
5
C6
100
AcDbEntity
8
TITLEBLOCK
6
ByLayer
62
256
370
35
100
AcDbText
10
544
20
-407
30
0
40
3.7
1
DD/MM/YYYY
50
0
41
1
51
0
7
standard
71
0
72
1
11
544
21
-407
31
0
210
0
220
0
230
1
100
AcDbText
0
TEXT
5
C7
100
AcDbEntity
8
TITLEBLOCK
6
ByLayer
62
256
370
35
100
AcDbText
10
574
20
-407
30
0
40
3.7
1
REV A
50
0
41
1
51
0
7
standard
71
0
72
1
11
574
21
-407
31
0
210
0
220
0
230
1
100
AcDbText
0
INSERT
5
283a
8
0
6
BYLAYER
62
256
2
Ortho1
10
78.0
20
-327.416656494
30
0
41
1.0
42
1.0
43
1.0
50
90.0000026563
0
INSERT
5
283b
8
0
6
BYLAYER
62
256
2
Ortho0011
10
78.0
20
-76.8333282471
30
0
41
1.0
42
1.0
43
1.0
50
-90.0000026563
0
INSERT
5
283c
8
0
6
BYLAYER
62
256
2
Ortho0021
10
438.071075439
20
-98.6558609009
30
0
41
1.0
42
1.0
43
1.0
50
-120.000000304
0
ENDSEC
0
SECTION
2
OBJECTS
0
DICTIONARY
5
C
330
0
100
AcDbDictionary
281
1
3
ACAD_GROUP
350
D
0
DICTIONARY
5
D
330
C
100
AcDbDictionary
281
1
0
ENDSEC
0
EOF
