999
dxfrw 0.5.11
0
SECTION
2
HEADER
9
$ACADVER
1
AC1015
9
$HANDSEED
5
20000
9
$DWGCODEPAGE
3
ANSI_1250
9
$INSBASE
10
0
20
0
30
0
9
$EXTMIN
10
0
20
-420
30
0
9
$EXTMAX
10
594
20
0
30
0
9
$LIMMIN
10
0
20
0
9
$LIMMAX
10
420
20
297
9
$ORTHOMODE
70
0
9
$LTSCALE
40
1
9
$TEXTSTYLE
7
STANDARD
9
$CLAYER
8
DIMENSIONS
9
$DIMASZ
40
3.5
9
$DIMLFAC
40
1
9
$DIMSCALE
40
1
9
$DIMEXO
40
0
9
$DIMEXE
40
2
9
$DIMTXT
40
3.5
9
$DIMTSZ
40
0
9
$DIMAUNIT
70
0
9
$DIMADEC
70
2
9
$DIMLUNIT
70
2
9
$DIMSTYLE
2
STANDARD
9
$DIMGAP
40
1
9
$DIMTIH
70
0
9
$LUNITS
70
2
9
$LUPREC
70
2
9
$AUNITS
70
0
9
$AUPREC
70
2
9
$SPLINESEGS
70
8
9
$GRIDMODE
70
0
9
$SNAPSTYLE
70
0
9
$GRIDUNIT
10
0
20
0
9
$PINSBASE
10
0
20
420
30
0
9
$PLIMMIN
10
0
20
0
9
$PLIMMAX
10
594
20
420
9
$INSUNITS
70
4
9
$PSVPSCALE
40
1
0
ENDSEC
0
SECTION
2
CLASSES
0
ENDSEC
0
SECTION
2
TABLES
0
TABLE
2
VPORT
5
8
330
0
100
AcDbSymbolTable
70
1
0
VPORT
5
31
330
2
100
AcDbSymbolTableRecord
100
AcDbViewportTableRecord
2
*ACTIVE
70
0
10
0
20
0
11
1
21
1
12
300.245901639
22
12.3344262295
13
0
23
0
14
10
24
10
15
10
25
10
16
0
26
0
36
1
17
0
27
0
37
0
40
468.059016393
41
1.29680998613
42
50
43
0
44
0
50
0
51
0
71
0
72
100
73
1
74
3
75
0
76
0
77
0
78
0
281
0
65
1
110
0
120
0
130
0
111
1
121
0
131
0
112
0
122
1
132
0
79
0
146
0
0
ENDTAB
0
TABLE
2
LTYPE
5
5
330
0
100
AcDbSymbolTable
70
4
0
LTYPE
5
14
330
5
100
AcDbSymbolTableRecord
100
AcDbLinetypeTableRecord
2
ByBlock
70
0
3

72
65
73
0
40
0
0
LTYPE
5
15
330
5
100
AcDbSymbolTableRecord
100
AcDbLinetypeTableRecord
2
ByLayer
70
0
3

72
65
73
0
40
0
0
LTYPE
5
16
330
5
100
AcDbSymbolTableRecord
100
AcDbLinetypeTableRecord
2
Continuous
70
0
3
Solid line
72
65
73
0
40
0
0
LTYPE
5
32
330
5
100
AcDbSymbolTableRecord
100
AcDbLinetypeTableRecord
2
DOT
70
0
3
Dot . . . . . . . . . . . . . . . . . . . . . .
72
65
73
2
40
6.35
49
0
74
0
49
-6.35
74
0
0
LTYPE
5
33
330
5
100
AcDbSymbolTableRecord
100
AcDbLinetypeTableRecord
2
DOT2
70
0
3
Dot (.5x) .....................................
72
65
73
2
40
3.175
49
0
74
0
49
-3.175
74
0
0
LTYPE
5
34
330
5
100
AcDbSymbolTableRecord
100
AcDbLinetypeTableRecord
2
DOTX2
70
0
3
Dot (2x) .  .  .  .  .  .  .  .  .  .  .  .  .
72
65
73
2
40
12.7
49
0
74
0
49
-12.7
74
0
0
LTYPE
5
35
330
5
100
AcDbSymbolTableRecord
100
AcDbLinetypeTableRecord
2
DASHED
70
0
3
Dot . . . . . . . . . . . . . . . . . . . . . .
72
65
73
2
40
19.05
49
12.7
74
0
49
-6.35
74
0
0
LTYPE
5
36
330
5
100
AcDbSymbolTableRecord
100
AcDbLinetypeTableRecord
2
DASHED2
70
0
3
Dashed (.5x) _ _ _ _ _ _ _ _ _ _ _ _ _ _ _ _ _
72
65
73
2
40
9.525
49
6.35
74
0
49
-3.175
74
0
0
LTYPE
5
37
330
5
100
AcDbSymbolTableRecord
100
AcDbLinetypeTableRecord
2
DASHEDX2
70
0
3
Dashed (2x) ____  ____  ____  ____  ____  ___
72
65
73
2
40
38.1
49
25.4
74
0
49
-12.7
74
0
0
LTYPE
5
38
330
5
100
AcDbSymbolTableRecord
100
AcDbLinetypeTableRecord
2
DASHDOT
70
0
3
Dash dot __ . __ . __ . __ . __ . __ . __ . __
72
65
73
4
40
25.4
49
12.7
74
0
49
-6.35
74
0
49
0
74
0
49
-6.35
74
0
0
LTYPE
5
39
330
5
100
AcDbSymbolTableRecord
100
AcDbLinetypeTableRecord
2
DASHDOT2
70
0
3
Dash dot (.5x) _._._._._._._._._._._._._._._.
72
65
73
4
40
12.7
49
6.35
74
0
49
-3.175
74
0
49
0
74
0
49
-3.175
74
0
0
LTYPE
5
3A
330
5
100
AcDbSymbolTableRecord
100
AcDbLinetypeTableRecord
2
DASHDOTX2
70
0
3
Dash dot (2x) ____  .  ____  .  ____  .  ___
72
65
73
4
40
50.8
49
25.4
74
0
49
-12.7
74
0
49
0
74
0
49
-12.7
74
0
0
LTYPE
5
3B
330
5
100
AcDbSymbolTableRecord
100
AcDbLinetypeTableRecord
2
DIVIDE
70
0
3
Divide ____ . . ____ . . ____ . . ____ . . ____
72
65
73
6
40
31.75
49
12.7
74
0
49
-6.35
74
0
49
0
74
0
49
-6.35
74
0
49
0
74
0
49
-6.35
74
0
0
LTYPE
5
3C
330
5
100
AcDbSymbolTableRecord
100
AcDbLinetypeTableRecord
2
DIVIDE2
70
0
3
Divide (.5x) __..__..__..__..__..__..__..__.._
72
65
73
6
40
15.875
49
6.35
74
0
49
-3.175
74
0
49
0
74
0
49
-3.175
74
0
49
0
74
0
49
-3.175
74
0
0
LTYPE
5
3D
330
5
100
AcDbSymbolTableRecord
100
AcDbLinetypeTableRecord
2
DIVIDEX2
70
0
3
Divide (2x) ________  .  .  ________  .  .  _
72
65
73
6
40
63.5
49
25.4
74
0
49
-12.7
74
0
49
0
74
0
49
-12.7
74
0
49
0
74
0
49
-12.7
74
0
0
LTYPE
5
3E
330
5
100
AcDbSymbolTableRecord
100
AcDbLinetypeTableRecord
2
BORDER
70
0
3
Border __ __ . __ __ . __ __ . __ __ . __ __ .
72
65
73
6
40
44.45
49
12.7
74
0
49
-6.35
74
0
49
12.7
74
0
49
-6.35
74
0
49
0
74
0
49
-6.35
74
0
0
LTYPE
5
3F
330
5
100
AcDbSymbolTableRecord
100
AcDbLinetypeTableRecord
2
BORDER2
70
0
3
Border (.5x) __.__.__.__.__.__.__.__.__.__.__.
72
65
73
6
40
22.225
49
6.35
74
0
49
-3.175
74
0
49
6.35
74
0
49
-3.175
74
0
49
0
74
0
49
-3.175
74
0
0
LTYPE
5
40
330
5
100
AcDbSymbolTableRecord
100
AcDbLinetypeTableRecord
2
BORDERX2
70
0
3
Border (2x) ____  ____  .  ____  ____  .  ___
72
65
73
6
40
88.9
49
25.4
74
0
49
-12.7
74
0
49
25.4
74
0
49
-12.7
74
0
49
0
74
0
49
-12.7
74
0
0
LTYPE
5
41
330
5
100
AcDbSymbolTableRecord
100
AcDbLinetypeTableRecord
2
CENTER
70
0
3
Center ____ _ ____ _ ____ _ ____ _ ____ _ ____
72
65
73
4
40
50.8
49
31.75
74
0
49
-6.35
74
0
49
6.35
74
0
49
-6.35
74
0
0
LTYPE
5
42
330
5
100
AcDbSymbolTableRecord
100
AcDbLinetypeTableRecord
2
CENTER2
70
0
3
Center (.5x) ___ _ ___ _ ___ _ ___ _ ___ _ ___
72
65
73
4
40
28.575
49
19.05
74
0
49
-3.175
74
0
49
3.175
74
0
49
-3.175
74
0
0
LTYPE
5
43
330
5
100
AcDbSymbolTableRecord
100
AcDbLinetypeTableRecord
2
CENTERX2
70
0
3
Center (2x) ________  __  ________  __  _____
72
65
73
4
40
101.6
49
63.5
74
0
49
-12.7
74
0
49
12.7
74
0
49
-12.7
74
0
0
ENDTAB
0
TABLE
2
LAYER
5
2
330
0
100
AcDbSymbolTable
70
1
0
LAYER
5
10
330
2
100
AcDbSymbolTableRecord
100
AcDbLayerTableRecord
2
0
70
0
62
7
6
CONTINUOUS
370
35
390
F
0
LAYER
5
44
330
2
100
AcDbSymbolTableRecord
100
AcDbLayerTableRecord
2
BORDER
70
0
62
7
6
CONTINUOUS
370
35
390
F
0
LAYER
5
45
330
2
100
AcDbSymbolTableRecord
100
AcDbLayerTableRecord
2
DIMENSIONS
70
0
62
7
6
CONTINUOUS
370
18
390
F
0
LAYER
5
46
330
2
100
AcDbSymbolTableRecord
100
AcDbLayerTableRecord
2
LOGO
70
0
62
7
6
CONTINUOUS
370
35
390
F
0
LAYER
5
47
330
2
100
AcDbSymbolTableRecord
100
AcDbLayerTableRecord
2
PAPERSIZE
70
0
62
136
6
CONTINUOUS
370
0
390
F
0
LAYER
5
48
330
2
100
AcDbSymbolTableRecord
100
AcDbLayerTableRecord
2
TITLEBLOCK
70
0
62
7
6
CONTINUOUS
370
35
390
F
0
ENDTAB
0
TABLE
2
STYLE
5
3
330
0
100
AcDbSymbolTable
70
3
0
STYLE
5
49
330
2
100
AcDbSymbolTableRecord
100
AcDbTextStyleTableRecord
2
standard
70
0
40
0
41
1
50
0
71
0
42
1
3
standard
4

0
ENDTAB
0
TABLE
2
VIEW
5
6
330
0
100
AcDbSymbolTable
70
0
0
ENDTAB
0
TABLE
2
UCS
5
7
330
0
100
AcDbSymbolTable
70
0
0
ENDTAB
0
TABLE
2
APPID
5
9
330
0
100
AcDbSymbolTable
70
1
0
APPID
5
12
330
9
100
AcDbSymbolTableRecord
100
AcDbRegAppTableRecord
2
ACAD
70
0
0
ENDTAB
0
TABLE
2
DIMSTYLE
5
A
330
0
100
AcDbSymbolTable
70
1
100
AcDbDimStyleTable
71
1
0
DIMSTYLE
105
4A
330
A
100
AcDbSymbolTableRecord
100
AcDbDimStyleTableRecord
2
Standard
70
0
40
1
41
3.5
42
0
43
0.38
44
2
45
0
46
0
47
0
48
0
140
3.5
141
0.09
142
0
143
25.4
144
1
145
0
146
1
147
1
148
0
71
0
72
0
73
0
74
1
75
0
76
0
77
0
78
0
79
0
170
0
171
2
172
0
173
0
174
0
175
0
176
0
177
0
178
0
179
0
271
4
272
4
273
2
274
2
275
0
276
0
277
2
278
46
279
0
280
0
281
0
282
0
283
1
284
0
285
0
286
0
288
0
289
3
340
Standard
341

371
-2
372
-2
0
ENDTAB
0
TABLE
2
BLOCK_RECORD
5
1
330
0
100
AcDbSymbolTable
70
2
0
BLOCK_RECORD
5
1F
330
1
100
AcDbSymbolTableRecord
100
AcDbBlockTableRecord
2
*Model_Space
0
BLOCK_RECORD
5
1E
330
1
100
AcDbSymbolTableRecord
100
AcDbBlockTableRecord
2
*Paper_Space
0
ENDTAB
0
ENDSEC
0
SECTION
2
BLOCKS
0
BLOCK
5
20
330
1F
100
AcDbEntity
8
0
100
AcDbBlockBegin
2
*Model_Space
70
0
10
0
20
0
30
0
3
*Model_Space
1

0
ENDBLK
5
21
330
1F
100
AcDbEntity
8
0
100
AcDbBlockEnd
0
BLOCK
5
1C
330
1B
100
AcDbEntity
8
0
100
AcDbBlockBegin
2
*Paper_Space
70
0
10
0
20
0
30
0
3
*Paper_Space
1

0
ENDBLK
5
1D
330
1F
100
AcDbEntity
8
0
100
AcDbBlockEnd
0
BLOCK
5
2711
100
AcDbEntity
8
0
100
AcDbBlockBegin
2
Ortho1
70
0
10
0
20
0
3
Ortho1
1

0
LINE
8
0
6
BYBLOCK
62
0
5
2712
100
AcDbEntity
100
AcDbLine
10
40
20
-31.889
30
0
11
37
21
-31.889
31
0
0
LINE
8
0
6
BYBLOCK
62
0
5
2713
100
AcDbEntity
100
AcDbLine
10
0
20
-25
30
0
11
37
21
-25
31
0
0
LINE
8
0
6
BYBLOCK
62
0
5
2714
100
AcDbEntity
100
AcDbLine
10
0
20
0
30
0
11
-9.99201e-16
21
-4.5
31
0
0
LINE
8
0
6
BYBLOCK
62
0
5
2715
100
AcDbEntity
100
AcDbLine
10
-1.66533e-15
20
-7.5
30
0
11
-3.88578e-15
21
-17.5
31
0
0
LINE
8
0
6
BYBLOCK
62
0
5
2716
100
AcDbEntity
100
AcDbLine
10
-4.55191e-15
20
-20.5
30
0
11
-5.55112e-15
21
-25
31
0
0
LINE
8
0
6
BYBLOCK
62
0
5
2717
100
AcDbEntity
100
AcDbLine
10
37
20
-8.21565e-15
30
0
11
3
21
-6.66134e-16
31
0
0
SPLINE
8
0
6
BYBLOCK
62
0
5
2718
100
AcDbEntity
100
AcDbSpline
70
0
71
1
72
17
73
15
74
0
40
4.71239
40
4.71239
40
4.78158
40
4.85076
40
4.91995
40
4.98914
40
5.05833
40
5.12752
40
5.1967
40
5.26589
40
5.33508
40
5.40427
40
5.47346
40
5.54264
40
5.61183
40
5.68102
40
5.68102
10
37
20
-31.889
30
0
10
37
20
-31.851
30
0
10
37
20
-31.7371
30
0
10
37
20
-31.548
30
0
10
37
20
-31.2844
30
0
10
37
20
-30.9477
30
0
10
37
20
-30.5395
30
0
10
37
20
-30.0617
30
0
10
37
20
-29.5166
30
0
10
37
20
-28.9068
30
0
10
37
20
-28.2353
30
0
10
37
20
-27.5053
30
0
10
37
20
-26.7201
30
0
10
37
20
-25.8837
30
0
10
37
20
-25
30
0
0
SPLINE
8
0
6
BYBLOCK
62
0
5
2719
100
AcDbEntity
100
AcDbSpline
70
0
71
1
72
17
73
15
74
0
40
0.602166
40
0.602166
40
0.671354
40
0.740542
40
0.80973
40
0.878917
40
0.948105
40
1.01729
40
1.08648
40
1.15567
40
1.22486
40
1.29404
40
1.36323
40
1.43242
40
1.50161
40
1.5708
40
1.5708
10
40
20
-25
30
0
10
40
20
-25.8837
30
0
10
40
20
-26.7201
30
0
10
40
20
-27.5053
30
0
10
40
20
-28.2353
30
0
10
40
20
-28.9068
30
0
10
40
20
-29.5166
30
0
10
40
20
-30.0617
30
0
10
40
20
-30.5395
30
0
10
40
20
-30.9477
30
0
10
40
20
-31.2844
30
0
10
40
20
-31.548
30
0
10
40
20
-31.7371
30
0
10
40
20
-31.851
30
0
10
40
20
-31.889
30
0
0
LINE
8
0
6
BYBLOCK
62
0
5
271a
100
AcDbEntity
100
AcDbLine
10
37
20
-25
30
0
11
40
21
-25
31
0
0
LINE
8
0
6
BYBLOCK
62
0
5
271b
100
AcDbEntity
100
AcDbLine
10
40
20
-8.88178e-15
30
0
11
40
21
-25
31
0
0
LINE
8
0
6
BYBLOCK
62
0
5
271c
100
AcDbEntity
100
AcDbLine
10
0
20
0
30
0
11
3
21
0
31
0
0
LINE
8
0
6
BYBLOCK
62
0
5
271d
100
AcDbEntity
100
AcDbLine
10
3
20
-6.66134e-16
30
0
11
40
21
-8.88178e-15
31
0
0
LINE
8
0
6
BYBLOCK
62
0
5
271e
100
AcDbEntity
100
AcDbLine
10
3
20
-25
30
0
11
40
21
-25
31
0
0
LINE
8
0
6
BYBLOCK
62
0
5
271f
100
AcDbEntity
100
AcDbLine
10
0
20
-25
30
0
11
3
21
-25
31
0
0
LINE
8
0
6
BYBLOCK
62
0
5
2720
100
AcDbEntity
100
AcDbLine
10
3
20
-6.66134e-16
30
0
11
3
21
-4.5
31
0
0
LINE
8
0
6
BYBLOCK
62
0
5
2721
100
AcDbEntity
100
AcDbLine
10
3
20
-7.5
30
0
11
3
21
-17.5
31
0
0
LINE
8
0
6
BYBLOCK
62
0
5
2722
100
AcDbEntity
100
AcDbLine
10
3
20
-20.5
30
0
11
3
21
-25
31
0
0
LINE
8
0
6
BYBLOCK
62
0
5
2723
100
AcDbEntity
100
AcDbLine
10
0
20
0
30
0
11
0
21
-25
31
0
0
LINE
8
0
6
BYBLOCK
62
0
5
2724
100
AcDbEntity
100
AcDbLine
10
3
20
-6.66134e-16
30
0
11
3
21
-25
31
0
0
SPLINE
8
0
6
BYBLOCK
62
0
5
2725
100
AcDbEntity
100
AcDbSpline
70
0
71
1
72
17
73
15
74
0
40
4.71239
40
4.71239
40
4.82459
40
4.93679
40
5.04899
40
5.16119
40
5.27339
40
5.38559
40
5.49779
40
5.60999
40
5.72219
40
5.83439
40
5.94659
40
6.05879
40
6.17099
40
6.28319
40
6.28319
10
3
20
-7.5
30
0
10
3
20
-7.49057
30
0
10
3
20
-7.46239
30
0
10
3
20
-7.41582
30
0
10
3
20
-7.35145
30
0
10
3
20
-7.27009
30
0
10
3
20
-7.17275
30
0
10
3
20
-7.06066
30
0
10
3
20
-6.93523
30
0
10
3
20
-6.79805
30
0
10
3
20
-6.65083
30
0
10
3
20
-6.49542
30
0
10
3
20
-6.33378
30
0
10
3
20
-6.16795
30
0
10
3
20
-6
30
0
0
ENDBLK
5
2726
100
AcDbEntity
8
0
100
AcDbBlockEnd
0
BLOCK
5
2727
100
AcDbEntity
8
0
100
AcDbBlockBegin
2
Ortho0011
70
0
10
0
20
0
3
Ortho0011
1

0
LINE
8
0
6
BYBLOCK
62
0
5
2728
100
AcDbEntity
100
AcDbLine
10
10
20
25
30
0
11
19.9057
21
25
31
0
0
LINE
8
0
6
BYBLOCK
62
0
5
2729
100
AcDbEntity
100
AcDbLine
10
10
20
25
30
0
11
0
21
25
31
0
0
ARC
8
0
6
BYBLOCK
62
0
5
272a
100
AcDbEntity
100
AcDbCircle
10
33
20
16
30
0
40
15.889
100
AcDbArc
50
34.5016
51
145.498
0
LINE
8
0
6
BYBLOCK
62
0
5
272b
100
AcDbEntity
100
AcDbLine
10
10
20
8.88178e-15
30
0
11
10
21
25
31
0
0
LINE
8
0
6
BYBLOCK
62
0
5
272c
100
AcDbEntity
100
AcDbLine
10
10
20
0
30
0
11
56
21
0
31
0
0
LINE
8
0
6
BYBLOCK
62
0
5
272d
100
AcDbEntity
100
AcDbLine
10
56
20
8.88178e-15
30
0
11
56
21
25
31
0
0
LINE
8
0
6
BYBLOCK
62
0
5
272e
100
AcDbEntity
100
AcDbLine
10
56
20
25
30
0
11
46.0943
21
25
31
0
0
CIRCLE
8
0
6
BYBLOCK
62
0
5
272f
100
AcDbEntity
100
AcDbCircle
10
43.9119
20
9.7
30
0
40
1.5
0
CIRCLE
8
0
6
BYBLOCK
62
0
5
2730
100
AcDbEntity
100
AcDbCircle
10
22.0881
20
9.7
30
0
40
1.5
0
CIRCLE
8
0
6
BYBLOCK
62
0
5
2731
100
AcDbEntity
100
AcDbCircle
10
33
20
28.6
30
0
40
1.5
0
LINE
8
0
6
BYBLOCK
62
0
5
2732
100
AcDbEntity
100
AcDbLine
10
0
20
6.66134e-16
30
0
11
10
21
6.66134e-16
31
0
0
LINE
8
0
6
BYBLOCK
62
0
5
2733
100
AcDbEntity
100
AcDbLine
10
0
20
6.66134e-16
30
0
11
0
21
25
31
0
0
CIRCLE
8
0
6
BYBLOCK
62
0
5
2734
100
AcDbEntity
100
AcDbCircle
10
4
20
19
30
0
40
1.5
0
CIRCLE
8
0
6
BYBLOCK
62
0
5
2735
100
AcDbEntity
100
AcDbCircle
10
4
20
6
30
0
40
1.5
0
LINE
8
0
6
BYBLOCK
62
0
5
2736
100
AcDbEntity
100
AcDbLine
10
66
20
6.66134e-16
30
0
11
56
21
6.66134e-16
31
0
0
LINE
8
0
6
BYBLOCK
62
0
5
2737
100
AcDbEntity
100
AcDbLine
10
66
20
25
30
0
11
56
21
25
31
0
0
LINE
8
0
6
BYBLOCK
62
0
5
2738
100
AcDbEntity
100
AcDbLine
10
66
20
6.66134e-16
30
0
11
66
21
25
31
0
0
CIRCLE
8
0
6
BYBLOCK
62
0
5
2739
100
AcDbEntity
100
AcDbCircle
10
62
20
19
30
0
40
1.5
0
CIRCLE
8
0
6
BYBLOCK
62
0
5
273a
100
AcDbEntity
100
AcDbCircle
10
62
20
6
30
0
40
1.5
0
ENDBLK
5
273b
100
AcDbEntity
8
0
100
AcDbBlockEnd
0
BLOCK
5
273c
100
AcDbEntity
8
0
100
AcDbBlockBegin
2
Ortho0021
70
0
10
0
20
0
3
Ortho0021
1

0
LINE
8
0
6
BYBLOCK
62
0
5
273d
100
AcDbEntity
100
AcDbLine
10
-12.8943
20
-2.97788
30
0
11
-10.7729
21
-1.75314
31
0
0
LINE
8
0
6
BYBLOCK
62
0
5
273e
100
AcDbEntity
100
AcDbLine
10
0
20
20.4124
30
0
11
9.19239
21
15.1052
31
0
0
LINE
8
0
6
BYBLOCK
62
0
5
273f
100
AcDbEntity
100
AcDbLine
10
9.19239
20
15.1052
30
0
11
-16.9706
21
-2.66454e-15
31
0
0
LINE
8
0
6
BYBLOCK
62
0
5
2740
100
AcDbEntity
100
AcDbLine
10
-16.9706
20
1.77636e-15
30
0
11
-12.3535
21
-2.66567
31
0
0
LINE
8
0
6
BYBLOCK
62
0
5
2741
100
AcDbEntity
100
AcDbLine
10
-21.2132
20
-2.66454e-15
30
0
11
-14.2088
21
-4.04398
31
0
0
LINE
8
0
6
BYBLOCK
62
0
5
2742
100
AcDbEntity
100
AcDbLine
10
-21.2132
20
-3.55271e-15
30
0
11
4.94975
21
15.1052
31
0
0
LINE
8
0
6
BYBLOCK
62
0
5
2743
100
AcDbEntity
100
AcDbLine
10
4.94975
20
15.1052
30
0
11
-2.12132
21
19.1877
31
0
0
LINE
8
0
6
BYBLOCK
62
0
5
2744
100
AcDbEntity
100
AcDbLine
10
0
20
20.4124
30
0
11
-2.12132
21
19.1877
31
0
0
LINE
8
0
6
BYBLOCK
62
0
5
2745
100
AcDbEntity
100
AcDbLine
10
9.19239
20
-5.30723
30
0
11
9.19239
21
15.1052
31
0
0
LINE
8
0
6
BYBLOCK
62
0
5
2746
100
AcDbEntity
100
AcDbLine
10
3.57499
20
-8.55044
30
0
11
9.19239
21
-5.30723
31
0
0
ELLIPSE
8
0
6
BYBLOCK
62
0
5
2747
100
AcDbEntity
100
AcDbEllipse
10
-2.82843
20
-15.5134
30
0
11
7.94451
21
-13.7603
31
0
40
0.57735
41
4.89562
42
3.14159
0
LINE
8
0
6
BYBLOCK
62
0
5
2748
100
AcDbEntity
100
AcDbLine
10
11.3137
20
-16.3299
30
0
11
6.43065
21
-13.5107
31
0
0
ELLIPSE
8
0
6
BYBLOCK
62
0
5
2749
100
AcDbEntity
100
AcDbEllipse
10
-4.94975
20
-16.7382
30
0
11
-7.94451
21
13.7603
31
0
40
0.57735
41
4.52916
42
6.28319
0
ELLIPSE
8
0
6
BYBLOCK
62
0
5
274a
100
AcDbEntity
100
AcDbEllipse
10
-4.94975
20
-16.7382
30
0
11
-7.94451
21
13.7603
31
0
40
0.57735
41
0
42
0.183232
0
LINE
8
0
6
BYBLOCK
62
0
5
274b
100
AcDbEntity
100
AcDbLine
10
6.43065
20
-13.5107
30
0
11
4.30933
21
-14.7354
31
0
0
LINE
8
0
6
BYBLOCK
62
0
5
274c
100
AcDbEntity
100
AcDbLine
10
-21.2132
20
-20.4124
30
0
11
-21.2132
21
7.10543e-15
31
0
0
LINE
8
0
6
BYBLOCK
62
0
5
274d
100
AcDbEntity
100
AcDbLine
10
-21.2132
20
-20.4124
30
0
11
11.3137
21
-39.1918
31
0
0
LINE
8
0
6
BYBLOCK
62
0
5
274e
100
AcDbEntity
100
AcDbLine
10
11.3137
20
-39.1918
30
0
11
11.3137
21
-18.7794
31
0
0
LINE
8
0
6
BYBLOCK
62
0
5
274f
100
AcDbEntity
100
AcDbLine
10
11.3137
20
-18.7794
30
0
11
4.30933
21
-14.7354
31
0
0
ELLIPSE
8
0
6
BYBLOCK
62
0
5
2750
100
AcDbEntity
100
AcDbEllipse
10
2.76615
20
-26.3369
30
0
11
-0.75
21
1.29904
31
0
40
0.57735
41
3.92699
42
6.28319
0
ELLIPSE
8
0
6
BYBLOCK
62
0
5
2751
100
AcDbEntity
100
AcDbEllipse
10
2.76615
20
-26.3369
30
0
11
-0.75
21
1.29904
31
0
40
0.57735
41
0
42
3.14159
0
ELLIPSE
8
0
6
BYBLOCK
62
0
5
2752
100
AcDbEntity
100
AcDbEllipse
10
2.76615
20
-26.3369
30
0
11
-0.75
21
1.29904
31
0
40
0.57735
41
3.14159
42
3.92699
0
ELLIPSE
8
0
6
BYBLOCK
62
0
5
2753
100
AcDbEntity
100
AcDbEllipse
10
-12.6656
20
-17.4273
30
0
11
-0.75
21
1.29904
31
0
40
0.57735
41
3.92699
42
6.28319
0
ELLIPSE
8
0
6
BYBLOCK
62
0
5
2754
100
AcDbEntity
100
AcDbEllipse
10
-12.6656
20
-17.4273
30
0
11
-0.75
21
1.29904
31
0
40
0.57735
41
0
42
3.14159
0
ELLIPSE
8
0
6
BYBLOCK
62
0
5
2755
100
AcDbEntity
100
AcDbEllipse
10
-12.6656
20
-17.4273
30
0
11
-0.75
21
1.29904
31
0
40
0.57735
41
3.14159
42
3.92699
0
ELLIPSE
8
0
6
BYBLOCK
62
0
5
2756
100
AcDbEntity
100
AcDbEllipse
10
-4.94975
20
-6.45032
30
0
11
-0.75
21
1.29904
31
0
40
0.57735
41
3.92699
42
6.28319
0
ELLIPSE
8
0
6
BYBLOCK
62
0
5
2757
100
AcDbEntity
100
AcDbEllipse
10
-4.94975
20
-6.45032
30
0
11
-0.75
21
1.29904
31
0
40
0.57735
41
0
42
3.14159
0
ELLIPSE
8
0
6
BYBLOCK
62
0
5
2758
100
AcDbEntity
100
AcDbEllipse
10
-4.94975
20
-6.45032
30
0
11
-0.75
21
1.29904
31
0
40
0.57735
41
3.14159
42
3.92699
0
LINE
8
0
6
BYBLOCK
62
0
5
2759
100
AcDbEntity
100
AcDbLine
10
-2.12132
20
11.0227
30
0
11
-2.12132
21
19.1877
31
0
0
ELLIPSE
8
0
6
BYBLOCK
62
0
5
275a
100
AcDbEntity
100
AcDbEllipse
10
0.707107
20
12.6557
30
0
11
0.75
21
-1.29904
31
0
40
0.57735
41
3.14159
42
1.5708
0
ELLIPSE
8
0
6
BYBLOCK
62
0
5
275b
100
AcDbEntity
100
AcDbEllipse
10
0.707107
20
12.6557
30
0
11
0.75
21
-1.29904
31
0
40
0.57735
41
4.71239
42
3.14159
0
LINE
8
0
6
BYBLOCK
62
0
5
275c
100
AcDbEntity
100
AcDbLine
10
46.669
20
-26.9444
30
0
11
44.5477
21
-28.1691
31
0
0
LINE
8
0
6
BYBLOCK
62
0
5
275d
100
AcDbEntity
100
AcDbLine
10
44.5477
20
-28.1691
30
0
11
37.4767
21
-24.0866
31
0
0
LINE
8
0
6
BYBLOCK
62
0
5
275e
100
AcDbEntity
100
AcDbLine
10
37.4767
20
-24.0866
30
0
11
11.3137
21
-39.1918
31
0
0
LINE
8
0
6
BYBLOCK
62
0
5
275f
100
AcDbEntity
100
AcDbLine
10
46.669
20
-6.53197
30
0
11
37.4767
21
-1.22474
31
0
0
LINE
8
0
6
BYBLOCK
62
0
5
2760
100
AcDbEntity
100
AcDbLine
10
37.4767
20
-1.22474
30
0
11
11.3137
21
-16.3299
31
0
0
LINE
8
0
6
BYBLOCK
62
0
5
2761
100
AcDbEntity
100
AcDbLine
10
37.4767
20
-3.67423
30
0
11
11.3137
21
-18.7794
31
0
0
LINE
8
0
6
BYBLOCK
62
0
5
2762
100
AcDbEntity
100
AcDbLine
10
44.5477
20
-7.75672
30
0
11
37.4767
21
-3.67423
31
0
0
LINE
8
0
6
BYBLOCK
62
0
5
2763
100
AcDbEntity
100
AcDbLine
10
46.669
20
-6.53197
30
0
11
44.5477
21
-7.75672
31
0
0
LINE
8
0
6
BYBLOCK
62
0
5
2764
100
AcDbEntity
100
AcDbLine
10
37.4767
20
-24.0866
30
0
11
37.4767
21
-3.67423
31
0
0
LINE
8
0
6
BYBLOCK
62
0
5
2765
100
AcDbEntity
100
AcDbLine
10
46.669
20
-26.9444
30
0
11
46.669
21
-6.53197
31
0
0
LINE
8
0
6
BYBLOCK
62
0
5
2766
100
AcDbEntity
100
AcDbLine
10
44.5477
20
-28.1691
30
0
11
44.5477
21
-7.75672
31
0
0
ELLIPSE
8
0
6
BYBLOCK
62
0
5
2767
100
AcDbEntity
100
AcDbEllipse
10
41.7193
20
-11.0227
30
0
11
0.75
21
-1.29904
31
0
40
0.57735
41
6.28319
42
5.49779
0
ELLIPSE
8
0
6
BYBLOCK
62
0
5
2768
100
AcDbEntity
100
AcDbEllipse
10
41.7193
20
-11.0227
30
0
11
0.75
21
-1.29904
31
0
40
0.57735
41
3.14159
42
0
0
ELLIPSE
8
0
6
BYBLOCK
62
0
5
2769
100
AcDbEntity
100
AcDbEllipse
10
41.7193
20
-11.0227
30
0
11
0.75
21
-1.29904
31
0
40
0.57735
41
5.49779
42
3.14159
0
ELLIPSE
8
0
6
BYBLOCK
62
0
5
276a
100
AcDbEntity
100
AcDbEllipse
10
41.7193
20
-21.6372
30
0
11
0.75
21
-1.29904
31
0
40
0.57735
41
6.28319
42
5.49779
0
ELLIPSE
8
0
6
BYBLOCK
62
0
5
276b
100
AcDbEntity
100
AcDbEllipse
10
41.7193
20
-21.6372
30
0
11
0.75
21
-1.29904
31
0
40
0.57735
41
3.14159
42
0
0
ELLIPSE
8
0
6
BYBLOCK
62
0
5
276c
100
AcDbEntity
100
AcDbEllipse
10
41.7193
20
-21.6372
30
0
11
0.75
21
-1.29904
31
0
40
0.57735
41
5.49779
42
3.14159
0
ENDBLK
5
276d
100
AcDbEntity
8
0
100
AcDbBlockEnd
0
BLOCK
5
276e
100
AcDbEntity
8
0
100
AcDbBlockBegin
2
Ortho0031
70
0
10
0
20
0
3
Ortho0031
1

0
LINE
8
0
6
BYBLOCK
62
0
5
276f
100
AcDbEntity
100
AcDbLine
10
0
20
0
30
0
11
0
21
13
31
0
0
LINE
8
0
6
BYBLOCK
62
0
5
2770
100
AcDbEntity
100
AcDbLine
10
0
20
13
30
0
11
37
21
13
31
0
0
LINE
8
0
6
BYBLOCK
62
0
5
2771
100
AcDbEntity
100
AcDbLine
10
37
20
13
30
0
11
37
21
19.9057
31
0
0
LINE
8
0
6
BYBLOCK
62
0
5
2772
100
AcDbEntity
100
AcDbLine
10
37
20
19.9057
30
0
11
40
21
19.9057
31
0
0
LINE
8
0
6
BYBLOCK
62
0
5
2773
100
AcDbEntity
100
AcDbLine
10
40
20
10
30
0
11
40
21
19.9057
31
0
0
LINE
8
0
6
BYBLOCK
62
0
5
2774
100
AcDbEntity
100
AcDbLine
10
40
20
10
30
0
11
3
21
10
31
0
0
LINE
8
0
6
BYBLOCK
62
0
5
2775
100
AcDbEntity
100
AcDbLine
10
3
20
10
30
0
11
3
21
0
31
0
0
LINE
8
0
6
BYBLOCK
62
0
5
2776
100
AcDbEntity
100
AcDbLine
10
0
20
0
30
0
11
3
21
0
31
0
0
SPLINE
8
0
6
BYBLOCK
62
0
5
2777
100
AcDbEntity
100
AcDbSpline
70
0
71
1
72
17
73
15
74
0
40
3.74376
40
3.74376
40
3.88213
40
4.02051
40
4.15889
40
4.29726
40
4.43564
40
4.57401
40
4.71239
40
4.85076
40
4.98914
40
5.12752
40
5.26589
40
5.40427
40
5.54264
40
5.68102
40
5.68102
10
37
20
19.9057
30
0
10
37
20
21.2723
30
0
10
37
20
22.863
30
0
10
37
20
24.6476
30
0
10
37
20
26.5919
30
0
10
37
20
28.6586
30
0
10
37
20
30.8084
30
0
10
37
20
33
30
0
10
37
20
35.1916
30
0
10
37
20
37.3414
30
0
10
37
20
39.4081
30
0
10
37
20
41.3524
30
0
10
37
20
43.137
30
0
10
37
20
44.7277
30
0
10
37
20
46.0943
30
0
0
LINE
8
0
6
BYBLOCK
62
0
5
2778
100
AcDbEntity
100
AcDbLine
10
37
20
53
30
0
11
37
21
46.0943
31
0
0
SPLINE
8
0
6
BYBLOCK
62
0
5
2779
100
AcDbEntity
100
AcDbSpline
70
0
71
1
72
17
73
15
74
0
40
3.14159
40
3.14159
40
3.36599
40
3.59039
40
3.81479
40
4.03919
40
4.26359
40
4.48799
40
4.71239
40
4.93679
40
5.16119
40
5.38559
40
5.60999
40
5.83439
40
6.05879
40
6.28319
40
6.28319
10
37
20
31.5
30
0
10
37
20
31.5376
30
0
10
37
20
31.6485
30
0
10
37
20
31.8273
30
0
10
37
20
32.0648
30
0
10
37
20
32.3492
30
0
10
37
20
32.6662
30
0
10
37
20
33
30
0
10
37
20
33.3338
30
0
10
37
20
33.6508
30
0
10
37
20
33.9352
30
0
10
37
20
34.1727
30
0
10
37
20
34.3515
30
0
10
37
20
34.4624
30
0
10
37
20
34.5
30
0
0
SPLINE
8
0
6
BYBLOCK
62
0
5
277a
100
AcDbEntity
100
AcDbSpline
70
0
71
1
72
17
73
15
74
0
40
0.602166
40
0.602166
40
0.740542
40
0.878917
40
1.01729
40
1.15567
40
1.29404
40
1.43242
40
1.5708
40
1.70917
40
1.84755
40
1.98592
40
2.1243
40
2.26268
40
2.40105
40
2.53943
40
2.53943
10
40
20
46.0943
30
0
10
40
20
44.7277
30
0
10
40
20
43.137
30
0
10
40
20
41.3524
30
0
10
40
20
39.4081
30
0
10
40
20
37.3414
30
0
10
40
20
35.1916
30
0
10
40
20
33
30
0
10
40
20
30.8084
30
0
10
40
20
28.6586
30
0
10
40
20
26.5919
30
0
10
40
20
24.6476
30
0
10
40
20
22.863
30
0
10
40
20
21.2723
30
0
10
40
20
19.9057
30
0
0
LINE
8
0
6
BYBLOCK
62
0
5
277b
100
AcDbEntity
100
AcDbLine
10
37
20
46.0943
30
0
11
40
21
46.0943
31
0
0
LINE
8
0
6
BYBLOCK
62
0
5
277c
100
AcDbEntity
100
AcDbLine
10
40
20
56
30
0
11
40
21
46.0943
31
0
0
LINE
8
0
6
BYBLOCK
62
0
5
277d
100
AcDbEntity
100
AcDbLine
10
0
20
66
30
0
11
0
21
53
31
0
0
LINE
8
0
6
BYBLOCK
62
0
5
277e
100
AcDbEntity
100
AcDbLine
10
-2.77556e-15
20
53
30
0
11
37
21
53
31
0
0
LINE
8
0
6
BYBLOCK
62
0
5
277f
100
AcDbEntity
100
AcDbLine
10
3
20
56
30
0
11
40
21
56
31
0
0
LINE
8
0
6
BYBLOCK
62
0
5
2780
100
AcDbEntity
100
AcDbLine
10
3
20
66
30
0
11
3
21
56
31
0
0
LINE
8
0
6
BYBLOCK
62
0
5
2781
100
AcDbEntity
100
AcDbLine
10
0
20
66
30
0
11
3
21
66
31
0
0
ENDBLK
5
2782
100
AcDbEntity
8
0
100
AcDbBlockEnd
0
ENDSEC
0
SECTION
2
ENTITIES
0
LINE
5
4B
100
AcDbEntity
8
PAPERSIZE
6
ByLayer
62
256
370
-1
100
AcDbLine
10
0
20
-5
11
0
21
0
0
LINE
5
4C
100
AcDbEntity
8
PAPERSIZE
6
ByLayer
62
256
370
-1
100
AcDbLine
10
0
20
0
11
5
21
0
0
LINE
5
4D
100
AcDbEntity
8
PAPERSIZE
6
ByLayer
62
256
370
-1
100
AcDbLine
10
589
20
0
11
594
21
0
0
LINE
5
4E
100
AcDbEntity
8
PAPERSIZE
6
ByLayer
62
256
370
-1
100
AcDbLine
10
594
20
0
11
594
21
-5
0
LINE
5
4F
100
AcDbEntity
8
PAPERSIZE
6
ByLayer
62
256
370
-1
100
AcDbLine
10
589
20
-420
11
594
21
-420
0
LINE
5
50
100
AcDbEntity
8
PAPERSIZE
6
ByLayer
62
256
370
-1
100
AcDbLine
10
594
20
-420
11
594
21
-415
0
LINE
5
51
100
AcDbEntity
8
PAPERSIZE
6
ByLayer
62
256
370
-1
100
AcDbLine
10
0
20
-415
11
0
21
-420
0
LINE
5
52
100
AcDbEntity
8
PAPERSIZE
6
ByLayer
62
256
370
-1
100
AcDbLine
10
0
20
-420
11
5
21
-420
0
LINE
5
53
100
AcDbEntity
8
BORDER
6
ByLayer
62
7
370
-1
100
AcDbLine
10
20
20
-10
11
584
21
-10
0
LINE
5
54
100
AcDbEntity
8
BORDER
6
ByLayer
62
7
370
-1
100
AcDbLine
10
584
20
-10
11
584
21
-410
0
LINE
5
55
100
AcDbEntity
8
BORDER
6
ByLayer
62
7
370
-1
100
AcDbLine
10
584
20
-410
11
20
21
-410
0
LINE
5
56
100
AcDbEntity
8
BORDER
6
ByLayer
62
7
370
-1
100
AcDbLine
10
20
20
-410
11
20
21
-10
0
LINE
5
57
100
AcDbEntity
8
TITLEBLOCK
6
ByLayer
62
7
370
-1
100
AcDbLine
10
404
20
-350
11
584
21
-350
0
LINE
5
58
100
AcDbEntity
8
TITLEBLOCK
6
ByLayer
62
7
370
-1
100
AcDbLine
10
584
20
-350
11
584
21
-410
0
LINE
5
59
100
AcDbEntity
8
TITLEBLOCK
6
ByLayer
62
7
370
-1
100
AcDbLine
10
584
20
-410
11
404
21
-410
0
LINE
5
5A
100
AcDbEntity
8
TITLEBLOCK
6
ByLayer
62
7
370
-1
100
AcDbLine
10
404
20
-410
11
404
21
-350
0
LINE
5
5B
100
AcDbEntity
8
TITLEBLOCK
6
ByLayer
62
7
370
-1
100
AcDbLine
10
404
20
-362
11
584
21
-362
0
LINE
5
5C
100
AcDbEntity
8
TITLEBLOCK
6
ByLayer
62
7
370
-1
100
AcDbLine
10
464
20
-350
11
464
21
-362
0
LINE
5
5D
100
AcDbEntity
8
TITLEBLOCK
6
ByLayer
62
7
370
-1
100
AcDbLine
10
524
20
-362
11
524
21
-410
0
LINE
5
5E
100
AcDbEntity
8
TITLEBLOCK
6
ByLayer
62
7
370
-1
100
AcDbLine
10
544
20
-362
11
544
21
-374
0
LINE
5
5F
100
AcDbEntity
8
TITLEBLOCK
6
ByLayer
62
7
370
-1
100
AcDbLine
10
564
20
-362
11
564
21
-374
0
LINE
5
60
100
AcDbEntity
8
TITLEBLOCK
6
ByLayer
62
7
370
-1
100
AcDbLine
10
524
20
-374
11
584
21
-374
0
LINE
5
61
100
AcDbEntity
8
TITLEBLOCK
6
ByLayer
62
7
370
-1
100
AcDbLine
10
524
20
-398
11
584
21
-398
0
LINE
5
62
100
AcDbEntity
8
TITLEBLOCK
6
ByLayer
62
7
370
-1
100
AcDbLine
10
564
20
-398
11
564
21
-410
0
LINE
5
63
100
AcDbEntity
8
LOGO
6
ByLayer
62
7
370
-1
100
AcDbLine
10
512.6524
20
-399.15254
11
512.6524
21
-408.00744
0
LINE
5
64
100
AcDbEntity
8
LOGO
6
ByLayer
62
7
370
-1
100
AcDbLine
10
512.6524
20
-408.00744
11
514.6268
21
-408.00744
0
LINE
5
65
100
AcDbEntity
8
LOGO
6
ByLayer
62
7
370
-1
100
AcDbLine
10
514.6268
20
-408.00744
11
514.6268
21
-404.54224
0
LINE
5
66
100
AcDbEntity
8
LOGO
6
ByLayer
62
7
370
-1
100
AcDbLine
10
514.6268
20
-404.54224
11
516.0228
21
-404.54224
0
LINE
5
67
100
AcDbEntity
8
LOGO
6
ByLayer
62
7
370
-1
100
AcDbLine
10
516.0228
20
-404.54224
11
516.0228
21
-403.17614
0
LINE
5
68
100
AcDbEntity
8
LOGO
6
ByLayer
62
7
370
-1
100
AcDbLine
10
516.0228
20
-403.17614
11
514.6268
21
-403.17614
0
LINE
5
69
100
AcDbEntity
8
LOGO
6
ByLayer
62
7
370
-1
100
AcDbLine
10
514.6268
20
-403.17614
11
514.6268
21
-401.70164
0
LINE
5
6A
100
AcDbEntity
8
LOGO
6
ByLayer
62
7
370
-1
100
AcDbLine
10
514.6268
20
-401.70164
11
518.0659
21
-401.70164
0
LINE
5
6B
100
AcDbEntity
8
LOGO
6
ByLayer
62
7
370
-1
100
AcDbLine
10
518.0659
20
-401.70164
11
518.0659
21
-399.15754
0
LINE
5
6C
100
AcDbEntity
8
LOGO
6
ByLayer
62
7
370
-1
100
AcDbLine
10
518.0659
20
-399.15754
11
512.6524
21
-399.15254
0
LINE
5
6D
100
AcDbEntity
8
LOGO
6
ByLayer
62
7
370
-1
100
AcDbLine
10
512.6524
20
-399.15254
11
512.6524
21
-399.15254
0
LINE
5
6E
100
AcDbEntity
8
LOGO
6
ByLayer
62
7
370
-1
100
AcDbLine
10
520.2927
20
-402.4504
11
519.78555
21
-402.2744
0
LINE
5
6F
100
AcDbEntity
8
LOGO
6
ByLayer
62
7
370
-1
100
AcDbLine
10
519.78555
20
-402.2744
11
519.30168
21
-401.0378
0
LINE
5
70
100
AcDbEntity
8
LOGO
6
ByLayer
62
7
370
-1
100
AcDbLine
10
519.30168
20
-401.0378
11
518.54053
21
-401.0778
0
LINE
5
71
100
AcDbEntity
8
LOGO
6
ByLayer
62
7
370
-1
100
AcDbLine
10
518.54053
20
-401.0778
11
518.19335
21
-402.3565
0
LINE
5
72
100
AcDbEntity
8
LOGO
6
ByLayer
62
7
370
-1
100
AcDbLine
10
518.19335
20
-402.3565
11
517.70745
21
-402.58919
0
LINE
5
73
100
AcDbEntity
8
LOGO
6
ByLayer
62
7
370
-1
100
AcDbLine
10
517.70745
20
-402.58919
11
516.49555
21
-402.05904
0
LINE
5
74
100
AcDbEntity
8
LOGO
6
ByLayer
62
7
370
-1
100
AcDbLine
10
516.49555
20
-402.05904
11
515.98367
21
-402.62786
0
LINE
5
75
100
AcDbEntity
8
LOGO
6
ByLayer
62
7
370
-1
100
AcDbLine
10
515.98367
20
-402.62786
11
516.64259
21
-403.77636
0
LINE
5
76
100
AcDbEntity
8
LOGO
6
ByLayer
62
7
370
-1
100
AcDbLine
10
516.64259
20
-403.77636
11
516.46253
21
-404.28203
0
LINE
5
77
100
AcDbEntity
8
LOGO
6
ByLayer
62
7
370
-1
100
AcDbLine
10
516.46253
20
-404.28203
11
515.22593
21
-404.7659
0
LINE
5
78
100
AcDbEntity
8
LOGO
6
ByLayer
62
7
370
-1
100
AcDbLine
10
515.22593
20
-404.7659
11
515.269994
21
-405.52853
0
LINE
5
79
100
AcDbEntity
8
LOGO
6
ByLayer
62
7
370
-1
100
AcDbLine
10
515.269994
20
-405.52853
11
516.548694
21
-405.87571
0
LINE
5
7A
100
AcDbEntity
8
LOGO
6
ByLayer
62
7
370
-1
100
AcDbLine
10
516.548694
20
-405.87571
11
516.781384
21
-406.36161
0
LINE
5
7B
100
AcDbEntity
8
LOGO
6
ByLayer
62
7
370
-1
100
AcDbLine
10
516.781384
20
-406.36161
11
516.247174
21
-407.57201
0
LINE
5
7C
100
AcDbEntity
8
LOGO
6
ByLayer
62
7
370
-1
100
AcDbLine
10
516.247174
20
-407.57201
11
516.815994
21
-408.08389
0
LINE
5
7D
100
AcDbEntity
8
LOGO
6
ByLayer
62
7
370
-1
100
AcDbLine
10
516.815994
20
-408.08389
11
517.964494
21
-407.42498
0
LINE
5
7E
100
AcDbEntity
8
LOGO
6
ByLayer
62
7
370
-1
100
AcDbLine
10
517.964494
20
-407.42498
11
518.474224
21
-407.60653
0
LINE
5
7F
100
AcDbEntity
8
LOGO
6
ByLayer
62
7
370
-1
100
AcDbLine
10
518.474224
20
-407.60653
11
518.954024
21
-408.84163
0
LINE
5
80
100
AcDbEntity
8
LOGO
6
ByLayer
62
7
370
-1
100
AcDbLine
10
518.954024
20
-408.84163
11
519.720724
21
-408.79905
0
LINE
5
81
100
AcDbEntity
8
LOGO
6
ByLayer
62
7
370
-1
100
AcDbLine
10
519.720724
20
-408.79905
11
520.063834
21
-407.51885
0
LINE
5
82
100
AcDbEntity
8
LOGO
6
ByLayer
62
7
370
-1
100
AcDbLine
10
520.063834
20
-407.51885
11
520.549734
21
-407.28616
0
LINE
5
83
100
AcDbEntity
8
LOGO
6
ByLayer
62
7
370
-1
100
AcDbLine
10
520.549734
20
-407.28616
11
521.764234
21
-407.82186
0
LINE
5
84
100
AcDbEntity
8
LOGO
6
ByLayer
62
7
370
-1
100
AcDbLine
10
521.764234
20
-407.82186
11
522.276114
21
-407.25304
0
LINE
5
85
100
AcDbEntity
8
LOGO
6
ByLayer
62
7
370
-1
100
AcDbLine
10
522.276114
20
-407.25304
11
521.617204
21
-406.10454
0
LINE
5
86
100
AcDbEntity
8
LOGO
6
ByLayer
62
7
370
-1
100
AcDbLine
10
521.617204
20
-406.10454
11
521.794684
21
-405.59332
0
LINE
5
87
100
AcDbEntity
8
LOGO
6
ByLayer
62
7
370
-1
100
AcDbLine
10
521.794684
20
-405.59332
11
523.029784
21
-405.11352
0
LINE
5
88
100
AcDbEntity
8
LOGO
6
ByLayer
62
7
370
-1
100
AcDbLine
10
523.029784
20
-405.11352
11
522.991274
21
-404.34831
0
LINE
5
89
100
AcDbEntity
8
LOGO
6
ByLayer
62
7
370
-1
100
AcDbLine
10
522.991274
20
-404.34831
11
521.711074
21
-404.0052
0
LINE
5
8A
100
AcDbEntity
8
LOGO
6
ByLayer
62
7
370
-1
100
AcDbLine
10
521.711074
20
-404.0052
11
521.478384
21
-403.5193
0
LINE
5
8B
100
AcDbEntity
8
LOGO
6
ByLayer
62
7
370
-1
100
AcDbLine
10
521.478384
20
-403.5193
11
522.010014
21
-402.3033
0
LINE
5
8C
100
AcDbEntity
8
LOGO
6
ByLayer
62
7
370
-1
100
AcDbLine
10
522.010014
20
-402.3033
11
521.441204
21
-401.79146
0
LINE
5
8D
100
AcDbEntity
8
LOGO
6
ByLayer
62
7
370
-1
100
AcDbLine
10
521.441204
20
-401.79146
11
520.2927
21
-402.4504
0
LINE
5
8E
100
AcDbEntity
8
LOGO
6
ByLayer
62
7
370
-1
100
AcDbLine
10
519.7212
20
-403.6748
11
519.95696
21
-403.81159
0
LINE
5
8F
100
AcDbEntity
8
LOGO
6
ByLayer
62
7
370
-1
100
AcDbLine
10
519.95696
20
-403.81159
11
520.16122
21
-403.99678
0
LINE
5
90
100
AcDbEntity
8
LOGO
6
ByLayer
62
7
370
-1
100
AcDbLine
10
520.16122
20
-403.99678
11
520.32475
21
-404.21779
0
LINE
5
91
100
AcDbEntity
8
LOGO
6
ByLayer
62
7
370
-1
100
AcDbLine
10
520.32475
20
-404.21779
11
520.44238
21
-404.46351
0
LINE
5
92
100
AcDbEntity
8
LOGO
6
ByLayer
62
7
370
-1
100
AcDbLine
10
520.44238
20
-404.46351
11
520.51154
21
-404.7284
0
LINE
5
93
100
AcDbEntity
8
LOGO
6
ByLayer
62
7
370
-1
100
AcDbLine
10
520.51154
20
-404.7284
11
520.523
21
-404.99986
0
LINE
5
94
100
AcDbEntity
8
LOGO
6
ByLayer
62
7
370
-1
100
AcDbLine
10
520.523
20
-404.99986
11
520.48379
21
-405.27125
0
LINE
5
95
100
AcDbEntity
8
LOGO
6
ByLayer
62
7
370
-1
100
AcDbLine
10
520.48379
20
-405.27125
11
520.39431
21
-405.52889
0
LINE
5
96
100
AcDbEntity
8
LOGO
6
ByLayer
62
7
370
-1
100
AcDbLine
10
520.39431
20
-405.52889
11
520.25197
21
-405.76723
0
LINE
5
97
100
AcDbEntity
8
LOGO
6
ByLayer
62
7
370
-1
100
AcDbLine
10
520.25197
20
-405.76723
11
520.07233
21
-405.9689
0
LINE
5
98
100
AcDbEntity
8
LOGO
6
ByLayer
62
7
370
-1
100
AcDbLine
10
520.07233
20
-405.9689
11
519.85132
21
-406.13243
0
LINE
5
99
100
AcDbEntity
8
LOGO
6
ByLayer
62
7
370
-1
100
AcDbLine
10
519.85132
20
-406.13243
11
519.6056
21
-406.25006
0
LINE
5
9A
100
AcDbEntity
8
LOGO
6
ByLayer
62
7
370
-1
100
AcDbLine
10
519.6056
20
-406.25006
11
519.34071
21
-406.31922
0
LINE
5
9B
100
AcDbEntity
8
LOGO
6
ByLayer
62
7
370
-1
100
AcDbLine
10
519.34071
20
-406.31922
11
519.06776
21
-406.33475
0
LINE
5
9C
100
AcDbEntity
8
LOGO
6
ByLayer
62
7
370
-1
100
AcDbLine
10
519.06776
20
-406.33475
11
518.79586
21
-406.29475
0
LINE
5
9D
100
AcDbEntity
8
LOGO
6
ByLayer
62
7
370
-1
100
AcDbLine
10
518.79586
20
-406.29475
11
518.53826
21
-406.20575
0
LINE
5
9E
100
AcDbEntity
8
LOGO
6
ByLayer
62
7
370
-1
100
AcDbLine
10
518.53826
20
-406.20575
11
518.29996
21
-406.06275
0
LINE
5
9F
100
AcDbEntity
8
LOGO
6
ByLayer
62
7
370
-1
100
AcDbLine
10
518.29996
20
-406.06275
11
518.09976
21
-405.87975
0
LINE
5
A0
100
AcDbEntity
8
LOGO
6
ByLayer
62
7
370
-1
100
AcDbLine
10
518.09976
20
-405.87975
11
517.93476
21
-405.66275
0
LINE
5
A1
100
AcDbEntity
8
LOGO
6
ByLayer
62
7
370
-1
100
AcDbLine
10
517.93476
20
-405.66275
11
517.81706
21
-405.41675
0
LINE
5
A2
100
AcDbEntity
8
LOGO
6
ByLayer
62
7
370
-1
100
AcDbLine
10
517.81706
20
-405.41675
11
517.74946
21
-405.14775
0
LINE
5
A3
100
AcDbEntity
8
LOGO
6
ByLayer
62
7
370
-1
100
AcDbLine
10
517.74946
20
-405.14775
11
517.73386
21
-404.87475
0
LINE
5
A4
100
AcDbEntity
8
LOGO
6
ByLayer
62
7
370
-1
100
AcDbLine
10
517.73386
20
-404.87475
11
517.773066
21
-404.60335
0
LINE
5
A5
100
AcDbEntity
8
LOGO
6
ByLayer
62
7
370
-1
100
AcDbLine
10
517.773066
20
-404.60335
11
517.86255
21
-404.34571
0
LINE
5
A6
100
AcDbEntity
8
LOGO
6
ByLayer
62
7
370
-1
100
AcDbLine
10
517.86255
20
-404.34571
11
518.0034
21
-404.11144
0
LINE
5
A7
100
AcDbEntity
8
LOGO
6
ByLayer
62
7
370
-1
100
AcDbLine
10
518.0034
20
-404.11144
11
518.18453
21
-403.9057
0
LINE
5
A8
100
AcDbEntity
8
LOGO
6
ByLayer
62
7
370
-1
100
AcDbLine
10
518.18453
20
-403.9057
11
518.40554
21
-403.74218
0
LINE
5
A9
100
AcDbEntity
8
LOGO
6
ByLayer
62
7
370
-1
100
AcDbLine
10
518.40554
20
-403.74218
11
518.65126
21
-403.62455
0
LINE
5
AA
100
AcDbEntity
8
LOGO
6
ByLayer
62
7
370
-1
100
AcDbLine
10
518.65126
20
-403.62455
11
518.92021
21
-403.55687
0
LINE
5
AB
100
AcDbEntity
8
LOGO
6
ByLayer
62
7
370
-1
100
AcDbLine
10
518.92021
20
-403.55687
11
519.19168
21
-403.54541
0
LINE
5
AC
100
AcDbEntity
8
LOGO
6
ByLayer
62
7
370
-1
100
AcDbLine
10
519.19168
20
-403.54541
11
519.46307
21
-403.58462
0
LINE
5
AD
100
AcDbEntity
8
LOGO
6
ByLayer
62
7
370
-1
100
AcDbLine
10
519.46307
20
-403.58462
11
519.72071
21
-403.6741
0
LINE
5
AE
100
AcDbEntity
8
LOGO
6
ByLayer
62
7
370
-1
100
AcDbLine
10
519.72071
20
-403.6741
11
519.7212
21
-403.6748
0
TEXT
5
AF
100
AcDbEntity
8
TITLEBLOCK
6
ByLayer
62
256
370
20
100
AcDbText
10
405
20
-353
30
0
40
2.2
1
Created by:
50
0
41
1
51
0
7
standard
71
0
210
0
220
0
230
1
100
AcDbText
0
TEXT
5
B0
100
AcDbEntity
8
TITLEBLOCK
6
ByLayer
62
256
370
20
100
AcDbText
10
405
20
-365
30
0
40
2.2
1
Supplementary information:
50
0
41
1
51
0
7
standard
71
0
210
0
220
0
230
1
100
AcDbText
0
TEXT
5
B1
100
AcDbEntity
8
TITLEBLOCK
6
ByLayer
62
256
370
20
100
AcDbText
10
465
20
-353
30
0
40
2.2
1
Title:
50
0
41
1
51
0
7
standard
71
0
210
0
220
0
230
1
100
AcDbText
0
TEXT
5
B2
100
AcDbEntity
8
TITLEBLOCK
6
ByLayer
62
256
370
20
100
AcDbText
10
525
20
-365
30
0
40
2.2
1
Size:
50
0
41
1
51
0
7
standard
71
0
210
0
220
0
230
1
100
AcDbText
0
TEXT
5
B3
100
AcDbEntity
8
TITLEBLOCK
6
ByLayer
62
256
370
20
100
AcDbText
10
545
20
-365
30
0
40
2.2
1
Sheet:
50
0
41
1
51
0
7
standard
71
0
210
0
220
0
230
1
100
AcDbText
0
TEXT
5
B4
100
AcDbEntity
8
TITLEBLOCK
6
ByLayer
62
256
370
20
100
AcDbText
10
565
20
-365
30
0
40
2.2
1
Scale:
50
0
41
1
51
0
7
standard
71
0
210
0
220
0
230
1
100
AcDbText
0
TEXT
5
B5
100
AcDbEntity
8
TITLEBLOCK
6
ByLayer
62
256
370
20
100
AcDbText
10
525
20
-377
30
0
40
2.2
1
Part number:
50
0
41
1
51
0
7
standard
71
0
210
0
220
0
230
1
100
AcDbText
0
TEXT
5
B6
100
AcDbEntity
8
TITLEBLOCK
6
ByLayer
62
256
370
20
100
AcDbText
10
525
20
-389
30
0
40
2.2
1
Drawing number:
50
0
41
1
51
0
7
standard
71
0
210
0
220
0
230
1
100
AcDbText
0
TEXT
5
B7
100
AcDbEntity
8
TITLEBLOCK
6
ByLayer
62
256
370
20
100
AcDbText
10
525
20
-401
30
0
40
2.2
1
Date:
50
0
41
1
51
0
7
standard
71
0
210
0
220
0
230
1
100
AcDbText
0
TEXT
5
B8
100
AcDbEntity
8
TITLEBLOCK
6
ByLayer
62
256
370
20
100
AcDbText
10
565
20
-401
30
0
40
2.2
1
Revision:
50
0
41
1
51
0
7
standard
71
0
210
0
220
0
230
1
100
AcDbText
0
TEXT
5
B9
100
AcDbEntity
8
TITLEBLOCK
6
ByLayer
62
256
370
35
100
AcDbText
10
434
20
-359
30
0
40
3.7
1
AUTHOR NAME
50
0
41
1
51
0
7
standard
71
0
72
1
11
434
21
-359
31
0
210
0
220
0
230
1
100
AcDbText
0
TEXT
5
BA
100
AcDbEntity
8
TITLEBLOCK
6
ByLayer
62
256
370
35
100
AcDbText
10
524
20
-359
30
0
40
3.7
1
DRAWING TITLE
50
0
41
1
51
0
7
standard
71
0
72
1
11
524
21
-359
31
0
210
0
220
0
230
1
100
AcDbText
0
TEXT
5
BB
100
AcDbEntity
8
TITLEBLOCK
6
ByLayer
62
256
370
35
100
AcDbText
10
464
20
-371
30
0
40
3.7
1

50
0
41
1
51
0
7
standard
71
0
72
1
11
464
21
-371
31
0
210
0
220
0
230
1
100
AcDbText
0
TEXT
5
BC
100
AcDbEntity
8
TITLEBLOCK
6
ByLayer
62
256
370
35
100
AcDbText
10
464
20
-378
30
0
40
3.7
1

50
0
41
1
51
0
7
standard
71
0
72
1
11
464
21
-378
31
0
210
0
220
0
230
1
100
AcDbText
0
TEXT
5
BD
100
AcDbEntity
8
TITLEBLOCK
6
ByLayer
62
256
370
35
100
AcDbText
10
464
20
-385
30
0
40
3.7
1
FreeCAD DRAWING
50
0
41
1
51
0
7
standard
71
0
72
1
11
464
21
-385
31
0
210
0
220
0
230
1
100
AcDbText
0
TEXT
5
BE
100
AcDbEntity
8
TITLEBLOCK
6
ByLayer
62
256
370
35
100
AcDbText
10
464
20
-392
30
0
40
3.7
1

50
0
41
1
51
0
7
standard
71
0
72
1
11
464
21
-392
31
0
210
0
220
0
230
1
100
AcDbText
0
TEXT
5
BF
100
AcDbEntity
8
TITLEBLOCK
6
ByLayer
62
256
370
35
100
AcDbText
10
464
20
-399
30
0
40
3.7
1

50
0
41
1
51
0
7
standard
71
0
72
1
11
464
21
-399
31
0
210
0
220
0
230
1
100
AcDbText
0
TEXT
5
C0
100
AcDbEntity
8
TITLEBLOCK
6
ByLayer
62
256
370
35
100
AcDbText
10
464
20
-406
30
0
40
3.7
1

50
0
41
1
51
0
7
standard
71
0
72
1
11
464
21
-406
31
0
210
0
220
0
230
1
100
AcDbText
0
TEXT
5
C1
100
AcDbEntity
8
TITLEBLOCK
6
ByLayer
62
256
370
35
100
AcDbText
10
554
20
-383
30
0
40
3.7
1
PN
50
0
41
1
51
0
7
standard
71
0
72
1
11
554
21
-383
31
0
210
0
220
0
230
1
100
AcDbText
0
TEXT
5
C2
100
AcDbEntity
8
TITLEBLOCK
6
ByLayer
62
256
370
35
100
AcDbText
10
554
20
-395
30
0
40
3.7
1
DN
50
0
41
1
51
0
7
standard
71
0
72
1
11
554
21
-395
31
0
210
0
220
0
230
1
100
AcDbText
0
TEXT
5
C3
100
AcDbEntity
8
TITLEBLOCK
6
ByLayer
62
256
370
35
100
AcDbText
10
534
20
-371
30
0
40
3.7
1
A2
50
0
41
1
51
0
7
standard
71
0
72
1
11
534
21
-371
31
0
210
0
220
0
230
1
100
AcDbText
0
TEXT
5
C4
100
AcDbEntity
8
TITLEBLOCK
6
ByLayer
62
256
370
35
100
AcDbText
10
554
20
-371
30
0
40
3.7
1
X / Y
50
0
41
1
51
0
7
standard
71
0
72
1
11
554
21
-371
31
0
210
0
220
0
230
1
100
AcDbText
0
TEXT
5
C5
100
AcDbEntity
8
TITLEBLOCK
6
ByLayer
62
256
370
35
100
AcDbText
10
574
20
-371
30
0
40
3.7
1
SCALE
50
0
41
1
51
0
7
standard
71
0
72
1
11
574
21
-371
31
0
210
0
220
0
230
1
100
AcDbText
0
TEXT
5
C6
100
AcDbEntity
8
TITLEBLOCK
6
ByLayer
62
256
370
35
100
AcDbText
10
544
20
-407
30
0
40
3.7
1
DD/MM/YYYY
50
0
41
1
51
0
7
standard
71
0
72
1
11
544
21
-407
31
0
210
0
220
0
230
1
100
AcDbText
0
TEXT
5
C7
100
AcDbEntity
8
TITLEBLOCK
6
ByLayer
62
256
370
35
100
AcDbText
10
574
20
-407
30
0
40
3.7
1
REV A
50
0
41
1
51
0
7
standard
71
0
72
1
11
574
21
-407
31
0
210
0
220
0
230
1
100
AcDbText
0
INSERT
5
2783
8
0
6
BYLAYER
62
256
2
Ortho1
10
82.0000076294
20
-342.666687012
30
0
41
1.0
42
1.0
43
1.0
50
90.0000026563
0
INSERT
5
2784
8
0
6
BYLAYER
62
256
2
Ortho0011
10
82.0000076294
20
-103.333343506
30
0
41
1.0
42
1.0
43
1.0
50
-90.0000026563
0
INSERT
5
2785
8
0
6
BYLAYER
62
256
2
Ortho0021
10
286.94909668
20
-132.681762695
30
0
41
1.0
42
1.0
43
1.0
50
-120.000000304
0
INSERT
5
2786
8
0
6
BYLAYER
62
256
2
Ortho0031
10
307.889038086
20
-342.666687012
30
0
41
1.0
42
1.0
43
1.0
50
90.0000026563
0
ENDSEC
0
SECTION
2
OBJECTS
0
DICTIONARY
5
C
330
0
100
AcDbDictionary
281
1
3
ACAD_GROUP
350
D
0
DICTIONARY
5
D
330
C
100
AcDbDictionary
281
1
0
ENDSEC
0
EOF
