999
dxfrw 0.5.11
0
SECTION
2
HEADER
9
$ACADVER
1
AC1015
9
$HANDSEED
5
20000
9
$DWGCODEPAGE
3
ANSI_1252
9
$INSBASE
10
0
20
0
30
0
9
$EXTMIN
10
0
20
-297
30
0
9
$EXTMAX
10
420
20
0
30
0
9
$LIMMIN
10
0
20
0
9
$LIMMAX
10
12
20
9
9
$ORTHOMODE
70
1
9
$LTSCALE
40
1
9
$TEXTSTYLE
7
STANDARD
9
$CLAYER
8
DIMENSIONS
9
$DIMASZ
40
3.5
9
$DIMLFAC
40
1
9
$DIMSCALE
40
1
9
$DIMEXO
40
0
9
$DIMEXE
40
2
9
$DIMTXT
40
3.5
9
$DIMTSZ
40
0
9
$DIMAUNIT
70
0
9
$DIMADEC
70
0
9
$DIMLUNIT
70
2
9
$DIMSTYLE
2
ISO-25
9
$DIMGAP
40
1
9
$DIMTIH
70
0
9
$LUNITS
70
2
9
$LUPREC
70
2
9
$AUNITS
70
0
9
$AUPREC
70
0
9
$SPLINESEGS
70
8
9
$GRIDMODE
70
0
9
$SNAPSTYLE
70
0
9
$GRIDUNIT
10
0
20
0
9
$PINSBASE
10
0
20
297
30
0
9
$PLIMMIN
10
0
20
0
9
$PLIMMAX
10
420
20
297
9
$INSUNITS
70
4
9
$PSVPSCALE
40
1
0
ENDSEC
0
SECTION
2
CLASSES
0
ENDSEC
0
SECTION
2
TABLES
0
TABLE
2
VPORT
5
8
330
0
100
AcDbSymbolTable
70
1
0
VPORT
5
31
330
2
100
AcDbSymbolTableRecord
100
AcDbViewportTableRecord
2
*ACTIVE
70
0
10
0
20
0
11
1
21
1
12
212.295081967
22
8.49180327869
13
0
23
0
14
10
24
10
15
10
25
10
16
0
26
0
36
1
17
0
27
0
37
0
40
330.950819672
41
1.29680998613
42
50
43
0
44
0
50
0
51
0
71
0
72
100
73
1
74
3
75
0
76
0
77
0
78
0
281
0
65
1
110
0
120
0
130
0
111
1
121
0
131
0
112
0
122
1
132
0
79
0
146
0
0
ENDTAB
0
TABLE
2
LTYPE
5
5
330
0
100
AcDbSymbolTable
70
4
0
LTYPE
5
14
330
5
100
AcDbSymbolTableRecord
100
AcDbLinetypeTableRecord
2
ByBlock
70
0
3

72
65
73
0
40
0
0
LTYPE
5
15
330
5
100
AcDbSymbolTableRecord
100
AcDbLinetypeTableRecord
2
ByLayer
70
0
3

72
65
73
0
40
0
0
LTYPE
5
16
330
5
100
AcDbSymbolTableRecord
100
AcDbLinetypeTableRecord
2
Continuous
70
0
3
Solid line
72
65
73
0
40
0
0
LTYPE
5
32
330
5
100
AcDbSymbolTableRecord
100
AcDbLinetypeTableRecord
2
DOT
70
0
3
Dot . . . . . . . . . . . . . . . . . . . . . .
72
65
73
2
40
6.35
49
0
74
0
49
-6.35
74
0
0
LTYPE
5
33
330
5
100
AcDbSymbolTableRecord
100
AcDbLinetypeTableRecord
2
DOT2
70
0
3
Dot (.5x) .....................................
72
65
73
2
40
3.175
49
0
74
0
49
-3.175
74
0
0
LTYPE
5
34
330
5
100
AcDbSymbolTableRecord
100
AcDbLinetypeTableRecord
2
DOTX2
70
0
3
Dot (2x) .  .  .  .  .  .  .  .  .  .  .  .  .
72
65
73
2
40
12.7
49
0
74
0
49
-12.7
74
0
0
LTYPE
5
35
330
5
100
AcDbSymbolTableRecord
100
AcDbLinetypeTableRecord
2
DASHED
70
0
3
Dot . . . . . . . . . . . . . . . . . . . . . .
72
65
73
2
40
19.05
49
12.7
74
0
49
-6.35
74
0
0
LTYPE
5
36
330
5
100
AcDbSymbolTableRecord
100
AcDbLinetypeTableRecord
2
DASHED2
70
0
3
Dashed (.5x) _ _ _ _ _ _ _ _ _ _ _ _ _ _ _ _ _
72
65
73
2
40
9.525
49
6.35
74
0
49
-3.175
74
0
0
LTYPE
5
37
330
5
100
AcDbSymbolTableRecord
100
AcDbLinetypeTableRecord
2
DASHEDX2
70
0
3
Dashed (2x) ____  ____  ____  ____  ____  ___
72
65
73
2
40
38.1
49
25.4
74
0
49
-12.7
74
0
0
LTYPE
5
38
330
5
100
AcDbSymbolTableRecord
100
AcDbLinetypeTableRecord
2
DASHDOT
70
0
3
Dash dot __ . __ . __ . __ . __ . __ . __ . __
72
65
73
4
40
25.4
49
12.7
74
0
49
-6.35
74
0
49
0
74
0
49
-6.35
74
0
0
LTYPE
5
39
330
5
100
AcDbSymbolTableRecord
100
AcDbLinetypeTableRecord
2
DASHDOT2
70
0
3
Dash dot (.5x) _._._._._._._._._._._._._._._.
72
65
73
4
40
12.7
49
6.35
74
0
49
-3.175
74
0
49
0
74
0
49
-3.175
74
0
0
LTYPE
5
3A
330
5
100
AcDbSymbolTableRecord
100
AcDbLinetypeTableRecord
2
DASHDOTX2
70
0
3
Dash dot (2x) ____  .  ____  .  ____  .  ___
72
65
73
4
40
50.8
49
25.4
74
0
49
-12.7
74
0
49
0
74
0
49
-12.7
74
0
0
LTYPE
5
3B
330
5
100
AcDbSymbolTableRecord
100
AcDbLinetypeTableRecord
2
DIVIDE
70
0
3
Divide ____ . . ____ . . ____ . . ____ . . ____
72
65
73
6
40
31.75
49
12.7
74
0
49
-6.35
74
0
49
0
74
0
49
-6.35
74
0
49
0
74
0
49
-6.35
74
0
0
LTYPE
5
3C
330
5
100
AcDbSymbolTableRecord
100
AcDbLinetypeTableRecord
2
DIVIDE2
70
0
3
Divide (.5x) __..__..__..__..__..__..__..__.._
72
65
73
6
40
15.875
49
6.35
74
0
49
-3.175
74
0
49
0
74
0
49
-3.175
74
0
49
0
74
0
49
-3.175
74
0
0
LTYPE
5
3D
330
5
100
AcDbSymbolTableRecord
100
AcDbLinetypeTableRecord
2
DIVIDEX2
70
0
3
Divide (2x) ________  .  .  ________  .  .  _
72
65
73
6
40
63.5
49
25.4
74
0
49
-12.7
74
0
49
0
74
0
49
-12.7
74
0
49
0
74
0
49
-12.7
74
0
0
LTYPE
5
3E
330
5
100
AcDbSymbolTableRecord
100
AcDbLinetypeTableRecord
2
BORDER
70
0
3
Border __ __ . __ __ . __ __ . __ __ . __ __ .
72
65
73
6
40
44.45
49
12.7
74
0
49
-6.35
74
0
49
12.7
74
0
49
-6.35
74
0
49
0
74
0
49
-6.35
74
0
0
LTYPE
5
3F
330
5
100
AcDbSymbolTableRecord
100
AcDbLinetypeTableRecord
2
BORDER2
70
0
3
Border (.5x) __.__.__.__.__.__.__.__.__.__.__.
72
65
73
6
40
22.225
49
6.35
74
0
49
-3.175
74
0
49
6.35
74
0
49
-3.175
74
0
49
0
74
0
49
-3.175
74
0
0
LTYPE
5
40
330
5
100
AcDbSymbolTableRecord
100
AcDbLinetypeTableRecord
2
BORDERX2
70
0
3
Border (2x) ____  ____  .  ____  ____  .  ___
72
65
73
6
40
88.9
49
25.4
74
0
49
-12.7
74
0
49
25.4
74
0
49
-12.7
74
0
49
0
74
0
49
-12.7
74
0
0
LTYPE
5
41
330
5
100
AcDbSymbolTableRecord
100
AcDbLinetypeTableRecord
2
CENTER
70
0
3
Center ____ _ ____ _ ____ _ ____ _ ____ _ ____
72
65
73
4
40
50.8
49
31.75
74
0
49
-6.35
74
0
49
6.35
74
0
49
-6.35
74
0
0
LTYPE
5
42
330
5
100
AcDbSymbolTableRecord
100
AcDbLinetypeTableRecord
2
CENTER2
70
0
3
Center (.5x) ___ _ ___ _ ___ _ ___ _ ___ _ ___
72
65
73
4
40
28.575
49
19.05
74
0
49
-3.175
74
0
49
3.175
74
0
49
-3.175
74
0
0
LTYPE
5
43
330
5
100
AcDbSymbolTableRecord
100
AcDbLinetypeTableRecord
2
CENTERX2
70
0
3
Center (2x) ________  __  ________  __  _____
72
65
73
4
40
101.6
49
63.5
74
0
49
-12.7
74
0
49
12.7
74
0
49
-12.7
74
0
0
ENDTAB
0
TABLE
2
LAYER
5
2
330
0
100
AcDbSymbolTable
70
1
0
LAYER
5
10
330
2
100
AcDbSymbolTableRecord
100
AcDbLayerTableRecord
2
0
70
0
62
7
6
CONTINUOUS
370
35
390
F
0
LAYER
5
44
330
2
100
AcDbSymbolTableRecord
100
AcDbLayerTableRecord
2
BORDER
70
0
62
7
6
CONTINUOUS
370
35
390
F
0
LAYER
5
45
330
2
100
AcDbSymbolTableRecord
100
AcDbLayerTableRecord
2
DIMENSIONS
70
0
62
7
6
CONTINUOUS
370
18
390
F
0
LAYER
5
46
330
2
100
AcDbSymbolTableRecord
100
AcDbLayerTableRecord
2
LOGO
70
0
62
7
6
CONTINUOUS
370
35
390
F
0
LAYER
5
47
330
2
100
AcDbSymbolTableRecord
100
AcDbLayerTableRecord
2
PAPERSIZE
70
0
62
136
6
CONTINUOUS
370
0
390
F
0
LAYER
5
48
330
2
100
AcDbSymbolTableRecord
100
AcDbLayerTableRecord
2
TITLEBLOCK
70
0
62
7
6
CONTINUOUS
370
35
390
F
0
ENDTAB
0
TABLE
2
STYLE
5
3
330
0
100
AcDbSymbolTable
70
3
0
STYLE
5
49
330
2
100
AcDbSymbolTableRecord
100
AcDbTextStyleTableRecord
2
standard
70
0
40
0
41
1
50
0
71
0
42
1
3
standard
4

0
ENDTAB
0
TABLE
2
VIEW
5
6
330
0
100
AcDbSymbolTable
70
0
0
ENDTAB
0
TABLE
2
UCS
5
7
330
0
100
AcDbSymbolTable
70
0
0
ENDTAB
0
TABLE
2
APPID
5
9
330
0
100
AcDbSymbolTable
70
1
0
APPID
5
12
330
9
100
AcDbSymbolTableRecord
100
AcDbRegAppTableRecord
2
ACAD
70
0
0
ENDTAB
0
TABLE
2
DIMSTYLE
5
A
330
0
100
AcDbSymbolTable
70
1
100
AcDbDimStyleTable
71
1
0
DIMSTYLE
105
4A
330
A
100
AcDbSymbolTableRecord
100
AcDbDimStyleTableRecord
2
Standard
70
0
40
1
41
3.5
42
0
43
0.38
44
2
45
0
46
0
47
0
48
0
140
3.5
141
0.09
142
0
143
25.4
144
1
145
0
146
1
147
1
148
0
71
0
72
0
73
0
74
1
75
0
76
0
77
0
78
0
79
0
170
0
171
2
172
0
173
0
174
0
175
0
176
0
177
0
178
0
179
0
271
4
272
4
273
2
274
2
275
0
276
0
277
2
278
46
279
0
280
0
281
0
282
0
283
1
284
0
285
0
286
0
288
0
289
3
340
Standard
341

371
-2
372
-2
0
ENDTAB
0
TABLE
2
BLOCK_RECORD
5
1
330
0
100
AcDbSymbolTable
70
2
0
BLOCK_RECORD
5
1F
330
1
100
AcDbSymbolTableRecord
100
AcDbBlockTableRecord
2
*Model_Space
0
BLOCK_RECORD
5
1E
330
1
100
AcDbSymbolTableRecord
100
AcDbBlockTableRecord
2
*Paper_Space
0
ENDTAB
0
ENDSEC
0
SECTION
2
BLOCKS
0
BLOCK
5
20
330
1F
100
AcDbEntity
8
0
100
AcDbBlockBegin
2
*Model_Space
70
0
10
0
20
0
30
0
3
*Model_Space
1

0
ENDBLK
5
21
330
1F
100
AcDbEntity
8
0
100
AcDbBlockEnd
0
BLOCK
5
1C
330
1B
100
AcDbEntity
8
0
100
AcDbBlockBegin
2
*Paper_Space
70
0
10
0
20
0
30
0
3
*Paper_Space
1

0
ENDBLK
5
1D
330
1F
100
AcDbEntity
8
0
100
AcDbBlockEnd
0
BLOCK
5
2711
100
AcDbEntity
8
0
100
AcDbBlockBegin
2
Ortho1
70
0
10
0
20
0
3
Ortho1
1

0
LINE
8
0
6
BYBLOCK
62
0
5
2712
100
AcDbEntity
100
AcDbLine
10
0
20
0
30
0
11
3
21
0
31
0
0
LINE
8
0
6
BYBLOCK
62
0
5
2713
100
AcDbEntity
100
AcDbLine
10
0
20
-11.5
30
0
11
0
21
0
31
0
0
LINE
8
0
6
BYBLOCK
62
0
5
2714
100
AcDbEntity
100
AcDbLine
10
0
20
-30.85
30
0
11
0
21
-91.15
31
0
0
LINE
8
0
6
BYBLOCK
62
0
5
2715
100
AcDbEntity
100
AcDbLine
10
0
20
-30.85
30
0
11
0
21
-11.5
31
0
0
LINE
8
0
6
BYBLOCK
62
0
5
2716
100
AcDbEntity
100
AcDbLine
10
3
20
-11.5
30
0
11
3
21
0
31
0
0
LINE
8
0
6
BYBLOCK
62
0
5
2717
100
AcDbEntity
100
AcDbLine
10
3
20
-30.85
30
0
11
3
21
-91.15
31
0
0
LINE
8
0
6
BYBLOCK
62
0
5
2718
100
AcDbEntity
100
AcDbLine
10
3
20
-30.85
30
0
11
3
21
-11.5
31
0
0
LINE
8
0
6
BYBLOCK
62
0
5
2719
100
AcDbEntity
100
AcDbLine
10
0
20
-11.5
30
0
11
3
21
-11.5
31
0
0
LINE
8
0
6
BYBLOCK
62
0
5
271a
100
AcDbEntity
100
AcDbLine
10
0
20
-91.15
30
0
11
3
21
-91.15
31
0
0
LINE
8
0
6
BYBLOCK
62
0
5
271b
100
AcDbEntity
100
AcDbLine
10
0
20
-11.5
30
0
11
3
21
-11.5
31
0
0
LINE
8
0
6
BYBLOCK
62
0
5
271c
100
AcDbEntity
100
AcDbLine
10
0
20
-30.85
30
0
11
3
21
-30.85
31
0
0
ENDBLK
5
271d
100
AcDbEntity
8
0
100
AcDbBlockEnd
0
BLOCK
5
271e
100
AcDbEntity
8
0
100
AcDbBlockBegin
2
Ortho0011
70
0
10
0
20
0
3
Ortho0011
1

0
LINE
8
0
6
BYBLOCK
62
0
5
271f
100
AcDbEntity
100
AcDbLine
10
11.5
20
11.5
30
0
11
11.5
21
0
31
0
0
LINE
8
0
6
BYBLOCK
62
0
5
2720
100
AcDbEntity
100
AcDbLine
10
0
20
11.5
30
0
11
11.5
21
11.5
31
0
0
LINE
8
0
6
BYBLOCK
62
0
5
2721
100
AcDbEntity
100
AcDbLine
10
87
20
0
30
0
11
11.5
21
0
31
0
0
LINE
8
0
6
BYBLOCK
62
0
5
2722
100
AcDbEntity
100
AcDbLine
10
87
20
0
30
0
11
87
21
91.15
31
0
0
LINE
8
0
6
BYBLOCK
62
0
5
2723
100
AcDbEntity
100
AcDbLine
10
17
20
91.15
30
0
11
87
21
91.15
31
0
0
LINE
8
0
6
BYBLOCK
62
0
5
2724
100
AcDbEntity
100
AcDbLine
10
17
20
30.85
30
0
11
17
21
91.15
31
0
0
LINE
8
0
6
BYBLOCK
62
0
5
2725
100
AcDbEntity
100
AcDbLine
10
0
20
30.85
30
0
11
17
21
30.85
31
0
0
LINE
8
0
6
BYBLOCK
62
0
5
2726
100
AcDbEntity
100
AcDbLine
10
0
20
30.85
30
0
11
0
21
11.5
31
0
0
CIRCLE
8
0
6
BYBLOCK
62
0
5
2727
100
AcDbEntity
100
AcDbCircle
10
12
20
22.85
30
0
40
1.5
0
CIRCLE
8
0
6
BYBLOCK
62
0
5
2728
100
AcDbEntity
100
AcDbCircle
10
27.5
20
22
30
0
40
1.5
0
CIRCLE
8
0
6
BYBLOCK
62
0
5
2729
100
AcDbEntity
100
AcDbCircle
10
29.7
20
5
30
0
40
1.5
0
CIRCLE
8
0
6
BYBLOCK
62
0
5
272a
100
AcDbEntity
100
AcDbCircle
10
21.7
20
5
30
0
40
1.5
0
CIRCLE
8
0
6
BYBLOCK
62
0
5
272b
100
AcDbEntity
100
AcDbCircle
10
62.3
20
8.7
30
0
40
1.5
0
CIRCLE
8
0
6
BYBLOCK
62
0
5
272c
100
AcDbEntity
100
AcDbCircle
10
61.5
20
22
30
0
40
1.5
0
CIRCLE
8
0
6
BYBLOCK
62
0
5
272d
100
AcDbEntity
100
AcDbCircle
10
44.5
20
22
30
0
40
1.5
0
CIRCLE
8
0
6
BYBLOCK
62
0
5
272e
100
AcDbEntity
100
AcDbCircle
10
40
20
12
30
0
40
1.5
0
CIRCLE
8
0
6
BYBLOCK
62
0
5
272f
100
AcDbEntity
100
AcDbCircle
10
27
20
71.15
30
0
40
2
0
LINE
8
0
6
BYBLOCK
62
0
5
2730
100
AcDbEntity
100
AcDbLine
10
68
20
59
30
0
11
68
21
66.5
31
0
0
LINE
8
0
6
BYBLOCK
62
0
5
2731
100
AcDbEntity
100
AcDbLine
10
68
20
51.5
30
0
11
68
21
59
31
0
0
LINE
8
0
6
BYBLOCK
62
0
5
2732
100
AcDbEntity
100
AcDbLine
10
68
20
66.5
30
0
11
53
21
66.5
31
0
0
LINE
8
0
6
BYBLOCK
62
0
5
2733
100
AcDbEntity
100
AcDbLine
10
53
20
51.5
30
0
11
68
21
51.5
31
0
0
LINE
8
0
6
BYBLOCK
62
0
5
2734
100
AcDbEntity
100
AcDbLine
10
53
20
66.5
30
0
11
53
21
51.5
31
0
0
CIRCLE
8
0
6
BYBLOCK
62
0
5
2735
100
AcDbEntity
100
AcDbCircle
10
58
20
71.15
30
0
40
2
0
CIRCLE
8
0
6
BYBLOCK
62
0
5
2736
100
AcDbEntity
100
AcDbCircle
10
27
20
46.85
30
0
40
2
0
CIRCLE
8
0
6
BYBLOCK
62
0
5
2737
100
AcDbEntity
100
AcDbCircle
10
58
20
46.85
30
0
40
2
0
CIRCLE
8
0
6
BYBLOCK
62
0
5
2738
100
AcDbEntity
100
AcDbCircle
10
78.5
20
22
30
0
40
1.5
0
CIRCLE
8
0
6
BYBLOCK
62
0
5
2739
100
AcDbEntity
100
AcDbCircle
10
70.3
20
8.7
30
0
40
1.5
0
CIRCLE
8
0
6
BYBLOCK
62
0
5
273a
100
AcDbEntity
100
AcDbCircle
10
22.7
20
85.45
30
0
40
1.5
0
CIRCLE
8
0
6
BYBLOCK
62
0
5
273b
100
AcDbEntity
100
AcDbCircle
10
67
20
85.45
30
0
40
1.5
0
LINE
8
0
6
BYBLOCK
62
0
5
273c
100
AcDbEntity
100
AcDbLine
10
87
20
0
30
0
11
162.5
21
0
31
0
0
LINE
8
0
6
BYBLOCK
62
0
5
273d
100
AcDbEntity
100
AcDbLine
10
157
20
91.15
30
0
11
87
21
91.15
31
0
0
LINE
8
0
6
BYBLOCK
62
0
5
273e
100
AcDbEntity
100
AcDbLine
10
162.5
20
11.5
30
0
11
162.5
21
0
31
0
0
LINE
8
0
6
BYBLOCK
62
0
5
273f
100
AcDbEntity
100
AcDbLine
10
157
20
30.85
30
0
11
157
21
91.15
31
0
0
LINE
8
0
6
BYBLOCK
62
0
5
2740
100
AcDbEntity
100
AcDbLine
10
174
20
11.5
30
0
11
162.5
21
11.5
31
0
0
LINE
8
0
6
BYBLOCK
62
0
5
2741
100
AcDbEntity
100
AcDbLine
10
174
20
30.85
30
0
11
157
21
30.85
31
0
0
LINE
8
0
6
BYBLOCK
62
0
5
2742
100
AcDbEntity
100
AcDbLine
10
174
20
30.85
30
0
11
174
21
11.5
31
0
0
CIRCLE
8
0
6
BYBLOCK
62
0
5
2743
100
AcDbEntity
100
AcDbCircle
10
162
20
22.85
30
0
40
1.5
0
CIRCLE
8
0
6
BYBLOCK
62
0
5
2744
100
AcDbEntity
100
AcDbCircle
10
146.5
20
22
30
0
40
1.5
0
CIRCLE
8
0
6
BYBLOCK
62
0
5
2745
100
AcDbEntity
100
AcDbCircle
10
144.3
20
5
30
0
40
1.5
0
CIRCLE
8
0
6
BYBLOCK
62
0
5
2746
100
AcDbEntity
100
AcDbCircle
10
152.3
20
5
30
0
40
1.5
0
CIRCLE
8
0
6
BYBLOCK
62
0
5
2747
100
AcDbEntity
100
AcDbCircle
10
111.7
20
8.7
30
0
40
1.5
0
CIRCLE
8
0
6
BYBLOCK
62
0
5
2748
100
AcDbEntity
100
AcDbCircle
10
112.5
20
22
30
0
40
1.5
0
CIRCLE
8
0
6
BYBLOCK
62
0
5
2749
100
AcDbEntity
100
AcDbCircle
10
129.5
20
22
30
0
40
1.5
0
CIRCLE
8
0
6
BYBLOCK
62
0
5
274a
100
AcDbEntity
100
AcDbCircle
10
134
20
12
30
0
40
1.5
0
CIRCLE
8
0
6
BYBLOCK
62
0
5
274b
100
AcDbEntity
100
AcDbCircle
10
147
20
71.15
30
0
40
2
0
LINE
8
0
6
BYBLOCK
62
0
5
274c
100
AcDbEntity
100
AcDbLine
10
106
20
59
30
0
11
106
21
66.5
31
0
0
LINE
8
0
6
BYBLOCK
62
0
5
274d
100
AcDbEntity
100
AcDbLine
10
106
20
51.5
30
0
11
106
21
59
31
0
0
LINE
8
0
6
BYBLOCK
62
0
5
274e
100
AcDbEntity
100
AcDbLine
10
106
20
66.5
30
0
11
121
21
66.5
31
0
0
LINE
8
0
6
BYBLOCK
62
0
5
274f
100
AcDbEntity
100
AcDbLine
10
121
20
51.5
30
0
11
106
21
51.5
31
0
0
LINE
8
0
6
BYBLOCK
62
0
5
2750
100
AcDbEntity
100
AcDbLine
10
121
20
66.5
30
0
11
121
21
51.5
31
0
0
CIRCLE
8
0
6
BYBLOCK
62
0
5
2751
100
AcDbEntity
100
AcDbCircle
10
116
20
71.15
30
0
40
2
0
CIRCLE
8
0
6
BYBLOCK
62
0
5
2752
100
AcDbEntity
100
AcDbCircle
10
147
20
46.85
30
0
40
2
0
CIRCLE
8
0
6
BYBLOCK
62
0
5
2753
100
AcDbEntity
100
AcDbCircle
10
116
20
46.85
30
0
40
2
0
CIRCLE
8
0
6
BYBLOCK
62
0
5
2754
100
AcDbEntity
100
AcDbCircle
10
95.5
20
22
30
0
40
1.5
0
CIRCLE
8
0
6
BYBLOCK
62
0
5
2755
100
AcDbEntity
100
AcDbCircle
10
103.7
20
8.7
30
0
40
1.5
0
CIRCLE
8
0
6
BYBLOCK
62
0
5
2756
100
AcDbEntity
100
AcDbCircle
10
151.3
20
85.45
30
0
40
1.5
0
CIRCLE
8
0
6
BYBLOCK
62
0
5
2757
100
AcDbEntity
100
AcDbCircle
10
107
20
85.45
30
0
40
1.5
0
ENDBLK
5
2758
100
AcDbEntity
8
0
100
AcDbBlockEnd
0
BLOCK
5
2759
100
AcDbEntity
8
0
100
AcDbBlockBegin
2
Ortho0021
70
0
10
0
20
0
3
Ortho0021
1

0
LINE
8
0
6
BYBLOCK
62
0
5
275a
100
AcDbEntity
100
AcDbLine
10
6.01041
20
3.47011
30
0
11
6.01041
21
-5.9196
31
0
0
LINE
8
0
6
BYBLOCK
62
0
5
275b
100
AcDbEntity
100
AcDbLine
10
-2.12132
20
8.16497
30
0
11
6.01041
21
3.47011
31
0
0
LINE
8
0
6
BYBLOCK
62
0
5
275c
100
AcDbEntity
100
AcDbLine
10
59.397
20
-36.7423
30
0
11
6.01041
21
-5.9196
31
0
0
LINE
8
0
6
BYBLOCK
62
0
5
275d
100
AcDbEntity
100
AcDbLine
10
12.0208
20
67.4834
30
0
11
61.5183
21
38.9061
31
0
0
LINE
8
0
6
BYBLOCK
62
0
5
275e
100
AcDbEntity
100
AcDbLine
10
0
20
25.1889
30
0
11
9.89949
21
19.4734
31
0
0
LINE
8
0
6
BYBLOCK
62
0
5
275f
100
AcDbEntity
100
AcDbLine
10
37.4767
20
20.4124
30
0
11
45.9619
21
15.5134
31
0
0
LINE
8
0
6
BYBLOCK
62
0
5
2760
100
AcDbEntity
100
AcDbLine
10
37.4767
20
30.2104
30
0
11
37.4767
21
20.4124
31
0
0
LINE
8
0
6
BYBLOCK
62
0
5
2761
100
AcDbEntity
100
AcDbLine
10
59.397
20
-36.7423
30
0
11
59.397
21
37.6813
31
0
0
LINE
8
0
6
BYBLOCK
62
0
5
2762
100
AcDbEntity
100
AcDbLine
10
9.89949
20
66.2587
30
0
11
59.397
21
37.6813
31
0
0
LINE
8
0
6
BYBLOCK
62
0
5
2763
100
AcDbEntity
100
AcDbLine
10
9.89949
20
17.024
30
0
11
9.89949
21
66.2587
31
0
0
LINE
8
0
6
BYBLOCK
62
0
5
2764
100
AcDbEntity
100
AcDbLine
10
-2.12132
20
23.9642
30
0
11
9.89949
21
17.024
31
0
0
LINE
8
0
6
BYBLOCK
62
0
5
2765
100
AcDbEntity
100
AcDbLine
10
-2.12132
20
23.9642
30
0
11
-2.12132
21
8.16497
31
0
0
ELLIPSE
8
0
6
BYBLOCK
62
0
5
2766
100
AcDbEntity
100
AcDbEllipse
10
6.36396
20
12.5332
30
0
11
-0.75
21
1.29904
31
0
40
0.57735
41
3.92699
42
6.28319
0
ELLIPSE
8
0
6
BYBLOCK
62
0
5
2767
100
AcDbEntity
100
AcDbEllipse
10
6.36396
20
12.5332
30
0
11
-0.75
21
1.29904
31
0
40
0.57735
41
0
42
3.14159
0
ELLIPSE
8
0
6
BYBLOCK
62
0
5
2768
100
AcDbEntity
100
AcDbEllipse
10
6.36396
20
12.5332
30
0
11
-0.75
21
1.29904
31
0
40
0.57735
41
3.14159
42
3.92699
0
ELLIPSE
8
0
6
BYBLOCK
62
0
5
2769
100
AcDbEntity
100
AcDbEllipse
10
17.3241
20
5.51135
30
0
11
-0.75
21
1.29904
31
0
40
0.57735
41
3.92699
42
6.28319
0
ELLIPSE
8
0
6
BYBLOCK
62
0
5
276a
100
AcDbEntity
100
AcDbEllipse
10
17.3241
20
5.51135
30
0
11
-0.75
21
1.29904
31
0
40
0.57735
41
0
42
3.14159
0
ELLIPSE
8
0
6
BYBLOCK
62
0
5
276b
100
AcDbEntity
100
AcDbEllipse
10
17.3241
20
5.51135
30
0
11
-0.75
21
1.29904
31
0
40
0.57735
41
3.14159
42
3.92699
0
ELLIPSE
8
0
6
BYBLOCK
62
0
5
276c
100
AcDbEntity
100
AcDbEllipse
10
18.8798
20
-9.26724
30
0
11
-0.75
21
1.29904
31
0
40
0.57735
41
3.92699
42
6.28319
0
ELLIPSE
8
0
6
BYBLOCK
62
0
5
276d
100
AcDbEntity
100
AcDbEllipse
10
18.8798
20
-9.26724
30
0
11
-0.75
21
1.29904
31
0
40
0.57735
41
0
42
3.14159
0
ELLIPSE
8
0
6
BYBLOCK
62
0
5
276e
100
AcDbEntity
100
AcDbEllipse
10
18.8798
20
-9.26724
30
0
11
-0.75
21
1.29904
31
0
40
0.57735
41
3.14159
42
3.92699
0
ELLIPSE
8
0
6
BYBLOCK
62
0
5
276f
100
AcDbEntity
100
AcDbEllipse
10
13.2229
20
-6.00125
30
0
11
-0.75
21
1.29904
31
0
40
0.57735
41
3.92699
42
6.28319
0
ELLIPSE
8
0
6
BYBLOCK
62
0
5
2770
100
AcDbEntity
100
AcDbEllipse
10
13.2229
20
-6.00125
30
0
11
-0.75
21
1.29904
31
0
40
0.57735
41
0
42
3.14159
0
ELLIPSE
8
0
6
BYBLOCK
62
0
5
2771
100
AcDbEntity
100
AcDbEllipse
10
13.2229
20
-6.00125
30
0
11
-0.75
21
1.29904
31
0
40
0.57735
41
3.14159
42
3.92699
0
ELLIPSE
8
0
6
BYBLOCK
62
0
5
2772
100
AcDbEntity
100
AcDbEllipse
10
41.9314
20
-19.5551
30
0
11
-0.75
21
1.29904
31
0
40
0.57735
41
3.92699
42
6.28319
0
ELLIPSE
8
0
6
BYBLOCK
62
0
5
2773
100
AcDbEntity
100
AcDbEllipse
10
41.9314
20
-19.5551
30
0
11
-0.75
21
1.29904
31
0
40
0.57735
41
0
42
3.14159
0
ELLIPSE
8
0
6
BYBLOCK
62
0
5
2774
100
AcDbEntity
100
AcDbEllipse
10
41.9314
20
-19.5551
30
0
11
-0.75
21
1.29904
31
0
40
0.57735
41
3.14159
42
3.92699
0
ELLIPSE
8
0
6
BYBLOCK
62
0
5
2775
100
AcDbEntity
100
AcDbEllipse
10
41.3657
20
-8.36909
30
0
11
-0.75
21
1.29904
31
0
40
0.57735
41
3.92699
42
6.28319
0
ELLIPSE
8
0
6
BYBLOCK
62
0
5
2776
100
AcDbEntity
100
AcDbEllipse
10
41.3657
20
-8.36909
30
0
11
-0.75
21
1.29904
31
0
40
0.57735
41
0
42
3.14159
0
ELLIPSE
8
0
6
BYBLOCK
62
0
5
2777
100
AcDbEntity
100
AcDbEllipse
10
41.3657
20
-8.36909
30
0
11
-0.75
21
1.29904
31
0
40
0.57735
41
3.14159
42
3.92699
0
ELLIPSE
8
0
6
BYBLOCK
62
0
5
2778
100
AcDbEntity
100
AcDbEllipse
10
29.3449
20
-1.42887
30
0
11
-0.75
21
1.29904
31
0
40
0.57735
41
3.92699
42
6.28319
0
ELLIPSE
8
0
6
BYBLOCK
62
0
5
2779
100
AcDbEntity
100
AcDbEllipse
10
29.3449
20
-1.42887
30
0
11
-0.75
21
1.29904
31
0
40
0.57735
41
0
42
3.14159
0
ELLIPSE
8
0
6
BYBLOCK
62
0
5
277a
100
AcDbEntity
100
AcDbEllipse
10
29.3449
20
-1.42887
30
0
11
-0.75
21
1.29904
31
0
40
0.57735
41
3.14159
42
3.92699
0
ELLIPSE
8
0
6
BYBLOCK
62
0
5
277b
100
AcDbEntity
100
AcDbEllipse
10
26.163
20
-7.75672
30
0
11
-0.75
21
1.29904
31
0
40
0.57735
41
3.92699
42
6.28319
0
ELLIPSE
8
0
6
BYBLOCK
62
0
5
277c
100
AcDbEntity
100
AcDbEllipse
10
26.163
20
-7.75672
30
0
11
-0.75
21
1.29904
31
0
40
0.57735
41
0
42
3.14159
0
ELLIPSE
8
0
6
BYBLOCK
62
0
5
277d
100
AcDbEntity
100
AcDbEllipse
10
26.163
20
-7.75672
30
0
11
-0.75
21
1.29904
31
0
40
0.57735
41
3.14159
42
3.92699
0
ELLIPSE
8
0
6
BYBLOCK
62
0
5
277e
100
AcDbEntity
100
AcDbEllipse
10
16.9706
20
45.8463
30
0
11
-1
21
1.73205
31
0
40
0.57735
41
3.92699
42
6.28319
0
ELLIPSE
8
0
6
BYBLOCK
62
0
5
277f
100
AcDbEntity
100
AcDbEllipse
10
16.9706
20
45.8463
30
0
11
-1
21
1.73205
31
0
40
0.57735
41
0
42
3.14159
0
ELLIPSE
8
0
6
BYBLOCK
62
0
5
2780
100
AcDbEntity
100
AcDbEllipse
10
16.9706
20
45.8463
30
0
11
-1
21
1.73205
31
0
40
0.57735
41
3.14159
42
3.92699
0
LINE
8
0
6
BYBLOCK
62
0
5
2781
100
AcDbEntity
100
AcDbLine
10
45.9619
20
19.1877
30
0
11
45.9619
21
25.3114
31
0
0
LINE
8
0
6
BYBLOCK
62
0
5
2782
100
AcDbEntity
100
AcDbLine
10
45.9619
20
13.0639
30
0
11
45.9619
21
19.1877
31
0
0
LINE
8
0
6
BYBLOCK
62
0
5
2783
100
AcDbEntity
100
AcDbLine
10
45.9619
20
25.3114
30
0
11
35.3553
21
31.4351
31
0
0
LINE
8
0
6
BYBLOCK
62
0
5
2784
100
AcDbEntity
100
AcDbLine
10
35.3553
20
19.1877
30
0
11
45.9619
21
13.0639
31
0
0
LINE
8
0
6
BYBLOCK
62
0
5
2785
100
AcDbEntity
100
AcDbLine
10
35.3553
20
31.4351
30
0
11
35.3553
21
19.1877
31
0
0
ELLIPSE
8
0
6
BYBLOCK
62
0
5
2786
100
AcDbEntity
100
AcDbEllipse
10
38.8909
20
33.1906
30
0
11
-1
21
1.73205
31
0
40
0.57735
41
3.92699
42
6.28319
0
ELLIPSE
8
0
6
BYBLOCK
62
0
5
2787
100
AcDbEntity
100
AcDbEllipse
10
38.8909
20
33.1906
30
0
11
-1
21
1.73205
31
0
40
0.57735
41
0
42
3.14159
0
ELLIPSE
8
0
6
BYBLOCK
62
0
5
2788
100
AcDbEntity
100
AcDbEllipse
10
38.8909
20
33.1906
30
0
11
-1
21
1.73205
31
0
40
0.57735
41
3.14159
42
3.92699
0
ELLIPSE
8
0
6
BYBLOCK
62
0
5
2789
100
AcDbEntity
100
AcDbEllipse
10
16.9706
20
26.0054
30
0
11
-1
21
1.73205
31
0
40
0.57735
41
3.92699
42
6.28319
0
ELLIPSE
8
0
6
BYBLOCK
62
0
5
278a
100
AcDbEntity
100
AcDbEllipse
10
16.9706
20
26.0054
30
0
11
-1
21
1.73205
31
0
40
0.57735
41
0
42
3.14159
0
ELLIPSE
8
0
6
BYBLOCK
62
0
5
278b
100
AcDbEntity
100
AcDbEllipse
10
16.9706
20
26.0054
30
0
11
-1
21
1.73205
31
0
40
0.57735
41
3.14159
42
3.92699
0
ELLIPSE
8
0
6
BYBLOCK
62
0
5
278c
100
AcDbEntity
100
AcDbEllipse
10
38.8909
20
13.3497
30
0
11
-1
21
1.73205
31
0
40
0.57735
41
3.92699
42
6.28319
0
ELLIPSE
8
0
6
BYBLOCK
62
0
5
278d
100
AcDbEntity
100
AcDbEllipse
10
38.8909
20
13.3497
30
0
11
-1
21
1.73205
31
0
40
0.57735
41
0
42
3.14159
0
ELLIPSE
8
0
6
BYBLOCK
62
0
5
278e
100
AcDbEntity
100
AcDbEllipse
10
38.8909
20
13.3497
30
0
11
-1
21
1.73205
31
0
40
0.57735
41
3.14159
42
3.92699
0
ELLIPSE
8
0
6
BYBLOCK
62
0
5
278f
100
AcDbEntity
100
AcDbEllipse
10
53.3866
20
-15.3093
30
0
11
-0.75
21
1.29904
31
0
40
0.57735
41
3.92699
42
6.28319
0
ELLIPSE
8
0
6
BYBLOCK
62
0
5
2790
100
AcDbEntity
100
AcDbEllipse
10
53.3866
20
-15.3093
30
0
11
-0.75
21
1.29904
31
0
40
0.57735
41
0
42
3.14159
0
ELLIPSE
8
0
6
BYBLOCK
62
0
5
2791
100
AcDbEntity
100
AcDbEllipse
10
53.3866
20
-15.3093
30
0
11
-0.75
21
1.29904
31
0
40
0.57735
41
3.14159
42
3.92699
0
ELLIPSE
8
0
6
BYBLOCK
62
0
5
2792
100
AcDbEntity
100
AcDbEllipse
10
47.5883
20
-22.8211
30
0
11
-0.75
21
1.29904
31
0
40
0.57735
41
3.92699
42
6.28319
0
ELLIPSE
8
0
6
BYBLOCK
62
0
5
2793
100
AcDbEntity
100
AcDbEllipse
10
47.5883
20
-22.8211
30
0
11
-0.75
21
1.29904
31
0
40
0.57735
41
0
42
3.14159
0
ELLIPSE
8
0
6
BYBLOCK
62
0
5
2794
100
AcDbEntity
100
AcDbEllipse
10
47.5883
20
-22.8211
30
0
11
-0.75
21
1.29904
31
0
40
0.57735
41
3.14159
42
3.92699
0
ELLIPSE
8
0
6
BYBLOCK
62
0
5
2795
100
AcDbEntity
100
AcDbEllipse
10
13.93
20
59.2777
30
0
11
-0.75
21
1.29904
31
0
40
0.57735
41
3.92699
42
6.28319
0
ELLIPSE
8
0
6
BYBLOCK
62
0
5
2796
100
AcDbEntity
100
AcDbEllipse
10
13.93
20
59.2777
30
0
11
-0.75
21
1.29904
31
0
40
0.57735
41
0
42
3.14159
0
ELLIPSE
8
0
6
BYBLOCK
62
0
5
2797
100
AcDbEntity
100
AcDbEllipse
10
13.93
20
59.2777
30
0
11
-0.75
21
1.29904
31
0
40
0.57735
41
3.14159
42
3.92699
0
ELLIPSE
8
0
6
BYBLOCK
62
0
5
2798
100
AcDbEntity
100
AcDbEllipse
10
45.2548
20
41.1923
30
0
11
-0.75
21
1.29904
31
0
40
0.57735
41
3.92699
42
6.28319
0
ELLIPSE
8
0
6
BYBLOCK
62
0
5
2799
100
AcDbEntity
100
AcDbEllipse
10
45.2548
20
41.1923
30
0
11
-0.75
21
1.29904
31
0
40
0.57735
41
0
42
3.14159
0
ELLIPSE
8
0
6
BYBLOCK
62
0
5
279a
100
AcDbEntity
100
AcDbEllipse
10
45.2548
20
41.1923
30
0
11
-0.75
21
1.29904
31
0
40
0.57735
41
3.14159
42
3.92699
0
LINE
8
0
6
BYBLOCK
62
0
5
279b
100
AcDbEntity
100
AcDbLine
10
0
20
25.1889
30
0
11
-2.12132
21
23.9642
31
0
0
LINE
8
0
6
BYBLOCK
62
0
5
279c
100
AcDbEntity
100
AcDbLine
10
59.397
20
-36.7423
30
0
11
112.784
21
-67.5651
31
0
0
LINE
8
0
6
BYBLOCK
62
0
5
279d
100
AcDbEntity
100
AcDbLine
10
114.905
20
-66.3403
30
0
11
112.784
21
-67.5651
31
0
0
LINE
8
0
6
BYBLOCK
62
0
5
279e
100
AcDbEntity
100
AcDbLine
10
111.016
20
10.3287
30
0
11
61.5183
21
38.9061
31
0
0
LINE
8
0
6
BYBLOCK
62
0
5
279f
100
AcDbEntity
100
AcDbLine
10
114.905
20
-59.4001
30
0
11
114.905
21
-66.3403
31
0
0
LINE
8
0
6
BYBLOCK
62
0
5
27a0
100
AcDbEntity
100
AcDbLine
10
111.016
20
-38.9061
30
0
11
111.016
21
10.3287
31
0
0
LINE
8
0
6
BYBLOCK
62
0
5
27a1
100
AcDbEntity
100
AcDbLine
10
123.037
20
-45.8463
30
0
11
111.016
21
-38.9061
31
0
0
LINE
8
0
6
BYBLOCK
62
0
5
27a2
100
AcDbEntity
100
AcDbLine
10
123.037
20
-45.8463
30
0
11
123.037
21
-61.6455
31
0
0
LINE
8
0
6
BYBLOCK
62
0
5
27a3
100
AcDbEntity
100
AcDbLine
10
74.9533
20
4.89898
30
0
11
74.9533
21
8.57321
31
0
0
LINE
8
0
6
BYBLOCK
62
0
5
27a4
100
AcDbEntity
100
AcDbLine
10
74.9533
20
-1.22474
30
0
11
74.9533
21
4.89898
31
0
0
LINE
8
0
6
BYBLOCK
62
0
5
27a5
100
AcDbEntity
100
AcDbLine
10
83.4386
20
-6.12372
30
0
11
74.9533
21
-1.22474
31
0
0
LINE
8
0
6
BYBLOCK
62
0
5
27a6
100
AcDbEntity
100
AcDbLine
10
12.0208
20
67.4834
30
0
11
9.89949
21
66.2587
31
0
0
LINE
8
0
6
BYBLOCK
62
0
5
27a7
100
AcDbEntity
100
AcDbLine
10
61.5183
20
38.9061
30
0
11
59.397
21
37.6813
31
0
0
LINE
8
0
6
BYBLOCK
62
0
5
27a8
100
AcDbEntity
100
AcDbLine
10
37.4767
20
20.4124
30
0
11
35.3553
21
19.1877
31
0
0
LINE
8
0
6
BYBLOCK
62
0
5
27a9
100
AcDbEntity
100
AcDbLine
10
108.894
20
9.10394
30
0
11
59.397
21
37.6813
31
0
0
LINE
8
0
6
BYBLOCK
62
0
5
27aa
100
AcDbEntity
100
AcDbLine
10
112.784
20
-58.1754
30
0
11
112.784
21
-67.5651
31
0
0
LINE
8
0
6
BYBLOCK
62
0
5
27ab
100
AcDbEntity
100
AcDbLine
10
108.894
20
-40.1308
30
0
11
108.894
21
9.10394
31
0
0
LINE
8
0
6
BYBLOCK
62
0
5
27ac
100
AcDbEntity
100
AcDbLine
10
120.915
20
-62.8702
30
0
11
112.784
21
-58.1754
31
0
0
LINE
8
0
6
BYBLOCK
62
0
5
27ad
100
AcDbEntity
100
AcDbLine
10
120.915
20
-47.071
30
0
11
108.894
21
-40.1308
31
0
0
LINE
8
0
6
BYBLOCK
62
0
5
27ae
100
AcDbEntity
100
AcDbLine
10
120.915
20
-47.071
30
0
11
120.915
21
-62.8702
31
0
0
ELLIPSE
8
0
6
BYBLOCK
62
0
5
27af
100
AcDbEntity
100
AcDbEllipse
10
112.43
20
-48.704
30
0
11
0.75
21
-1.29904
31
0
40
0.57735
41
3.14159
42
2.35619
0
ELLIPSE
8
0
6
BYBLOCK
62
0
5
27b0
100
AcDbEntity
100
AcDbEllipse
10
112.43
20
-48.704
30
0
11
0.75
21
-1.29904
31
0
40
0.57735
41
6.28319
42
3.14159
0
ELLIPSE
8
0
6
BYBLOCK
62
0
5
27b1
100
AcDbEntity
100
AcDbEllipse
10
112.43
20
-48.704
30
0
11
0.75
21
-1.29904
31
0
40
0.57735
41
2.35619
42
0
0
ELLIPSE
8
0
6
BYBLOCK
62
0
5
27b2
100
AcDbEntity
100
AcDbEllipse
10
101.47
20
-43.0702
30
0
11
0.75
21
-1.29904
31
0
40
0.57735
41
3.14159
42
2.35619
0
ELLIPSE
8
0
6
BYBLOCK
62
0
5
27b3
100
AcDbEntity
100
AcDbEllipse
10
101.47
20
-43.0702
30
0
11
0.75
21
-1.29904
31
0
40
0.57735
41
6.28319
42
3.14159
0
ELLIPSE
8
0
6
BYBLOCK
62
0
5
27b4
100
AcDbEntity
100
AcDbEllipse
10
101.47
20
-43.0702
30
0
11
0.75
21
-1.29904
31
0
40
0.57735
41
2.35619
42
0
0
ELLIPSE
8
0
6
BYBLOCK
62
0
5
27b5
100
AcDbEntity
100
AcDbEllipse
10
99.9142
20
-56.0525
30
0
11
0.75
21
-1.29904
31
0
40
0.57735
41
3.14159
42
2.35619
0
ELLIPSE
8
0
6
BYBLOCK
62
0
5
27b6
100
AcDbEntity
100
AcDbEllipse
10
99.9142
20
-56.0525
30
0
11
0.75
21
-1.29904
31
0
40
0.57735
41
6.28319
42
3.14159
0
ELLIPSE
8
0
6
BYBLOCK
62
0
5
27b7
100
AcDbEntity
100
AcDbEllipse
10
99.9142
20
-56.0525
30
0
11
0.75
21
-1.29904
31
0
40
0.57735
41
2.35619
42
0
0
ELLIPSE
8
0
6
BYBLOCK
62
0
5
27b8
100
AcDbEntity
100
AcDbEllipse
10
105.571
20
-59.3185
30
0
11
0.75
21
-1.29904
31
0
40
0.57735
41
3.14159
42
2.35619
0
ELLIPSE
8
0
6
BYBLOCK
62
0
5
27b9
100
AcDbEntity
100
AcDbEllipse
10
105.571
20
-59.3185
30
0
11
0.75
21
-1.29904
31
0
40
0.57735
41
6.28319
42
3.14159
0
ELLIPSE
8
0
6
BYBLOCK
62
0
5
27ba
100
AcDbEntity
100
AcDbEllipse
10
105.571
20
-59.3185
30
0
11
0.75
21
-1.29904
31
0
40
0.57735
41
2.35619
42
0
0
ELLIPSE
8
0
6
BYBLOCK
62
0
5
27bb
100
AcDbEntity
100
AcDbEllipse
10
76.8625
20
-39.7226
30
0
11
0.75
21
-1.29904
31
0
40
0.57735
41
3.14159
42
2.35619
0
ELLIPSE
8
0
6
BYBLOCK
62
0
5
27bc
100
AcDbEntity
100
AcDbEllipse
10
76.8625
20
-39.7226
30
0
11
0.75
21
-1.29904
31
0
40
0.57735
41
6.28319
42
3.14159
0
ELLIPSE
8
0
6
BYBLOCK
62
0
5
27bd
100
AcDbEntity
100
AcDbEllipse
10
76.8625
20
-39.7226
30
0
11
0.75
21
-1.29904
31
0
40
0.57735
41
2.35619
42
0
0
ELLIPSE
8
0
6
BYBLOCK
62
0
5
27be
100
AcDbEntity
100
AcDbEllipse
10
77.4282
20
-29.1898
30
0
11
0.75
21
-1.29904
31
0
40
0.57735
41
3.14159
42
2.35619
0
ELLIPSE
8
0
6
BYBLOCK
62
0
5
27bf
100
AcDbEntity
100
AcDbEllipse
10
77.4282
20
-29.1898
30
0
11
0.75
21
-1.29904
31
0
40
0.57735
41
6.28319
42
3.14159
0
ELLIPSE
8
0
6
BYBLOCK
62
0
5
27c0
100
AcDbEntity
100
AcDbEllipse
10
77.4282
20
-29.1898
30
0
11
0.75
21
-1.29904
31
0
40
0.57735
41
2.35619
42
0
0
ELLIPSE
8
0
6
BYBLOCK
62
0
5
27c1
100
AcDbEntity
100
AcDbEllipse
10
89.449
20
-36.13
30
0
11
0.75
21
-1.29904
31
0
40
0.57735
41
3.14159
42
2.35619
0
ELLIPSE
8
0
6
BYBLOCK
62
0
5
27c2
100
AcDbEntity
100
AcDbEllipse
10
89.449
20
-36.13
30
0
11
0.75
21
-1.29904
31
0
40
0.57735
41
6.28319
42
3.14159
0
ELLIPSE
8
0
6
BYBLOCK
62
0
5
27c3
100
AcDbEntity
100
AcDbEllipse
10
89.449
20
-36.13
30
0
11
0.75
21
-1.29904
31
0
40
0.57735
41
2.35619
42
0
0
ELLIPSE
8
0
6
BYBLOCK
62
0
5
27c4
100
AcDbEntity
100
AcDbEllipse
10
92.631
20
-46.1321
30
0
11
0.75
21
-1.29904
31
0
40
0.57735
41
3.14159
42
2.35619
0
ELLIPSE
8
0
6
BYBLOCK
62
0
5
27c5
100
AcDbEntity
100
AcDbEllipse
10
92.631
20
-46.1321
30
0
11
0.75
21
-1.29904
31
0
40
0.57735
41
6.28319
42
3.14159
0
ELLIPSE
8
0
6
BYBLOCK
62
0
5
27c6
100
AcDbEntity
100
AcDbEllipse
10
92.631
20
-46.1321
30
0
11
0.75
21
-1.29904
31
0
40
0.57735
41
2.35619
42
0
0
ELLIPSE
8
0
6
BYBLOCK
62
0
5
27c7
100
AcDbEntity
100
AcDbEllipse
10
101.823
20
-3.14351
30
0
11
1
21
-1.73205
31
0
40
0.57735
41
3.14159
42
2.35619
0
ELLIPSE
8
0
6
BYBLOCK
62
0
5
27c8
100
AcDbEntity
100
AcDbEllipse
10
101.823
20
-3.14351
30
0
11
1
21
-1.73205
31
0
40
0.57735
41
6.28319
42
3.14159
0
ELLIPSE
8
0
6
BYBLOCK
62
0
5
27c9
100
AcDbEntity
100
AcDbEllipse
10
101.823
20
-3.14351
30
0
11
1
21
-1.73205
31
0
40
0.57735
41
2.35619
42
0
0
LINE
8
0
6
BYBLOCK
62
0
5
27ca
100
AcDbEntity
100
AcDbLine
10
72.832
20
3.67423
30
0
11
72.832
21
9.79796
31
0
0
LINE
8
0
6
BYBLOCK
62
0
5
27cb
100
AcDbEntity
100
AcDbLine
10
72.832
20
-2.44949
30
0
11
72.832
21
3.67423
31
0
0
LINE
8
0
6
BYBLOCK
62
0
5
27cc
100
AcDbEntity
100
AcDbLine
10
72.832
20
9.79796
30
0
11
83.4386
21
3.67423
31
0
0
LINE
8
0
6
BYBLOCK
62
0
5
27cd
100
AcDbEntity
100
AcDbLine
10
83.4386
20
-8.57321
30
0
11
72.832
21
-2.44949
31
0
0
LINE
8
0
6
BYBLOCK
62
0
5
27ce
100
AcDbEntity
100
AcDbLine
10
83.4386
20
3.67423
30
0
11
83.4386
21
-8.57321
31
0
0
ELLIPSE
8
0
6
BYBLOCK
62
0
5
27cf
100
AcDbEntity
100
AcDbEllipse
10
79.9031
20
9.51219
30
0
11
1
21
-1.73205
31
0
40
0.57735
41
3.14159
42
2.35619
0
ELLIPSE
8
0
6
BYBLOCK
62
0
5
27d0
100
AcDbEntity
100
AcDbEllipse
10
79.9031
20
9.51219
30
0
11
1
21
-1.73205
31
0
40
0.57735
41
6.28319
42
3.14159
0
ELLIPSE
8
0
6
BYBLOCK
62
0
5
27d1
100
AcDbEntity
100
AcDbEllipse
10
79.9031
20
9.51219
30
0
11
1
21
-1.73205
31
0
40
0.57735
41
2.35619
42
0
0
ELLIPSE
8
0
6
BYBLOCK
62
0
5
27d2
100
AcDbEntity
100
AcDbEllipse
10
101.823
20
-22.9844
30
0
11
1
21
-1.73205
31
0
40
0.57735
41
3.14159
42
2.35619
0
ELLIPSE
8
0
6
BYBLOCK
62
0
5
27d3
100
AcDbEntity
100
AcDbEllipse
10
101.823
20
-22.9844
30
0
11
1
21
-1.73205
31
0
40
0.57735
41
6.28319
42
3.14159
0
ELLIPSE
8
0
6
BYBLOCK
62
0
5
27d4
100
AcDbEntity
100
AcDbEllipse
10
101.823
20
-22.9844
30
0
11
1
21
-1.73205
31
0
40
0.57735
41
2.35619
42
0
0
ELLIPSE
8
0
6
BYBLOCK
62
0
5
27d5
100
AcDbEntity
100
AcDbEllipse
10
79.9031
20
-10.3287
30
0
11
1
21
-1.73205
31
0
40
0.57735
41
3.14159
42
2.35619
0
ELLIPSE
8
0
6
BYBLOCK
62
0
5
27d6
100
AcDbEntity
100
AcDbEllipse
10
79.9031
20
-10.3287
30
0
11
1
21
-1.73205
31
0
40
0.57735
41
6.28319
42
3.14159
0
ELLIPSE
8
0
6
BYBLOCK
62
0
5
27d7
100
AcDbEntity
100
AcDbEllipse
10
79.9031
20
-10.3287
30
0
11
1
21
-1.73205
31
0
40
0.57735
41
2.35619
42
0
0
ELLIPSE
8
0
6
BYBLOCK
62
0
5
27d8
100
AcDbEntity
100
AcDbEllipse
10
65.4074
20
-22.2495
30
0
11
0.75
21
-1.29904
31
0
40
0.57735
41
3.14159
42
2.35619
0
ELLIPSE
8
0
6
BYBLOCK
62
0
5
27d9
100
AcDbEntity
100
AcDbEllipse
10
65.4074
20
-22.2495
30
0
11
0.75
21
-1.29904
31
0
40
0.57735
41
6.28319
42
3.14159
0
ELLIPSE
8
0
6
BYBLOCK
62
0
5
27da
100
AcDbEntity
100
AcDbEllipse
10
65.4074
20
-22.2495
30
0
11
0.75
21
-1.29904
31
0
40
0.57735
41
2.35619
42
0
0
ELLIPSE
8
0
6
BYBLOCK
62
0
5
27db
100
AcDbEntity
100
AcDbEllipse
10
71.2057
20
-36.4566
30
0
11
0.75
21
-1.29904
31
0
40
0.57735
41
3.14159
42
2.35619
0
ELLIPSE
8
0
6
BYBLOCK
62
0
5
27dc
100
AcDbEntity
100
AcDbEllipse
10
71.2057
20
-36.4566
30
0
11
0.75
21
-1.29904
31
0
40
0.57735
41
6.28319
42
3.14159
0
ELLIPSE
8
0
6
BYBLOCK
62
0
5
27dd
100
AcDbEntity
100
AcDbEllipse
10
71.2057
20
-36.4566
30
0
11
0.75
21
-1.29904
31
0
40
0.57735
41
2.35619
42
0
0
ELLIPSE
8
0
6
BYBLOCK
62
0
5
27de
100
AcDbEntity
100
AcDbEllipse
10
104.864
20
6.77692
30
0
11
0.75
21
-1.29904
31
0
40
0.57735
41
3.14159
42
2.35619
0
ELLIPSE
8
0
6
BYBLOCK
62
0
5
27df
100
AcDbEntity
100
AcDbEllipse
10
104.864
20
6.77692
30
0
11
0.75
21
-1.29904
31
0
40
0.57735
41
6.28319
42
3.14159
0
ELLIPSE
8
0
6
BYBLOCK
62
0
5
27e0
100
AcDbEntity
100
AcDbEllipse
10
104.864
20
6.77692
30
0
11
0.75
21
-1.29904
31
0
40
0.57735
41
2.35619
42
0
0
ELLIPSE
8
0
6
BYBLOCK
62
0
5
27e1
100
AcDbEntity
100
AcDbEllipse
10
73.5391
20
24.8623
30
0
11
0.75
21
-1.29904
31
0
40
0.57735
41
3.14159
42
2.35619
0
ELLIPSE
8
0
6
BYBLOCK
62
0
5
27e2
100
AcDbEntity
100
AcDbEllipse
10
73.5391
20
24.8623
30
0
11
0.75
21
-1.29904
31
0
40
0.57735
41
6.28319
42
3.14159
0
ELLIPSE
8
0
6
BYBLOCK
62
0
5
27e3
100
AcDbEntity
100
AcDbEllipse
10
73.5391
20
24.8623
30
0
11
0.75
21
-1.29904
31
0
40
0.57735
41
2.35619
42
0
0
LINE
8
0
6
BYBLOCK
62
0
5
27e4
100
AcDbEntity
100
AcDbLine
10
111.016
20
10.3287
30
0
11
108.894
21
9.10394
31
0
0
LINE
8
0
6
BYBLOCK
62
0
5
27e5
100
AcDbEntity
100
AcDbLine
10
111.016
20
-38.9061
30
0
11
108.894
21
-40.1308
31
0
0
LINE
8
0
6
BYBLOCK
62
0
5
27e6
100
AcDbEntity
100
AcDbLine
10
123.037
20
-61.6455
30
0
11
120.915
21
-62.8702
31
0
0
LINE
8
0
6
BYBLOCK
62
0
5
27e7
100
AcDbEntity
100
AcDbLine
10
123.037
20
-45.8463
30
0
11
120.915
21
-47.071
31
0
0
LINE
8
0
6
BYBLOCK
62
0
5
27e8
100
AcDbEntity
100
AcDbLine
10
74.9533
20
-1.22474
30
0
11
72.832
21
-2.44949
31
0
0
ENDBLK
5
27e9
100
AcDbEntity
8
0
100
AcDbBlockEnd
0
ENDSEC
0
SECTION
2
ENTITIES
0
LWPOLYLINE
5
4B
100
AcDbEntity
8
BORDER
6
ByLayer
62
7
370
-1
100
AcDbPolyline
90
5
70
0
43
0
10
10
20
-287
10
410
20
-287
10
410
20
-10
10
10
20
-10
10
10
20
-287
0
LWPOLYLINE
5
4C
100
AcDbEntity
8
BORDER
6
ByLayer
62
7
370
-1
100
AcDbPolyline
90
2
70
0
43
0
10
210
20
-10
10
210
20
0
0
LWPOLYLINE
5
4D
100
AcDbEntity
8
BORDER
6
ByLayer
62
7
370
-1
100
AcDbPolyline
90
2
70
0
43
0
10
210
20
-287
10
210
20
-297
0
LWPOLYLINE
5
4E
100
AcDbEntity
8
BORDER
6
ByLayer
62
7
370
-1
100
AcDbPolyline
90
2
70
0
43
0
10
10
20
-148.5
10
0
20
-148.5
0
LWPOLYLINE
5
4F
100
AcDbEntity
8
BORDER
6
ByLayer
62
7
370
-1
100
AcDbPolyline
90
2
70
0
43
0
10
410
20
-148.5
10
420
20
-148.5
0
LWPOLYLINE
5
50
100
AcDbEntity
8
BORDER
6
ByLayer
62
7
370
-1
100
AcDbPolyline
90
2
70
0
43
0
10
367.5
20
-287
10
367.5
20
-294.5
0
LWPOLYLINE
5
51
100
AcDbEntity
8
BORDER
6
ByLayer
62
7
370
-1
100
AcDbPolyline
90
2
70
0
43
0
10
52.5
20
-287
10
52.5
20
-294.5
0
LWPOLYLINE
5
52
100
AcDbEntity
8
BORDER
6
ByLayer
62
7
370
-1
100
AcDbPolyline
90
2
70
0
43
0
10
315
20
-287
10
315
20
-294.5
0
LWPOLYLINE
5
53
100
AcDbEntity
8
BORDER
6
ByLayer
62
7
370
-1
100
AcDbPolyline
90
2
70
0
43
0
10
105
20
-287
10
105
20
-294.5
0
LWPOLYLINE
5
54
100
AcDbEntity
8
BORDER
6
ByLayer
62
7
370
-1
100
AcDbPolyline
90
2
70
0
43
0
10
262.5
20
-10
10
262.5
20
-2.5
0
LWPOLYLINE
5
55
100
AcDbEntity
8
BORDER
6
ByLayer
62
7
370
-1
100
AcDbPolyline
90
2
70
0
43
0
10
157.5
20
-10
10
157.5
20
-2.5
0
LWPOLYLINE
5
56
100
AcDbEntity
8
BORDER
6
ByLayer
62
7
370
-1
100
AcDbPolyline
90
2
70
0
43
0
10
315
20
-10
10
315
20
-2.5
0
LWPOLYLINE
5
57
100
AcDbEntity
8
BORDER
6
ByLayer
62
7
370
-1
100
AcDbPolyline
90
2
70
0
43
0
10
105
20
-10
10
105
20
-2.5
0
LWPOLYLINE
5
58
100
AcDbEntity
8
BORDER
6
ByLayer
62
7
370
-1
100
AcDbPolyline
90
2
70
0
43
0
10
367.5
20
-10
10
367.5
20
-2.5
0
LWPOLYLINE
5
59
100
AcDbEntity
8
BORDER
6
ByLayer
62
7
370
-1
100
AcDbPolyline
90
2
70
0
43
0
10
52.5
20
-10
10
52.5
20
-2.5
0
LWPOLYLINE
5
5A
100
AcDbEntity
8
BORDER
6
ByLayer
62
7
370
-1
100
AcDbPolyline
90
2
70
0
43
0
10
10
20
-74.3
10
2.5
20
-74.3
0
LWPOLYLINE
5
5B
100
AcDbEntity
8
BORDER
6
ByLayer
62
7
370
-1
100
AcDbPolyline
90
2
70
0
43
0
10
10
20
-222.7
10
2.5
20
-222.7
0
LWPOLYLINE
5
5C
100
AcDbEntity
8
BORDER
6
ByLayer
62
7
370
-1
100
AcDbPolyline
90
2
70
0
43
0
10
410
20
-74.3
10
417.5
20
-74.3
0
LWPOLYLINE
5
5D
100
AcDbEntity
8
BORDER
6
ByLayer
62
7
370
-1
100
AcDbPolyline
90
2
70
0
43
0
10
410
20
-222.7
10
417.5
20
-222.7
0
LWPOLYLINE
5
5E
100
AcDbEntity
8
BORDER
6
ByLayer
62
7
370
-1
100
AcDbPolyline
90
2
70
0
43
0
10
110
20
-289.5
10
310
20
-289.5
0
LWPOLYLINE
5
5F
100
AcDbEntity
8
BORDER
6
ByLayer
62
7
370
-1
100
AcDbPolyline
90
2
70
0
43
0
10
160
20
-287
10
160
20
-292
0
LWPOLYLINE
5
60
100
AcDbEntity
8
BORDER
6
ByLayer
62
7
370
-1
100
AcDbPolyline
90
2
70
0
43
0
10
260
20
-287
10
260
20
-292
0
LWPOLYLINE
5
61
100
AcDbEntity
8
BORDER
6
ByLayer
62
7
370
-1
100
AcDbPolyline
90
2
70
0
43
0
10
170
20
-287
10
170
20
-289.5
0
LWPOLYLINE
5
62
100
AcDbEntity
8
BORDER
6
ByLayer
62
7
370
-1
100
AcDbPolyline
90
2
70
0
43
0
10
250
20
-287
10
250
20
-289.5
0
LWPOLYLINE
5
63
100
AcDbEntity
8
BORDER
6
ByLayer
62
7
370
-1
100
AcDbPolyline
90
2
70
0
43
0
10
180
20
-287
10
180
20
-289.5
0
LWPOLYLINE
5
64
100
AcDbEntity
8
BORDER
6
ByLayer
62
7
370
-1
100
AcDbPolyline
90
2
70
0
43
0
10
240
20
-287
10
240
20
-289.5
0
LWPOLYLINE
5
65
100
AcDbEntity
8
BORDER
6
ByLayer
62
7
370
-1
100
AcDbPolyline
90
2
70
0
43
0
10
190
20
-287
10
190
20
-289.5
0
LWPOLYLINE
5
66
100
AcDbEntity
8
BORDER
6
ByLayer
62
7
370
-1
100
AcDbPolyline
90
2
70
0
43
0
10
230
20
-287
10
230
20
-289.5
0
LWPOLYLINE
5
67
100
AcDbEntity
8
BORDER
6
ByLayer
62
7
370
-1
100
AcDbPolyline
90
2
70
0
43
0
10
200
20
-287
10
200
20
-289.5
0
LWPOLYLINE
5
68
100
AcDbEntity
8
BORDER
6
ByLayer
62
7
370
-1
100
AcDbPolyline
90
2
70
0
43
0
10
220
20
-287
10
220
20
-289.5
0
LWPOLYLINE
5
69
100
AcDbEntity
8
BORDER
6
ByLayer
62
7
370
-1
100
AcDbPolyline
90
2
70
0
43
0
10
110
20
-287
10
110
20
-292
0
LWPOLYLINE
5
6A
100
AcDbEntity
8
BORDER
6
ByLayer
62
7
370
-1
100
AcDbPolyline
90
2
70
0
43
0
10
310
20
-287
10
310
20
-292
0
LWPOLYLINE
5
6B
100
AcDbEntity
8
BORDER
6
ByLayer
62
7
370
-1
100
AcDbPolyline
90
2
70
0
43
0
10
120
20
-287
10
120
20
-289.5
0
LWPOLYLINE
5
6C
100
AcDbEntity
8
BORDER
6
ByLayer
62
7
370
-1
100
AcDbPolyline
90
2
70
0
43
0
10
300
20
-287
10
300
20
-289.5
0
LWPOLYLINE
5
6D
100
AcDbEntity
8
BORDER
6
ByLayer
62
7
370
-1
100
AcDbPolyline
90
2
70
0
43
0
10
130
20
-287
10
130
20
-289.5
0
LWPOLYLINE
5
6E
100
AcDbEntity
8
BORDER
6
ByLayer
62
7
370
-1
100
AcDbPolyline
90
2
70
0
43
0
10
290
20
-287
10
290
20
-289.5
0
LWPOLYLINE
5
6F
100
AcDbEntity
8
BORDER
6
ByLayer
62
7
370
-1
100
AcDbPolyline
90
2
70
0
43
0
10
140
20
-287
10
140
20
-289.5
0
LWPOLYLINE
5
70
100
AcDbEntity
8
BORDER
6
ByLayer
62
7
370
-1
100
AcDbPolyline
90
2
70
0
43
0
10
280
20
-287
10
280
20
-289.5
0
LWPOLYLINE
5
71
100
AcDbEntity
8
BORDER
6
ByLayer
62
7
370
-1
100
AcDbPolyline
90
2
70
0
43
0
10
150
20
-287
10
150
20
-289.5
0
LWPOLYLINE
5
72
100
AcDbEntity
8
BORDER
6
ByLayer
62
7
370
-1
100
AcDbPolyline
90
2
70
0
43
0
10
270
20
-287
10
270
20
-289.5
0
LWPOLYLINE
5
73
100
AcDbEntity
8
TITLEBLOCK
6
ByLayer
62
7
370
-1
100
AcDbPolyline
90
2
70
0
43
0
10
220
20
-287
10
410
20
-287
0
LWPOLYLINE
5
74
100
AcDbEntity
8
TITLEBLOCK
6
ByLayer
62
7
370
-1
100
AcDbPolyline
90
4
70
0
43
0
10
220
20
-287
10
220
20
-227
10
410
20
-227
10
410
20
-287
0
LWPOLYLINE
5
75
100
AcDbEntity
8
TITLEBLOCK
6
ByLayer
62
7
370
-1
100
AcDbPolyline
90
2
70
0
43
0
10
220
20
-283
10
385
20
-283
0
LWPOLYLINE
5
76
100
AcDbEntity
8
TITLEBLOCK
6
ByLayer
62
7
370
-1
100
AcDbPolyline
90
2
70
0
43
0
10
220
20
-270
10
385
20
-270
0
LWPOLYLINE
5
77
100
AcDbEntity
8
TITLEBLOCK
6
ByLayer
62
7
370
-1
100
AcDbPolyline
90
2
70
0
43
0
10
220
20
-257
10
385
20
-257
0
LWPOLYLINE
5
78
100
AcDbEntity
8
TITLEBLOCK
6
ByLayer
62
7
370
-1
100
AcDbPolyline
90
2
70
0
43
0
10
220
20
-242
10
265
20
-242
0
LWPOLYLINE
5
79
100
AcDbEntity
8
TITLEBLOCK
6
ByLayer
62
7
370
-1
100
AcDbPolyline
90
2
70
0
43
0
10
385
20
-280.333
10
410
20
-280.333
0
LWPOLYLINE
5
7A
100
AcDbEntity
8
TITLEBLOCK
6
ByLayer
62
7
370
-1
100
AcDbPolyline
90
2
70
0
43
0
10
385
20
-273.667
10
410
20
-273.667
0
LWPOLYLINE
5
7B
100
AcDbEntity
8
TITLEBLOCK
6
ByLayer
62
7
370
-1
100
AcDbPolyline
90
2
70
0
43
0
10
385
20
-267
10
410
20
-267
0
LWPOLYLINE
5
7C
100
AcDbEntity
8
TITLEBLOCK
6
ByLayer
62
7
370
-1
100
AcDbPolyline
90
2
70
0
43
0
10
385
20
-260.333
10
410
20
-260.333
0
LWPOLYLINE
5
7D
100
AcDbEntity
8
TITLEBLOCK
6
ByLayer
62
7
370
-1
100
AcDbPolyline
90
2
70
0
43
0
10
385
20
-253.667
10
410
20
-253.667
0
LWPOLYLINE
5
7E
100
AcDbEntity
8
TITLEBLOCK
6
ByLayer
62
7
370
-1
100
AcDbPolyline
90
2
70
0
43
0
10
385
20
-247
10
410
20
-247
0
LWPOLYLINE
5
7F
100
AcDbEntity
8
TITLEBLOCK
6
ByLayer
62
7
370
-1
100
AcDbPolyline
90
2
70
0
43
0
10
385
20
-240.333
10
410
20
-240.333
0
LWPOLYLINE
5
80
100
AcDbEntity
8
TITLEBLOCK
6
ByLayer
62
7
370
-1
100
AcDbPolyline
90
2
70
0
43
0
10
385
20
-233.667
10
410
20
-233.667
0
LWPOLYLINE
5
81
100
AcDbEntity
8
TITLEBLOCK
6
ByLayer
62
7
370
-1
100
AcDbPolyline
90
2
70
0
43
0
10
240
20
-283
10
240
20
-257
0
LWPOLYLINE
5
82
100
AcDbEntity
8
TITLEBLOCK
6
ByLayer
62
7
370
-1
100
AcDbPolyline
90
2
70
0
43
0
10
265
20
-283
10
265
20
-227
0
LWPOLYLINE
5
83
100
AcDbEntity
8
TITLEBLOCK
6
ByLayer
62
7
370
-1
100
AcDbPolyline
90
2
70
0
43
0
10
365
20
-283
10
365
20
-270
0
LWPOLYLINE
5
84
100
AcDbEntity
8
TITLEBLOCK
6
ByLayer
62
7
370
-1
100
AcDbPolyline
90
2
70
0
43
0
10
385
20
-287
10
385
20
-227
0
LWPOLYLINE
5
85
100
AcDbEntity
8
TITLEBLOCK
6
ByLayer
62
7
370
-1
100
AcDbPolyline
90
2
70
0
43
0
10
390
20
-287
10
390
20
-227
0
LWPOLYLINE
5
86
100
AcDbEntity
8
TITLEBLOCK
6
ByLayer
62
7
370
-1
100
AcDbPolyline
90
2
70
0
43
0
10
242
20
-263.5
10
263
20
-263.5
0
LWPOLYLINE
5
87
100
AcDbEntity
8
TITLEBLOCK
6
ByLayer
62
7
370
-1
100
AcDbPolyline
90
2
70
0
43
0
10
257.5
20
-269
10
257.5
20
-258
0
LWPOLYLINE
5
88
100
AcDbEntity
8
TITLEBLOCK
6
ByLayer
62
7
370
-1
100
AcDbPolyline
90
5
70
0
43
0
10
243.5
20
-265.5
10
243.5
20
-261.5
10
251.5
20
-259.5
10
251.5
20
-267.5
10
243.5
20
-265.5
0
LWPOLYLINE
5
89
100
AcDbEntity
8
LOGO
6
ByLayer
62
1
370
-1
100
AcDbPolyline
90
12
70
1
43
0
10
371.93153
20
-258.0226
10
371.93153
20
-268.002176
10
374.156706
20
-268.002176
10
374.156706
20
-264.09688
10
375.730062
20
-264.09688
10
375.730062
20
-262.557238
10
374.156706
20
-262.557238
10
374.156706
20
-260.895436
10
378.032582
20
-260.895436
10
378.032582
20
-258.028219
10
371.93153
20
-258.0226
10
371.93153
20
-258.0226
0
LWPOLYLINE
5
8A
100
AcDbEntity
8
LOGO
6
ByLayer
62
5
370
-1
100
AcDbPolyline
90
34
70
1
43
0
10
381.836611
20
-260.996837
10
380.542276
20
-261.739442
10
379.970709
20
-261.541092
10
379.425386
20
-260.147418
10
378.567563
20
-260.192497
10
378.176288
20
-261.633643
10
377.628676
20
-261.895883
10
376.262838
20
-261.2984
10
375.685945
20
-261.939464
10
376.428552
20
-263.233799
10
376.225619
20
-263.803691
10
374.831944
20
-264.349015
10
374.881604
20
-265.20851
10
376.322752
20
-265.599785
10
376.584992
20
-266.147396
10
375.982928
20
-267.511562
10
376.623991
20
-268.088454
10
377.918324
20
-267.34585
10
378.492801
20
-267.550455
10
379.033543
20
-268.942456
10
379.897619
20
-268.894467
10
380.284312
20
-267.451648
10
380.831925
20
-267.189408
10
382.20067
20
-267.793147
10
382.777563
20
-267.152083
10
382.034958
20
-265.857749
10
382.23498
20
-265.2816
10
383.626981
20
-264.740858
10
383.583578
20
-263.878455
10
382.140758
20
-263.491762
10
381.878516
20
-262.944151
10
382.477672
20
-261.57373
10
381.836611
20
-260.996837
10
381.836611
20
-260.996837
0
LWPOLYLINE
5
8B
100
AcDbEntity
8
LOGO
6
ByLayer
62
5
370
-1
100
AcDbPolyline
90
34
70
1
43
0
10
379.898092
20
-263.119387
10
380.163792
20
-263.27355
10
380.393991
20
-263.482264
10
380.578287
20
-263.731344
10
380.710861
20
-264.008278
10
380.788808
20
-264.306809
10
380.801718
20
-264.612753
10
380.75753
20
-264.918617
10
380.656684
20
-265.208984
10
380.496264
20
-265.477593
10
380.293807
20
-265.704882
10
380.044725
20
-265.889178
10
379.767791
20
-266.021752
10
379.469262
20
-266.099697
10
379.161644
20
-266.117195
10
378.855779
20
-266.073009
10
378.565414
20
-265.972161
10
378.296805
20
-265.811742
10
378.071186
20
-265.6047
10
377.885221
20
-265.360203
10
377.752643
20
-265.08327
10
377.676372
20
-264.780156
10
377.658877
20
-264.472539
10
377.703062
20
-264.166674
10
377.803911
20
-263.876308
10
377.962657
20
-263.612281
10
378.16679
20
-263.38041
10
378.41587
20
-263.196114
10
378.692802
20
-263.06354
10
378.995915
20
-262.987268
10
379.30186
20
-262.974354
10
379.607724
20
-263.018539
10
379.89809
20
-263.119388
10
379.898092
20
-263.119387
0
CIRCLE
5
8C
100
AcDbEntity
8
TITLEBLOCK
6
ByLayer
62
256
370
-1
100
AcDbCircle
10
257.5
20
-263.5
40
4
0
CIRCLE
5
8D
100
AcDbEntity
8
TITLEBLOCK
6
ByLayer
62
256
370
-1
100
AcDbCircle
10
257.5
20
-263.5
40
2
0
LINE
5
8E
100
AcDbEntity
8
PAPERSIZE
6
ByLayer
62
256
370
-1
100
AcDbLine
10
0
20
-5
11
0
21
0
0
LINE
5
8F
100
AcDbEntity
8
PAPERSIZE
6
ByLayer
62
256
370
-1
100
AcDbLine
10
0
20
0
11
5
21
0
0
LINE
5
90
100
AcDbEntity
8
PAPERSIZE
6
ByLayer
62
256
370
-1
100
AcDbLine
10
415
20
0
11
420
21
0
0
LINE
5
91
100
AcDbEntity
8
PAPERSIZE
6
ByLayer
62
256
370
-1
100
AcDbLine
10
420
20
0
11
420
21
-5
0
LINE
5
92
100
AcDbEntity
8
PAPERSIZE
6
ByLayer
62
256
370
-1
100
AcDbLine
10
420
20
-292
11
420
21
-297
0
LINE
5
93
100
AcDbEntity
8
PAPERSIZE
6
ByLayer
62
256
370
-1
100
AcDbLine
10
420
20
-297
11
415
21
-297
0
LINE
5
94
100
AcDbEntity
8
PAPERSIZE
6
ByLayer
62
256
370
-1
100
AcDbLine
10
0
20
-292
11
0
21
-297
0
LINE
5
95
100
AcDbEntity
8
PAPERSIZE
6
ByLayer
62
256
370
-1
100
AcDbLine
10
0
20
-297
11
5
21
-297
0
TEXT
5
96
100
AcDbEntity
8
BORDER
6
CONTINUOUS
62
256
370
25
100
AcDbText
10
413.572094845
20
-261.65684455
30
0
40
3.5
1
1
50
0
41
1
51
0
7
standard
71
0
210
0
220
0
230
1
100
AcDbText
0
TEXT
5
97
100
AcDbEntity
8
BORDER
6
CONTINUOUS
62
256
370
25
100
AcDbText
10
413.450334954
20
-187.45684455
30
0
40
3.5
1
2
50
0
41
1
51
0
7
standard
71
0
210
0
220
0
230
1
100
AcDbText
0
TEXT
5
98
100
AcDbEntity
8
BORDER
6
CONTINUOUS
62
256
370
25
100
AcDbText
10
413.400198528
20
-113.228195164
30
0
40
3.5
1
3
50
0
41
1
51
0
7
standard
71
0
210
0
220
0
230
1
100
AcDbText
0
TEXT
5
99
100
AcDbEntity
8
BORDER
6
CONTINUOUS
62
256
370
25
100
AcDbText
10
413.481371789
20
-38.9496822037
30
0
40
3.5
1
4
50
0
41
1
51
0
7
standard
71
0
210
0
220
0
230
1
100
AcDbText
0
TEXT
5
9A
100
AcDbEntity
8
BORDER
6
CONTINUOUS
62
256
370
25
100
AcDbText
10
392.217
20
-293.833
30
0
40
3.5
1
A
50
0
41
1
51
0
7
standard
71
0
210
0
220
0
230
1
100
AcDbText
0
TEXT
5
9B
100
AcDbEntity
8
BORDER
6
CONTINUOUS
62
256
370
25
100
AcDbText
10
339.717
20
-293.833
30
0
40
3.5
1
B
50
0
41
1
51
0
7
standard
71
0
210
0
220
0
230
1
100
AcDbText
0
TEXT
5
9C
100
AcDbEntity
8
BORDER
6
CONTINUOUS
62
256
370
25
100
AcDbText
10
77.217
20
-293.833
30
0
40
3.5
1
G
50
0
41
1
51
0
7
standard
71
0
210
0
220
0
230
1
100
AcDbText
0
TEXT
5
9D
100
AcDbEntity
8
BORDER
6
CONTINUOUS
62
256
370
25
100
AcDbText
10
24.717
20
-293.833
30
0
40
3.5
1
H
50
0
41
1
51
0
7
standard
71
0
210
0
220
0
230
1
100
AcDbText
0
TEXT
5
9E
100
AcDbEntity
8
BORDER
6
CONTINUOUS
62
256
370
25
100
AcDbText
10
6.82572604188
20
-38.5650814646
30
0
40
3.5
1
4
50
90
41
1
51
0
7
standard
71
0
210
0
220
0
230
1
100
AcDbText
0
TEXT
5
9F
100
AcDbEntity
8
BORDER
6
CONTINUOUS
62
256
370
25
100
AcDbText
10
6.74455278131
20
-112.843594425
30
0
40
3.5
1
3
50
90
41
1
51
0
7
standard
71
0
210
0
220
0
230
1
100
AcDbText
0
TEXT
5
A0
100
AcDbEntity
8
BORDER
6
CONTINUOUS
62
256
370
25
100
AcDbText
10
6.79468920696
20
-187.072243811
30
0
40
3.5
1
2
50
90
41
1
51
0
7
standard
71
0
210
0
220
0
230
1
100
AcDbText
0
TEXT
5
A1
100
AcDbEntity
8
BORDER
6
CONTINUOUS
62
256
370
25
100
AcDbText
10
6.91644909782
20
-261.272243811
30
0
40
3.5
1
1
50
90
41
1
51
0
7
standard
71
0
210
0
220
0
230
1
100
AcDbText
0
TEXT
5
A2
100
AcDbEntity
8
BORDER
6
CONTINUOUS
62
256
370
25
100
AcDbText
10
28.1541949745
20
-6.84933195762
30
0
40
3.5
1
H
50
90
41
1
51
0
7
standard
71
0
210
0
220
0
230
1
100
AcDbText
0
TEXT
5
A3
100
AcDbEntity
8
BORDER
6
CONTINUOUS
62
256
370
25
100
AcDbText
10
80.6541949745
20
-6.84933195762
30
0
40
3.5
1
G
50
90
41
1
51
0
7
standard
71
0
210
0
220
0
230
1
100
AcDbText
0
TEXT
5
A4
100
AcDbEntity
8
BORDER
6
CONTINUOUS
62
256
370
25
100
AcDbText
10
133.154194975
20
-6.84933195762
30
0
40
3.5
1
F
50
90
41
1
51
0
7
standard
71
0
210
0
220
0
230
1
100
AcDbText
0
TEXT
5
A5
100
AcDbEntity
8
BORDER
6
CONTINUOUS
62
256
370
25
100
AcDbText
10
185.654194975
20
-6.84933195762
30
0
40
3.5
1
E
50
90
41
1
51
0
7
standard
71
0
210
0
220
0
230
1
100
AcDbText
0
TEXT
5
A6
100
AcDbEntity
8
BORDER
6
CONTINUOUS
62
256
370
25
100
AcDbText
10
238.154194975
20
-6.84933195762
30
0
40
3.5
1
D
50
90
41
1
51
0
7
standard
71
0
210
0
220
0
230
1
100
AcDbText
0
TEXT
5
A7
100
AcDbEntity
8
BORDER
6
CONTINUOUS
62
256
370
25
100
AcDbText
10
290.654194975
20
-6.84933195762
30
0
40
3.5
1
C
50
90
41
1
51
0
7
standard
71
0
210
0
220
0
230
1
100
AcDbText
0
TEXT
5
A8
100
AcDbEntity
8
BORDER
6
CONTINUOUS
62
256
370
25
100
AcDbText
10
343.154194975
20
-6.84933195762
30
0
40
3.5
1
B
50
90
41
1
51
0
7
standard
71
0
210
0
220
0
230
1
100
AcDbText
0
TEXT
5
A9
100
AcDbEntity
8
BORDER
6
CONTINUOUS
62
256
370
25
100
AcDbText
10
395.654194975
20
-6.84933195762
30
0
40
3.5
1
A
50
90
41
1
51
0
7
standard
71
0
210
0
220
0
230
1
100
AcDbText
0
TEXT
5
AA
100
AcDbEntity
8
TITLEBLOCK
6
CONTINUOUS
62
256
370
18
100
AcDbText
10
387.5
20
-231.5
30
0
40
2.5
1
I
50
0
41
1
51
0
7
standard
71
0
210
0
220
0
230
1
100
AcDbText
0
TEXT
5
AB
100
AcDbEntity
8
TITLEBLOCK
6
CONTINUOUS
62
256
370
18
100
AcDbText
10
386.730900409
20
-238.166
30
0
40
2.5
1
H
50
0
41
1
51
0
7
standard
71
0
210
0
220
0
230
1
100
AcDbText
0
TEXT
5
AC
100
AcDbEntity
8
TITLEBLOCK
6
CONTINUOUS
62
256
370
18
100
AcDbText
10
386.64904502
20
-244.834705321
30
0
40
2.5
1
G
50
0
41
1
51
0
7
standard
71
0
210
0
220
0
230
1
100
AcDbText
0
TEXT
5
AD
100
AcDbEntity
8
TITLEBLOCK
6
CONTINUOUS
62
256
370
18
100
AcDbText
10
386.862210095
20
-251.5
30
0
40
2.5
1
F
50
0
41
1
51
0
7
standard
71
0
210
0
220
0
230
1
100
AcDbText
0
TEXT
5
AE
100
AcDbEntity
8
TITLEBLOCK
6
CONTINUOUS
62
256
370
18
100
AcDbText
10
386.783765348
20
-258.166
30
0
40
2.5
1
E
50
0
41
1
51
0
7
standard
71
0
210
0
220
0
230
1
100
AcDbText
0
TEXT
5
AF
100
AcDbEntity
8
TITLEBLOCK
6
CONTINUOUS
62
256
370
18
100
AcDbText
10
386.689972715
20
-264.833
30
0
40
2.5
1
D
50
0
41
1
51
0
7
standard
71
0
210
0
220
0
230
1
100
AcDbText
0
TEXT
5
B0
100
AcDbEntity
8
TITLEBLOCK
6
CONTINUOUS
62
256
370
18
100
AcDbText
10
386.713847203
20
-271.501705321
30
0
40
2.5
1
C
50
0
41
1
51
0
7
standard
71
0
210
0
220
0
230
1
100
AcDbText
0
TEXT
5
B1
100
AcDbEntity
8
TITLEBLOCK
6
CONTINUOUS
62
256
370
18
100
AcDbText
10
386.793997271
20
-278.166
30
0
40
2.5
1
B
50
0
41
1
51
0
7
standard
71
0
210
0
220
0
230
1
100
AcDbText
0
TEXT
5
B2
100
AcDbEntity
8
TITLEBLOCK
6
CONTINUOUS
62
256
370
18
100
AcDbText
10
386.824693042
20
-284.833
30
0
40
2.5
1
A
50
0
41
1
51
0
7
standard
71
0
210
0
220
0
230
1
100
AcDbText
0
TEXT
5
B3
100
AcDbEntity
8
TITLEBLOCK
6
CONTINUOUS
62
256
370
9
100
AcDbText
10
365.918907406
20
-272.054107844
30
0
40
1.5
1
SHEET
50
0
41
1
51
0
7
standard
71
0
210
0
220
0
230
1
100
AcDbText
0
TEXT
5
B4
100
AcDbEntity
8
TITLEBLOCK
6
CONTINUOUS
62
256
370
9
100
AcDbText
10
265.918907406
20
-272.054107844
30
0
40
1.5
1
DRAWING NUMBER
50
0
41
1
51
0
7
standard
71
0
210
0
220
0
230
1
100
AcDbText
0
TEXT
5
B5
100
AcDbEntity
8
TITLEBLOCK
6
CONTINUOUS
62
256
370
9
100
AcDbText
10
240.918907406
20
-272.054107844
30
0
40
1.5
1
WEIGHT (kg)
50
0
41
1
51
0
7
standard
71
0
210
0
220
0
230
1
100
AcDbText
0
TEXT
5
B6
100
AcDbEntity
8
TITLEBLOCK
6
CONTINUOUS
62
256
370
9
100
AcDbText
10
220.918907406
20
-272.054107844
30
0
40
1.5
1
SCALE
50
0
41
1
51
0
7
standard
71
0
210
0
220
0
230
1
100
AcDbText
0
TEXT
5
B7
100
AcDbEntity
8
TITLEBLOCK
6
CONTINUOUS
62
256
370
9
100
AcDbText
10
220.918907406
20
-259.054107844
30
0
40
1.5
1
SIZE
50
0
41
1
51
0
7
standard
71
0
210
0
220
0
230
1
100
AcDbText
0
TEXT
5
B8
100
AcDbEntity
8
TITLEBLOCK
6
CONTINUOUS
62
256
370
9
100
AcDbText
10
220.918907406
20
-251.596206231
30
0
40
1.5
1
DATE:
50
0
41
1
51
0
7
standard
71
0
210
0
220
0
230
1
100
AcDbText
0
TEXT
5
B9
100
AcDbEntity
8
TITLEBLOCK
6
CONTINUOUS
62
256
370
9
100
AcDbText
10
220.918907406
20
-244.054107844
30
0
40
1.5
1
CHECKED BY:
50
0
41
1
51
0
7
standard
71
0
210
0
220
0
230
1
100
AcDbText
0
TEXT
5
BA
100
AcDbEntity
8
TITLEBLOCK
6
CONTINUOUS
62
256
370
9
100
AcDbText
10
220.918907406
20
-229.054107844
30
0
40
1.5
1
DESIGNED BY:
50
0
41
1
51
0
7
standard
71
0
210
0
220
0
230
1
100
AcDbText
0
TEXT
5
BB
100
AcDbEntity
8
TITLEBLOCK
6
CONTINUOUS
62
256
370
9
100
AcDbText
10
220.918907406
20
-236.596206231
30
0
40
1.5
1
DATE:
50
0
41
1
51
0
7
standard
71
0
210
0
220
0
230
1
100
AcDbText
0
TEXT
5
BC
100
AcDbEntity
8
TITLEBLOCK
6
CONTINUOUS
62
256
370
9
100
AcDbText
10
220.918907406
20
-285.820293122
30
0
40
1.5
1
This drawing is our property; it can't be reproduced or communicated without our written agreement.
50
0
41
1
51
0
7
standard
71
0
210
0
220
0
230
1
100
AcDbText
0
TEXT
5
BD
100
AcDbEntity
8
TITLEBLOCK
6
CONTINUOUS
62
256
370
20
100
AcDbText
10
220.918907406
20
-233.212607418
30
0
40
3
1
AUTHOR NAME
50
0
41
1
51
0
7
standard
71
0
210
0
220
0
230
1
100
AcDbText
0
TEXT
5
BE
100
AcDbEntity
8
TITLEBLOCK
6
CONTINUOUS
62
256
370
20
100
AcDbText
10
220.918907406
20
-240.754705805
30
0
40
3
1
CREATION DATE
50
0
41
1
51
0
7
standard
71
0
210
0
220
0
230
1
100
AcDbText
0
TEXT
5
BF
100
AcDbEntity
8
TITLEBLOCK
6
CONTINUOUS
62
256
370
20
100
AcDbText
10
220.918907406
20
-255.754705805
30
0
40
3
1
CHECK DATE
50
0
41
1
51
0
7
standard
71
0
210
0
220
0
230
1
100
AcDbText
0
TEXT
5
C0
100
AcDbEntity
8
TITLEBLOCK
6
CONTINUOUS
62
256
370
20
100
AcDbText
10
220.918907406
20
-248.212607418
30
0
40
3
1
SUPERVISOR NAME
50
0
41
1
51
0
7
standard
71
0
210
0
220
0
230
1
100
AcDbText
0
TEXT
5
C1
100
AcDbEntity
8
TITLEBLOCK
6
CONTINUOUS
62
256
370
20
100
AcDbText
10
240.918907406
20
-278.678696239
30
0
40
3
1
WEIGHT
50
0
41
1
51
0
7
standard
71
0
210
0
220
0
230
1
100
AcDbText
0
TEXT
5
C2
100
AcDbEntity
8
TITLEBLOCK
6
CONTINUOUS
62
256
370
20
100
AcDbText
10
265.918907406
20
-278.678696239
30
0
40
3
1
NUMBER
50
0
41
1
51
0
7
standard
71
0
210
0
220
0
230
1
100
AcDbText
0
TEXT
5
C3
100
AcDbEntity
8
TITLEBLOCK
6
CONTINUOUS
62
256
370
20
100
AcDbText
10
365.918907406
20
-278.678696239
30
0
40
3
1
SHEET
50
0
41
1
51
0
7
standard
71
0
210
0
220
0
230
1
100
AcDbText
0
TEXT
5
C4
100
AcDbEntity
8
TITLEBLOCK
6
CONTINUOUS
62
256
370
20
100
AcDbText
10
268.722112758
20
-247.920432075
30
0
40
3
1
SUBTITLE
50
0
41
1
51
0
7
standard
71
0
210
0
220
0
230
1
100
AcDbText
0
TEXT
5
C5
100
AcDbEntity
8
TITLEBLOCK
6
CONTINUOUS
62
256
370
35
100
AcDbText
10
225.491266736
20
-266.285896921
30
0
40
5
1
A3
50
0
41
1
51
0
7
standard
71
0
210
0
220
0
230
1
100
AcDbText
0
TEXT
5
C6
100
AcDbEntity
8
TITLEBLOCK
6
CONTINUOUS
62
256
370
13
100
AcDbText
10
398.757780525
20
-231.235614598
30
0
40
2.5
1
_
50
0
41
1
51
0
7
standard
71
0
210
0
220
0
230
1
100
AcDbText
0
TEXT
5
C7
100
AcDbEntity
8
TITLEBLOCK
6
CONTINUOUS
62
256
370
13
100
AcDbText
10
398.757780525
20
-237.901614598
30
0
40
2.5
1
_
50
0
41
1
51
0
7
standard
71
0
210
0
220
0
230
1
100
AcDbText
0
TEXT
5
C8
100
AcDbEntity
8
TITLEBLOCK
6
CONTINUOUS
62
256
370
13
100
AcDbText
10
398.757780525
20
-244.568614598
30
0
40
2.5
1
_
50
0
41
1
51
0
7
standard
71
0
210
0
220
0
230
1
100
AcDbText
0
TEXT
5
C9
100
AcDbEntity
8
TITLEBLOCK
6
CONTINUOUS
62
256
370
13
100
AcDbText
10
398.757780525
20
-251.235614598
30
0
40
2.5
1
_
50
0
41
1
51
0
7
standard
71
0
210
0
220
0
230
1
100
AcDbText
0
TEXT
5
CA
100
AcDbEntity
8
TITLEBLOCK
6
CONTINUOUS
62
256
370
13
100
AcDbText
10
398.757780525
20
-257.901614598
30
0
40
2.5
1
_
50
0
41
1
51
0
7
standard
71
0
210
0
220
0
230
1
100
AcDbText
0
TEXT
5
CB
100
AcDbEntity
8
TITLEBLOCK
6
CONTINUOUS
62
256
370
13
100
AcDbText
10
398.757780525
20
-264.568614598
30
0
40
2.5
1
_
50
0
41
1
51
0
7
standard
71
0
210
0
220
0
230
1
100
AcDbText
0
TEXT
5
CC
100
AcDbEntity
8
TITLEBLOCK
6
CONTINUOUS
62
256
370
13
100
AcDbText
10
398.757780525
20
-271.235614598
30
0
40
2.5
1
_
50
0
41
1
51
0
7
standard
71
0
210
0
220
0
230
1
100
AcDbText
0
TEXT
5
CD
100
AcDbEntity
8
TITLEBLOCK
6
CONTINUOUS
62
256
370
13
100
AcDbText
10
398.757780525
20
-277.901614598
30
0
40
2.5
1
_
50
0
41
1
51
0
7
standard
71
0
210
0
220
0
230
1
100
AcDbText
0
TEXT
5
CE
100
AcDbEntity
8
TITLEBLOCK
6
CONTINUOUS
62
256
370
13
100
AcDbText
10
398.757780525
20
-284.568614598
30
0
40
2.5
1
_
50
0
41
1
51
0
7
standard
71
0
210
0
220
0
230
1
100
AcDbText
0
TEXT
5
CF
100
AcDbEntity
8
TITLEBLOCK
6
CONTINUOUS
62
256
370
35
100
AcDbText
10
268.722112758
20
-243.015694817
30
0
40
5
1
TITLE
50
0
41
1
51
0
7
standard
71
0
210
0
220
0
230
1
100
AcDbText
0
TEXT
5
D0
100
AcDbEntity
8
TITLEBLOCK
6
CONTINUOUS
62
256
370
20
100
AcDbText
10
220.918907406
20
-278.678696239
30
0
40
3
1
SCALE
50
0
41
1
51
0
7
standard
71
0
210
0
220
0
230
1
100
AcDbText
0
INSERT
5
27ea
8
0
6
BYLAYER
62
256
2
Ortho1
10
77.0458374023
20
-198.916671753
30
0
41
0.75
42
0.75
43
0.75
50
90.0000026563
0
INSERT
5
27eb
8
0
6
BYLAYER
62
256
2
Ortho0011
10
77.0458374023
20
-38.0833358765
30
0
41
0.75
42
0.75
43
0.75
50
-90.0000026563
0
INSERT
5
27ec
8
0
6
BYLAYER
62
256
2
Ortho0021
10
299.673095703
20
-63.6592559814
30
0
41
0.75
42
0.75
43
0.75
50
-120.000000304
0
ENDSEC
0
SECTION
2
OBJECTS
0
DICTIONARY
5
C
330
0
100
AcDbDictionary
281
1
3
ACAD_GROUP
350
D
0
DICTIONARY
5
D
330
C
100
AcDbDictionary
281
1
0
ENDSEC
0
EOF
