999
dxfrw 0.5.11
0
SECTION
2
HEADER
9
$ACADVER
1
AC1015
9
$HANDSEED
5
20000
9
$DWGCODEPAGE
3
ANSI_1250
9
$INSBASE
10
0
20
0
30
0
9
$EXTMIN
10
0
20
-420
30
0
9
$EXTMAX
10
594
20
0
30
0
9
$LIMMIN
10
0
20
0
9
$LIMMAX
10
420
20
297
9
$ORTHOMODE
70
0
9
$LTSCALE
40
1
9
$TEXTSTYLE
7
STANDARD
9
$CLAYER
8
DIMENSIONS
9
$DIMASZ
40
3.5
9
$DIMLFAC
40
1
9
$DIMSCALE
40
1
9
$DIMEXO
40
0
9
$DIMEXE
40
2
9
$DIMTXT
40
3.5
9
$DIMTSZ
40
0
9
$DIMAUNIT
70
0
9
$DIMADEC
70
2
9
$DIMLUNIT
70
2
9
$DIMSTYLE
2
STANDARD
9
$DIMGAP
40
1
9
$DIMTIH
70
0
9
$LUNITS
70
2
9
$LUPREC
70
2
9
$AUNITS
70
0
9
$AUPREC
70
2
9
$SPLINESEGS
70
8
9
$GRIDMODE
70
0
9
$SNAPSTYLE
70
0
9
$GRIDUNIT
10
0
20
0
9
$PINSBASE
10
0
20
420
30
0
9
$PLIMMIN
10
0
20
0
9
$PLIMMAX
10
594
20
420
9
$INSUNITS
70
4
9
$PSVPSCALE
40
1
0
ENDSEC
0
SECTION
2
CLASSES
0
ENDSEC
0
SECTION
2
TABLES
0
TABLE
2
VPORT
5
8
330
0
100
AcDbSymbolTable
70
1
0
VPORT
5
31
330
2
100
AcDbSymbolTableRecord
100
AcDbViewportTableRecord
2
*ACTIVE
70
0
10
0
20
0
11
1
21
1
12
300.245901639
22
12.3344262295
13
0
23
0
14
10
24
10
15
10
25
10
16
0
26
0
36
1
17
0
27
0
37
0
40
468.059016393
41
1.29680998613
42
50
43
0
44
0
50
0
51
0
71
0
72
100
73
1
74
3
75
0
76
0
77
0
78
0
281
0
65
1
110
0
120
0
130
0
111
1
121
0
131
0
112
0
122
1
132
0
79
0
146
0
0
ENDTAB
0
TABLE
2
LTYPE
5
5
330
0
100
AcDbSymbolTable
70
4
0
LTYPE
5
14
330
5
100
AcDbSymbolTableRecord
100
AcDbLinetypeTableRecord
2
ByBlock
70
0
3

72
65
73
0
40
0
0
LTYPE
5
15
330
5
100
AcDbSymbolTableRecord
100
AcDbLinetypeTableRecord
2
ByLayer
70
0
3

72
65
73
0
40
0
0
LTYPE
5
16
330
5
100
AcDbSymbolTableRecord
100
AcDbLinetypeTableRecord
2
Continuous
70
0
3
Solid line
72
65
73
0
40
0
0
LTYPE
5
32
330
5
100
AcDbSymbolTableRecord
100
AcDbLinetypeTableRecord
2
DOT
70
0
3
Dot . . . . . . . . . . . . . . . . . . . . . .
72
65
73
2
40
6.35
49
0
74
0
49
-6.35
74
0
0
LTYPE
5
33
330
5
100
AcDbSymbolTableRecord
100
AcDbLinetypeTableRecord
2
DOT2
70
0
3
Dot (.5x) .....................................
72
65
73
2
40
3.175
49
0
74
0
49
-3.175
74
0
0
LTYPE
5
34
330
5
100
AcDbSymbolTableRecord
100
AcDbLinetypeTableRecord
2
DOTX2
70
0
3
Dot (2x) .  .  .  .  .  .  .  .  .  .  .  .  .
72
65
73
2
40
12.7
49
0
74
0
49
-12.7
74
0
0
LTYPE
5
35
330
5
100
AcDbSymbolTableRecord
100
AcDbLinetypeTableRecord
2
DASHED
70
0
3
Dot . . . . . . . . . . . . . . . . . . . . . .
72
65
73
2
40
19.05
49
12.7
74
0
49
-6.35
74
0
0
LTYPE
5
36
330
5
100
AcDbSymbolTableRecord
100
AcDbLinetypeTableRecord
2
DASHED2
70
0
3
Dashed (.5x) _ _ _ _ _ _ _ _ _ _ _ _ _ _ _ _ _
72
65
73
2
40
9.525
49
6.35
74
0
49
-3.175
74
0
0
LTYPE
5
37
330
5
100
AcDbSymbolTableRecord
100
AcDbLinetypeTableRecord
2
DASHEDX2
70
0
3
Dashed (2x) ____  ____  ____  ____  ____  ___
72
65
73
2
40
38.1
49
25.4
74
0
49
-12.7
74
0
0
LTYPE
5
38
330
5
100
AcDbSymbolTableRecord
100
AcDbLinetypeTableRecord
2
DASHDOT
70
0
3
Dash dot __ . __ . __ . __ . __ . __ . __ . __
72
65
73
4
40
25.4
49
12.7
74
0
49
-6.35
74
0
49
0
74
0
49
-6.35
74
0
0
LTYPE
5
39
330
5
100
AcDbSymbolTableRecord
100
AcDbLinetypeTableRecord
2
DASHDOT2
70
0
3
Dash dot (.5x) _._._._._._._._._._._._._._._.
72
65
73
4
40
12.7
49
6.35
74
0
49
-3.175
74
0
49
0
74
0
49
-3.175
74
0
0
LTYPE
5
3A
330
5
100
AcDbSymbolTableRecord
100
AcDbLinetypeTableRecord
2
DASHDOTX2
70
0
3
Dash dot (2x) ____  .  ____  .  ____  .  ___
72
65
73
4
40
50.8
49
25.4
74
0
49
-12.7
74
0
49
0
74
0
49
-12.7
74
0
0
LTYPE
5
3B
330
5
100
AcDbSymbolTableRecord
100
AcDbLinetypeTableRecord
2
DIVIDE
70
0
3
Divide ____ . . ____ . . ____ . . ____ . . ____
72
65
73
6
40
31.75
49
12.7
74
0
49
-6.35
74
0
49
0
74
0
49
-6.35
74
0
49
0
74
0
49
-6.35
74
0
0
LTYPE
5
3C
330
5
100
AcDbSymbolTableRecord
100
AcDbLinetypeTableRecord
2
DIVIDE2
70
0
3
Divide (.5x) __..__..__..__..__..__..__..__.._
72
65
73
6
40
15.875
49
6.35
74
0
49
-3.175
74
0
49
0
74
0
49
-3.175
74
0
49
0
74
0
49
-3.175
74
0
0
LTYPE
5
3D
330
5
100
AcDbSymbolTableRecord
100
AcDbLinetypeTableRecord
2
DIVIDEX2
70
0
3
Divide (2x) ________  .  .  ________  .  .  _
72
65
73
6
40
63.5
49
25.4
74
0
49
-12.7
74
0
49
0
74
0
49
-12.7
74
0
49
0
74
0
49
-12.7
74
0
0
LTYPE
5
3E
330
5
100
AcDbSymbolTableRecord
100
AcDbLinetypeTableRecord
2
BORDER
70
0
3
Border __ __ . __ __ . __ __ . __ __ . __ __ .
72
65
73
6
40
44.45
49
12.7
74
0
49
-6.35
74
0
49
12.7
74
0
49
-6.35
74
0
49
0
74
0
49
-6.35
74
0
0
LTYPE
5
3F
330
5
100
AcDbSymbolTableRecord
100
AcDbLinetypeTableRecord
2
BORDER2
70
0
3
Border (.5x) __.__.__.__.__.__.__.__.__.__.__.
72
65
73
6
40
22.225
49
6.35
74
0
49
-3.175
74
0
49
6.35
74
0
49
-3.175
74
0
49
0
74
0
49
-3.175
74
0
0
LTYPE
5
40
330
5
100
AcDbSymbolTableRecord
100
AcDbLinetypeTableRecord
2
BORDERX2
70
0
3
Border (2x) ____  ____  .  ____  ____  .  ___
72
65
73
6
40
88.9
49
25.4
74
0
49
-12.7
74
0
49
25.4
74
0
49
-12.7
74
0
49
0
74
0
49
-12.7
74
0
0
LTYPE
5
41
330
5
100
AcDbSymbolTableRecord
100
AcDbLinetypeTableRecord
2
CENTER
70
0
3
Center ____ _ ____ _ ____ _ ____ _ ____ _ ____
72
65
73
4
40
50.8
49
31.75
74
0
49
-6.35
74
0
49
6.35
74
0
49
-6.35
74
0
0
LTYPE
5
42
330
5
100
AcDbSymbolTableRecord
100
AcDbLinetypeTableRecord
2
CENTER2
70
0
3
Center (.5x) ___ _ ___ _ ___ _ ___ _ ___ _ ___
72
65
73
4
40
28.575
49
19.05
74
0
49
-3.175
74
0
49
3.175
74
0
49
-3.175
74
0
0
LTYPE
5
43
330
5
100
AcDbSymbolTableRecord
100
AcDbLinetypeTableRecord
2
CENTERX2
70
0
3
Center (2x) ________  __  ________  __  _____
72
65
73
4
40
101.6
49
63.5
74
0
49
-12.7
74
0
49
12.7
74
0
49
-12.7
74
0
0
ENDTAB
0
TABLE
2
LAYER
5
2
330
0
100
AcDbSymbolTable
70
1
0
LAYER
5
10
330
2
100
AcDbSymbolTableRecord
100
AcDbLayerTableRecord
2
0
70
0
62
7
6
CONTINUOUS
370
35
390
F
0
LAYER
5
44
330
2
100
AcDbSymbolTableRecord
100
AcDbLayerTableRecord
2
BORDER
70
0
62
7
6
CONTINUOUS
370
35
390
F
0
LAYER
5
45
330
2
100
AcDbSymbolTableRecord
100
AcDbLayerTableRecord
2
DIMENSIONS
70
0
62
7
6
CONTINUOUS
370
18
390
F
0
LAYER
5
46
330
2
100
AcDbSymbolTableRecord
100
AcDbLayerTableRecord
2
LOGO
70
0
62
7
6
CONTINUOUS
370
35
390
F
0
LAYER
5
47
330
2
100
AcDbSymbolTableRecord
100
AcDbLayerTableRecord
2
PAPERSIZE
70
0
62
136
6
CONTINUOUS
370
0
390
F
0
LAYER
5
48
330
2
100
AcDbSymbolTableRecord
100
AcDbLayerTableRecord
2
TITLEBLOCK
70
0
62
7
6
CONTINUOUS
370
35
390
F
0
ENDTAB
0
TABLE
2
STYLE
5
3
330
0
100
AcDbSymbolTable
70
3
0
STYLE
5
49
330
2
100
AcDbSymbolTableRecord
100
AcDbTextStyleTableRecord
2
standard
70
0
40
0
41
1
50
0
71
0
42
1
3
standard
4

0
ENDTAB
0
TABLE
2
VIEW
5
6
330
0
100
AcDbSymbolTable
70
0
0
ENDTAB
0
TABLE
2
UCS
5
7
330
0
100
AcDbSymbolTable
70
0
0
ENDTAB
0
TABLE
2
APPID
5
9
330
0
100
AcDbSymbolTable
70
1
0
APPID
5
12
330
9
100
AcDbSymbolTableRecord
100
AcDbRegAppTableRecord
2
ACAD
70
0
0
ENDTAB
0
TABLE
2
DIMSTYLE
5
A
330
0
100
AcDbSymbolTable
70
1
100
AcDbDimStyleTable
71
1
0
DIMSTYLE
105
4A
330
A
100
AcDbSymbolTableRecord
100
AcDbDimStyleTableRecord
2
Standard
70
0
40
1
41
3.5
42
0
43
0.38
44
2
45
0
46
0
47
0
48
0
140
3.5
141
0.09
142
0
143
25.4
144
1
145
0
146
1
147
1
148
0
71
0
72
0
73
0
74
1
75
0
76
0
77
0
78
0
79
0
170
0
171
2
172
0
173
0
174
0
175
0
176
0
177
0
178
0
179
0
271
4
272
4
273
2
274
2
275
0
276
0
277
2
278
46
279
0
280
0
281
0
282
0
283
1
284
0
285
0
286
0
288
0
289
3
340
Standard
341

371
-2
372
-2
0
ENDTAB
0
TABLE
2
BLOCK_RECORD
5
1
330
0
100
AcDbSymbolTable
70
2
0
BLOCK_RECORD
5
1F
330
1
100
AcDbSymbolTableRecord
100
AcDbBlockTableRecord
2
*Model_Space
0
BLOCK_RECORD
5
1E
330
1
100
AcDbSymbolTableRecord
100
AcDbBlockTableRecord
2
*Paper_Space
0
ENDTAB
0
ENDSEC
0
SECTION
2
BLOCKS
0
BLOCK
5
20
330
1F
100
AcDbEntity
8
0
100
AcDbBlockBegin
2
*Model_Space
70
0
10
0
20
0
30
0
3
*Model_Space
1

0
ENDBLK
5
21
330
1F
100
AcDbEntity
8
0
100
AcDbBlockEnd
0
BLOCK
5
1C
330
1B
100
AcDbEntity
8
0
100
AcDbBlockBegin
2
*Paper_Space
70
0
10
0
20
0
30
0
3
*Paper_Space
1

0
ENDBLK
5
1D
330
1F
100
AcDbEntity
8
0
100
AcDbBlockEnd
0
BLOCK
5
2711
100
AcDbEntity
8
0
100
AcDbBlockBegin
2
Ortho1
70
0
10
0
20
0
3
Ortho1
1

0
LINE
8
0
6
BYBLOCK
62
0
5
2712
100
AcDbEntity
100
AcDbLine
10
0
20
-160
30
0
11
3
21
-160
31
0
0
LINE
8
0
6
BYBLOCK
62
0
5
2713
100
AcDbEntity
100
AcDbLine
10
0
20
-160
30
0
11
3
21
-160
31
0
0
LINE
8
0
6
BYBLOCK
62
0
5
2714
100
AcDbEntity
100
AcDbLine
10
0
20
0
30
0
11
0
21
-13.7
31
0
0
LINE
8
0
6
BYBLOCK
62
0
5
2715
100
AcDbEntity
100
AcDbLine
10
0
20
-13.7
30
0
11
0
21
-160
31
0
0
LINE
8
0
6
BYBLOCK
62
0
5
2716
100
AcDbEntity
100
AcDbLine
10
3
20
0
30
0
11
3
21
-13.7
31
0
0
LINE
8
0
6
BYBLOCK
62
0
5
2717
100
AcDbEntity
100
AcDbLine
10
3
20
-13.7
30
0
11
3
21
-160
31
0
0
LINE
8
0
6
BYBLOCK
62
0
5
2718
100
AcDbEntity
100
AcDbLine
10
0
20
0
30
0
11
3
21
0
31
0
0
LINE
8
0
6
BYBLOCK
62
0
5
2719
100
AcDbEntity
100
AcDbLine
10
0
20
-13.7
30
0
11
3
21
-13.7
31
0
0
LINE
8
0
6
BYBLOCK
62
0
5
271a
100
AcDbEntity
100
AcDbLine
10
0
20
-160
30
0
11
3
21
-160
31
0
0
ENDBLK
5
271b
100
AcDbEntity
8
0
100
AcDbBlockEnd
0
BLOCK
5
271c
100
AcDbEntity
8
0
100
AcDbBlockBegin
2
Ortho0011
70
0
10
0
20
0
3
Ortho0011
1

0
LINE
8
0
6
BYBLOCK
62
0
5
271d
100
AcDbEntity
100
AcDbLine
10
48
20
151
30
0
11
48
21
160
31
0
0
LINE
8
0
6
BYBLOCK
62
0
5
271e
100
AcDbEntity
100
AcDbLine
10
20
20
151
30
0
11
48
21
151
31
0
0
LINE
8
0
6
BYBLOCK
62
0
5
271f
100
AcDbEntity
100
AcDbLine
10
48
20
160
30
0
11
90
21
160
31
0
0
LINE
8
0
6
BYBLOCK
62
0
5
2720
100
AcDbEntity
100
AcDbLine
10
90
20
160
30
0
11
90
21
145
31
0
0
LINE
8
0
6
BYBLOCK
62
0
5
2721
100
AcDbEntity
100
AcDbLine
10
80.1
20
145
30
0
11
90
21
145
31
0
0
LINE
8
0
6
BYBLOCK
62
0
5
2722
100
AcDbEntity
100
AcDbLine
10
80.1
20
138.8
30
0
11
80.1
21
145
31
0
0
LINE
8
0
6
BYBLOCK
62
0
5
2723
100
AcDbEntity
100
AcDbLine
10
90
20
138.8
30
0
11
80.1
21
138.8
31
0
0
LINE
8
0
6
BYBLOCK
62
0
5
2724
100
AcDbEntity
100
AcDbLine
10
90
20
138.8
30
0
11
90
21
134.3
31
0
0
ARC
8
0
6
BYBLOCK
62
0
5
2725
100
AcDbEntity
100
AcDbCircle
10
90
20
132.8
30
0
40
1.5
100
AcDbArc
50
90
51
-90
0
LINE
8
0
6
BYBLOCK
62
0
5
2726
100
AcDbEntity
100
AcDbLine
10
90
20
131.3
30
0
11
90
21
17.4
31
0
0
LINE
8
0
6
BYBLOCK
62
0
5
2727
100
AcDbEntity
100
AcDbLine
10
90
20
17.4
30
0
11
84.3
21
17.4
31
0
0
LINE
8
0
6
BYBLOCK
62
0
5
2728
100
AcDbEntity
100
AcDbLine
10
84.3
20
17.4
30
0
11
84.3
21
6
31
0
0
LINE
8
0
6
BYBLOCK
62
0
5
2729
100
AcDbEntity
100
AcDbLine
10
84.3
20
6
30
0
11
90
21
6
31
0
0
LINE
8
0
6
BYBLOCK
62
0
5
272a
100
AcDbEntity
100
AcDbLine
10
90
20
6
30
0
11
90
21
0
31
0
0
LINE
8
0
6
BYBLOCK
62
0
5
272b
100
AcDbEntity
100
AcDbLine
10
90
20
0
30
0
11
13.7
21
0
31
0
0
LINE
8
0
6
BYBLOCK
62
0
5
272c
100
AcDbEntity
100
AcDbLine
10
13.7
20
0
30
0
11
13.7
21
13.7
31
0
0
LINE
8
0
6
BYBLOCK
62
0
5
272d
100
AcDbEntity
100
AcDbLine
10
13.7
20
13.7
30
0
11
3.55271e-15
21
13.7
31
0
0
LINE
8
0
6
BYBLOCK
62
0
5
272e
100
AcDbEntity
100
AcDbLine
10
0
20
13.7
30
0
11
0
21
160
31
0
0
LINE
8
0
6
BYBLOCK
62
0
5
272f
100
AcDbEntity
100
AcDbLine
10
0
20
160
30
0
11
20
21
160
31
0
0
LINE
8
0
6
BYBLOCK
62
0
5
2730
100
AcDbEntity
100
AcDbLine
10
20
20
160
30
0
11
20
21
151
31
0
0
CIRCLE
8
0
6
BYBLOCK
62
0
5
2731
100
AcDbEntity
100
AcDbCircle
10
53
20
14.9
30
0
40
1.5
0
LINE
8
0
6
BYBLOCK
62
0
5
2732
100
AcDbEntity
100
AcDbLine
10
25
20
20.9
30
0
11
25
21
35.9
31
0
0
LINE
8
0
6
BYBLOCK
62
0
5
2733
100
AcDbEntity
100
AcDbLine
10
69
20
20.9
30
0
11
25
21
20.9
31
0
0
LINE
8
0
6
BYBLOCK
62
0
5
2734
100
AcDbEntity
100
AcDbLine
10
69
20
35.9
30
0
11
69
21
20.9
31
0
0
LINE
8
0
6
BYBLOCK
62
0
5
2735
100
AcDbEntity
100
AcDbLine
10
25
20
35.9
30
0
11
69
21
35.9
31
0
0
CIRCLE
8
0
6
BYBLOCK
62
0
5
2736
100
AcDbEntity
100
AcDbCircle
10
56.22
20
77.15
30
0
40
2
0
CIRCLE
8
0
6
BYBLOCK
62
0
5
2737
100
AcDbEntity
100
AcDbCircle
10
39.48
20
77.15
30
0
40
2
0
CIRCLE
8
0
6
BYBLOCK
62
0
5
2738
100
AcDbEntity
100
AcDbCircle
10
37
20
50.5
30
0
40
2
0
CIRCLE
8
0
6
BYBLOCK
62
0
5
2739
100
AcDbEntity
100
AcDbCircle
10
37
20
56.5
30
0
40
2
0
CIRCLE
8
0
6
BYBLOCK
62
0
5
273a
100
AcDbEntity
100
AcDbCircle
10
37
20
44.5
30
0
40
2
0
CIRCLE
8
0
6
BYBLOCK
62
0
5
273b
100
AcDbEntity
100
AcDbCircle
10
22.74
20
77.15
30
0
40
2
0
CIRCLE
8
0
6
BYBLOCK
62
0
5
273c
100
AcDbEntity
100
AcDbCircle
10
15
20
59.91
30
0
40
1.5
0
CIRCLE
8
0
6
BYBLOCK
62
0
5
273d
100
AcDbEntity
100
AcDbCircle
10
15
20
41.91
30
0
40
1.5
0
CIRCLE
8
0
6
BYBLOCK
62
0
5
273e
100
AcDbEntity
100
AcDbCircle
10
15
20
23.91
30
0
40
1.5
0
CIRCLE
8
0
6
BYBLOCK
62
0
5
273f
100
AcDbEntity
100
AcDbCircle
10
72.96
20
77.15
30
0
40
2
0
CIRCLE
8
0
6
BYBLOCK
62
0
5
2740
100
AcDbEntity
100
AcDbCircle
10
16
20
156.75
30
0
40
1.5
0
CIRCLE
8
0
6
BYBLOCK
62
0
5
2741
100
AcDbEntity
100
AcDbCircle
10
27.5
20
139.05
30
0
40
1.5
0
CIRCLE
8
0
6
BYBLOCK
62
0
5
2742
100
AcDbEntity
100
AcDbCircle
10
27.5
20
120.95
30
0
40
1.5
0
LINE
8
0
6
BYBLOCK
62
0
5
2743
100
AcDbEntity
100
AcDbLine
10
20
20
94.15
30
0
11
31.4
21
94.15
31
0
0
LINE
8
0
6
BYBLOCK
62
0
5
2744
100
AcDbEntity
100
AcDbLine
10
20
20
82.75
30
0
11
20
21
94.15
31
0
0
LINE
8
0
6
BYBLOCK
62
0
5
2745
100
AcDbEntity
100
AcDbLine
10
31.4
20
94.15
30
0
11
31.4
21
82.75
31
0
0
LINE
8
0
6
BYBLOCK
62
0
5
2746
100
AcDbEntity
100
AcDbLine
10
31.4
20
82.75
30
0
11
20
21
82.75
31
0
0
CIRCLE
8
0
6
BYBLOCK
62
0
5
2747
100
AcDbEntity
100
AcDbCircle
10
16
20
103.25
30
0
40
1.5
0
LINE
8
0
6
BYBLOCK
62
0
5
2748
100
AcDbEntity
100
AcDbLine
10
64.3
20
94.15
30
0
11
75.7
21
94.15
31
0
0
LINE
8
0
6
BYBLOCK
62
0
5
2749
100
AcDbEntity
100
AcDbLine
10
64.3
20
82.75
30
0
11
64.3
21
94.15
31
0
0
LINE
8
0
6
BYBLOCK
62
0
5
274a
100
AcDbEntity
100
AcDbLine
10
75.7
20
94.15
30
0
11
75.7
21
82.75
31
0
0
LINE
8
0
6
BYBLOCK
62
0
5
274b
100
AcDbEntity
100
AcDbLine
10
75.7
20
82.75
30
0
11
64.3
21
82.75
31
0
0
CIRCLE
8
0
6
BYBLOCK
62
0
5
274c
100
AcDbEntity
100
AcDbCircle
10
45.5
20
120.95
30
0
40
1.5
0
CIRCLE
8
0
6
BYBLOCK
62
0
5
274d
100
AcDbEntity
100
AcDbCircle
10
73.3
20
132.8
30
0
40
1.5
0
CIRCLE
8
0
6
BYBLOCK
62
0
5
274e
100
AcDbEntity
100
AcDbCircle
10
65.3
20
132.8
30
0
40
1.5
0
CIRCLE
8
0
6
BYBLOCK
62
0
5
274f
100
AcDbEntity
100
AcDbCircle
10
45.5
20
139.05
30
0
40
1.5
0
CIRCLE
8
0
6
BYBLOCK
62
0
5
2750
100
AcDbEntity
100
AcDbCircle
10
32.7
20
8
30
0
40
1.5
0
CIRCLE
8
0
6
BYBLOCK
62
0
5
2751
100
AcDbEntity
100
AcDbCircle
10
24.7
20
8
30
0
40
1.5
0
LINE
8
0
6
BYBLOCK
62
0
5
2752
100
AcDbEntity
100
AcDbLine
10
6.5
20
146
30
0
11
13.5
21
146
31
0
0
LINE
8
0
6
BYBLOCK
62
0
5
2753
100
AcDbEntity
100
AcDbLine
10
6.5
20
114
30
0
11
6.5
21
146
31
0
0
LINE
8
0
6
BYBLOCK
62
0
5
2754
100
AcDbEntity
100
AcDbLine
10
13.5
20
146
30
0
11
13.5
21
114
31
0
0
LINE
8
0
6
BYBLOCK
62
0
5
2755
100
AcDbEntity
100
AcDbLine
10
13.5
20
114
30
0
11
6.5
21
114
31
0
0
CIRCLE
8
0
6
BYBLOCK
62
0
5
2756
100
AcDbEntity
100
AcDbCircle
10
10
20
155
30
0
40
1.5
0
CIRCLE
8
0
6
BYBLOCK
62
0
5
2757
100
AcDbEntity
100
AcDbCircle
10
10
20
105
30
0
40
1.5
0
CIRCLE
8
0
6
BYBLOCK
62
0
5
2758
100
AcDbEntity
100
AcDbCircle
10
83.1
20
153
30
0
40
1.5
0
CIRCLE
8
0
6
BYBLOCK
62
0
5
2759
100
AcDbEntity
100
AcDbCircle
10
79
20
21
30
0
40
1.5
0
CIRCLE
8
0
6
BYBLOCK
62
0
5
275a
100
AcDbEntity
100
AcDbCircle
10
4
20
103.25
30
0
40
1.5
0
CIRCLE
8
0
6
BYBLOCK
62
0
5
275b
100
AcDbEntity
100
AcDbCircle
10
4
20
156.75
30
0
40
1.5
0
LINE
8
0
6
BYBLOCK
62
0
5
275c
100
AcDbEntity
100
AcDbLine
10
132
20
160
30
0
11
90
21
160
31
0
0
LINE
8
0
6
BYBLOCK
62
0
5
275d
100
AcDbEntity
100
AcDbLine
10
90
20
145
30
0
11
99.9
21
145
31
0
0
LINE
8
0
6
BYBLOCK
62
0
5
275e
100
AcDbEntity
100
AcDbLine
10
99.9
20
138.8
30
0
11
90
21
138.8
31
0
0
ARC
8
0
6
BYBLOCK
62
0
5
275f
100
AcDbEntity
100
AcDbCircle
10
90
20
132.8
30
0
40
1.5
100
AcDbArc
50
0
51
90
0
ARC
8
0
6
BYBLOCK
62
0
5
2760
100
AcDbEntity
100
AcDbCircle
10
90
20
132.8
30
0
40
1.5
100
AcDbArc
50
-90
51
0
0
LINE
8
0
6
BYBLOCK
62
0
5
2761
100
AcDbEntity
100
AcDbLine
10
99.9
20
145
30
0
11
99.9
21
138.8
31
0
0
LINE
8
0
6
BYBLOCK
62
0
5
2762
100
AcDbEntity
100
AcDbLine
10
90
20
17.4
30
0
11
95.7
21
17.4
31
0
0
LINE
8
0
6
BYBLOCK
62
0
5
2763
100
AcDbEntity
100
AcDbLine
10
95.7
20
17.4
30
0
11
95.7
21
6
31
0
0
LINE
8
0
6
BYBLOCK
62
0
5
2764
100
AcDbEntity
100
AcDbLine
10
95.7
20
6
30
0
11
90
21
6
31
0
0
LINE
8
0
6
BYBLOCK
62
0
5
2765
100
AcDbEntity
100
AcDbLine
10
90
20
0
30
0
11
166.3
21
0
31
0
0
LINE
8
0
6
BYBLOCK
62
0
5
2766
100
AcDbEntity
100
AcDbLine
10
166.3
20
0
30
0
11
166.3
21
13.7
31
0
0
LINE
8
0
6
BYBLOCK
62
0
5
2767
100
AcDbEntity
100
AcDbLine
10
166.3
20
13.7
30
0
11
180
21
13.7
31
0
0
LINE
8
0
6
BYBLOCK
62
0
5
2768
100
AcDbEntity
100
AcDbLine
10
180
20
13.7
30
0
11
180
21
160
31
0
0
LINE
8
0
6
BYBLOCK
62
0
5
2769
100
AcDbEntity
100
AcDbLine
10
180
20
160
30
0
11
160
21
160
31
0
0
LINE
8
0
6
BYBLOCK
62
0
5
276a
100
AcDbEntity
100
AcDbLine
10
160
20
160
30
0
11
160
21
151
31
0
0
LINE
8
0
6
BYBLOCK
62
0
5
276b
100
AcDbEntity
100
AcDbLine
10
160
20
151
30
0
11
132
21
151
31
0
0
LINE
8
0
6
BYBLOCK
62
0
5
276c
100
AcDbEntity
100
AcDbLine
10
132
20
151
30
0
11
132
21
160
31
0
0
CIRCLE
8
0
6
BYBLOCK
62
0
5
276d
100
AcDbEntity
100
AcDbCircle
10
127
20
14.9
30
0
40
1.5
0
CIRCLE
8
0
6
BYBLOCK
62
0
5
276e
100
AcDbEntity
100
AcDbCircle
10
123.78
20
77.15
30
0
40
2
0
CIRCLE
8
0
6
BYBLOCK
62
0
5
276f
100
AcDbEntity
100
AcDbCircle
10
157.26
20
77.15
30
0
40
2
0
CIRCLE
8
0
6
BYBLOCK
62
0
5
2770
100
AcDbEntity
100
AcDbCircle
10
155
20
59.9
30
0
40
1.5
0
CIRCLE
8
0
6
BYBLOCK
62
0
5
2771
100
AcDbEntity
100
AcDbCircle
10
155
20
22.9
30
0
40
1.5
0
CIRCLE
8
0
6
BYBLOCK
62
0
5
2772
100
AcDbEntity
100
AcDbCircle
10
140.52
20
77.15
30
0
40
2
0
CIRCLE
8
0
6
BYBLOCK
62
0
5
2773
100
AcDbEntity
100
AcDbCircle
10
165
20
59.91
30
0
40
1.5
0
CIRCLE
8
0
6
BYBLOCK
62
0
5
2774
100
AcDbEntity
100
AcDbCircle
10
165
20
41.91
30
0
40
1.5
0
CIRCLE
8
0
6
BYBLOCK
62
0
5
2775
100
AcDbEntity
100
AcDbCircle
10
165
20
23.91
30
0
40
1.5
0
CIRCLE
8
0
6
BYBLOCK
62
0
5
2776
100
AcDbEntity
100
AcDbCircle
10
164
20
156.75
30
0
40
1.5
0
CIRCLE
8
0
6
BYBLOCK
62
0
5
2777
100
AcDbEntity
100
AcDbCircle
10
152.5
20
139.05
30
0
40
1.5
0
CIRCLE
8
0
6
BYBLOCK
62
0
5
2778
100
AcDbEntity
100
AcDbCircle
10
152.5
20
120.95
30
0
40
1.5
0
LINE
8
0
6
BYBLOCK
62
0
5
2779
100
AcDbEntity
100
AcDbLine
10
160
20
94.15
30
0
11
148.6
21
94.15
31
0
0
LINE
8
0
6
BYBLOCK
62
0
5
277a
100
AcDbEntity
100
AcDbLine
10
160
20
82.75
30
0
11
160
21
94.15
31
0
0
LINE
8
0
6
BYBLOCK
62
0
5
277b
100
AcDbEntity
100
AcDbLine
10
148.6
20
94.15
30
0
11
148.6
21
82.75
31
0
0
LINE
8
0
6
BYBLOCK
62
0
5
277c
100
AcDbEntity
100
AcDbLine
10
148.6
20
82.75
30
0
11
160
21
82.75
31
0
0
CIRCLE
8
0
6
BYBLOCK
62
0
5
277d
100
AcDbEntity
100
AcDbCircle
10
164
20
103.25
30
0
40
1.5
0
CIRCLE
8
0
6
BYBLOCK
62
0
5
277e
100
AcDbEntity
100
AcDbCircle
10
134.5
20
120.95
30
0
40
1.5
0
CIRCLE
8
0
6
BYBLOCK
62
0
5
277f
100
AcDbEntity
100
AcDbCircle
10
134.5
20
139.05
30
0
40
1.5
0
CIRCLE
8
0
6
BYBLOCK
62
0
5
2780
100
AcDbEntity
100
AcDbCircle
10
147.3
20
8
30
0
40
1.5
0
CIRCLE
8
0
6
BYBLOCK
62
0
5
2781
100
AcDbEntity
100
AcDbCircle
10
155.3
20
8
30
0
40
1.5
0
LINE
8
0
6
BYBLOCK
62
0
5
2782
100
AcDbEntity
100
AcDbLine
10
173.5
20
146
30
0
11
166.5
21
146
31
0
0
LINE
8
0
6
BYBLOCK
62
0
5
2783
100
AcDbEntity
100
AcDbLine
10
173.5
20
114
30
0
11
173.5
21
146
31
0
0
LINE
8
0
6
BYBLOCK
62
0
5
2784
100
AcDbEntity
100
AcDbLine
10
166.5
20
146
30
0
11
166.5
21
114
31
0
0
LINE
8
0
6
BYBLOCK
62
0
5
2785
100
AcDbEntity
100
AcDbLine
10
166.5
20
114
30
0
11
173.5
21
114
31
0
0
CIRCLE
8
0
6
BYBLOCK
62
0
5
2786
100
AcDbEntity
100
AcDbCircle
10
170
20
155
30
0
40
1.5
0
CIRCLE
8
0
6
BYBLOCK
62
0
5
2787
100
AcDbEntity
100
AcDbCircle
10
170
20
105
30
0
40
1.5
0
CIRCLE
8
0
6
BYBLOCK
62
0
5
2788
100
AcDbEntity
100
AcDbCircle
10
115
20
22.9
30
0
40
1.5
0
LINE
8
0
6
BYBLOCK
62
0
5
2789
100
AcDbEntity
100
AcDbLine
10
115.7
20
94.15
30
0
11
104.3
21
94.15
31
0
0
LINE
8
0
6
BYBLOCK
62
0
5
278a
100
AcDbEntity
100
AcDbLine
10
115.7
20
82.75
30
0
11
115.7
21
94.15
31
0
0
LINE
8
0
6
BYBLOCK
62
0
5
278b
100
AcDbEntity
100
AcDbLine
10
104.3
20
94.15
30
0
11
104.3
21
82.75
31
0
0
LINE
8
0
6
BYBLOCK
62
0
5
278c
100
AcDbEntity
100
AcDbLine
10
104.3
20
82.75
30
0
11
115.7
21
82.75
31
0
0
CIRCLE
8
0
6
BYBLOCK
62
0
5
278d
100
AcDbEntity
100
AcDbCircle
10
107.04
20
77.15
30
0
40
2
0
CIRCLE
8
0
6
BYBLOCK
62
0
5
278e
100
AcDbEntity
100
AcDbCircle
10
115
20
59.9
30
0
40
1.5
0
CIRCLE
8
0
6
BYBLOCK
62
0
5
278f
100
AcDbEntity
100
AcDbCircle
10
106.7
20
132.8
30
0
40
1.5
0
CIRCLE
8
0
6
BYBLOCK
62
0
5
2790
100
AcDbEntity
100
AcDbCircle
10
114.7
20
132.8
30
0
40
1.5
0
CIRCLE
8
0
6
BYBLOCK
62
0
5
2791
100
AcDbEntity
100
AcDbCircle
10
101
20
21
30
0
40
1.5
0
CIRCLE
8
0
6
BYBLOCK
62
0
5
2792
100
AcDbEntity
100
AcDbCircle
10
176
20
103.25
30
0
40
1.5
0
CIRCLE
8
0
6
BYBLOCK
62
0
5
2793
100
AcDbEntity
100
AcDbCircle
10
176
20
156.75
30
0
40
1.5
0
CIRCLE
8
0
6
BYBLOCK
62
0
5
2794
100
AcDbEntity
100
AcDbCircle
10
96.9
20
153
30
0
40
1.5
0
ENDBLK
5
2795
100
AcDbEntity
8
0
100
AcDbBlockEnd
0
BLOCK
5
2796
100
AcDbEntity
8
0
100
AcDbBlockBegin
2
Ortho0021
70
0
10
0
20
0
3
Ortho0021
1

0
LINE
8
0
6
BYBLOCK
62
0
5
2797
100
AcDbEntity
100
AcDbLine
10
33.9411
20
111.044
30
0
11
31.8198
21
109.819
31
0
0
LINE
8
0
6
BYBLOCK
62
0
5
2798
100
AcDbEntity
100
AcDbLine
10
31.8198
20
102.47
30
0
11
31.8198
21
109.819
31
0
0
LINE
8
0
6
BYBLOCK
62
0
5
2799
100
AcDbEntity
100
AcDbLine
10
14.1421
20
115.126
30
0
11
12.0208
21
113.901
31
0
0
LINE
8
0
6
BYBLOCK
62
0
5
279a
100
AcDbEntity
100
AcDbLine
10
14.1421
20
115.126
30
0
11
31.8198
21
104.92
31
0
0
LINE
8
0
6
BYBLOCK
62
0
5
279b
100
AcDbEntity
100
AcDbLine
10
12.0208
20
113.901
30
0
11
31.8198
21
102.47
31
0
0
LINE
8
0
6
BYBLOCK
62
0
5
279c
100
AcDbEntity
100
AcDbLine
10
33.9411
20
111.044
30
0
11
63.6396
21
93.8971
31
0
0
LINE
8
0
6
BYBLOCK
62
0
5
279d
100
AcDbEntity
100
AcDbLine
10
31.8198
20
109.819
30
0
11
61.5183
21
92.6724
31
0
0
LINE
8
0
6
BYBLOCK
62
0
5
279e
100
AcDbEntity
100
AcDbLine
10
63.6396
20
93.8971
30
0
11
61.5183
21
92.6724
31
0
0
LINE
8
0
6
BYBLOCK
62
0
5
279f
100
AcDbEntity
100
AcDbLine
10
56.6393
20
80.629
30
0
11
56.6393
21
83.2418
31
0
0
LINE
8
0
6
BYBLOCK
62
0
5
27a0
100
AcDbEntity
100
AcDbLine
10
63.6396
20
76.5874
30
0
11
56.6393
21
80.629
31
0
0
LINE
8
0
6
BYBLOCK
62
0
5
27a1
100
AcDbEntity
100
AcDbLine
10
59.6091
20
-22.6578
30
0
11
59.6091
21
-29.5164
31
0
0
LINE
8
0
6
BYBLOCK
62
0
5
27a2
100
AcDbEntity
100
AcDbLine
10
59.6091
20
-29.5164
30
0
11
63.6396
21
-31.8434
31
0
0
LINE
8
0
6
BYBLOCK
62
0
5
27a3
100
AcDbEntity
100
AcDbLine
10
0
20
130.639
30
0
11
14.1421
21
122.474
31
0
0
LINE
8
0
6
BYBLOCK
62
0
5
27a4
100
AcDbEntity
100
AcDbLine
10
14.1421
20
122.474
30
0
11
14.1421
21
115.126
31
0
0
LINE
8
0
6
BYBLOCK
62
0
5
27a5
100
AcDbEntity
100
AcDbLine
10
17.6777
20
6.85857
30
0
11
17.6777
21
16.6565
31
0
0
LINE
8
0
6
BYBLOCK
62
0
5
27a6
100
AcDbEntity
100
AcDbLine
10
46.669
20
-9.87961
30
0
11
17.6777
21
6.85857
31
0
0
LINE
8
0
6
BYBLOCK
62
0
5
27a7
100
AcDbEntity
100
AcDbLine
10
14.1421
20
59.4001
30
0
11
14.1421
21
66.2587
31
0
0
LINE
8
0
6
BYBLOCK
62
0
5
27a8
100
AcDbEntity
100
AcDbLine
10
20.0818
20
55.9708
30
0
11
14.1421
21
59.4001
31
0
0
LINE
8
0
6
BYBLOCK
62
0
5
27a9
100
AcDbEntity
100
AcDbLine
10
45.467
20
41.3147
30
0
11
45.467
21
48.1733
31
0
0
LINE
8
0
6
BYBLOCK
62
0
5
27aa
100
AcDbEntity
100
AcDbLine
10
51.4067
20
37.8854
30
0
11
45.467
21
41.3147
31
0
0
LINE
8
0
6
BYBLOCK
62
0
5
27ab
100
AcDbEntity
100
AcDbLine
10
4.59619
20
90.427
30
0
11
4.59619
21
114.105
31
0
0
LINE
8
0
6
BYBLOCK
62
0
5
27ac
100
AcDbEntity
100
AcDbLine
10
7.42462
20
88.794
30
0
11
4.59619
21
90.427
31
0
0
LINE
8
0
6
BYBLOCK
62
0
5
27ad
100
AcDbEntity
100
AcDbLine
10
61.5183
20
92.6724
30
0
11
61.5183
21
80.4249
31
0
0
LINE
8
0
6
BYBLOCK
62
0
5
27ae
100
AcDbEntity
100
AcDbLine
10
54.5179
20
84.4666
30
0
11
61.5183
21
80.4249
31
0
0
LINE
8
0
6
BYBLOCK
62
0
5
27af
100
AcDbEntity
100
AcDbLine
10
54.5179
20
79.4043
30
0
11
54.5179
21
84.4666
31
0
0
LINE
8
0
6
BYBLOCK
62
0
5
27b0
100
AcDbEntity
100
AcDbLine
10
61.5183
20
75.3626
30
0
11
54.5179
21
79.4043
31
0
0
LINE
8
0
6
BYBLOCK
62
0
5
27b1
100
AcDbEntity
100
AcDbLine
10
61.5183
20
75.3626
30
0
11
61.5183
21
71.6884
31
0
0
ELLIPSE
8
0
6
BYBLOCK
62
0
5
27b2
100
AcDbEntity
100
AcDbEllipse
10
61.5183
20
70.4637
30
0
11
-0.75
21
1.29904
31
0
40
0.57735
41
5.49779
42
6.28319
0
ELLIPSE
8
0
6
BYBLOCK
62
0
5
27b3
100
AcDbEntity
100
AcDbEllipse
10
61.5183
20
70.4637
30
0
11
-0.75
21
1.29904
31
0
40
0.57735
41
0
42
2.35619
0
LINE
8
0
6
BYBLOCK
62
0
5
27b4
100
AcDbEntity
100
AcDbLine
10
61.5183
20
69.2389
30
0
11
61.5183
21
-23.7601
31
0
0
LINE
8
0
6
BYBLOCK
62
0
5
27b5
100
AcDbEntity
100
AcDbLine
10
61.5183
20
-23.7601
30
0
11
57.4878
21
-21.433
31
0
0
LINE
8
0
6
BYBLOCK
62
0
5
27b6
100
AcDbEntity
100
AcDbLine
10
57.4878
20
-21.433
30
0
11
57.4878
21
-30.7411
31
0
0
LINE
8
0
6
BYBLOCK
62
0
5
27b7
100
AcDbEntity
100
AcDbLine
10
57.4878
20
-30.7411
30
0
11
61.5183
21
-33.0681
31
0
0
LINE
8
0
6
BYBLOCK
62
0
5
27b8
100
AcDbEntity
100
AcDbLine
10
61.5183
20
-33.0681
30
0
11
61.5183
21
-37.9671
31
0
0
LINE
8
0
6
BYBLOCK
62
0
5
27b9
100
AcDbEntity
100
AcDbLine
10
61.5183
20
-37.9671
30
0
11
7.56604
21
-6.81775
31
0
0
LINE
8
0
6
BYBLOCK
62
0
5
27ba
100
AcDbEntity
100
AcDbLine
10
7.56604
20
-6.81775
30
0
11
7.56604
21
4.36826
31
0
0
LINE
8
0
6
BYBLOCK
62
0
5
27bb
100
AcDbEntity
100
AcDbLine
10
7.56604
20
4.36826
30
0
11
-2.12132
21
9.96126
31
0
0
LINE
8
0
6
BYBLOCK
62
0
5
27bc
100
AcDbEntity
100
AcDbLine
10
-2.12132
20
9.96126
30
0
11
-2.12132
21
129.415
31
0
0
LINE
8
0
6
BYBLOCK
62
0
5
27bd
100
AcDbEntity
100
AcDbLine
10
-2.12132
20
129.415
30
0
11
12.0208
21
121.25
31
0
0
LINE
8
0
6
BYBLOCK
62
0
5
27be
100
AcDbEntity
100
AcDbLine
10
12.0208
20
121.25
30
0
11
12.0208
21
113.901
31
0
0
ELLIPSE
8
0
6
BYBLOCK
62
0
5
27bf
100
AcDbEntity
100
AcDbEllipse
10
35.3553
20
-10.6961
30
0
11
-0.75
21
1.29904
31
0
40
0.57735
41
3.92699
42
6.28319
0
ELLIPSE
8
0
6
BYBLOCK
62
0
5
27c0
100
AcDbEntity
100
AcDbEllipse
10
35.3553
20
-10.6961
30
0
11
-0.75
21
1.29904
31
0
40
0.57735
41
0
42
3.14159
0
ELLIPSE
8
0
6
BYBLOCK
62
0
5
27c1
100
AcDbEntity
100
AcDbEllipse
10
35.3553
20
-10.6961
30
0
11
-0.75
21
1.29904
31
0
40
0.57735
41
3.14159
42
3.92699
0
LINE
8
0
6
BYBLOCK
62
0
5
27c2
100
AcDbEntity
100
AcDbLine
10
15.5563
20
5.63383
30
0
11
15.5563
21
17.8813
31
0
0
LINE
8
0
6
BYBLOCK
62
0
5
27c3
100
AcDbEntity
100
AcDbLine
10
46.669
20
-12.3291
30
0
11
15.5563
21
5.63383
31
0
0
LINE
8
0
6
BYBLOCK
62
0
5
27c4
100
AcDbEntity
100
AcDbLine
10
46.669
20
-0.0816497
30
0
11
46.669
21
-12.3291
31
0
0
LINE
8
0
6
BYBLOCK
62
0
5
27c5
100
AcDbEntity
100
AcDbLine
10
15.5563
20
17.8813
30
0
11
46.669
21
-0.0816497
31
0
0
ELLIPSE
8
0
6
BYBLOCK
62
0
5
27c6
100
AcDbEntity
100
AcDbEllipse
10
37.6322
20
38.8162
30
0
11
-1
21
1.73205
31
0
40
0.57735
41
3.92699
42
6.28319
0
ELLIPSE
8
0
6
BYBLOCK
62
0
5
27c7
100
AcDbEntity
100
AcDbEllipse
10
37.6322
20
38.8162
30
0
11
-1
21
1.73205
31
0
40
0.57735
41
0
42
3.14159
0
ELLIPSE
8
0
6
BYBLOCK
62
0
5
27c8
100
AcDbEntity
100
AcDbEllipse
10
37.6322
20
38.8162
30
0
11
-1
21
1.73205
31
0
40
0.57735
41
3.14159
42
3.92699
0
ELLIPSE
8
0
6
BYBLOCK
62
0
5
27c9
100
AcDbEntity
100
AcDbEllipse
10
25.7953
20
45.6503
30
0
11
-1
21
1.73205
31
0
40
0.57735
41
3.92699
42
6.28319
0
ELLIPSE
8
0
6
BYBLOCK
62
0
5
27ca
100
AcDbEntity
100
AcDbEllipse
10
25.7953
20
45.6503
30
0
11
-1
21
1.73205
31
0
40
0.57735
41
0
42
3.14159
0
ELLIPSE
8
0
6
BYBLOCK
62
0
5
27cb
100
AcDbEntity
100
AcDbEllipse
10
25.7953
20
45.6503
30
0
11
-1
21
1.73205
31
0
40
0.57735
41
3.14159
42
3.92699
0
ELLIPSE
8
0
6
BYBLOCK
62
0
5
27cc
100
AcDbEntity
100
AcDbEllipse
10
24.0416
20
24.9031
30
0
11
-1
21
1.73205
31
0
40
0.57735
41
3.92699
42
6.28319
0
ELLIPSE
8
0
6
BYBLOCK
62
0
5
27cd
100
AcDbEntity
100
AcDbEllipse
10
24.0416
20
24.9031
30
0
11
-1
21
1.73205
31
0
40
0.57735
41
0
42
3.14159
0
ELLIPSE
8
0
6
BYBLOCK
62
0
5
27ce
100
AcDbEntity
100
AcDbEllipse
10
24.0416
20
24.9031
30
0
11
-1
21
1.73205
31
0
40
0.57735
41
3.14159
42
3.92699
0
ELLIPSE
8
0
6
BYBLOCK
62
0
5
27cf
100
AcDbEntity
100
AcDbEllipse
10
24.0416
20
29.8021
30
0
11
-1
21
1.73205
31
0
40
0.57735
41
3.92699
42
6.28319
0
ELLIPSE
8
0
6
BYBLOCK
62
0
5
27d0
100
AcDbEntity
100
AcDbEllipse
10
24.0416
20
29.8021
30
0
11
-1
21
1.73205
31
0
40
0.57735
41
0
42
3.14159
0
ELLIPSE
8
0
6
BYBLOCK
62
0
5
27d1
100
AcDbEntity
100
AcDbEllipse
10
24.0416
20
29.8021
30
0
11
-1
21
1.73205
31
0
40
0.57735
41
3.14159
42
3.92699
0
ELLIPSE
8
0
6
BYBLOCK
62
0
5
27d2
100
AcDbEntity
100
AcDbEllipse
10
24.0416
20
20.0042
30
0
11
-1
21
1.73205
31
0
40
0.57735
41
3.92699
42
6.28319
0
ELLIPSE
8
0
6
BYBLOCK
62
0
5
27d3
100
AcDbEntity
100
AcDbEllipse
10
24.0416
20
20.0042
30
0
11
-1
21
1.73205
31
0
40
0.57735
41
0
42
3.14159
0
ELLIPSE
8
0
6
BYBLOCK
62
0
5
27d4
100
AcDbEntity
100
AcDbEllipse
10
24.0416
20
20.0042
30
0
11
-1
21
1.73205
31
0
40
0.57735
41
3.14159
42
3.92699
0
ELLIPSE
8
0
6
BYBLOCK
62
0
5
27d5
100
AcDbEntity
100
AcDbEllipse
10
13.9583
20
52.4844
30
0
11
-1
21
1.73205
31
0
40
0.57735
41
3.92699
42
6.28319
0
ELLIPSE
8
0
6
BYBLOCK
62
0
5
27d6
100
AcDbEntity
100
AcDbEllipse
10
13.9583
20
52.4844
30
0
11
-1
21
1.73205
31
0
40
0.57735
41
0
42
3.14159
0
ELLIPSE
8
0
6
BYBLOCK
62
0
5
27d7
100
AcDbEntity
100
AcDbEllipse
10
13.9583
20
52.4844
30
0
11
-1
21
1.73205
31
0
40
0.57735
41
3.14159
42
3.92699
0
ELLIPSE
8
0
6
BYBLOCK
62
0
5
27d8
100
AcDbEntity
100
AcDbEllipse
10
8.48528
20
41.5678
30
0
11
-0.75
21
1.29904
31
0
40
0.57735
41
3.92699
42
6.28319
0
ELLIPSE
8
0
6
BYBLOCK
62
0
5
27d9
100
AcDbEntity
100
AcDbEllipse
10
8.48528
20
41.5678
30
0
11
-0.75
21
1.29904
31
0
40
0.57735
41
0
42
3.14159
0
ELLIPSE
8
0
6
BYBLOCK
62
0
5
27da
100
AcDbEntity
100
AcDbEllipse
10
8.48528
20
41.5678
30
0
11
-0.75
21
1.29904
31
0
40
0.57735
41
3.14159
42
3.92699
0
ELLIPSE
8
0
6
BYBLOCK
62
0
5
27db
100
AcDbEntity
100
AcDbEllipse
10
8.48528
20
26.8709
30
0
11
-0.75
21
1.29904
31
0
40
0.57735
41
3.92699
42
6.28319
0
ELLIPSE
8
0
6
BYBLOCK
62
0
5
27dc
100
AcDbEntity
100
AcDbEllipse
10
8.48528
20
26.8709
30
0
11
-0.75
21
1.29904
31
0
40
0.57735
41
0
42
3.14159
0
ELLIPSE
8
0
6
BYBLOCK
62
0
5
27dd
100
AcDbEntity
100
AcDbEllipse
10
8.48528
20
26.8709
30
0
11
-0.75
21
1.29904
31
0
40
0.57735
41
3.14159
42
3.92699
0
ELLIPSE
8
0
6
BYBLOCK
62
0
5
27de
100
AcDbEntity
100
AcDbEllipse
10
8.48528
20
12.174
30
0
11
-0.75
21
1.29904
31
0
40
0.57735
41
3.92699
42
6.28319
0
ELLIPSE
8
0
6
BYBLOCK
62
0
5
27df
100
AcDbEntity
100
AcDbEllipse
10
8.48528
20
12.174
30
0
11
-0.75
21
1.29904
31
0
40
0.57735
41
0
42
3.14159
0
ELLIPSE
8
0
6
BYBLOCK
62
0
5
27e0
100
AcDbEntity
100
AcDbEllipse
10
8.48528
20
12.174
30
0
11
-0.75
21
1.29904
31
0
40
0.57735
41
3.14159
42
3.92699
0
ELLIPSE
8
0
6
BYBLOCK
62
0
5
27e1
100
AcDbEntity
100
AcDbEllipse
10
49.4692
20
31.9822
30
0
11
-1
21
1.73205
31
0
40
0.57735
41
3.92699
42
6.28319
0
ELLIPSE
8
0
6
BYBLOCK
62
0
5
27e2
100
AcDbEntity
100
AcDbEllipse
10
49.4692
20
31.9822
30
0
11
-1
21
1.73205
31
0
40
0.57735
41
0
42
3.14159
0
ELLIPSE
8
0
6
BYBLOCK
62
0
5
27e3
100
AcDbEntity
100
AcDbEllipse
10
49.4692
20
31.9822
30
0
11
-1
21
1.73205
31
0
40
0.57735
41
3.14159
42
3.92699
0
ELLIPSE
8
0
6
BYBLOCK
62
0
5
27e4
100
AcDbEntity
100
AcDbEllipse
10
9.19239
20
120.229
30
0
11
-0.75
21
1.29904
31
0
40
0.57735
41
3.92699
42
6.28319
0
ELLIPSE
8
0
6
BYBLOCK
62
0
5
27e5
100
AcDbEntity
100
AcDbEllipse
10
9.19239
20
120.229
30
0
11
-0.75
21
1.29904
31
0
40
0.57735
41
0
42
3.14159
0
ELLIPSE
8
0
6
BYBLOCK
62
0
5
27e6
100
AcDbEntity
100
AcDbEllipse
10
9.19239
20
120.229
30
0
11
-0.75
21
1.29904
31
0
40
0.57735
41
3.14159
42
3.92699
0
ELLIPSE
8
0
6
BYBLOCK
62
0
5
27e7
100
AcDbEntity
100
AcDbEllipse
10
17.3241
20
101.082
30
0
11
-0.75
21
1.29904
31
0
40
0.57735
41
3.92699
42
6.28319
0
ELLIPSE
8
0
6
BYBLOCK
62
0
5
27e8
100
AcDbEntity
100
AcDbEllipse
10
17.3241
20
101.082
30
0
11
-0.75
21
1.29904
31
0
40
0.57735
41
0
42
3.14159
0
ELLIPSE
8
0
6
BYBLOCK
62
0
5
27e9
100
AcDbEntity
100
AcDbEllipse
10
17.3241
20
101.082
30
0
11
-0.75
21
1.29904
31
0
40
0.57735
41
3.14159
42
3.92699
0
ELLIPSE
8
0
6
BYBLOCK
62
0
5
27ea
100
AcDbEntity
100
AcDbEllipse
10
17.3241
20
86.3037
30
0
11
-0.75
21
1.29904
31
0
40
0.57735
41
3.92699
42
6.28319
0
ELLIPSE
8
0
6
BYBLOCK
62
0
5
27eb
100
AcDbEntity
100
AcDbEllipse
10
17.3241
20
86.3037
30
0
11
-0.75
21
1.29904
31
0
40
0.57735
41
0
42
3.14159
0
ELLIPSE
8
0
6
BYBLOCK
62
0
5
27ec
100
AcDbEntity
100
AcDbEllipse
10
17.3241
20
86.3037
30
0
11
-0.75
21
1.29904
31
0
40
0.57735
41
3.14159
42
3.92699
0
LINE
8
0
6
BYBLOCK
62
0
5
27ed
100
AcDbEntity
100
AcDbLine
10
12.0208
20
67.4834
30
0
11
20.0818
21
62.8294
31
0
0
LINE
8
0
6
BYBLOCK
62
0
5
27ee
100
AcDbEntity
100
AcDbLine
10
12.0208
20
58.1754
30
0
11
12.0208
21
67.4834
31
0
0
LINE
8
0
6
BYBLOCK
62
0
5
27ef
100
AcDbEntity
100
AcDbLine
10
20.0818
20
62.8294
30
0
11
20.0818
21
53.5214
31
0
0
LINE
8
0
6
BYBLOCK
62
0
5
27f0
100
AcDbEntity
100
AcDbLine
10
20.0818
20
53.5214
30
0
11
12.0208
21
58.1754
31
0
0
ELLIPSE
8
0
6
BYBLOCK
62
0
5
27f1
100
AcDbEntity
100
AcDbEllipse
10
9.19239
20
76.5466
30
0
11
-0.75
21
1.29904
31
0
40
0.57735
41
3.92699
42
6.28319
0
ELLIPSE
8
0
6
BYBLOCK
62
0
5
27f2
100
AcDbEntity
100
AcDbEllipse
10
9.19239
20
76.5466
30
0
11
-0.75
21
1.29904
31
0
40
0.57735
41
0
42
3.14159
0
ELLIPSE
8
0
6
BYBLOCK
62
0
5
27f3
100
AcDbEntity
100
AcDbEllipse
10
9.19239
20
76.5466
30
0
11
-0.75
21
1.29904
31
0
40
0.57735
41
3.14159
42
3.92699
0
LINE
8
0
6
BYBLOCK
62
0
5
27f4
100
AcDbEntity
100
AcDbLine
10
43.3456
20
49.398
30
0
11
51.4067
21
44.744
31
0
0
LINE
8
0
6
BYBLOCK
62
0
5
27f5
100
AcDbEntity
100
AcDbLine
10
43.3456
20
40.09
30
0
11
43.3456
21
49.398
31
0
0
LINE
8
0
6
BYBLOCK
62
0
5
27f6
100
AcDbEntity
100
AcDbLine
10
51.4067
20
44.744
30
0
11
51.4067
21
35.436
31
0
0
LINE
8
0
6
BYBLOCK
62
0
5
27f7
100
AcDbEntity
100
AcDbLine
10
51.4067
20
35.436
30
0
11
43.3456
21
40.09
31
0
0
ELLIPSE
8
0
6
BYBLOCK
62
0
5
27f8
100
AcDbEntity
100
AcDbEllipse
10
30.052
20
78.9552
30
0
11
-0.75
21
1.29904
31
0
40
0.57735
41
3.92699
42
6.28319
0
ELLIPSE
8
0
6
BYBLOCK
62
0
5
27f9
100
AcDbEntity
100
AcDbEllipse
10
30.052
20
78.9552
30
0
11
-0.75
21
1.29904
31
0
40
0.57735
41
0
42
3.14159
0
ELLIPSE
8
0
6
BYBLOCK
62
0
5
27fa
100
AcDbEntity
100
AcDbEllipse
10
30.052
20
78.9552
30
0
11
-0.75
21
1.29904
31
0
40
0.57735
41
3.14159
42
3.92699
0
ELLIPSE
8
0
6
BYBLOCK
62
0
5
27fb
100
AcDbEntity
100
AcDbEllipse
10
49.7096
20
77.2814
30
0
11
-0.75
21
1.29904
31
0
40
0.57735
41
3.92699
42
6.28319
0
ELLIPSE
8
0
6
BYBLOCK
62
0
5
27fc
100
AcDbEntity
100
AcDbEllipse
10
49.7096
20
77.2814
30
0
11
-0.75
21
1.29904
31
0
40
0.57735
41
0
42
3.14159
0
ELLIPSE
8
0
6
BYBLOCK
62
0
5
27fd
100
AcDbEntity
100
AcDbEllipse
10
49.7096
20
77.2814
30
0
11
-0.75
21
1.29904
31
0
40
0.57735
41
3.14159
42
3.92699
0
ELLIPSE
8
0
6
BYBLOCK
62
0
5
27fe
100
AcDbEntity
100
AcDbEllipse
10
44.0528
20
80.5474
30
0
11
-0.75
21
1.29904
31
0
40
0.57735
41
3.92699
42
6.28319
0
ELLIPSE
8
0
6
BYBLOCK
62
0
5
27ff
100
AcDbEntity
100
AcDbEllipse
10
44.0528
20
80.5474
30
0
11
-0.75
21
1.29904
31
0
40
0.57735
41
0
42
3.14159
0
ELLIPSE
8
0
6
BYBLOCK
62
0
5
2800
100
AcDbEntity
100
AcDbEllipse
10
44.0528
20
80.5474
30
0
11
-0.75
21
1.29904
31
0
40
0.57735
41
3.14159
42
3.92699
0
ELLIPSE
8
0
6
BYBLOCK
62
0
5
2801
100
AcDbEntity
100
AcDbEllipse
10
30.052
20
93.7338
30
0
11
-0.75
21
1.29904
31
0
40
0.57735
41
3.92699
42
6.28319
0
ELLIPSE
8
0
6
BYBLOCK
62
0
5
2802
100
AcDbEntity
100
AcDbEllipse
10
30.052
20
93.7338
30
0
11
-0.75
21
1.29904
31
0
40
0.57735
41
0
42
3.14159
0
ELLIPSE
8
0
6
BYBLOCK
62
0
5
2803
100
AcDbEntity
100
AcDbEllipse
10
30.052
20
93.7338
30
0
11
-0.75
21
1.29904
31
0
40
0.57735
41
3.14159
42
3.92699
0
ELLIPSE
8
0
6
BYBLOCK
62
0
5
2804
100
AcDbEntity
100
AcDbEllipse
10
21.0011
20
-8.04249
30
0
11
-0.75
21
1.29904
31
0
40
0.57735
41
3.92699
42
6.28319
0
ELLIPSE
8
0
6
BYBLOCK
62
0
5
2805
100
AcDbEntity
100
AcDbEllipse
10
21.0011
20
-8.04249
30
0
11
-0.75
21
1.29904
31
0
40
0.57735
41
0
42
3.14159
0
ELLIPSE
8
0
6
BYBLOCK
62
0
5
2806
100
AcDbEntity
100
AcDbEllipse
10
21.0011
20
-8.04249
30
0
11
-0.75
21
1.29904
31
0
40
0.57735
41
3.14159
42
3.92699
0
ELLIPSE
8
0
6
BYBLOCK
62
0
5
2807
100
AcDbEntity
100
AcDbEllipse
10
15.3442
20
-4.7765
30
0
11
-0.75
21
1.29904
31
0
40
0.57735
41
3.92699
42
6.28319
0
ELLIPSE
8
0
6
BYBLOCK
62
0
5
2808
100
AcDbEntity
100
AcDbEllipse
10
15.3442
20
-4.7765
30
0
11
-0.75
21
1.29904
31
0
40
0.57735
41
0
42
3.14159
0
ELLIPSE
8
0
6
BYBLOCK
62
0
5
2809
100
AcDbEntity
100
AcDbEllipse
10
15.3442
20
-4.7765
30
0
11
-0.75
21
1.29904
31
0
40
0.57735
41
3.14159
42
3.92699
0
LINE
8
0
6
BYBLOCK
62
0
5
280a
100
AcDbEntity
100
AcDbLine
10
2.47487
20
115.33
30
0
11
7.42462
21
112.472
31
0
0
LINE
8
0
6
BYBLOCK
62
0
5
280b
100
AcDbEntity
100
AcDbLine
10
2.47487
20
89.2023
30
0
11
2.47487
21
115.33
31
0
0
LINE
8
0
6
BYBLOCK
62
0
5
280c
100
AcDbEntity
100
AcDbLine
10
7.42462
20
112.472
30
0
11
7.42462
21
86.3445
31
0
0
LINE
8
0
6
BYBLOCK
62
0
5
280d
100
AcDbEntity
100
AcDbLine
10
7.42462
20
86.3445
30
0
11
2.47487
21
89.2023
31
0
0
ELLIPSE
8
0
6
BYBLOCK
62
0
5
280e
100
AcDbEntity
100
AcDbEllipse
10
4.94975
20
121.25
30
0
11
-0.75
21
1.29904
31
0
40
0.57735
41
3.92699
42
6.28319
0
ELLIPSE
8
0
6
BYBLOCK
62
0
5
280f
100
AcDbEntity
100
AcDbEllipse
10
4.94975
20
121.25
30
0
11
-0.75
21
1.29904
31
0
40
0.57735
41
0
42
3.14159
0
ELLIPSE
8
0
6
BYBLOCK
62
0
5
2810
100
AcDbEntity
100
AcDbEllipse
10
4.94975
20
121.25
30
0
11
-0.75
21
1.29904
31
0
40
0.57735
41
3.14159
42
3.92699
0
ELLIPSE
8
0
6
BYBLOCK
62
0
5
2811
100
AcDbEntity
100
AcDbEllipse
10
4.94975
20
80.4249
30
0
11
-0.75
21
1.29904
31
0
40
0.57735
41
3.92699
42
6.28319
0
ELLIPSE
8
0
6
BYBLOCK
62
0
5
2812
100
AcDbEntity
100
AcDbEllipse
10
4.94975
20
80.4249
30
0
11
-0.75
21
1.29904
31
0
40
0.57735
41
0
42
3.14159
0
ELLIPSE
8
0
6
BYBLOCK
62
0
5
2813
100
AcDbEntity
100
AcDbEllipse
10
4.94975
20
80.4249
30
0
11
-0.75
21
1.29904
31
0
40
0.57735
41
3.14159
42
3.92699
0
ELLIPSE
8
0
6
BYBLOCK
62
0
5
2814
100
AcDbEntity
100
AcDbEllipse
10
56.6393
20
89.7738
30
0
11
-0.75
21
1.29904
31
0
40
0.57735
41
3.92699
42
6.28319
0
ELLIPSE
8
0
6
BYBLOCK
62
0
5
2815
100
AcDbEntity
100
AcDbEllipse
10
56.6393
20
89.7738
30
0
11
-0.75
21
1.29904
31
0
40
0.57735
41
0
42
3.14159
0
ELLIPSE
8
0
6
BYBLOCK
62
0
5
2816
100
AcDbEntity
100
AcDbEllipse
10
56.6393
20
89.7738
30
0
11
-0.75
21
1.29904
31
0
40
0.57735
41
3.14159
42
3.92699
0
ELLIPSE
8
0
6
BYBLOCK
62
0
5
2817
100
AcDbEntity
100
AcDbEllipse
10
53.7401
20
-16.3299
30
0
11
-0.75
21
1.29904
31
0
40
0.57735
41
3.92699
42
6.28319
0
ELLIPSE
8
0
6
BYBLOCK
62
0
5
2818
100
AcDbEntity
100
AcDbEllipse
10
53.7401
20
-16.3299
30
0
11
-0.75
21
1.29904
31
0
40
0.57735
41
0
42
3.14159
0
ELLIPSE
8
0
6
BYBLOCK
62
0
5
2819
100
AcDbEntity
100
AcDbEllipse
10
53.7401
20
-16.3299
30
0
11
-0.75
21
1.29904
31
0
40
0.57735
41
3.14159
42
3.92699
0
ELLIPSE
8
0
6
BYBLOCK
62
0
5
281a
100
AcDbEntity
100
AcDbEllipse
10
0.707107
20
81.4455
30
0
11
-0.75
21
1.29904
31
0
40
0.57735
41
3.92699
42
6.28319
0
ELLIPSE
8
0
6
BYBLOCK
62
0
5
281b
100
AcDbEntity
100
AcDbEllipse
10
0.707107
20
81.4455
30
0
11
-0.75
21
1.29904
31
0
40
0.57735
41
0
42
3.14159
0
ELLIPSE
8
0
6
BYBLOCK
62
0
5
281c
100
AcDbEntity
100
AcDbEllipse
10
0.707107
20
81.4455
30
0
11
-0.75
21
1.29904
31
0
40
0.57735
41
3.14159
42
3.92699
0
ELLIPSE
8
0
6
BYBLOCK
62
0
5
281d
100
AcDbEntity
100
AcDbEllipse
10
0.707107
20
125.128
30
0
11
-0.75
21
1.29904
31
0
40
0.57735
41
3.92699
42
6.28319
0
ELLIPSE
8
0
6
BYBLOCK
62
0
5
281e
100
AcDbEntity
100
AcDbEllipse
10
0.707107
20
125.128
30
0
11
-0.75
21
1.29904
31
0
40
0.57735
41
0
42
3.14159
0
ELLIPSE
8
0
6
BYBLOCK
62
0
5
281f
100
AcDbEntity
100
AcDbEllipse
10
0.707107
20
125.128
30
0
11
-0.75
21
1.29904
31
0
40
0.57735
41
3.14159
42
3.92699
0
LINE
8
0
6
BYBLOCK
62
0
5
2820
100
AcDbEntity
100
AcDbLine
10
14.1421
20
122.474
30
0
11
12.0208
21
121.25
31
0
0
LINE
8
0
6
BYBLOCK
62
0
5
2821
100
AcDbEntity
100
AcDbLine
10
93.3381
20
76.7507
30
0
11
91.2168
21
75.5259
31
0
0
LINE
8
0
6
BYBLOCK
62
0
5
2822
100
AcDbEntity
100
AcDbLine
10
93.3381
20
76.7507
30
0
11
63.6396
21
93.8971
31
0
0
LINE
8
0
6
BYBLOCK
62
0
5
2823
100
AcDbEntity
100
AcDbLine
10
91.2168
20
75.5259
30
0
11
61.5183
21
92.6724
31
0
0
LINE
8
0
6
BYBLOCK
62
0
5
2824
100
AcDbEntity
100
AcDbLine
10
63.6396
20
76.5874
30
0
11
68.5186
21
73.7705
31
0
0
LINE
8
0
6
BYBLOCK
62
0
5
2825
100
AcDbEntity
100
AcDbLine
10
65.5488
20
-32.9456
30
0
11
63.6396
21
-31.8434
31
0
0
LINE
8
0
6
BYBLOCK
62
0
5
2826
100
AcDbEntity
100
AcDbLine
10
117.592
20
-67.8917
30
0
11
117.592
21
-59.1552
31
0
0
LINE
8
0
6
BYBLOCK
62
0
5
2827
100
AcDbEntity
100
AcDbLine
10
127.279
20
-62.2987
30
0
11
127.279
21
57.1548
31
0
0
LINE
8
0
6
BYBLOCK
62
0
5
2828
100
AcDbEntity
100
AcDbLine
10
127.279
20
57.1548
30
0
11
113.137
21
65.3197
31
0
0
LINE
8
0
6
BYBLOCK
62
0
5
2829
100
AcDbEntity
100
AcDbLine
10
111.016
20
59.196
30
0
11
93.3381
21
69.4022
31
0
0
LINE
8
0
6
BYBLOCK
62
0
5
282a
100
AcDbEntity
100
AcDbLine
10
93.3381
20
69.4022
30
0
11
93.3381
21
76.7507
31
0
0
LINE
8
0
6
BYBLOCK
62
0
5
282b
100
AcDbEntity
100
AcDbLine
10
105.076
20
13.758
30
0
11
105.076
21
6.8994
31
0
0
LINE
8
0
6
BYBLOCK
62
0
5
282c
100
AcDbEntity
100
AcDbLine
10
105.076
20
6.8994
30
0
11
111.016
21
3.47011
31
0
0
LINE
8
0
6
BYBLOCK
62
0
5
282d
100
AcDbEntity
100
AcDbLine
10
117.733
20
48.7857
30
0
11
117.733
21
25.1073
31
0
0
LINE
8
0
6
BYBLOCK
62
0
5
282e
100
AcDbEntity
100
AcDbLine
10
117.733
20
25.1073
30
0
11
120.562
21
23.4743
31
0
0
LINE
8
0
6
BYBLOCK
62
0
5
282f
100
AcDbEntity
100
AcDbLine
10
73.7512
20
31.8434
30
0
11
73.7512
21
24.9848
31
0
0
LINE
8
0
6
BYBLOCK
62
0
5
2830
100
AcDbEntity
100
AcDbLine
10
73.7512
20
24.9848
30
0
11
79.6909
21
21.5555
31
0
0
LINE
8
0
6
BYBLOCK
62
0
5
2831
100
AcDbEntity
100
AcDbLine
10
61.5183
20
80.4249
30
0
11
68.5186
21
76.3833
31
0
0
LINE
8
0
6
BYBLOCK
62
0
5
2832
100
AcDbEntity
100
AcDbLine
10
54.5179
20
79.4043
30
0
11
56.6393
21
80.629
31
0
0
LINE
8
0
6
BYBLOCK
62
0
5
2833
100
AcDbEntity
100
AcDbLine
10
68.5186
20
71.321
30
0
11
61.5183
21
75.3626
31
0
0
ELLIPSE
8
0
6
BYBLOCK
62
0
5
2834
100
AcDbEntity
100
AcDbEllipse
10
61.5183
20
70.4637
30
0
11
-0.75
21
1.29904
31
0
40
0.57735
41
3.92699
42
5.49779
0
ELLIPSE
8
0
6
BYBLOCK
62
0
5
2835
100
AcDbEntity
100
AcDbEllipse
10
61.5183
20
70.4637
30
0
11
-0.75
21
1.29904
31
0
40
0.57735
41
2.35619
42
3.14159
0
ELLIPSE
8
0
6
BYBLOCK
62
0
5
2836
100
AcDbEntity
100
AcDbEllipse
10
61.5183
20
70.4637
30
0
11
-0.75
21
1.29904
31
0
40
0.57735
41
3.14159
42
3.92699
0
LINE
8
0
6
BYBLOCK
62
0
5
2837
100
AcDbEntity
100
AcDbLine
10
59.6091
20
-29.5164
30
0
11
57.4878
21
-30.7411
31
0
0
LINE
8
0
6
BYBLOCK
62
0
5
2838
100
AcDbEntity
100
AcDbLine
10
63.6396
20
-31.8434
30
0
11
61.5183
21
-33.0681
31
0
0
LINE
8
0
6
BYBLOCK
62
0
5
2839
100
AcDbEntity
100
AcDbLine
10
0
20
130.639
30
0
11
-2.12132
21
129.415
31
0
0
LINE
8
0
6
BYBLOCK
62
0
5
283a
100
AcDbEntity
100
AcDbLine
10
15.5563
20
5.63383
30
0
11
17.6777
21
6.85857
31
0
0
LINE
8
0
6
BYBLOCK
62
0
5
283b
100
AcDbEntity
100
AcDbLine
10
14.1421
20
59.4001
30
0
11
12.0208
21
58.1754
31
0
0
LINE
8
0
6
BYBLOCK
62
0
5
283c
100
AcDbEntity
100
AcDbLine
10
45.467
20
41.3147
30
0
11
43.3456
21
40.09
31
0
0
LINE
8
0
6
BYBLOCK
62
0
5
283d
100
AcDbEntity
100
AcDbLine
10
4.59619
20
90.427
30
0
11
2.47487
21
89.2023
31
0
0
LINE
8
0
6
BYBLOCK
62
0
5
283e
100
AcDbEntity
100
AcDbLine
10
68.5186
20
76.3833
30
0
11
68.5186
21
71.321
31
0
0
LINE
8
0
6
BYBLOCK
62
0
5
283f
100
AcDbEntity
100
AcDbLine
10
61.5183
20
-23.7601
30
0
11
65.5488
21
-26.0871
31
0
0
LINE
8
0
6
BYBLOCK
62
0
5
2840
100
AcDbEntity
100
AcDbLine
10
65.5488
20
-26.0871
30
0
11
65.5488
21
-35.3951
31
0
0
LINE
8
0
6
BYBLOCK
62
0
5
2841
100
AcDbEntity
100
AcDbLine
10
65.5488
20
-35.3951
30
0
11
61.5183
21
-33.0681
31
0
0
LINE
8
0
6
BYBLOCK
62
0
5
2842
100
AcDbEntity
100
AcDbLine
10
61.5183
20
-37.9671
30
0
11
115.471
21
-69.1164
31
0
0
LINE
8
0
6
BYBLOCK
62
0
5
2843
100
AcDbEntity
100
AcDbLine
10
115.471
20
-69.1164
30
0
11
115.471
21
-57.9304
31
0
0
LINE
8
0
6
BYBLOCK
62
0
5
2844
100
AcDbEntity
100
AcDbLine
10
115.471
20
-57.9304
30
0
11
125.158
21
-63.5234
31
0
0
LINE
8
0
6
BYBLOCK
62
0
5
2845
100
AcDbEntity
100
AcDbLine
10
125.158
20
-63.5234
30
0
11
125.158
21
55.93
31
0
0
LINE
8
0
6
BYBLOCK
62
0
5
2846
100
AcDbEntity
100
AcDbLine
10
125.158
20
55.93
30
0
11
111.016
21
64.095
31
0
0
LINE
8
0
6
BYBLOCK
62
0
5
2847
100
AcDbEntity
100
AcDbLine
10
111.016
20
64.095
30
0
11
111.016
21
56.7465
31
0
0
LINE
8
0
6
BYBLOCK
62
0
5
2848
100
AcDbEntity
100
AcDbLine
10
111.016
20
56.7465
30
0
11
91.2168
21
68.1775
31
0
0
LINE
8
0
6
BYBLOCK
62
0
5
2849
100
AcDbEntity
100
AcDbLine
10
91.2168
20
68.1775
30
0
11
91.2168
21
75.5259
31
0
0
ELLIPSE
8
0
6
BYBLOCK
62
0
5
284a
100
AcDbEntity
100
AcDbEllipse
10
87.6812
20
-40.9065
30
0
11
0.75
21
-1.29904
31
0
40
0.57735
41
3.14159
42
2.35619
0
ELLIPSE
8
0
6
BYBLOCK
62
0
5
284b
100
AcDbEntity
100
AcDbEllipse
10
87.6812
20
-40.9065
30
0
11
0.75
21
-1.29904
31
0
40
0.57735
41
6.28319
42
3.14159
0
ELLIPSE
8
0
6
BYBLOCK
62
0
5
284c
100
AcDbEntity
100
AcDbEllipse
10
87.6812
20
-40.9065
30
0
11
0.75
21
-1.29904
31
0
40
0.57735
41
2.35619
42
0
0
ELLIPSE
8
0
6
BYBLOCK
62
0
5
284d
100
AcDbEntity
100
AcDbEllipse
10
85.4044
20
11.235
30
0
11
1
21
-1.73205
31
0
40
0.57735
41
3.14159
42
2.35619
0
ELLIPSE
8
0
6
BYBLOCK
62
0
5
284e
100
AcDbEntity
100
AcDbEllipse
10
85.4044
20
11.235
30
0
11
1
21
-1.73205
31
0
40
0.57735
41
6.28319
42
3.14159
0
ELLIPSE
8
0
6
BYBLOCK
62
0
5
284f
100
AcDbEntity
100
AcDbEllipse
10
85.4044
20
11.235
30
0
11
1
21
-1.73205
31
0
40
0.57735
41
2.35619
42
0
0
ELLIPSE
8
0
6
BYBLOCK
62
0
5
2850
100
AcDbEntity
100
AcDbEllipse
10
109.078
20
-2.43316
30
0
11
1
21
-1.73205
31
0
40
0.57735
41
3.14159
42
2.35619
0
ELLIPSE
8
0
6
BYBLOCK
62
0
5
2851
100
AcDbEntity
100
AcDbEllipse
10
109.078
20
-2.43316
30
0
11
1
21
-1.73205
31
0
40
0.57735
41
6.28319
42
3.14159
0
ELLIPSE
8
0
6
BYBLOCK
62
0
5
2852
100
AcDbEntity
100
AcDbEllipse
10
109.078
20
-2.43316
30
0
11
1
21
-1.73205
31
0
40
0.57735
41
2.35619
42
0
0
ELLIPSE
8
0
6
BYBLOCK
62
0
5
2853
100
AcDbEntity
100
AcDbEllipse
10
107.48
20
-15.5951
30
0
11
-0.75
21
1.29904
31
0
40
0.57735
41
3.92699
42
6.28319
0
ELLIPSE
8
0
6
BYBLOCK
62
0
5
2854
100
AcDbEntity
100
AcDbEllipse
10
107.48
20
-15.5951
30
0
11
-0.75
21
1.29904
31
0
40
0.57735
41
0
42
3.14159
0
ELLIPSE
8
0
6
BYBLOCK
62
0
5
2855
100
AcDbEntity
100
AcDbEllipse
10
107.48
20
-15.5951
30
0
11
-0.75
21
1.29904
31
0
40
0.57735
41
3.14159
42
3.92699
0
ELLIPSE
8
0
6
BYBLOCK
62
0
5
2856
100
AcDbEntity
100
AcDbEllipse
10
107.48
20
-45.8055
30
0
11
-0.75
21
1.29904
31
0
40
0.57735
41
3.92699
42
6.28319
0
ELLIPSE
8
0
6
BYBLOCK
62
0
5
2857
100
AcDbEntity
100
AcDbEllipse
10
107.48
20
-45.8055
30
0
11
-0.75
21
1.29904
31
0
40
0.57735
41
0
42
3.14159
0
ELLIPSE
8
0
6
BYBLOCK
62
0
5
2858
100
AcDbEntity
100
AcDbEllipse
10
107.48
20
-45.8055
30
0
11
-0.75
21
1.29904
31
0
40
0.57735
41
3.14159
42
3.92699
0
ELLIPSE
8
0
6
BYBLOCK
62
0
5
2859
100
AcDbEntity
100
AcDbEllipse
10
97.2413
20
4.40092
30
0
11
1
21
-1.73205
31
0
40
0.57735
41
3.14159
42
2.35619
0
ELLIPSE
8
0
6
BYBLOCK
62
0
5
285a
100
AcDbEntity
100
AcDbEllipse
10
97.2413
20
4.40092
30
0
11
1
21
-1.73205
31
0
40
0.57735
41
6.28319
42
3.14159
0
ELLIPSE
8
0
6
BYBLOCK
62
0
5
285b
100
AcDbEntity
100
AcDbEllipse
10
97.2413
20
4.40092
30
0
11
1
21
-1.73205
31
0
40
0.57735
41
2.35619
42
0
0
ELLIPSE
8
0
6
BYBLOCK
62
0
5
285c
100
AcDbEntity
100
AcDbEllipse
10
114.551
20
-19.6694
30
0
11
0.75
21
-1.29904
31
0
40
0.57735
41
3.14159
42
2.35619
0
ELLIPSE
8
0
6
BYBLOCK
62
0
5
285d
100
AcDbEntity
100
AcDbEllipse
10
114.551
20
-19.6694
30
0
11
0.75
21
-1.29904
31
0
40
0.57735
41
6.28319
42
3.14159
0
ELLIPSE
8
0
6
BYBLOCK
62
0
5
285e
100
AcDbEntity
100
AcDbEllipse
10
114.551
20
-19.6694
30
0
11
0.75
21
-1.29904
31
0
40
0.57735
41
2.35619
42
0
0
ELLIPSE
8
0
6
BYBLOCK
62
0
5
285f
100
AcDbEntity
100
AcDbEllipse
10
114.551
20
-34.3663
30
0
11
0.75
21
-1.29904
31
0
40
0.57735
41
3.14159
42
2.35619
0
ELLIPSE
8
0
6
BYBLOCK
62
0
5
2860
100
AcDbEntity
100
AcDbEllipse
10
114.551
20
-34.3663
30
0
11
0.75
21
-1.29904
31
0
40
0.57735
41
6.28319
42
3.14159
0
ELLIPSE
8
0
6
BYBLOCK
62
0
5
2861
100
AcDbEntity
100
AcDbEllipse
10
114.551
20
-34.3663
30
0
11
0.75
21
-1.29904
31
0
40
0.57735
41
2.35619
42
0
0
ELLIPSE
8
0
6
BYBLOCK
62
0
5
2862
100
AcDbEntity
100
AcDbEllipse
10
114.551
20
-49.0633
30
0
11
0.75
21
-1.29904
31
0
40
0.57735
41
3.14159
42
2.35619
0
ELLIPSE
8
0
6
BYBLOCK
62
0
5
2863
100
AcDbEntity
100
AcDbEllipse
10
114.551
20
-49.0633
30
0
11
0.75
21
-1.29904
31
0
40
0.57735
41
6.28319
42
3.14159
0
ELLIPSE
8
0
6
BYBLOCK
62
0
5
2864
100
AcDbEntity
100
AcDbEllipse
10
114.551
20
-49.0633
30
0
11
0.75
21
-1.29904
31
0
40
0.57735
41
2.35619
42
0
0
ELLIPSE
8
0
6
BYBLOCK
62
0
5
2865
100
AcDbEntity
100
AcDbEllipse
10
113.844
20
59.8084
30
0
11
0.75
21
-1.29904
31
0
40
0.57735
41
3.14159
42
2.35619
0
ELLIPSE
8
0
6
BYBLOCK
62
0
5
2866
100
AcDbEntity
100
AcDbEllipse
10
113.844
20
59.8084
30
0
11
0.75
21
-1.29904
31
0
40
0.57735
41
6.28319
42
3.14159
0
ELLIPSE
8
0
6
BYBLOCK
62
0
5
2867
100
AcDbEntity
100
AcDbEllipse
10
113.844
20
59.8084
30
0
11
0.75
21
-1.29904
31
0
40
0.57735
41
2.35619
42
0
0
ELLIPSE
8
0
6
BYBLOCK
62
0
5
2868
100
AcDbEntity
100
AcDbEllipse
10
105.712
20
50.0512
30
0
11
0.75
21
-1.29904
31
0
40
0.57735
41
3.14159
42
2.35619
0
ELLIPSE
8
0
6
BYBLOCK
62
0
5
2869
100
AcDbEntity
100
AcDbEllipse
10
105.712
20
50.0512
30
0
11
0.75
21
-1.29904
31
0
40
0.57735
41
6.28319
42
3.14159
0
ELLIPSE
8
0
6
BYBLOCK
62
0
5
286a
100
AcDbEntity
100
AcDbEllipse
10
105.712
20
50.0512
30
0
11
0.75
21
-1.29904
31
0
40
0.57735
41
2.35619
42
0
0
ELLIPSE
8
0
6
BYBLOCK
62
0
5
286b
100
AcDbEntity
100
AcDbEllipse
10
105.712
20
35.2727
30
0
11
0.75
21
-1.29904
31
0
40
0.57735
41
3.14159
42
2.35619
0
ELLIPSE
8
0
6
BYBLOCK
62
0
5
286c
100
AcDbEntity
100
AcDbEllipse
10
105.712
20
35.2727
30
0
11
0.75
21
-1.29904
31
0
40
0.57735
41
6.28319
42
3.14159
0
ELLIPSE
8
0
6
BYBLOCK
62
0
5
286d
100
AcDbEntity
100
AcDbEllipse
10
105.712
20
35.2727
30
0
11
0.75
21
-1.29904
31
0
40
0.57735
41
2.35619
42
0
0
LINE
8
0
6
BYBLOCK
62
0
5
286e
100
AcDbEntity
100
AcDbLine
10
111.016
20
10.3287
30
0
11
102.955
21
14.9827
31
0
0
LINE
8
0
6
BYBLOCK
62
0
5
286f
100
AcDbEntity
100
AcDbLine
10
111.016
20
1.02062
30
0
11
111.016
21
10.3287
31
0
0
LINE
8
0
6
BYBLOCK
62
0
5
2870
100
AcDbEntity
100
AcDbLine
10
102.955
20
14.9827
30
0
11
102.955
21
5.67465
31
0
0
LINE
8
0
6
BYBLOCK
62
0
5
2871
100
AcDbEntity
100
AcDbLine
10
102.955
20
5.67465
30
0
11
111.016
21
1.02062
31
0
0
ELLIPSE
8
0
6
BYBLOCK
62
0
5
2872
100
AcDbEntity
100
AcDbEllipse
10
113.844
20
16.1258
30
0
11
0.75
21
-1.29904
31
0
40
0.57735
41
3.14159
42
2.35619
0
ELLIPSE
8
0
6
BYBLOCK
62
0
5
2873
100
AcDbEntity
100
AcDbEllipse
10
113.844
20
16.1258
30
0
11
0.75
21
-1.29904
31
0
40
0.57735
41
6.28319
42
3.14159
0
ELLIPSE
8
0
6
BYBLOCK
62
0
5
2874
100
AcDbEntity
100
AcDbEllipse
10
113.844
20
16.1258
30
0
11
0.75
21
-1.29904
31
0
40
0.57735
41
2.35619
42
0
0
ELLIPSE
8
0
6
BYBLOCK
62
0
5
2875
100
AcDbEntity
100
AcDbEllipse
10
92.9845
20
42.6211
30
0
11
0.75
21
-1.29904
31
0
40
0.57735
41
3.14159
42
2.35619
0
ELLIPSE
8
0
6
BYBLOCK
62
0
5
2876
100
AcDbEntity
100
AcDbEllipse
10
92.9845
20
42.6211
30
0
11
0.75
21
-1.29904
31
0
40
0.57735
41
6.28319
42
3.14159
0
ELLIPSE
8
0
6
BYBLOCK
62
0
5
2877
100
AcDbEntity
100
AcDbEllipse
10
92.9845
20
42.6211
30
0
11
0.75
21
-1.29904
31
0
40
0.57735
41
2.35619
42
0
0
ELLIPSE
8
0
6
BYBLOCK
62
0
5
2878
100
AcDbEntity
100
AcDbEllipse
10
92.9845
20
57.3997
30
0
11
0.75
21
-1.29904
31
0
40
0.57735
41
3.14159
42
2.35619
0
ELLIPSE
8
0
6
BYBLOCK
62
0
5
2879
100
AcDbEntity
100
AcDbEllipse
10
92.9845
20
57.3997
30
0
11
0.75
21
-1.29904
31
0
40
0.57735
41
6.28319
42
3.14159
0
ELLIPSE
8
0
6
BYBLOCK
62
0
5
287a
100
AcDbEntity
100
AcDbEllipse
10
92.9845
20
57.3997
30
0
11
0.75
21
-1.29904
31
0
40
0.57735
41
2.35619
42
0
0
ELLIPSE
8
0
6
BYBLOCK
62
0
5
287b
100
AcDbEntity
100
AcDbEllipse
10
102.036
20
-54.8277
30
0
11
0.75
21
-1.29904
31
0
40
0.57735
41
3.14159
42
2.35619
0
ELLIPSE
8
0
6
BYBLOCK
62
0
5
287c
100
AcDbEntity
100
AcDbEllipse
10
102.036
20
-54.8277
30
0
11
0.75
21
-1.29904
31
0
40
0.57735
41
6.28319
42
3.14159
0
ELLIPSE
8
0
6
BYBLOCK
62
0
5
287d
100
AcDbEntity
100
AcDbEllipse
10
102.036
20
-54.8277
30
0
11
0.75
21
-1.29904
31
0
40
0.57735
41
2.35619
42
0
0
ELLIPSE
8
0
6
BYBLOCK
62
0
5
287e
100
AcDbEntity
100
AcDbEllipse
10
107.692
20
-58.0937
30
0
11
0.75
21
-1.29904
31
0
40
0.57735
41
3.14159
42
2.35619
0
ELLIPSE
8
0
6
BYBLOCK
62
0
5
287f
100
AcDbEntity
100
AcDbEllipse
10
107.692
20
-58.0937
30
0
11
0.75
21
-1.29904
31
0
40
0.57735
41
6.28319
42
3.14159
0
ELLIPSE
8
0
6
BYBLOCK
62
0
5
2880
100
AcDbEntity
100
AcDbEllipse
10
107.692
20
-58.0937
30
0
11
0.75
21
-1.29904
31
0
40
0.57735
41
2.35619
42
0
0
LINE
8
0
6
BYBLOCK
62
0
5
2881
100
AcDbEntity
100
AcDbLine
10
120.562
20
47.1527
30
0
11
115.612
21
50.0104
31
0
0
LINE
8
0
6
BYBLOCK
62
0
5
2882
100
AcDbEntity
100
AcDbLine
10
120.562
20
21.0248
30
0
11
120.562
21
47.1527
31
0
0
LINE
8
0
6
BYBLOCK
62
0
5
2883
100
AcDbEntity
100
AcDbLine
10
115.612
20
50.0104
30
0
11
115.612
21
23.8825
31
0
0
LINE
8
0
6
BYBLOCK
62
0
5
2884
100
AcDbEntity
100
AcDbLine
10
115.612
20
23.8825
30
0
11
120.562
21
21.0248
31
0
0
ELLIPSE
8
0
6
BYBLOCK
62
0
5
2885
100
AcDbEntity
100
AcDbEllipse
10
118.087
20
55.93
30
0
11
0.75
21
-1.29904
31
0
40
0.57735
41
3.14159
42
2.35619
0
ELLIPSE
8
0
6
BYBLOCK
62
0
5
2886
100
AcDbEntity
100
AcDbEllipse
10
118.087
20
55.93
30
0
11
0.75
21
-1.29904
31
0
40
0.57735
41
6.28319
42
3.14159
0
ELLIPSE
8
0
6
BYBLOCK
62
0
5
2887
100
AcDbEntity
100
AcDbEllipse
10
118.087
20
55.93
30
0
11
0.75
21
-1.29904
31
0
40
0.57735
41
2.35619
42
0
0
ELLIPSE
8
0
6
BYBLOCK
62
0
5
2888
100
AcDbEntity
100
AcDbEllipse
10
118.087
20
15.1052
30
0
11
0.75
21
-1.29904
31
0
40
0.57735
41
3.14159
42
2.35619
0
ELLIPSE
8
0
6
BYBLOCK
62
0
5
2889
100
AcDbEntity
100
AcDbEllipse
10
118.087
20
15.1052
30
0
11
0.75
21
-1.29904
31
0
40
0.57735
41
6.28319
42
3.14159
0
ELLIPSE
8
0
6
BYBLOCK
62
0
5
288a
100
AcDbEntity
100
AcDbEllipse
10
118.087
20
15.1052
30
0
11
0.75
21
-1.29904
31
0
40
0.57735
41
2.35619
42
0
0
ELLIPSE
8
0
6
BYBLOCK
62
0
5
288b
100
AcDbEntity
100
AcDbEllipse
10
79.196
20
-29.4755
30
0
11
-0.75
21
1.29904
31
0
40
0.57735
41
3.92699
42
6.28319
0
ELLIPSE
8
0
6
BYBLOCK
62
0
5
288c
100
AcDbEntity
100
AcDbEllipse
10
79.196
20
-29.4755
30
0
11
-0.75
21
1.29904
31
0
40
0.57735
41
0
42
3.14159
0
ELLIPSE
8
0
6
BYBLOCK
62
0
5
288d
100
AcDbEntity
100
AcDbEllipse
10
79.196
20
-29.4755
30
0
11
-0.75
21
1.29904
31
0
40
0.57735
41
3.14159
42
3.92699
0
LINE
8
0
6
BYBLOCK
62
0
5
288e
100
AcDbEntity
100
AcDbLine
10
79.6909
20
28.4141
30
0
11
71.6299
21
33.0681
31
0
0
LINE
8
0
6
BYBLOCK
62
0
5
288f
100
AcDbEntity
100
AcDbLine
10
79.6909
20
19.106
30
0
11
79.6909
21
28.4141
31
0
0
LINE
8
0
6
BYBLOCK
62
0
5
2890
100
AcDbEntity
100
AcDbLine
10
71.6299
20
33.0681
30
0
11
71.6299
21
23.7601
31
0
0
LINE
8
0
6
BYBLOCK
62
0
5
2891
100
AcDbEntity
100
AcDbLine
10
71.6299
20
23.7601
30
0
11
79.6909
21
19.106
31
0
0
ELLIPSE
8
0
6
BYBLOCK
62
0
5
2892
100
AcDbEntity
100
AcDbEllipse
10
73.5674
20
18.0691
30
0
11
1
21
-1.73205
31
0
40
0.57735
41
3.14159
42
2.35619
0
ELLIPSE
8
0
6
BYBLOCK
62
0
5
2893
100
AcDbEntity
100
AcDbEllipse
10
73.5674
20
18.0691
30
0
11
1
21
-1.73205
31
0
40
0.57735
41
6.28319
42
3.14159
0
ELLIPSE
8
0
6
BYBLOCK
62
0
5
2894
100
AcDbEntity
100
AcDbEllipse
10
73.5674
20
18.0691
30
0
11
1
21
-1.73205
31
0
40
0.57735
41
2.35619
42
0
0
ELLIPSE
8
0
6
BYBLOCK
62
0
5
2895
100
AcDbEntity
100
AcDbEllipse
10
79.196
20
0.734847
30
0
11
-0.75
21
1.29904
31
0
40
0.57735
41
3.92699
42
6.28319
0
ELLIPSE
8
0
6
BYBLOCK
62
0
5
2896
100
AcDbEntity
100
AcDbEllipse
10
79.196
20
0.734847
30
0
11
-0.75
21
1.29904
31
0
40
0.57735
41
0
42
3.14159
0
ELLIPSE
8
0
6
BYBLOCK
62
0
5
2897
100
AcDbEntity
100
AcDbEllipse
10
79.196
20
0.734847
30
0
11
-0.75
21
1.29904
31
0
40
0.57735
41
3.14159
42
3.92699
0
ELLIPSE
8
0
6
BYBLOCK
62
0
5
2898
100
AcDbEntity
100
AcDbEllipse
10
73.327
20
63.6459
30
0
11
-0.75
21
1.29904
31
0
40
0.57735
41
3.92699
42
6.28319
0
ELLIPSE
8
0
6
BYBLOCK
62
0
5
2899
100
AcDbEntity
100
AcDbEllipse
10
73.327
20
63.6459
30
0
11
-0.75
21
1.29904
31
0
40
0.57735
41
0
42
3.14159
0
ELLIPSE
8
0
6
BYBLOCK
62
0
5
289a
100
AcDbEntity
100
AcDbEllipse
10
73.327
20
63.6459
30
0
11
-0.75
21
1.29904
31
0
40
0.57735
41
3.14159
42
3.92699
0
ELLIPSE
8
0
6
BYBLOCK
62
0
5
289b
100
AcDbEntity
100
AcDbEllipse
10
78.9838
20
60.3799
30
0
11
-0.75
21
1.29904
31
0
40
0.57735
41
3.92699
42
6.28319
0
ELLIPSE
8
0
6
BYBLOCK
62
0
5
289c
100
AcDbEntity
100
AcDbEllipse
10
78.9838
20
60.3799
30
0
11
-0.75
21
1.29904
31
0
40
0.57735
41
0
42
3.14159
0
ELLIPSE
8
0
6
BYBLOCK
62
0
5
289d
100
AcDbEntity
100
AcDbEllipse
10
78.9838
20
60.3799
30
0
11
-0.75
21
1.29904
31
0
40
0.57735
41
3.14159
42
3.92699
0
ELLIPSE
8
0
6
BYBLOCK
62
0
5
289e
100
AcDbEntity
100
AcDbEllipse
10
69.2965
20
-25.3114
30
0
11
0.75
21
-1.29904
31
0
40
0.57735
41
3.14159
42
2.35619
0
ELLIPSE
8
0
6
BYBLOCK
62
0
5
289f
100
AcDbEntity
100
AcDbEllipse
10
69.2965
20
-25.3114
30
0
11
0.75
21
-1.29904
31
0
40
0.57735
41
6.28319
42
3.14159
0
ELLIPSE
8
0
6
BYBLOCK
62
0
5
28a0
100
AcDbEntity
100
AcDbEllipse
10
69.2965
20
-25.3114
30
0
11
0.75
21
-1.29904
31
0
40
0.57735
41
2.35619
42
0
0
ELLIPSE
8
0
6
BYBLOCK
62
0
5
28a1
100
AcDbEntity
100
AcDbEllipse
10
122.329
20
11.2268
30
0
11
0.75
21
-1.29904
31
0
40
0.57735
41
3.14159
42
2.35619
0
ELLIPSE
8
0
6
BYBLOCK
62
0
5
28a2
100
AcDbEntity
100
AcDbEllipse
10
122.329
20
11.2268
30
0
11
0.75
21
-1.29904
31
0
40
0.57735
41
6.28319
42
3.14159
0
ELLIPSE
8
0
6
BYBLOCK
62
0
5
28a3
100
AcDbEntity
100
AcDbEllipse
10
122.329
20
11.2268
30
0
11
0.75
21
-1.29904
31
0
40
0.57735
41
2.35619
42
0
0
ELLIPSE
8
0
6
BYBLOCK
62
0
5
28a4
100
AcDbEntity
100
AcDbEllipse
10
122.329
20
54.9094
30
0
11
0.75
21
-1.29904
31
0
40
0.57735
41
3.14159
42
2.35619
0
ELLIPSE
8
0
6
BYBLOCK
62
0
5
28a5
100
AcDbEntity
100
AcDbEllipse
10
122.329
20
54.9094
30
0
11
0.75
21
-1.29904
31
0
40
0.57735
41
6.28319
42
3.14159
0
ELLIPSE
8
0
6
BYBLOCK
62
0
5
28a6
100
AcDbEntity
100
AcDbEllipse
10
122.329
20
54.9094
30
0
11
0.75
21
-1.29904
31
0
40
0.57735
41
2.35619
42
0
0
ELLIPSE
8
0
6
BYBLOCK
62
0
5
28a7
100
AcDbEntity
100
AcDbEllipse
10
66.3973
20
84.14
30
0
11
-0.75
21
1.29904
31
0
40
0.57735
41
3.92699
42
6.28319
0
ELLIPSE
8
0
6
BYBLOCK
62
0
5
28a8
100
AcDbEntity
100
AcDbEllipse
10
66.3973
20
84.14
30
0
11
-0.75
21
1.29904
31
0
40
0.57735
41
0
42
3.14159
0
ELLIPSE
8
0
6
BYBLOCK
62
0
5
28a9
100
AcDbEntity
100
AcDbEllipse
10
66.3973
20
84.14
30
0
11
-0.75
21
1.29904
31
0
40
0.57735
41
3.14159
42
3.92699
0
LINE
8
0
6
BYBLOCK
62
0
5
28aa
100
AcDbEntity
100
AcDbLine
10
93.3381
20
69.4022
30
0
11
91.2168
21
68.1775
31
0
0
LINE
8
0
6
BYBLOCK
62
0
5
28ab
100
AcDbEntity
100
AcDbLine
10
117.592
20
-67.8917
30
0
11
115.471
21
-69.1164
31
0
0
LINE
8
0
6
BYBLOCK
62
0
5
28ac
100
AcDbEntity
100
AcDbLine
10
127.279
20
-62.2987
30
0
11
125.158
21
-63.5234
31
0
0
LINE
8
0
6
BYBLOCK
62
0
5
28ad
100
AcDbEntity
100
AcDbLine
10
127.279
20
57.1548
30
0
11
125.158
21
55.93
31
0
0
LINE
8
0
6
BYBLOCK
62
0
5
28ae
100
AcDbEntity
100
AcDbLine
10
113.137
20
65.3197
30
0
11
111.016
21
64.095
31
0
0
LINE
8
0
6
BYBLOCK
62
0
5
28af
100
AcDbEntity
100
AcDbLine
10
105.076
20
6.8994
30
0
11
102.955
21
5.67465
31
0
0
LINE
8
0
6
BYBLOCK
62
0
5
28b0
100
AcDbEntity
100
AcDbLine
10
117.733
20
25.1073
30
0
11
115.612
21
23.8825
31
0
0
LINE
8
0
6
BYBLOCK
62
0
5
28b1
100
AcDbEntity
100
AcDbLine
10
73.7512
20
24.9848
30
0
11
71.6299
21
23.7601
31
0
0
ENDBLK
5
28b2
100
AcDbEntity
8
0
100
AcDbBlockEnd
0
ENDSEC
0
SECTION
2
ENTITIES
0
LINE
5
4B
100
AcDbEntity
8
PAPERSIZE
6
ByLayer
62
256
370
-1
100
AcDbLine
10
0
20
-5
11
0
21
0
0
LINE
5
4C
100
AcDbEntity
8
PAPERSIZE
6
ByLayer
62
256
370
-1
100
AcDbLine
10
0
20
0
11
5
21
0
0
LINE
5
4D
100
AcDbEntity
8
PAPERSIZE
6
ByLayer
62
256
370
-1
100
AcDbLine
10
589
20
0
11
594
21
0
0
LINE
5
4E
100
AcDbEntity
8
PAPERSIZE
6
ByLayer
62
256
370
-1
100
AcDbLine
10
594
20
0
11
594
21
-5
0
LINE
5
4F
100
AcDbEntity
8
PAPERSIZE
6
ByLayer
62
256
370
-1
100
AcDbLine
10
589
20
-420
11
594
21
-420
0
LINE
5
50
100
AcDbEntity
8
PAPERSIZE
6
ByLayer
62
256
370
-1
100
AcDbLine
10
594
20
-420
11
594
21
-415
0
LINE
5
51
100
AcDbEntity
8
PAPERSIZE
6
ByLayer
62
256
370
-1
100
AcDbLine
10
0
20
-415
11
0
21
-420
0
LINE
5
52
100
AcDbEntity
8
PAPERSIZE
6
ByLayer
62
256
370
-1
100
AcDbLine
10
0
20
-420
11
5
21
-420
0
LINE
5
53
100
AcDbEntity
8
BORDER
6
ByLayer
62
7
370
-1
100
AcDbLine
10
20
20
-10
11
584
21
-10
0
LINE
5
54
100
AcDbEntity
8
BORDER
6
ByLayer
62
7
370
-1
100
AcDbLine
10
584
20
-10
11
584
21
-410
0
LINE
5
55
100
AcDbEntity
8
BORDER
6
ByLayer
62
7
370
-1
100
AcDbLine
10
584
20
-410
11
20
21
-410
0
LINE
5
56
100
AcDbEntity
8
BORDER
6
ByLayer
62
7
370
-1
100
AcDbLine
10
20
20
-410
11
20
21
-10
0
LINE
5
57
100
AcDbEntity
8
TITLEBLOCK
6
ByLayer
62
7
370
-1
100
AcDbLine
10
404
20
-350
11
584
21
-350
0
LINE
5
58
100
AcDbEntity
8
TITLEBLOCK
6
ByLayer
62
7
370
-1
100
AcDbLine
10
584
20
-350
11
584
21
-410
0
LINE
5
59
100
AcDbEntity
8
TITLEBLOCK
6
ByLayer
62
7
370
-1
100
AcDbLine
10
584
20
-410
11
404
21
-410
0
LINE
5
5A
100
AcDbEntity
8
TITLEBLOCK
6
ByLayer
62
7
370
-1
100
AcDbLine
10
404
20
-410
11
404
21
-350
0
LINE
5
5B
100
AcDbEntity
8
TITLEBLOCK
6
ByLayer
62
7
370
-1
100
AcDbLine
10
404
20
-362
11
584
21
-362
0
LINE
5
5C
100
AcDbEntity
8
TITLEBLOCK
6
ByLayer
62
7
370
-1
100
AcDbLine
10
464
20
-350
11
464
21
-362
0
LINE
5
5D
100
AcDbEntity
8
TITLEBLOCK
6
ByLayer
62
7
370
-1
100
AcDbLine
10
524
20
-362
11
524
21
-410
0
LINE
5
5E
100
AcDbEntity
8
TITLEBLOCK
6
ByLayer
62
7
370
-1
100
AcDbLine
10
544
20
-362
11
544
21
-374
0
LINE
5
5F
100
AcDbEntity
8
TITLEBLOCK
6
ByLayer
62
7
370
-1
100
AcDbLine
10
564
20
-362
11
564
21
-374
0
LINE
5
60
100
AcDbEntity
8
TITLEBLOCK
6
ByLayer
62
7
370
-1
100
AcDbLine
10
524
20
-374
11
584
21
-374
0
LINE
5
61
100
AcDbEntity
8
TITLEBLOCK
6
ByLayer
62
7
370
-1
100
AcDbLine
10
524
20
-398
11
584
21
-398
0
LINE
5
62
100
AcDbEntity
8
TITLEBLOCK
6
ByLayer
62
7
370
-1
100
AcDbLine
10
564
20
-398
11
564
21
-410
0
LINE
5
63
100
AcDbEntity
8
LOGO
6
ByLayer
62
7
370
-1
100
AcDbLine
10
512.6524
20
-399.15254
11
512.6524
21
-408.00744
0
LINE
5
64
100
AcDbEntity
8
LOGO
6
ByLayer
62
7
370
-1
100
AcDbLine
10
512.6524
20
-408.00744
11
514.6268
21
-408.00744
0
LINE
5
65
100
AcDbEntity
8
LOGO
6
ByLayer
62
7
370
-1
100
AcDbLine
10
514.6268
20
-408.00744
11
514.6268
21
-404.54224
0
LINE
5
66
100
AcDbEntity
8
LOGO
6
ByLayer
62
7
370
-1
100
AcDbLine
10
514.6268
20
-404.54224
11
516.0228
21
-404.54224
0
LINE
5
67
100
AcDbEntity
8
LOGO
6
ByLayer
62
7
370
-1
100
AcDbLine
10
516.0228
20
-404.54224
11
516.0228
21
-403.17614
0
LINE
5
68
100
AcDbEntity
8
LOGO
6
ByLayer
62
7
370
-1
100
AcDbLine
10
516.0228
20
-403.17614
11
514.6268
21
-403.17614
0
LINE
5
69
100
AcDbEntity
8
LOGO
6
ByLayer
62
7
370
-1
100
AcDbLine
10
514.6268
20
-403.17614
11
514.6268
21
-401.70164
0
LINE
5
6A
100
AcDbEntity
8
LOGO
6
ByLayer
62
7
370
-1
100
AcDbLine
10
514.6268
20
-401.70164
11
518.0659
21
-401.70164
0
LINE
5
6B
100
AcDbEntity
8
LOGO
6
ByLayer
62
7
370
-1
100
AcDbLine
10
518.0659
20
-401.70164
11
518.0659
21
-399.15754
0
LINE
5
6C
100
AcDbEntity
8
LOGO
6
ByLayer
62
7
370
-1
100
AcDbLine
10
518.0659
20
-399.15754
11
512.6524
21
-399.15254
0
LINE
5
6D
100
AcDbEntity
8
LOGO
6
ByLayer
62
7
370
-1
100
AcDbLine
10
512.6524
20
-399.15254
11
512.6524
21
-399.15254
0
LINE
5
6E
100
AcDbEntity
8
LOGO
6
ByLayer
62
7
370
-1
100
AcDbLine
10
520.2927
20
-402.4504
11
519.78555
21
-402.2744
0
LINE
5
6F
100
AcDbEntity
8
LOGO
6
ByLayer
62
7
370
-1
100
AcDbLine
10
519.78555
20
-402.2744
11
519.30168
21
-401.0378
0
LINE
5
70
100
AcDbEntity
8
LOGO
6
ByLayer
62
7
370
-1
100
AcDbLine
10
519.30168
20
-401.0378
11
518.54053
21
-401.0778
0
LINE
5
71
100
AcDbEntity
8
LOGO
6
ByLayer
62
7
370
-1
100
AcDbLine
10
518.54053
20
-401.0778
11
518.19335
21
-402.3565
0
LINE
5
72
100
AcDbEntity
8
LOGO
6
ByLayer
62
7
370
-1
100
AcDbLine
10
518.19335
20
-402.3565
11
517.70745
21
-402.58919
0
LINE
5
73
100
AcDbEntity
8
LOGO
6
ByLayer
62
7
370
-1
100
AcDbLine
10
517.70745
20
-402.58919
11
516.49555
21
-402.05904
0
LINE
5
74
100
AcDbEntity
8
LOGO
6
ByLayer
62
7
370
-1
100
AcDbLine
10
516.49555
20
-402.05904
11
515.98367
21
-402.62786
0
LINE
5
75
100
AcDbEntity
8
LOGO
6
ByLayer
62
7
370
-1
100
AcDbLine
10
515.98367
20
-402.62786
11
516.64259
21
-403.77636
0
LINE
5
76
100
AcDbEntity
8
LOGO
6
ByLayer
62
7
370
-1
100
AcDbLine
10
516.64259
20
-403.77636
11
516.46253
21
-404.28203
0
LINE
5
77
100
AcDbEntity
8
LOGO
6
ByLayer
62
7
370
-1
100
AcDbLine
10
516.46253
20
-404.28203
11
515.22593
21
-404.7659
0
LINE
5
78
100
AcDbEntity
8
LOGO
6
ByLayer
62
7
370
-1
100
AcDbLine
10
515.22593
20
-404.7659
11
515.269994
21
-405.52853
0
LINE
5
79
100
AcDbEntity
8
LOGO
6
ByLayer
62
7
370
-1
100
AcDbLine
10
515.269994
20
-405.52853
11
516.548694
21
-405.87571
0
LINE
5
7A
100
AcDbEntity
8
LOGO
6
ByLayer
62
7
370
-1
100
AcDbLine
10
516.548694
20
-405.87571
11
516.781384
21
-406.36161
0
LINE
5
7B
100
AcDbEntity
8
LOGO
6
ByLayer
62
7
370
-1
100
AcDbLine
10
516.781384
20
-406.36161
11
516.247174
21
-407.57201
0
LINE
5
7C
100
AcDbEntity
8
LOGO
6
ByLayer
62
7
370
-1
100
AcDbLine
10
516.247174
20
-407.57201
11
516.815994
21
-408.08389
0
LINE
5
7D
100
AcDbEntity
8
LOGO
6
ByLayer
62
7
370
-1
100
AcDbLine
10
516.815994
20
-408.08389
11
517.964494
21
-407.42498
0
LINE
5
7E
100
AcDbEntity
8
LOGO
6
ByLayer
62
7
370
-1
100
AcDbLine
10
517.964494
20
-407.42498
11
518.474224
21
-407.60653
0
LINE
5
7F
100
AcDbEntity
8
LOGO
6
ByLayer
62
7
370
-1
100
AcDbLine
10
518.474224
20
-407.60653
11
518.954024
21
-408.84163
0
LINE
5
80
100
AcDbEntity
8
LOGO
6
ByLayer
62
7
370
-1
100
AcDbLine
10
518.954024
20
-408.84163
11
519.720724
21
-408.79905
0
LINE
5
81
100
AcDbEntity
8
LOGO
6
ByLayer
62
7
370
-1
100
AcDbLine
10
519.720724
20
-408.79905
11
520.063834
21
-407.51885
0
LINE
5
82
100
AcDbEntity
8
LOGO
6
ByLayer
62
7
370
-1
100
AcDbLine
10
520.063834
20
-407.51885
11
520.549734
21
-407.28616
0
LINE
5
83
100
AcDbEntity
8
LOGO
6
ByLayer
62
7
370
-1
100
AcDbLine
10
520.549734
20
-407.28616
11
521.764234
21
-407.82186
0
LINE
5
84
100
AcDbEntity
8
LOGO
6
ByLayer
62
7
370
-1
100
AcDbLine
10
521.764234
20
-407.82186
11
522.276114
21
-407.25304
0
LINE
5
85
100
AcDbEntity
8
LOGO
6
ByLayer
62
7
370
-1
100
AcDbLine
10
522.276114
20
-407.25304
11
521.617204
21
-406.10454
0
LINE
5
86
100
AcDbEntity
8
LOGO
6
ByLayer
62
7
370
-1
100
AcDbLine
10
521.617204
20
-406.10454
11
521.794684
21
-405.59332
0
LINE
5
87
100
AcDbEntity
8
LOGO
6
ByLayer
62
7
370
-1
100
AcDbLine
10
521.794684
20
-405.59332
11
523.029784
21
-405.11352
0
LINE
5
88
100
AcDbEntity
8
LOGO
6
ByLayer
62
7
370
-1
100
AcDbLine
10
523.029784
20
-405.11352
11
522.991274
21
-404.34831
0
LINE
5
89
100
AcDbEntity
8
LOGO
6
ByLayer
62
7
370
-1
100
AcDbLine
10
522.991274
20
-404.34831
11
521.711074
21
-404.0052
0
LINE
5
8A
100
AcDbEntity
8
LOGO
6
ByLayer
62
7
370
-1
100
AcDbLine
10
521.711074
20
-404.0052
11
521.478384
21
-403.5193
0
LINE
5
8B
100
AcDbEntity
8
LOGO
6
ByLayer
62
7
370
-1
100
AcDbLine
10
521.478384
20
-403.5193
11
522.010014
21
-402.3033
0
LINE
5
8C
100
AcDbEntity
8
LOGO
6
ByLayer
62
7
370
-1
100
AcDbLine
10
522.010014
20
-402.3033
11
521.441204
21
-401.79146
0
LINE
5
8D
100
AcDbEntity
8
LOGO
6
ByLayer
62
7
370
-1
100
AcDbLine
10
521.441204
20
-401.79146
11
520.2927
21
-402.4504
0
LINE
5
8E
100
AcDbEntity
8
LOGO
6
ByLayer
62
7
370
-1
100
AcDbLine
10
519.7212
20
-403.6748
11
519.95696
21
-403.81159
0
LINE
5
8F
100
AcDbEntity
8
LOGO
6
ByLayer
62
7
370
-1
100
AcDbLine
10
519.95696
20
-403.81159
11
520.16122
21
-403.99678
0
LINE
5
90
100
AcDbEntity
8
LOGO
6
ByLayer
62
7
370
-1
100
AcDbLine
10
520.16122
20
-403.99678
11
520.32475
21
-404.21779
0
LINE
5
91
100
AcDbEntity
8
LOGO
6
ByLayer
62
7
370
-1
100
AcDbLine
10
520.32475
20
-404.21779
11
520.44238
21
-404.46351
0
LINE
5
92
100
AcDbEntity
8
LOGO
6
ByLayer
62
7
370
-1
100
AcDbLine
10
520.44238
20
-404.46351
11
520.51154
21
-404.7284
0
LINE
5
93
100
AcDbEntity
8
LOGO
6
ByLayer
62
7
370
-1
100
AcDbLine
10
520.51154
20
-404.7284
11
520.523
21
-404.99986
0
LINE
5
94
100
AcDbEntity
8
LOGO
6
ByLayer
62
7
370
-1
100
AcDbLine
10
520.523
20
-404.99986
11
520.48379
21
-405.27125
0
LINE
5
95
100
AcDbEntity
8
LOGO
6
ByLayer
62
7
370
-1
100
AcDbLine
10
520.48379
20
-405.27125
11
520.39431
21
-405.52889
0
LINE
5
96
100
AcDbEntity
8
LOGO
6
ByLayer
62
7
370
-1
100
AcDbLine
10
520.39431
20
-405.52889
11
520.25197
21
-405.76723
0
LINE
5
97
100
AcDbEntity
8
LOGO
6
ByLayer
62
7
370
-1
100
AcDbLine
10
520.25197
20
-405.76723
11
520.07233
21
-405.9689
0
LINE
5
98
100
AcDbEntity
8
LOGO
6
ByLayer
62
7
370
-1
100
AcDbLine
10
520.07233
20
-405.9689
11
519.85132
21
-406.13243
0
LINE
5
99
100
AcDbEntity
8
LOGO
6
ByLayer
62
7
370
-1
100
AcDbLine
10
519.85132
20
-406.13243
11
519.6056
21
-406.25006
0
LINE
5
9A
100
AcDbEntity
8
LOGO
6
ByLayer
62
7
370
-1
100
AcDbLine
10
519.6056
20
-406.25006
11
519.34071
21
-406.31922
0
LINE
5
9B
100
AcDbEntity
8
LOGO
6
ByLayer
62
7
370
-1
100
AcDbLine
10
519.34071
20
-406.31922
11
519.06776
21
-406.33475
0
LINE
5
9C
100
AcDbEntity
8
LOGO
6
ByLayer
62
7
370
-1
100
AcDbLine
10
519.06776
20
-406.33475
11
518.79586
21
-406.29475
0
LINE
5
9D
100
AcDbEntity
8
LOGO
6
ByLayer
62
7
370
-1
100
AcDbLine
10
518.79586
20
-406.29475
11
518.53826
21
-406.20575
0
LINE
5
9E
100
AcDbEntity
8
LOGO
6
ByLayer
62
7
370
-1
100
AcDbLine
10
518.53826
20
-406.20575
11
518.29996
21
-406.06275
0
LINE
5
9F
100
AcDbEntity
8
LOGO
6
ByLayer
62
7
370
-1
100
AcDbLine
10
518.29996
20
-406.06275
11
518.09976
21
-405.87975
0
LINE
5
A0
100
AcDbEntity
8
LOGO
6
ByLayer
62
7
370
-1
100
AcDbLine
10
518.09976
20
-405.87975
11
517.93476
21
-405.66275
0
LINE
5
A1
100
AcDbEntity
8
LOGO
6
ByLayer
62
7
370
-1
100
AcDbLine
10
517.93476
20
-405.66275
11
517.81706
21
-405.41675
0
LINE
5
A2
100
AcDbEntity
8
LOGO
6
ByLayer
62
7
370
-1
100
AcDbLine
10
517.81706
20
-405.41675
11
517.74946
21
-405.14775
0
LINE
5
A3
100
AcDbEntity
8
LOGO
6
ByLayer
62
7
370
-1
100
AcDbLine
10
517.74946
20
-405.14775
11
517.73386
21
-404.87475
0
LINE
5
A4
100
AcDbEntity
8
LOGO
6
ByLayer
62
7
370
-1
100
AcDbLine
10
517.73386
20
-404.87475
11
517.773066
21
-404.60335
0
LINE
5
A5
100
AcDbEntity
8
LOGO
6
ByLayer
62
7
370
-1
100
AcDbLine
10
517.773066
20
-404.60335
11
517.86255
21
-404.34571
0
LINE
5
A6
100
AcDbEntity
8
LOGO
6
ByLayer
62
7
370
-1
100
AcDbLine
10
517.86255
20
-404.34571
11
518.0034
21
-404.11144
0
LINE
5
A7
100
AcDbEntity
8
LOGO
6
ByLayer
62
7
370
-1
100
AcDbLine
10
518.0034
20
-404.11144
11
518.18453
21
-403.9057
0
LINE
5
A8
100
AcDbEntity
8
LOGO
6
ByLayer
62
7
370
-1
100
AcDbLine
10
518.18453
20
-403.9057
11
518.40554
21
-403.74218
0
LINE
5
A9
100
AcDbEntity
8
LOGO
6
ByLayer
62
7
370
-1
100
AcDbLine
10
518.40554
20
-403.74218
11
518.65126
21
-403.62455
0
LINE
5
AA
100
AcDbEntity
8
LOGO
6
ByLayer
62
7
370
-1
100
AcDbLine
10
518.65126
20
-403.62455
11
518.92021
21
-403.55687
0
LINE
5
AB
100
AcDbEntity
8
LOGO
6
ByLayer
62
7
370
-1
100
AcDbLine
10
518.92021
20
-403.55687
11
519.19168
21
-403.54541
0
LINE
5
AC
100
AcDbEntity
8
LOGO
6
ByLayer
62
7
370
-1
100
AcDbLine
10
519.19168
20
-403.54541
11
519.46307
21
-403.58462
0
LINE
5
AD
100
AcDbEntity
8
LOGO
6
ByLayer
62
7
370
-1
100
AcDbLine
10
519.46307
20
-403.58462
11
519.72071
21
-403.6741
0
LINE
5
AE
100
AcDbEntity
8
LOGO
6
ByLayer
62
7
370
-1
100
AcDbLine
10
519.72071
20
-403.6741
11
519.7212
21
-403.6748
0
TEXT
5
AF
100
AcDbEntity
8
TITLEBLOCK
6
ByLayer
62
256
370
20
100
AcDbText
10
405
20
-353
30
0
40
2.2
1
Created by:
50
0
41
1
51
0
7
standard
71
0
210
0
220
0
230
1
100
AcDbText
0
TEXT
5
B0
100
AcDbEntity
8
TITLEBLOCK
6
ByLayer
62
256
370
20
100
AcDbText
10
405
20
-365
30
0
40
2.2
1
Supplementary information:
50
0
41
1
51
0
7
standard
71
0
210
0
220
0
230
1
100
AcDbText
0
TEXT
5
B1
100
AcDbEntity
8
TITLEBLOCK
6
ByLayer
62
256
370
20
100
AcDbText
10
465
20
-353
30
0
40
2.2
1
Title:
50
0
41
1
51
0
7
standard
71
0
210
0
220
0
230
1
100
AcDbText
0
TEXT
5
B2
100
AcDbEntity
8
TITLEBLOCK
6
ByLayer
62
256
370
20
100
AcDbText
10
525
20
-365
30
0
40
2.2
1
Size:
50
0
41
1
51
0
7
standard
71
0
210
0
220
0
230
1
100
AcDbText
0
TEXT
5
B3
100
AcDbEntity
8
TITLEBLOCK
6
ByLayer
62
256
370
20
100
AcDbText
10
545
20
-365
30
0
40
2.2
1
Sheet:
50
0
41
1
51
0
7
standard
71
0
210
0
220
0
230
1
100
AcDbText
0
TEXT
5
B4
100
AcDbEntity
8
TITLEBLOCK
6
ByLayer
62
256
370
20
100
AcDbText
10
565
20
-365
30
0
40
2.2
1
Scale:
50
0
41
1
51
0
7
standard
71
0
210
0
220
0
230
1
100
AcDbText
0
TEXT
5
B5
100
AcDbEntity
8
TITLEBLOCK
6
ByLayer
62
256
370
20
100
AcDbText
10
525
20
-377
30
0
40
2.2
1
Part number:
50
0
41
1
51
0
7
standard
71
0
210
0
220
0
230
1
100
AcDbText
0
TEXT
5
B6
100
AcDbEntity
8
TITLEBLOCK
6
ByLayer
62
256
370
20
100
AcDbText
10
525
20
-389
30
0
40
2.2
1
Drawing number:
50
0
41
1
51
0
7
standard
71
0
210
0
220
0
230
1
100
AcDbText
0
TEXT
5
B7
100
AcDbEntity
8
TITLEBLOCK
6
ByLayer
62
256
370
20
100
AcDbText
10
525
20
-401
30
0
40
2.2
1
Date:
50
0
41
1
51
0
7
standard
71
0
210
0
220
0
230
1
100
AcDbText
0
TEXT
5
B8
100
AcDbEntity
8
TITLEBLOCK
6
ByLayer
62
256
370
20
100
AcDbText
10
565
20
-401
30
0
40
2.2
1
Revision:
50
0
41
1
51
0
7
standard
71
0
210
0
220
0
230
1
100
AcDbText
0
TEXT
5
B9
100
AcDbEntity
8
TITLEBLOCK
6
ByLayer
62
256
370
35
100
AcDbText
10
434
20
-359
30
0
40
3.7
1
Robotronik
50
0
41
1
51
0
7
standard
71
0
72
1
11
434
21
-359
31
0
210
0
220
0
230
1
100
AcDbText
0
TEXT
5
BA
100
AcDbEntity
8
TITLEBLOCK
6
ByLayer
62
256
370
35
100
AcDbText
10
524
20
-359
30
0
40
3.7
1
DRAWING TITLE
50
0
41
1
51
0
7
standard
71
0
72
1
11
524
21
-359
31
0
210
0
220
0
230
1
100
AcDbText
0
TEXT
5
BB
100
AcDbEntity
8
TITLEBLOCK
6
ByLayer
62
256
370
35
100
AcDbText
10
464
20
-371
30
0
40
3.7
1

50
0
41
1
51
0
7
standard
71
0
72
1
11
464
21
-371
31
0
210
0
220
0
230
1
100
AcDbText
0
TEXT
5
BC
100
AcDbEntity
8
TITLEBLOCK
6
ByLayer
62
256
370
35
100
AcDbText
10
464
20
-378
30
0
40
3.7
1

50
0
41
1
51
0
7
standard
71
0
72
1
11
464
21
-378
31
0
210
0
220
0
230
1
100
AcDbText
0
TEXT
5
BD
100
AcDbEntity
8
TITLEBLOCK
6
ByLayer
62
256
370
35
100
AcDbText
10
464
20
-385
30
0
40
3.7
1
FreeCAD DRAWING
50
0
41
1
51
0
7
standard
71
0
72
1
11
464
21
-385
31
0
210
0
220
0
230
1
100
AcDbText
0
TEXT
5
BE
100
AcDbEntity
8
TITLEBLOCK
6
ByLayer
62
256
370
35
100
AcDbText
10
464
20
-392
30
0
40
3.7
1

50
0
41
1
51
0
7
standard
71
0
72
1
11
464
21
-392
31
0
210
0
220
0
230
1
100
AcDbText
0
TEXT
5
BF
100
AcDbEntity
8
TITLEBLOCK
6
ByLayer
62
256
370
35
100
AcDbText
10
464
20
-399
30
0
40
3.7
1

50
0
41
1
51
0
7
standard
71
0
72
1
11
464
21
-399
31
0
210
0
220
0
230
1
100
AcDbText
0
TEXT
5
C0
100
AcDbEntity
8
TITLEBLOCK
6
ByLayer
62
256
370
35
100
AcDbText
10
464
20
-406
30
0
40
3.7
1

50
0
41
1
51
0
7
standard
71
0
72
1
11
464
21
-406
31
0
210
0
220
0
230
1
100
AcDbText
0
TEXT
5
C1
100
AcDbEntity
8
TITLEBLOCK
6
ByLayer
62
256
370
35
100
AcDbText
10
554
20
-383
30
0
40
3.7
1
PN
50
0
41
1
51
0
7
standard
71
0
72
1
11
554
21
-383
31
0
210
0
220
0
230
1
100
AcDbText
0
TEXT
5
C2
100
AcDbEntity
8
TITLEBLOCK
6
ByLayer
62
256
370
35
100
AcDbText
10
554
20
-395
30
0
40
3.7
1
DN
50
0
41
1
51
0
7
standard
71
0
72
1
11
554
21
-395
31
0
210
0
220
0
230
1
100
AcDbText
0
TEXT
5
C3
100
AcDbEntity
8
TITLEBLOCK
6
ByLayer
62
256
370
35
100
AcDbText
10
534
20
-371
30
0
40
3.7
1
A2
50
0
41
1
51
0
7
standard
71
0
72
1
11
534
21
-371
31
0
210
0
220
0
230
1
100
AcDbText
0
TEXT
5
C4
100
AcDbEntity
8
TITLEBLOCK
6
ByLayer
62
256
370
35
100
AcDbText
10
554
20
-371
30
0
40
3.7
1
X / Y
50
0
41
1
51
0
7
standard
71
0
72
1
11
554
21
-371
31
0
210
0
220
0
230
1
100
AcDbText
0
TEXT
5
C5
100
AcDbEntity
8
TITLEBLOCK
6
ByLayer
62
256
370
35
100
AcDbText
10
574
20
-371
30
0
40
3.7
1
SCALE
50
0
41
1
51
0
7
standard
71
0
72
1
11
574
21
-371
31
0
210
0
220
0
230
1
100
AcDbText
0
TEXT
5
C6
100
AcDbEntity
8
TITLEBLOCK
6
ByLayer
62
256
370
35
100
AcDbText
10
544
20
-407
30
0
40
3.7
1
DD/MM/YYYY
50
0
41
1
51
0
7
standard
71
0
72
1
11
544
21
-407
31
0
210
0
220
0
230
1
100
AcDbText
0
TEXT
5
C7
100
AcDbEntity
8
TITLEBLOCK
6
ByLayer
62
256
370
35
100
AcDbText
10
574
20
-407
30
0
40
3.7
1
REV A
50
0
41
1
51
0
7
standard
71
0
72
1
11
574
21
-407
31
0
210
0
220
0
230
1
100
AcDbText
0
INSERT
5
28b3
8
0
6
BYLAYER
62
256
2
Ortho1
10
78.0
20
-327.416656494
30
0
41
1.0
42
1.0
43
1.0
50
90.0000026563
0
INSERT
5
28b4
8
0
6
BYLAYER
62
256
2
Ortho0011
10
78.0
20
-76.8333282471
30
0
41
1.0
42
1.0
43
1.0
50
-90.0000026563
0
INSERT
5
28b5
8
0
6
BYLAYER
62
256
2
Ortho0021
10
438.071075439
20
-98.6558609009
30
0
41
1.0
42
1.0
43
1.0
50
-120.000000304
0
ENDSEC
0
SECTION
2
OBJECTS
0
DICTIONARY
5
C
330
0
100
AcDbDictionary
281
1
3
ACAD_GROUP
350
D
0
DICTIONARY
5
D
330
C
100
AcDbDictionary
281
1
0
ENDSEC
0
EOF
