999
dxfrw 0.6.3
  0
SECTION
  2
HEADER
  9
$ACADVER
  1
AC1021
  9
$DWGCODEPAGE
  3
ANSI_1250
  9
$INSBASE
 10
0
 20
0
 30
0
  9
$EXTMIN
 10
-20.5
 20
-420
 30
0
  9
$EXTMAX
 10
594
 20
37.5
 30
0
  9
$LIMMIN
 10
0
 20
0
  9
$LIMMAX
 10
420
 20
297
  9
$ORTHOMODE
 70
    0
  9
$REGENMODE
 70
    1
  9
$FILLMODE
 70
    1
  9
$QTEXTMODE
 70
    0
  9
$MIRRTEXT
 70
    0
  9
$LTSCALE
 40
1
  9
$ATTMODE
 70
    0
  9
$TEXTSIZE
 40
2.5
  9
$TRACEWID
 40
15.68
  9
$TEXTSTYLE
  7
STANDARD
  9
$CLAYER
  8
positions
  9
$CELTYPE
  6
BYLAYER
  9
$CECOLOR
 62
  256
  9
$CELTSCALE
 40
1
  9
$DISPSILH
 70
    0
  9
$DIMSCALE
 40
1
  9
$DIMASZ
 40
3.5
  9
$DIMEXO
 40
0
  9
$DIMDLI
 40
3.75
  9
$DIMRND
 40
0
  9
$DIMDLE
 40
0
  9
$DIMEXE
 40
2
  9
$DIMTP
 40
0
  9
$DIMTM
 40
0
  9
$DIMTXT
 40
3.5
  9
$DIMCEN
 40
2.5
  9
$DIMTSZ
 40
0
  9
$DIMTOL
 70
    0
  9
$DIMLIM
 70
    0
  9
$DIMTIH
 70
    0
  9
$DIMTOH
 70
    0
  9
$DIMSE1
 70
    0
  9
$DIMSE2
 70
    0
  9
$DIMTAD
 70
    1
  9
$DIMZIN
 70
    8
  9
$DIMBLK
  1

  9
$DIMASO
 70
    1
  9
$DIMSHO
 70
    1
  9
$DIMPOST
  1

  9
$DIMAPOST
  1

  9
$DIMALT
 70
    0
  9
$DIMALTD
 70
    3
  9
$DIMALTF
 40
0.03937
  9
$DIMLFAC
 40
1
  9
$DIMTOFL
 70
    1
  9
$DIMTVP
 40
0
  9
$DIMTIX
 70
    0
  9
$DIMSOXD
 70
    0
  9
$DIMSAH
 70
    0
  9
$DIMBLK1
  1

  9
$DIMBLK2
  1

  9
$DIMSTYLE
  2
STANDARD
  9
$DIMCLRD
 70
    0
  9
$DIMCLRE
 70
    0
  9
$DIMCLRT
 70
    0
  9
$DIMTFAC
 40
1
  9
$DIMGAP
 40
1
  9
$DIMJUST
 70
    0
  9
$DIMSD1
 70
    0
  9
$DIMSD2
 70
    0
  9
$DIMTOLJ
 70
    0
  9
$DIMTZIN
 70
    8
  9
$DIMALTZ
 70
    0
  9
$DIMALTTZ
 70
    0
  9
$DIMUPT
 70
    0
  9
$DIMDEC
 70
    1
  9
$DIMTDEC
 70
    2
  9
$DIMALTU
 70
    2
  9
$DIMALTTD
 70
    3
  9
$DIMTXSTY
  7
standard
  9
$DIMAUNIT
 70
    0
  9
$DIMADEC
 70
    0
  9
$DIMALTRND
 40
0
  9
$DIMAZIN
 70
    0
  9
$DIMDSEP
 70
   44
  9
$DIMATFIT
 70
    3
  9
$DIMFRAC
 70
    0
  9
$DIMLDRBLK
  1
STANDARD
  9
$DIMLUNIT
 70
    2
  9
$DIMLWD
 70
   -2
  9
$DIMLWE
 70
   -2
  9
$DIMTMOVE
 70
    0
  9
$DIMFXL
 40
1
  9
$DIMFXLON
 70
    0
  9
$DIMJOGANG
 40
0.7854
  9
$DIMTFILL
 70
    0
  9
$DIMTFILLCLR
 70
    0
  9
$DIMARCSYM
 70
    0
  9
$DIMLTYPE
  6

  9
$DIMLTEX1
  6

  9
$DIMLTEX2
  6

  9
$LUNITS
 70
    2
  9
$LUPREC
 70
    2
  9
$SKETCHINC
 40
1
  9
$FILLETRAD
 40
0
  9
$AUNITS
 70
    0
  9
$AUPREC
 70
    2
  9
$MENU
  1
.
  9
$ELEVATION
 40
0
  9
$PELEVATION
 40
0
  9
$THICKNESS
 40
0
  9
$LIMCHECK
 70
    0
  9
$CHAMFERA
 40
0
  9
$CHAMFERB
 40
0
  9
$CHAMFERC
 40
0
  9
$CHAMFERD
 40
0
  9
$SKPOLY
 70
    0
  9
$USRTIMER
 70
    1
  9
$ANGBASE
 50
0
  9
$ANGDIR
 70
    0
  9
$PDMODE
 70
   34
  9
$PDSIZE
 40
0
  9
$PLINEWID
 40
0
  9
$SPLFRAME
 70
    0
  9
$SPLINETYPE
 70
    2
  9
$SPLINESEGS
 70
    8
  9
$HANDSEED
  5
20000
  9
$SURFTAB1
 70
    6
  9
$SURFTAB2
 70
    6
  9
$SURFTYPE
 70
    6
  9
$SURFU
 70
    6
  9
$SURFV
 70
    6
  9
$UCSBASE
  2

  9
$UCSNAME
  2

  9
$UCSORG
 10
0
 20
0
 30
0
  9
$UCSXDIR
 10
1
 20
0
 30
0
  9
$UCSYDIR
 10
0
 20
1
 30
0
  9
$UCSORTHOREF
  2

  9
$UCSORTHOVIEW
 70
    0
  9
$UCSORGTOP
 10
0
 20
0
 30
0
  9
$UCSORGBOTTOM
 10
0
 20
0
 30
0
  9
$UCSORGLEFT
 10
0
 20
0
 30
0
  9
$UCSORGRIGHT
 10
0
 20
0
 30
0
  9
$UCSORGFRONT
 10
0
 20
0
 30
0
  9
$UCSORGBACK
 10
0
 20
0
 30
0
  9
$PUCSBASE
  2

  9
$PUCSNAME
  2

  9
$PUCSORG
 10
0
 20
0
 30
0
  9
$PUCSXDIR
 10
1
 20
0
 30
0
  9
$PUCSYDIR
 10
0
 20
1
 30
0
  9
$PUCSORTHOREF
  2

  9
$PUCSORTHOVIEW
 70
    0
  9
$PUCSORGTOP
 10
0
 20
0
 30
0
  9
$PUCSORGBOTTOM
 10
0
 20
0
 30
0
  9
$PUCSORGLEFT
 10
0
 20
0
 30
0
  9
$PUCSORGRIGHT
 10
0
 20
0
 30
0
  9
$PUCSORGFRONT
 10
0
 20
0
 30
0
  9
$PUCSORGBACK
 10
0
 20
0
 30
0
  9
$USERI1
 70
    0
  9
$USERI2
 70
    0
  9
$USERI3
 70
    0
  9
$USERI4
 70
    0
  9
$USERI5
 70
    0
  9
$USERR1
 40
0
  9
$USERR2
 40
0
  9
$USERR3
 40
0
  9
$USERR4
 40
0
  9
$USERR5
 40
0
  9
$WORLDVIEW
 70
    1
  9
$SHADEDGE
 70
    3
  9
$SHADEDIF
 70
   70
  9
$TILEMODE
 70
    1
  9
$MAXACTVP
 70
   64
  9
$PINSBASE
 10
0
 20
420
 30
0
  9
$PLIMCHECK
 70
    0
  9
$PEXTMIN
 10
0
 20
0
 30
0
  9
$PEXTMAX
 10
0
 20
0
 30
0
  9
$GRIDMODE
 70
    1
  9
$SNAPSTYLE
 70
    0
  9
$GRIDUNIT
 10
0
 20
0
  9
$PLIMMIN
 10
0
 20
0
  9
$PLIMMAX
 10
594
 20
420
  9
$UNITMODE
 70
    0
  9
$VISRETAIN
 70
    1
  9
$PLINEGEN
 70
    0
  9
$PSLTSCALE
 70
    1
  9
$TREEDEPTH
 70
 3020
  9
$CMLSTYLE
  2
Standard
  9
$CMLJUST
 70
    0
  9
$CMLSCALE
 40
20
  9
$PROXYGRAPHICS
 70
    1
  9
$MEASUREMENT
 70
    1
  9
$CELWEIGHT
370
   -1
  9
$ENDCAPS
280
    0
  9
$JOINSTYLE
280
    0
  9
$LWDISPLAY
290
    0
  9
$INSUNITS
 70
    4
  9
$HYPERLINKBASE
  1

  9
$STYLESHEET
  1

  9
$XEDIT
290
    1
  9
$CEPSNTYPE
380
    0
  9
$PSTYLEMODE
290
    1
  9
$EXTNAMES
290
    1
  9
$PSVPSCALE
 40
1
  9
$OLESTARTUP
290
    0
  9
$SORTENTS
280
  127
  9
$INDEXCTL
280
    0
  9
$HIDETEXT
280
    1
  9
$XCLIPFRAME
290
    0
  9
$HALOGAP
280
    0
  9
$OBSCOLOR
 70
  257
  9
$OBSLTYPE
280
    0
  9
$INTERSECTIONDISPLAY
280
    0
  9
$INTERSECTIONCOLOR
 70
  257
  9
$DIMASSOC
280
    1
  9
$PROJECTNAME
  1

  9
$CAMERADISPLAY
290
    0
  9
$LENSLENGTH
 40
50
  9
$CAMERAHEIGHT
 40
0
  9
$STEPSPERSEC
 40
2
  9
$STEPSIZE
 40
50
  9
$3DDWFPREC
 40
2
  9
$PSOLWIDTH
 40
5
  9
$PSOLHEIGHT
 40
80
  9
$LOFTANG1
 40
1.570796326794897
  9
$LOFTANG2
 40
1.570796326794897
  9
$LOFTMAG1
 40
0
  9
$LOFTMAG2
 40
0
  9
$LOFTPARAM
 70
    7
  9
$LOFTNORMALS
280
    1
  9
$LATITUDE
 40
1
  9
$LONGITUDE
 40
1
  9
$NORTHDIRECTION
 40
0
  9
$TIMEZONE
 70
-8000
  9
$LIGHTGLYPHDISPLAY
280
    1
  9
$TILEMODELIGHTSYNCH
280
    1
  9
$SOLIDHIST
280
    1
  9
$SHOWHIST
280
    1
  9
$DWFFRAME
280
    2
  9
$DGNFRAME
280
    0
  9
$REALWORLDSCALE
290
    1
  9
$INTERFERECOLOR
 62
    1
  9
$CSHADOW
280
    0
  9
$SHADOWPLANELOCATION
 40
0
  0
ENDSEC
  0
SECTION
  2
CLASSES
  0
ENDSEC
  0
SECTION
  2
TABLES
  0
TABLE
  2
VPORT
  5
8
330
0
100
AcDbSymbolTable
 70
    1
  0
VPORT
  5
31
330
2
100
AcDbSymbolTableRecord
100
AcDbViewportTableRecord
  2
*ACTIVE
 70
    0
 10
0
 20
0
 11
1
 21
1
 12
92.62700277924131
 22
29.22076963633034
 13
0
 23
0
 14
10
 24
10
 15
10
 25
10
 16
0
 26
0
 36
1
 17
0
 27
0
 37
0
 40
98.15909023466307
 41
2.380057803468208
 42
50
 43
0
 44
0
 50
0
 51
0
 71
    0
 72
  100
 73
    1
 74
    3
 75
    0
 76
    1
 77
    0
 78
    0
281
    0
 65
    1
110
0
120
0
130
0
111
1
121
0
131
0
112
0
122
1
132
0
 79
    0
146
0
348
10020
 60
    7
 61
    5
292
1
282
    1
141
0
142
0
 63
  250
421
3358443
  0
ENDTAB
  0
TABLE
  2
LTYPE
  5
5
330
0
100
AcDbSymbolTable
 70
    4
  0
LTYPE
  5
14
330
5
100
AcDbSymbolTableRecord
100
AcDbLinetypeTableRecord
  2
ByBlock
 70
    0
  3

 72
   65
 73
    0
 40
0
  0
LTYPE
  5
15
330
5
100
AcDbSymbolTableRecord
100
AcDbLinetypeTableRecord
  2
ByLayer
 70
    0
  3

 72
   65
 73
    0
 40
0
  0
LTYPE
  5
16
330
5
100
AcDbSymbolTableRecord
100
AcDbLinetypeTableRecord
  2
Continuous
 70
    0
  3
Solid line
 72
   65
 73
    0
 40
0
  0
LTYPE
  5
32
330
5
100
AcDbSymbolTableRecord
100
AcDbLinetypeTableRecord
  2
DOT
 70
    0
  3
Dot . . . . . . . . . . . . . . . . . . . . . .
 72
   65
 73
    2
 40
6.35
 49
0
 74
    0
 49
-6.35
 74
    0
  0
LTYPE
  5
33
330
5
100
AcDbSymbolTableRecord
100
AcDbLinetypeTableRecord
  2
DOTTINY
 70
    0
  3
Dot (.15x) .....................................
 72
   65
 73
    2
 40
0.9525
 49
0
 74
    0
 49
-0.9525
 74
    0
  0
LTYPE
  5
34
330
5
100
AcDbSymbolTableRecord
100
AcDbLinetypeTableRecord
  2
DOT2
 70
    0
  3
Dot (.5x) .....................................
 72
   65
 73
    2
 40
3.175
 49
0
 74
    0
 49
-3.175
 74
    0
  0
LTYPE
  5
35
330
5
100
AcDbSymbolTableRecord
100
AcDbLinetypeTableRecord
  2
DOTX2
 70
    0
  3
Dot (2x) .  .  .  .  .  .  .  .  .  .  .  .  .
 72
   65
 73
    2
 40
12.7
 49
0
 74
    0
 49
-12.7
 74
    0
  0
LTYPE
  5
36
330
5
100
AcDbSymbolTableRecord
100
AcDbLinetypeTableRecord
  2
DASHED
 70
    0
  3
Dashed _ _ _ _ _ _ _ _ _ _ _ _ _ _ _ _ _
 72
   65
 73
    2
 40
19.05
 49
12.7
 74
    0
 49
-6.35
 74
    0
  0
LTYPE
  5
37
330
5
100
AcDbSymbolTableRecord
100
AcDbLinetypeTableRecord
  2
DASHEDTINY
 70
    0
  3
Dashed (.15x) _ _ _ _ _ _ _ _ _ _ _ _ _ _ _ _ _
 72
   65
 73
    2
 40
2.8575
 49
1.905
 74
    0
 49
-0.9525
 74
    0
  0
LTYPE
  5
38
330
5
100
AcDbSymbolTableRecord
100
AcDbLinetypeTableRecord
  2
DASHED2
 70
    0
  3
Dashed (.5x) _ _ _ _ _ _ _ _ _ _ _ _ _ _ _ _ _
 72
   65
 73
    2
 40
9.524999999999999
 49
6.35
 74
    0
 49
-3.175
 74
    0
  0
LTYPE
  5
39
330
5
100
AcDbSymbolTableRecord
100
AcDbLinetypeTableRecord
  2
DASHEDX2
 70
    0
  3
Dashed (2x) ____  ____  ____  ____  ____  ___
 72
   65
 73
    2
 40
38.09999999999999
 49
25.4
 74
    0
 49
-12.7
 74
    0
  0
LTYPE
  5
3A
330
5
100
AcDbSymbolTableRecord
100
AcDbLinetypeTableRecord
  2
DASHDOT
 70
    0
  3
Dash dot __ . __ . __ . __ . __ . __ . __ . __
 72
   65
 73
    4
 40
25.4
 49
12.7
 74
    0
 49
-6.35
 74
    0
 49
0
 74
    0
 49
-6.35
 74
    0
  0
LTYPE
  5
3B
330
5
100
AcDbSymbolTableRecord
100
AcDbLinetypeTableRecord
  2
DASHDOTTINY
 70
    0
  3
Dash dot (.15x) _._._._._._._._._._._._._._._.
 72
   65
 73
    4
 40
3.81
 49
1.905
 74
    0
 49
-0.9525
 74
    0
 49
0
 74
    0
 49
-0.9525
 74
    0
  0
LTYPE
  5
3C
330
5
100
AcDbSymbolTableRecord
100
AcDbLinetypeTableRecord
  2
DASHDOT2
 70
    0
  3
Dash dot (.5x) _._._._._._._._._._._._._._._.
 72
   65
 73
    4
 40
12.7
 49
6.35
 74
    0
 49
-3.175
 74
    0
 49
0
 74
    0
 49
-3.175
 74
    0
  0
LTYPE
  5
3D
330
5
100
AcDbSymbolTableRecord
100
AcDbLinetypeTableRecord
  2
DASHDOTX2
 70
    0
  3
Dash dot (2x) ____  .  ____  .  ____  .  ___
 72
   65
 73
    4
 40
50.8
 49
25.4
 74
    0
 49
-12.7
 74
    0
 49
0
 74
    0
 49
-12.7
 74
    0
  0
LTYPE
  5
3E
330
5
100
AcDbSymbolTableRecord
100
AcDbLinetypeTableRecord
  2
DIVIDE
 70
    0
  3
Divide ____ . . ____ . . ____ . . ____ . . ____
 72
   65
 73
    6
 40
31.75
 49
12.7
 74
    0
 49
-6.35
 74
    0
 49
0
 74
    0
 49
-6.35
 74
    0
 49
0
 74
    0
 49
-6.35
 74
    0
  0
LTYPE
  5
3F
330
5
100
AcDbSymbolTableRecord
100
AcDbLinetypeTableRecord
  2
DIVIDETINY
 70
    0
  3
Divide (.15x) __..__..__..__..__..__..__..__.._
 72
   65
 73
    6
 40
4.7625
 49
1.905
 74
    0
 49
-0.9525
 74
    0
 49
0
 74
    0
 49
-0.9525
 74
    0
 49
0
 74
    0
 49
-0.9525
 74
    0
  0
LTYPE
  5
40
330
5
100
AcDbSymbolTableRecord
100
AcDbLinetypeTableRecord
  2
DIVIDE2
 70
    0
  3
Divide (.5x) __..__..__..__..__..__..__..__.._
 72
   65
 73
    6
 40
15.875
 49
6.35
 74
    0
 49
-3.175
 74
    0
 49
0
 74
    0
 49
-3.175
 74
    0
 49
0
 74
    0
 49
-3.175
 74
    0
  0
LTYPE
  5
41
330
5
100
AcDbSymbolTableRecord
100
AcDbLinetypeTableRecord
  2
DIVIDEX2
 70
    0
  3
Divide (2x) ________  .  .  ________  .  .  _
 72
   65
 73
    6
 40
63.5
 49
25.4
 74
    0
 49
-12.7
 74
    0
 49
0
 74
    0
 49
-12.7
 74
    0
 49
0
 74
    0
 49
-12.7
 74
    0
  0
LTYPE
  5
42
330
5
100
AcDbSymbolTableRecord
100
AcDbLinetypeTableRecord
  2
BORDER
 70
    0
  3
Border __ __ . __ __ . __ __ . __ __ . __ __ .
 72
   65
 73
    6
 40
44.45
 49
12.7
 74
    0
 49
-6.35
 74
    0
 49
12.7
 74
    0
 49
-6.35
 74
    0
 49
0
 74
    0
 49
-6.35
 74
    0
  0
LTYPE
  5
43
330
5
100
AcDbSymbolTableRecord
100
AcDbLinetypeTableRecord
  2
BORDERTINY
 70
    0
  3
Border (.15x) __.__.__.__.__.__.__.__.__.__.__.
 72
   65
 73
    6
 40
6.6675
 49
1.905
 74
    0
 49
-0.9525
 74
    0
 49
1.905
 74
    0
 49
-0.9525
 74
    0
 49
0
 74
    0
 49
-0.9525
 74
    0
  0
LTYPE
  5
44
330
5
100
AcDbSymbolTableRecord
100
AcDbLinetypeTableRecord
  2
BORDER2
 70
    0
  3
Border (.5x) __.__.__.__.__.__.__.__.__.__.__.
 72
   65
 73
    6
 40
22.225
 49
6.35
 74
    0
 49
-3.175
 74
    0
 49
6.35
 74
    0
 49
-3.175
 74
    0
 49
0
 74
    0
 49
-3.175
 74
    0
  0
LTYPE
  5
45
330
5
100
AcDbSymbolTableRecord
100
AcDbLinetypeTableRecord
  2
BORDERX2
 70
    0
  3
Border (2x) ____  ____  .  ____  ____  .  ___
 72
   65
 73
    6
 40
88.89999999999999
 49
25.4
 74
    0
 49
-12.7
 74
    0
 49
25.4
 74
    0
 49
-12.7
 74
    0
 49
0
 74
    0
 49
-12.7
 74
    0
  0
LTYPE
  5
46
330
5
100
AcDbSymbolTableRecord
100
AcDbLinetypeTableRecord
  2
CENTER
 70
    0
  3
Center ____ _ ____ _ ____ _ ____ _ ____ _ ____
 72
   65
 73
    4
 40
50.8
 49
31.75
 74
    0
 49
-6.35
 74
    0
 49
6.35
 74
    0
 49
-6.35
 74
    0
  0
LTYPE
  5
47
330
5
100
AcDbSymbolTableRecord
100
AcDbLinetypeTableRecord
  2
CENTERTINY
 70
    0
  3
Center (.15x) ___ _ ___ _ ___ _ ___ _ ___ _ ___
 72
   65
 73
    4
 40
7.619999999999999
 49
4.7625
 74
    0
 49
-0.9525
 74
    0
 49
0.9525
 74
    0
 49
-0.9525
 74
    0
  0
LTYPE
  5
48
330
5
100
AcDbSymbolTableRecord
100
AcDbLinetypeTableRecord
  2
CENTER2
 70
    0
  3
Center (.5x) ___ _ ___ _ ___ _ ___ _ ___ _ ___
 72
   65
 73
    4
 40
28.575
 49
19.05
 74
    0
 49
-3.175
 74
    0
 49
3.175
 74
    0
 49
-3.175
 74
    0
  0
LTYPE
  5
49
330
5
100
AcDbSymbolTableRecord
100
AcDbLinetypeTableRecord
  2
CENTERX2
 70
    0
  3
Center (2x) ________  __  ________  __  _____
 72
   65
 73
    4
 40
101.6
 49
63.5
 74
    0
 49
-12.7
 74
    0
 49
12.7
 74
    0
 49
-12.7
 74
    0
  0
ENDTAB
  0
TABLE
  2
LAYER
  5
2
330
0
100
AcDbSymbolTable
 70
    1
  0
LAYER
  5
10
330
2
100
AcDbSymbolTableRecord
100
AcDbLayerTableRecord
  2
0
 70
    0
 62
    7
  6
CONTINUOUS
370
   35
390
F
  0
LAYER
  5
4A
330
2
100
AcDbSymbolTableRecord
100
AcDbLayerTableRecord
  2
dimensions
 70
    0
 62
    3
  6
CONTINUOUS
370
    0
390
F
  0
LAYER
  5
4B
330
2
100
AcDbSymbolTableRecord
100
AcDbLayerTableRecord
  2
positions
 70
    0
 62
    1
  6
CONTINUOUS
370
    0
390
F
  0
LAYER
  5
4C
330
2
100
AcDbSymbolTableRecord
100
AcDbLayerTableRecord
  2
symetrie
 70
    0
 62
    5
  6
DASHED
370
    0
390
F
1001
LibreCad
1070
    1
  0
ENDTAB
  0
TABLE
  2
STYLE
  5
3
330
0
100
AcDbSymbolTable
 70
    3
  0
STYLE
  5
4D
330
2
100
AcDbSymbolTableRecord
100
AcDbTextStyleTableRecord
  2
Standard
 70
    0
 40
0
 41
1
 50
0
 71
    0
 42
1
  3
txt
  4

  0
ENDTAB
  0
TABLE
  2
VIEW
  5
6
330
0
100
AcDbSymbolTable
 70
    0
  0
ENDTAB
  0
TABLE
  2
UCS
  5
7
330
0
100
AcDbSymbolTable
 70
    0
  0
ENDTAB
  0
TABLE
  2
APPID
  5
9
330
0
100
AcDbSymbolTable
 70
    1
  0
APPID
  5
12
330
9
100
AcDbSymbolTableRecord
100
AcDbRegAppTableRecord
  2
ACAD
 70
    0
  0
APPID
  5
4E
330
9
100
AcDbSymbolTableRecord
100
AcDbRegAppTableRecord
  2
LibreCad
 70
    0
  0
ENDTAB
  0
TABLE
  2
DIMSTYLE
  5
A
330
0
100
AcDbSymbolTable
 70
    1
100
AcDbDimStyleTable
 71
    1
  0
DIMSTYLE
105
4F
330
A
100
AcDbSymbolTableRecord
100
AcDbDimStyleTableRecord
  2
Standard
 70
    0
 40
1
 41
3.5
 42
0
 43
0.38
 44
2
 45
0
 46
0
 47
0
 48
0
 49
1
140
3.5
141
0.09
142
0
143
25.4
144
1
145
0
146
1
147
1
148
0
 71
    0
 72
    0
 73
    0
 74
    1
 75
    0
 76
    0
 77
    0
 78
    8
 79
    0
170
    0
171
    2
172
    0
173
    0
174
    0
175
    0
176
    0
177
    0
178
    0
179
    0
271
    1
272
    4
273
    2
274
    2
275
    0
276
    0
277
    2
278
   44
279
    0
280
    0
281
    0
282
    0
283
    1
284
    0
285
    0
286
    0
288
    0
289
    3
340
standard
341

371
   -2
372
   -2
  0
ENDTAB
  0
TABLE
  2
BLOCK_RECORD
  5
1
330
0
100
AcDbSymbolTable
 70
    2
  0
BLOCK_RECORD
  5
1F
330
1
100
AcDbSymbolTableRecord
100
AcDbBlockTableRecord
  2
*Model_Space
 70
    0
280
    1
281
    0
  0
BLOCK_RECORD
  5
1E
330
1
100
AcDbSymbolTableRecord
100
AcDbBlockTableRecord
  2
*Paper_Space
 70
    0
280
    1
281
    0
  0
BLOCK_RECORD
  5
50
330
1
100
AcDbSymbolTableRecord
100
AcDbBlockTableRecord
  2
*D10
 70
    0
280
    1
281
    0
  0
BLOCK_RECORD
  5
53
330
1
100
AcDbSymbolTableRecord
100
AcDbBlockTableRecord
  2
*D12
 70
    0
280
    1
281
    0
  0
BLOCK_RECORD
  5
56
330
1
100
AcDbSymbolTableRecord
100
AcDbBlockTableRecord
  2
*D14
 70
    0
280
    1
281
    0
  0
BLOCK_RECORD
  5
59
330
1
100
AcDbSymbolTableRecord
100
AcDbBlockTableRecord
  2
*D4
 70
    0
280
    1
281
    0
  0
BLOCK_RECORD
  5
5C
330
1
100
AcDbSymbolTableRecord
100
AcDbBlockTableRecord
  2
*D7
 70
    0
280
    1
281
    0
  0
BLOCK_RECORD
  5
5F
330
1
100
AcDbSymbolTableRecord
100
AcDbBlockTableRecord
  2
*D9
 70
    0
280
    1
281
    0
  0
BLOCK_RECORD
  5
62
330
1
100
AcDbSymbolTableRecord
100
AcDbBlockTableRecord
  2
*D15
 70
    0
280
    1
281
    0
  0
BLOCK_RECORD
  5
65
330
1
100
AcDbSymbolTableRecord
100
AcDbBlockTableRecord
  2
*D6
 70
    0
280
    1
281
    0
  0
BLOCK_RECORD
  5
68
330
1
100
AcDbSymbolTableRecord
100
AcDbBlockTableRecord
  2
*D3
 70
    0
280
    1
281
    0
  0
BLOCK_RECORD
  5
6B
330
1
100
AcDbSymbolTableRecord
100
AcDbBlockTableRecord
  2
*D17
 70
    0
280
    1
281
    0
  0
BLOCK_RECORD
  5
6E
330
1
100
AcDbSymbolTableRecord
100
AcDbBlockTableRecord
  2
*D1
 70
    0
280
    1
281
    0
  0
BLOCK_RECORD
  5
71
330
1
100
AcDbSymbolTableRecord
100
AcDbBlockTableRecord
  2
*D11
 70
    0
280
    1
281
    0
  0
BLOCK_RECORD
  5
74
330
1
100
AcDbSymbolTableRecord
100
AcDbBlockTableRecord
  2
*D16
 70
    0
280
    1
281
    0
  0
BLOCK_RECORD
  5
77
330
1
100
AcDbSymbolTableRecord
100
AcDbBlockTableRecord
  2
*D18
 70
    0
280
    1
281
    0
  0
BLOCK_RECORD
  5
7A
330
1
100
AcDbSymbolTableRecord
100
AcDbBlockTableRecord
  2
*D13
 70
    0
280
    1
281
    0
  0
BLOCK_RECORD
  5
7D
330
1
100
AcDbSymbolTableRecord
100
AcDbBlockTableRecord
  2
*D5
 70
    0
280
    1
281
    0
  0
BLOCK_RECORD
  5
80
330
1
100
AcDbSymbolTableRecord
100
AcDbBlockTableRecord
  2
*D8
 70
    0
280
    1
281
    0
  0
BLOCK_RECORD
  5
83
330
1
100
AcDbSymbolTableRecord
100
AcDbBlockTableRecord
  2
*D2
 70
    0
280
    1
281
    0
  0
BLOCK_RECORD
  5
86
330
1
100
AcDbSymbolTableRecord
100
AcDbBlockTableRecord
  2
Ortho0011
 70
    0
280
    1
281
    0
  0
ENDTAB
  0
ENDSEC
  0
SECTION
  2
BLOCKS
  0
BLOCK
  5
20
330
1F
100
AcDbEntity
  8
0
100
AcDbBlockBegin
  2
*Model_Space
 70
    0
 10
0
 20
0
 30
0
  3
*Model_Space
  1

  0
ENDBLK
  5
21
330
1F
100
AcDbEntity
  8
0
100
AcDbBlockEnd
  0
BLOCK
  5
1C
330
1B
100
AcDbEntity
  8
0
100
AcDbBlockBegin
  2
*Paper_Space
 70
    0
 10
0
 20
0
 30
0
  3
*Paper_Space
  1

  0
ENDBLK
  5
1D
330
1F
100
AcDbEntity
  8
0
100
AcDbBlockEnd
  0
BLOCK
  5
51
330
50
100
AcDbEntity
  8
0
100
AcDbBlockBegin
  2
*D10
 70
    1
 10
0
 20
0
  3
*D10
  1

  0
SOLID
  5
89
100
AcDbEntity
  8
dimensions
  6
ByBlock
 62
    0
370
   -2
100
AcDbTrace
 10
-13.82046241437494
 20
-8.061936408385373
 30
0
 11
-11.09089154962114
 21
-5.794978753238405
 31
0
 12
-10.5035809728397
 22
-6.801796884863739
 32
0
 13
-10.5035809728397
 23
-6.801796884863739
 33
0
  0
LINE
  5
8A
100
AcDbEntity
  8
dimensions
  6
ByBlock
 62
    0
370
   -2
100
AcDbLine
 10
0
 20
0
 11
-13.82046241437494
 21
-8.061936408385373
  0
MTEXT
  5
8B
100
AcDbEntity
  8
dimensions
  6
CONTINUOUS
 62
    0
370
   -2
100
AcDbMText
 10
-8.295876527378706
 20
-1.655576226721994
 30
0
 40
3.5
 41
3.500000000000217
 71
    5
 72
    1
  1
16
  7
standard
210
0
220
0
230
1
 50
30.25643716352925
 73
    2
 44
1
  0
ENDBLK
  5
52
330
50
100
AcDbEntity
  8
0
100
AcDbBlockEnd
  0
BLOCK
  5
54
330
53
100
AcDbEntity
  8
0
100
AcDbBlockBegin
  2
*D12
 70
    1
 10
0
 20
0
  3
*D12
  1

  0
LINE
  5
8C
100
AcDbEntity
  8
positions
  6
ByBlock
 62
    0
370
   -2
100
AcDbLine
 10
45
 20
-4.5
 11
45
 21
-19
  0
LINE
  5
8D
100
AcDbEntity
  8
positions
  6
ByBlock
 62
    0
370
   -2
100
AcDbLine
 10
50
 20
-4.5
 11
50
 21
-19
  0
LINE
  5
8E
100
AcDbEntity
  8
positions
  6
ByBlock
 62
    0
370
   -2
100
AcDbLine
 10
38
 20
-17
 11
57
 21
-17
  0
SOLID
  5
8F
100
AcDbEntity
  8
positions
  6
ByBlock
 62
    0
370
   -2
100
AcDbTrace
 10
45
 20
-17
 30
0
 11
41.5
 21
-17.58279852088198
 31
0
 12
41.5
 22
-16.41720147911802
 32
0
 13
41.5
 23
-16.41720147911802
 33
0
  0
SOLID
  5
90
100
AcDbEntity
  8
positions
  6
ByBlock
 62
    0
370
   -2
100
AcDbTrace
 10
50
 20
-17
 30
0
 11
53.5
 21
-16.41720147911802
 31
0
 12
53.5
 22
-17.58279852088198
 32
0
 13
53.5
 23
-17.58279852088198
 33
0
  0
MTEXT
  5
91
100
AcDbEntity
  8
positions
  6
CONTINUOUS
 62
    0
370
   -2
100
AcDbMText
 10
47.5
 20
-14.25
 30
0
 40
3.5
 41
1.555555555555773
 71
    5
 72
    1
  1
5
  7
standard
210
0
220
0
230
1
 50
0
 73
    2
 44
1
  0
ENDBLK
  5
55
330
53
100
AcDbEntity
  8
0
100
AcDbBlockEnd
  0
BLOCK
  5
57
330
56
100
AcDbEntity
  8
0
100
AcDbBlockBegin
  2
*D14
 70
    1
 10
0
 20
0
  3
*D14
  1

  0
LINE
  5
92
100
AcDbEntity
  8
positions
  6
ByBlock
 62
    0
370
   -2
100
AcDbLine
 10
25
 20
-4.500000000000001
 11
25
 21
-26
  0
LINE
  5
93
100
AcDbEntity
  8
positions
  6
ByBlock
 62
    0
370
   -2
100
AcDbLine
 10
50
 20
-4.5
 11
49.99999999999999
 21
-26
  0
LINE
  5
94
100
AcDbEntity
  8
positions
  6
ByBlock
 62
    0
370
   -2
100
AcDbLine
 10
25
 20
-24
 11
49.99999999999999
 21
-24
  0
SOLID
  5
95
100
AcDbEntity
  8
positions
  6
ByBlock
 62
    0
370
   -2
100
AcDbTrace
 10
25
 20
-24
 30
0
 11
28.5
 21
-23.41720147911802
 31
0
 12
28.5
 22
-24.58279852088198
 32
0
 13
28.5
 23
-24.58279852088198
 33
0
  0
SOLID
  5
96
100
AcDbEntity
  8
positions
  6
ByBlock
 62
    0
370
   -2
100
AcDbTrace
 10
49.99999999999999
 20
-24
 30
0
 11
46.49999999999999
 21
-24.58279852088198
 31
0
 12
46.49999999999999
 22
-23.41720147911802
 32
0
 13
46.49999999999999
 23
-23.41720147911802
 33
0
  0
MTEXT
  5
97
100
AcDbEntity
  8
positions
  6
CONTINUOUS
 62
    0
370
   -2
100
AcDbMText
 10
37.49999999999999
 20
-21.25
 30
0
 40
3.5
 41
4.277777777777995
 71
    5
 72
    1
  1
25
  7
standard
210
0
220
0
230
1
 50
0
 73
    2
 44
1
  0
ENDBLK
  5
58
330
56
100
AcDbEntity
  8
0
100
AcDbBlockEnd
  0
BLOCK
  5
5A
330
59
100
AcDbEntity
  8
0
100
AcDbBlockBegin
  2
*D4
 70
    1
 10
0
 20
0
  3
*D4
  1

  0
LINE
  5
98
100
AcDbEntity
  8
dimensions
  6
ByBlock
 62
    0
370
   -2
100
AcDbLine
 10
50.00000048679235
 20
10.49999768194095
 11
67.00000099676525
 21
10.49999689380083
  0
LINE
  5
99
100
AcDbEntity
  8
dimensions
  6
ByBlock
 62
    0
370
   -2
100
AcDbLine
 10
49.99999951320754
 20
-10.50000231805903
 11
67.00000002318045
 21
-10.50000310619914
  0
LINE
  5
9A
100
AcDbEntity
  8
dimensions
  6
ByBlock
 62
    0
370
   -2
100
AcDbLine
 10
65.00000099676525
 20
10.4999969865232
 11
65.00000002318045
 21
-10.50000301347678
  0
SOLID
  5
9B
100
AcDbEntity
  8
dimensions
  6
ByBlock
 62
    0
370
   -2
100
AcDbTrace
 10
65.00000099676525
 20
10.4999969865232
 30
0
 11
65.58279935538309
 21
6.999996959503971
 31
0
 12
64.41720231361914
 22
6.999997013542426
 32
0
 13
64.41720231361914
 23
6.999997013542426
 33
0
  0
SOLID
  5
9C
100
AcDbEntity
  8
dimensions
  6
ByBlock
 62
    0
370
   -2
100
AcDbTrace
 10
65.00000002318045
 20
-10.50000301347678
 30
0
 11
64.41720166456261
 21
-7.000002986457556
 31
0
 12
65.58279870632656
 22
-7.000003040496012
 32
0
 13
65.58279870632656
 23
-7.000003040496012
 33
0
  0
MTEXT
  5
9D
100
AcDbEntity
  8
dimensions
  6
CONTINUOUS
 62
    0
370
   -2
100
AcDbMText
 10
62.25000050997285
 20
-2.885983542918089e-06
 30
0
 40
3.5
 41
3.5
 71
    5
 72
    1
  1
21
  7
standard
210
0
220
0
230
1
 50
89.99999734369996
 73
    2
 44
1
  0
ENDBLK
  5
5B
330
59
100
AcDbEntity
  8
0
100
AcDbBlockEnd
  0
BLOCK
  5
5D
330
5C
100
AcDbEntity
  8
0
100
AcDbBlockBegin
  2
*D7
 70
    1
 10
0
 20
0
  3
*D7
  1

  0
LINE
  5
9E
100
AcDbEntity
  8
dimensions
  6
ByBlock
 62
    0
370
   -2
100
AcDbLine
 10
43.50000020862527
 20
4.499997913746857
 11
43.50000020862527
 21
9
  0
LINE
  5
9F
100
AcDbEntity
  8
dimensions
  6
ByBlock
 62
    0
370
   -2
100
AcDbLine
 10
46.50000020862527
 20
4.499997913746857
 11
46.50000020862527
 21
9
  0
LINE
  5
A0
100
AcDbEntity
  8
dimensions
  6
ByBlock
 62
    0
370
   -2
100
AcDbLine
 10
36.50000020862527
 20
7.000000000000001
 11
53.50000020862527
 21
6.999999999999999
  0
SOLID
  5
A1
100
AcDbEntity
  8
dimensions
  6
ByBlock
 62
    0
370
   -2
100
AcDbTrace
 10
43.50000020862527
 20
7
 30
0
 11
40.00000020862527
 21
6.417201479118024
 31
0
 12
40.00000020862527
 22
7.582798520881976
 32
0
 13
40.00000020862527
 23
7.582798520881976
 33
0
  0
SOLID
  5
A2
100
AcDbEntity
  8
dimensions
  6
ByBlock
 62
    0
370
   -2
100
AcDbTrace
 10
46.50000020862527
 20
7
 30
0
 11
50.00000020862527
 21
7.582798520881976
 31
0
 12
50.00000020862527
 22
6.417201479118023
 32
0
 13
50.00000020862527
 23
6.417201479118023
 33
0
  0
MTEXT
  5
A3
100
AcDbEntity
  8
dimensions
  6
CONTINUOUS
 62
    0
370
   -2
100
AcDbMText
 10
45.00000020862527
 20
9.75
 30
0
 40
3.5
 41
1.555555555555773
 71
    5
 72
    1
  1
3
  7
standard
210
0
220
0
230
1
 50
0
 73
    2
 44
1
  0
ENDBLK
  5
5E
330
5C
100
AcDbEntity
  8
0
100
AcDbBlockEnd
  0
BLOCK
  5
60
330
5F
100
AcDbEntity
  8
0
100
AcDbBlockBegin
  2
*D9
 70
    1
 10
0
 20
0
  3
*D9
  1

  0
LINE
  5
A4
100
AcDbEntity
  8
dimensions
  6
ByBlock
 62
    0
370
   -2
100
AcDbLine
 10
11.09999999999999
 20
-5.841508783128835e-07
 11
11.09999999999999
 21
6.000000000000001
  0
LINE
  5
A5
100
AcDbEntity
  8
dimensions
  6
ByBlock
 62
    0
370
   -2
100
AcDbLine
 10
14.09999999999999
 20
-5.841508784965805e-07
 11
14.09999999999999
 21
6
  0
LINE
  5
A6
100
AcDbEntity
  8
dimensions
  6
ByBlock
 62
    0
370
   -2
100
AcDbLine
 10
4.099999999999985
 20
4.000000000000002
 11
21.09999999999999
 21
3.999999999999999
  0
SOLID
  5
A7
100
AcDbEntity
  8
dimensions
  6
ByBlock
 62
    0
370
   -2
100
AcDbTrace
 10
11.09999999999999
 20
4.000000000000001
 30
0
 11
7.599999999999985
 21
3.417201479118025
 31
0
 12
7.599999999999985
 22
4.582798520881979
 32
0
 13
7.599999999999985
 23
4.582798520881979
 33
0
  0
SOLID
  5
A8
100
AcDbEntity
  8
dimensions
  6
ByBlock
 62
    0
370
   -2
100
AcDbTrace
 10
14.09999999999999
 20
4
 30
0
 11
17.59999999999999
 21
4.582798520881976
 31
0
 12
17.59999999999999
 22
3.417201479118023
 32
0
 13
17.59999999999999
 23
3.417201479118023
 33
0
  0
MTEXT
  5
A9
100
AcDbEntity
  8
dimensions
  6
CONTINUOUS
 62
    0
370
   -2
100
AcDbMText
 10
12.59999999999999
 20
6.75
 30
0
 40
3.5
 41
1.555555555555773
 71
    5
 72
    1
  1
3
  7
standard
210
0
220
0
230
1
 50
0
 73
    2
 44
1
  0
ENDBLK
  5
61
330
5F
100
AcDbEntity
  8
0
100
AcDbBlockEnd
  0
BLOCK
  5
63
330
62
100
AcDbEntity
  8
0
100
AcDbBlockBegin
  2
*D15
 70
    1
 10
0
 20
0
  3
*D15
  1

  0
LINE
  5
AA
100
AcDbEntity
  8
positions
  6
ByBlock
 62
    0
370
   -2
100
AcDbLine
 10
-6.300000000000001
 20
-10.9
 11
-6.300000000000004
 21
-34
  0
LINE
  5
AB
100
AcDbEntity
  8
positions
  6
ByBlock
 62
    0
370
   -2
100
AcDbLine
 10
50
 20
-10.9
 11
49.99999999999999
 21
-34
  0
LINE
  5
AC
100
AcDbEntity
  8
positions
  6
ByBlock
 62
    0
370
   -2
100
AcDbLine
 10
-6.300000000000004
 20
-32
 11
49.99999999999999
 21
-32
  0
SOLID
  5
AD
100
AcDbEntity
  8
positions
  6
ByBlock
 62
    0
370
   -2
100
AcDbTrace
 10
-6.300000000000004
 20
-32
 30
0
 11
-2.800000000000004
 21
-31.41720147911802
 31
0
 12
-2.800000000000004
 22
-32.58279852088198
 32
0
 13
-2.800000000000004
 23
-32.58279852088198
 33
0
  0
SOLID
  5
AE
100
AcDbEntity
  8
positions
  6
ByBlock
 62
    0
370
   -2
100
AcDbTrace
 10
49.99999999999999
 20
-32
 30
0
 11
46.49999999999999
 21
-32.58279852088198
 31
0
 12
46.49999999999999
 22
-31.41720147911802
 32
0
 13
46.49999999999999
 23
-31.41720147911802
 33
0
  0
MTEXT
  5
AF
100
AcDbEntity
  8
positions
  6
CONTINUOUS
 62
    0
370
   -2
100
AcDbMText
 10
21.84999999999999
 20
-29.25
 30
0
 40
3.5
 41
8.361111111111761
 71
    5
 72
    1
  1
56,3
  7
standard
210
0
220
0
230
1
 50
0
 73
    2
 44
1
  0
ENDBLK
  5
64
330
62
100
AcDbEntity
  8
0
100
AcDbBlockEnd
  0
BLOCK
  5
66
330
65
100
AcDbEntity
  8
0
100
AcDbBlockBegin
  2
*D6
 70
    1
 10
0
 20
0
  3
*D6
  1

  0
LINE
  5
B0
100
AcDbEntity
  8
dimensions
  6
ByBlock
 62
    0
370
   -2
100
AcDbLine
 10
23.50000020862528
 20
4.499998840970473
 11
23.50000020862528
 21
9
  0
LINE
  5
B1
100
AcDbEntity
  8
dimensions
  6
ByBlock
 62
    0
370
   -2
100
AcDbLine
 10
26.50000020862528
 20
4.499998840970473
 11
26.50000020862528
 21
9
  0
LINE
  5
B2
100
AcDbEntity
  8
dimensions
  6
ByBlock
 62
    0
370
   -2
100
AcDbLine
 10
16.50000020862528
 20
7.000000000000001
 11
33.50000020862528
 21
6.999999999999999
  0
SOLID
  5
B3
100
AcDbEntity
  8
dimensions
  6
ByBlock
 62
    0
370
   -2
100
AcDbTrace
 10
23.50000020862528
 20
7
 30
0
 11
20.00000020862528
 21
6.417201479118024
 31
0
 12
20.00000020862528
 22
7.582798520881976
 32
0
 13
20.00000020862528
 23
7.582798520881976
 33
0
  0
SOLID
  5
B4
100
AcDbEntity
  8
dimensions
  6
ByBlock
 62
    0
370
   -2
100
AcDbTrace
 10
26.50000020862528
 20
7
 30
0
 11
30.00000020862528
 21
7.582798520881976
 31
0
 12
30.00000020862528
 22
6.417201479118023
 32
0
 13
30.00000020862528
 23
6.417201479118023
 33
0
  0
MTEXT
  5
B5
100
AcDbEntity
  8
dimensions
  6
CONTINUOUS
 62
    0
370
   -2
100
AcDbMText
 10
25.00000020862528
 20
9.75
 30
0
 40
3.5
 41
1.555555555555773
 71
    5
 72
    1
  1
3
  7
standard
210
0
220
0
230
1
 50
0
 73
    2
 44
1
  0
ENDBLK
  5
67
330
65
100
AcDbEntity
  8
0
100
AcDbBlockEnd
  0
BLOCK
  5
69
330
68
100
AcDbEntity
  8
0
100
AcDbBlockBegin
  2
*D3
 70
    1
 10
0
 20
0
  3
*D3
  1

  0
LINE
  5
B6
100
AcDbEntity
  8
dimensions
  6
ByBlock
 62
    0
370
   -2
100
AcDbLine
 10
30
 20
16
 11
30
 21
27
  0
LINE
  5
B7
100
AcDbEntity
  8
dimensions
  6
ByBlock
 62
    0
370
   -2
100
AcDbLine
 10
-1
 20
16
 11
-0.9999999999999969
 21
27
  0
LINE
  5
B8
100
AcDbEntity
  8
dimensions
  6
ByBlock
 62
    0
370
   -2
100
AcDbLine
 10
30
 20
25
 11
-0.9999999999999974
 21
25
  0
SOLID
  5
B9
100
AcDbEntity
  8
dimensions
  6
ByBlock
 62
    0
370
   -2
100
AcDbTrace
 10
30
 20
25
 30
0
 11
26.5
 21
24.41720147911802
 31
0
 12
26.5
 22
25.58279852088198
 32
0
 13
26.5
 23
25.58279852088198
 33
0
  0
SOLID
  5
BA
100
AcDbEntity
  8
dimensions
  6
ByBlock
 62
    0
370
   -2
100
AcDbTrace
 10
-0.9999999999999974
 20
25
 30
0
 11
2.500000000000003
 21
25.58279852088198
 31
0
 12
2.500000000000003
 22
24.41720147911802
 32
0
 13
2.500000000000003
 23
24.41720147911802
 33
0
  0
MTEXT
  5
BB
100
AcDbEntity
  8
dimensions
  6
CONTINUOUS
 62
    0
370
   -2
100
AcDbMText
 10
14.5
 20
27.75
 30
0
 40
3.5
 41
3.500000000000217
 71
    5
 72
    1
  1
31
  7
standard
210
0
220
0
230
1
 50
360
 73
    2
 44
1
  0
ENDBLK
  5
6A
330
68
100
AcDbEntity
  8
0
100
AcDbBlockEnd
  0
BLOCK
  5
6C
330
6B
100
AcDbEntity
  8
0
100
AcDbBlockBegin
  2
*D17
 70
    1
 10
0
 20
0
  3
*D17
  1

  0
LINE
  5
BC
100
AcDbEntity
  8
positions
  6
ByBlock
 62
    0
370
   -2
100
AcDbLine
 10
12.6
 20
1.110223024625157e-16
 11
12.6
 21
-4
  0
LINE
  5
BD
100
AcDbEntity
  8
positions
  6
ByBlock
 62
    0
370
   -2
100
AcDbLine
 10
50
 20
0
 11
50
 21
-4
  0
LINE
  5
BE
100
AcDbEntity
  8
positions
  6
ByBlock
 62
    0
370
   -2
100
AcDbLine
 10
12.6
 20
-2
 11
50
 21
-2
  0
SOLID
  5
BF
100
AcDbEntity
  8
positions
  6
ByBlock
 62
    0
370
   -2
100
AcDbTrace
 10
12.6
 20
-2
 30
0
 11
16.1
 21
-1.417201479118024
 31
0
 12
16.1
 22
-2.582798520881977
 32
0
 13
16.1
 23
-2.582798520881977
 33
0
  0
SOLID
  5
C0
100
AcDbEntity
  8
positions
  6
ByBlock
 62
    0
370
   -2
100
AcDbTrace
 10
50
 20
-2
 30
0
 11
46.5
 21
-2.582798520881977
 31
0
 12
46.5
 22
-1.417201479118023
 32
0
 13
46.5
 23
-1.417201479118023
 33
0
  0
MTEXT
  5
C1
100
AcDbEntity
  8
positions
  6
CONTINUOUS
 62
    0
370
   -2
100
AcDbMText
 10
31.3
 20
0.75
 30
0
 40
3.5
 41
8.750000000000217
 71
    5
 72
    1
  1
37,4
  7
standard
210
0
220
0
230
1
 50
0
 73
    2
 44
1
  0
ENDBLK
  5
6D
330
6B
100
AcDbEntity
  8
0
100
AcDbBlockEnd
  0
BLOCK
  5
6F
330
6E
100
AcDbEntity
  8
0
100
AcDbBlockBegin
  2
*D1
 70
    1
 10
0
 20
0
  3
*D1
  1

  0
LINE
  5
C2
100
AcDbEntity
  8
dimensions
  6
ByBlock
 62
    0
370
   -2
100
AcDbLine
 10
30.00000048679237
 20
10.49999860916456
 11
38.99999974501343
 21
10.49999819191396
  0
LINE
  5
C3
100
AcDbEntity
  8
dimensions
  6
ByBlock
 62
    0
370
   -2
100
AcDbLine
 10
30.00000074177886
 20
15.99999860916456
 11
38.99999999999992
 21
15.99999819191395
  0
LINE
  5
C4
100
AcDbEntity
  8
dimensions
  6
ByBlock
 62
    0
370
   -2
100
AcDbLine
 10
36.99999942048515
 20
3.499998284636331
 11
37.00000032452819
 21
22.99999828463631
  0
SOLID
  5
C5
100
AcDbEntity
  8
dimensions
  6
ByBlock
 62
    0
370
   -2
100
AcDbTrace
 10
36.99999974501343
 20
10.49999828463632
 30
0
 11
37.58279810363127
 21
6.999998257617099
 31
0
 12
36.41720106186732
 22
6.999998311655554
 32
0
 13
36.41720106186732
 23
6.999998311655554
 33
0
  0
SOLID
  5
C6
100
AcDbEntity
  8
dimensions
  6
ByBlock
 62
    0
370
   -2
100
AcDbTrace
 10
36.99999999999992
 20
15.99999828463632
 30
0
 11
36.41720164138208
 21
19.49999831165554
 31
0
 12
37.58279868314603
 22
19.49999825761709
 32
0
 13
37.58279868314603
 23
19.49999825761709
 33
0
  0
MTEXT
  5
C7
100
AcDbEntity
  8
dimensions
  6
CONTINUOUS
 62
    0
370
   -2
100
AcDbMText
 10
34.25000017707389
 20
19.81944285657422
 30
0
 40
3.5
 41
5.638888888889323
 71
    5
 72
    1
  1
5,5
  7
standard
210
0
220
0
230
1
 50
89.99999734369996
 73
    2
 44
1
  0
ENDBLK
  5
70
330
6E
100
AcDbEntity
  8
0
100
AcDbBlockEnd
  0
BLOCK
  5
72
330
71
100
AcDbEntity
  8
0
100
AcDbBlockBegin
  2
*D11
 70
    1
 10
0
 20
0
  3
*D11
  1

  0
LINE
  5
C8
100
AcDbEntity
  8
dimensions
  6
ByBlock
 62
    0
370
   -2
100
AcDbLine
 10
7.424621202458747
 20
-7.42462120245875
 11
-7.424621202458749
 21
7.424621202458749
  0
SOLID
  5
C9
100
AcDbEntity
  8
dimensions
  6
ByBlock
 62
    0
370
   -2
100
AcDbTrace
 10
7.424621202458747
 20
-7.42462120245875
 30
0
 11
4.537646682124696
 21
-5.361848254486969
 31
0
 12
5.361848254486967
 22
-4.537646682124699
 32
0
 13
5.361848254486967
 23
-4.537646682124699
 33
0
  0
SOLID
  5
CA
100
AcDbEntity
  8
dimensions
  6
ByBlock
 62
    0
370
   -2
100
AcDbTrace
 10
-7.424621202458749
 20
7.424621202458749
 30
0
 11
-4.537646682124697
 21
5.361848254486969
 31
0
 12
-5.361848254486969
 22
4.537646682124698
 32
0
 13
-5.361848254486969
 23
4.537646682124698
 33
0
  0
MTEXT
  5
CB
100
AcDbEntity
  8
dimensions
  6
CONTINUOUS
 62
    0
370
   -2
100
AcDbMText
 10
1.944543648263005
 20
1.944543648263005
 30
0
 40
3.5
 41
3.5
 71
    5
 72
    1
  1
21
  7
standard
210
0
220
0
230
1
 50
315
 73
    2
 44
1
  0
ENDBLK
  5
73
330
71
100
AcDbEntity
  8
0
100
AcDbBlockEnd
  0
BLOCK
  5
75
330
74
100
AcDbEntity
  8
0
100
AcDbBlockBegin
  2
*D16
 70
    1
 10
0
 20
0
  3
*D16
  1

  0
LINE
  5
CC
100
AcDbEntity
  8
positions
  6
ByBlock
 62
    0
370
   -2
100
AcDbLine
 10
-6.300000000000001
 20
-10.9
 11
-18
 21
-10.89999999999999
  0
LINE
  5
CD
100
AcDbEntity
  8
positions
  6
ByBlock
 62
    0
370
   -2
100
AcDbLine
 10
-6.300000000000001
 20
-16
 11
-18
 21
-16
  0
LINE
  5
CE
100
AcDbEntity
  8
positions
  6
ByBlock
 62
    0
370
   -2
100
AcDbLine
 10
-16
 20
-3.899999999999995
 11
-16
 21
-23
  0
SOLID
  5
CF
100
AcDbEntity
  8
positions
  6
ByBlock
 62
    0
370
   -2
100
AcDbTrace
 10
-16
 20
-10.9
 30
0
 11
-16.58279852088198
 21
-7.399999999999995
 31
0
 12
-15.41720147911802
 22
-7.399999999999995
 32
0
 13
-15.41720147911802
 23
-7.399999999999995
 33
0
  0
SOLID
  5
D0
100
AcDbEntity
  8
positions
  6
ByBlock
 62
    0
370
   -2
100
AcDbTrace
 10
-16
 20
-16
 30
0
 11
-15.41720147911802
 21
-19.5
 31
0
 12
-16.58279852088198
 22
-19.5
 32
0
 13
-16.58279852088198
 23
-19.5
 33
0
  0
MTEXT
  5
D1
100
AcDbEntity
  8
positions
  6
CONTINUOUS
 62
    0
370
   -2
100
AcDbMText
 10
-18.75
 20
-13.45
 30
0
 40
3.5
 41
4.861111111111327
 71
    5
 72
    1
  1
5,1
  7
standard
210
0
220
0
230
1
 50
90
 73
    2
 44
1
  0
ENDBLK
  5
76
330
74
100
AcDbEntity
  8
0
100
AcDbBlockEnd
  0
BLOCK
  5
78
330
77
100
AcDbEntity
  8
0
100
AcDbBlockBegin
  2
*D18
 70
    1
 10
0
 20
0
  3
*D18
  1

  0
LINE
  5
D2
100
AcDbEntity
  8
positions
  6
ByBlock
 62
    0
370
   -2
100
AcDbLine
 10
0
 20
0
 11
2.143131898507868e-15
 21
35
  0
LINE
  5
D3
100
AcDbEntity
  8
positions
  6
ByBlock
 62
    0
370
   -2
100
AcDbLine
 10
50
 20
0
 11
50
 21
35
  0
LINE
  5
D4
100
AcDbEntity
  8
positions
  6
ByBlock
 62
    0
370
   -2
100
AcDbLine
 10
2.020667218593133e-15
 20
33
 11
50
 21
33
  0
SOLID
  5
D5
100
AcDbEntity
  8
positions
  6
ByBlock
 62
    0
370
   -2
100
AcDbTrace
 10
2.020667218593133e-15
 20
33
 30
0
 11
3.500000000000002
 21
33.58279852088198
 31
0
 12
3.500000000000002
 22
32.41720147911802
 32
0
 13
3.500000000000002
 23
32.41720147911802
 33
0
  0
SOLID
  5
D6
100
AcDbEntity
  8
positions
  6
ByBlock
 62
    0
370
   -2
100
AcDbTrace
 10
50
 20
33
 30
0
 11
46.5
 21
32.41720147911802
 31
0
 12
46.5
 22
33.58279852088198
 32
0
 13
46.5
 23
33.58279852088198
 33
0
  0
MTEXT
  5
D7
100
AcDbEntity
  8
positions
  6
CONTINUOUS
 62
    0
370
   -2
100
AcDbMText
 10
25
 20
35.75
 30
0
 40
3.5
 41
4.277777777777995
 71
    5
 72
    1
  1
50
  7
standard
210
0
220
0
230
1
 50
0
 73
    2
 44
1
  0
ENDBLK
  5
79
330
77
100
AcDbEntity
  8
0
100
AcDbBlockEnd
  0
BLOCK
  5
7B
330
7A
100
AcDbEntity
  8
0
100
AcDbBlockBegin
  2
*D13
 70
    1
 10
0
 20
0
  3
*D13
  1

  0
LINE
  5
D8
100
AcDbEntity
  8
positions
  6
ByBlock
 62
    0
370
   -2
100
AcDbLine
 10
45
 20
-4.5
 11
59
 21
-4.500000000000004
  0
LINE
  5
D9
100
AcDbEntity
  8
positions
  6
ByBlock
 62
    0
370
   -2
100
AcDbLine
 10
45
 20
-10.5
 11
59
 21
-10.5
  0
LINE
  5
DA
100
AcDbEntity
  8
positions
  6
ByBlock
 62
    0
370
   -2
100
AcDbLine
 10
57
 20
2.499999999999997
 11
57
 21
-17.5
  0
SOLID
  5
DB
100
AcDbEntity
  8
positions
  6
ByBlock
 62
    0
370
   -2
100
AcDbTrace
 10
57
 20
-4.500000000000003
 30
0
 11
56.41720147911803
 21
-1.000000000000003
 31
0
 12
57.58279852088198
 22
-1.000000000000003
 32
0
 13
57.58279852088198
 23
-1.000000000000003
 33
0
  0
SOLID
  5
DC
100
AcDbEntity
  8
positions
  6
ByBlock
 62
    0
370
   -2
100
AcDbTrace
 10
57
 20
-10.5
 30
0
 11
57.58279852088198
 21
-14
 31
0
 12
56.41720147911802
 22
-14
 32
0
 13
56.41720147911802
 23
-14
 33
0
  0
MTEXT
  5
DD
100
AcDbEntity
  8
positions
  6
CONTINUOUS
 62
    0
370
   -2
100
AcDbMText
 10
54.25
 20
-7.500000000000004
 30
0
 40
3.5
 41
1.555555555555773
 71
    5
 72
    1
  1
6
  7
standard
210
0
220
0
230
1
 50
90
 73
    2
 44
1
  0
ENDBLK
  5
7C
330
7A
100
AcDbEntity
  8
0
100
AcDbBlockEnd
  0
BLOCK
  5
7E
330
7D
100
AcDbEntity
  8
0
100
AcDbBlockBegin
  2
*D5
 70
    1
 10
0
 20
0
  3
*D5
  1

  0
LINE
  5
DE
100
AcDbEntity
  8
dimensions
  6
ByBlock
 62
    0
370
   -2
100
AcDbLine
 10
50
 20
0
 11
58.99999953638812
 21
-4.172506547226499e-07
  0
LINE
  5
DF
100
AcDbEntity
  8
dimensions
  6
ByBlock
 62
    0
370
   -2
100
AcDbLine
 10
50.00000048679235
 20
10.49999768194095
 11
59.00000002318047
 21
10.49999726469029
  0
LINE
  5
E0
100
AcDbEntity
  8
dimensions
  6
ByBlock
 62
    0
370
   -2
100
AcDbLine
 10
56.99999953638812
 20
-3.245282822301507e-07
 11
57.00000002318047
 21
10.49999735741266
  0
SOLID
  5
E1
100
AcDbEntity
  8
dimensions
  6
ByBlock
 62
    0
370
   -2
100
AcDbTrace
 10
56.99999953638812
 20
-3.245282822301507e-07
 30
0
 11
56.4172011777703
 21
3.499999702490945
 31
0
 12
57.58279821953425
 22
3.499999648452484
 32
0
 13
57.58279821953425
 23
3.499999648452484
 33
0
  0
SOLID
  5
E2
100
AcDbEntity
  8
dimensions
  6
ByBlock
 62
    0
370
   -2
100
AcDbTrace
 10
57.00000002318047
 20
10.49999735741266
 30
0
 11
57.58279838179829
 21
6.999997330393437
 31
0
 12
56.41720134003434
 22
6.999997384431898
 32
0
 13
56.41720134003434
 23
6.999997384431898
 33
0
  0
MTEXT
  5
E3
100
AcDbEntity
  8
dimensions
  6
CONTINUOUS
 62
    0
370
   -2
100
AcDbMText
 10
54.2499997797843
 20
5.249998643935453
 30
0
 40
3.5
 41
7.583333333333551
 71
    5
 72
    1
  1
10,5
  7
standard
210
0
220
0
230
1
 50
89.9999973436997
 73
    2
 44
1
  0
ENDBLK
  5
7F
330
7D
100
AcDbEntity
  8
0
100
AcDbBlockEnd
  0
BLOCK
  5
81
330
80
100
AcDbEntity
  8
0
100
AcDbBlockBegin
  2
*D8
 70
    1
 10
0
 20
0
  3
*D8
  1

  0
LINE
  5
E4
100
AcDbEntity
  8
dimensions
  6
ByBlock
 62
    0
370
   -2
100
AcDbLine
 10
-7.799999494111423
 20
10.91190029207543
 11
-7.799999494111423
 21
20
  0
LINE
  5
E5
100
AcDbEntity
  8
dimensions
  6
ByBlock
 62
    0
370
   -2
100
AcDbLine
 10
-4.799999494111423
 20
10.91190029207543
 11
-4.799999494111423
 21
20
  0
LINE
  5
E6
100
AcDbEntity
  8
dimensions
  6
ByBlock
 62
    0
370
   -2
100
AcDbLine
 10
-14.79999949411142
 20
18
 11
2.200000505888577
 21
18
  0
SOLID
  5
E7
100
AcDbEntity
  8
dimensions
  6
ByBlock
 62
    0
370
   -2
100
AcDbTrace
 10
-7.799999494111423
 20
18
 30
0
 11
-11.29999949411142
 21
17.41720147911802
 31
0
 12
-11.29999949411142
 22
18.58279852088198
 32
0
 13
-11.29999949411142
 23
18.58279852088198
 33
0
  0
SOLID
  5
E8
100
AcDbEntity
  8
dimensions
  6
ByBlock
 62
    0
370
   -2
100
AcDbTrace
 10
-4.799999494111423
 20
18
 30
0
 11
-1.299999494111423
 21
18.58279852088198
 31
0
 12
-1.299999494111423
 22
17.41720147911802
 32
0
 13
-1.299999494111423
 23
17.41720147911802
 33
0
  0
MTEXT
  5
E9
100
AcDbEntity
  8
dimensions
  6
CONTINUOUS
 62
    0
370
   -2
100
AcDbMText
 10
-6.299999494111423
 20
20.75
 30
0
 40
3.5
 41
1.555555555555773
 71
    5
 72
    1
  1
3
  7
standard
210
0
220
0
230
1
 50
0
 73
    2
 44
1
  0
ENDBLK
  5
82
330
80
100
AcDbEntity
  8
0
100
AcDbBlockEnd
  0
BLOCK
  5
84
330
83
100
AcDbEntity
  8
0
100
AcDbBlockBegin
  2
*D2
 70
    1
 10
0
 20
0
  3
*D2
  1

  0
LINE
  5
EA
100
AcDbEntity
  8
dimensions
  6
ByBlock
 62
    0
370
   -2
100
AcDbLine
 10
30.00000048679237
 20
10.49999860916456
 11
30.00000125175196
 21
27.0000008345012
  0
LINE
  5
EB
100
AcDbEntity
  8
dimensions
  6
ByBlock
 62
    0
370
   -2
100
AcDbLine
 10
50.00000048679235
 20
10.49999768194095
 11
50.00000125175193
 21
26.99999990727758
  0
LINE
  5
EC
100
AcDbEntity
  8
dimensions
  6
ByBlock
 62
    0
370
   -2
100
AcDbLine
 10
30.00000115902959
 20
25.0000008345012
 11
50.00000115902957
 21
24.99999990727758
  0
SOLID
  5
ED
100
AcDbEntity
  8
dimensions
  6
ByBlock
 62
    0
370
   -2
100
AcDbTrace
 10
30.00000115902959
 20
25.0000008345012
 30
0
 11
33.50000118604882
 21
25.58279919311904
 31
0
 12
33.50000113201036
 22
24.41720215135509
 32
0
 13
33.50000113201036
 23
24.41720215135509
 33
0
  0
SOLID
  5
EE
100
AcDbEntity
  8
dimensions
  6
ByBlock
 62
    0
370
   -2
100
AcDbTrace
 10
50.00000115902957
 20
24.99999990727758
 30
0
 11
46.50000113201035
 21
24.41720154865974
 31
0
 12
46.50000118604881
 22
25.58279859042369
 32
0
 13
46.50000118604881
 23
25.58279859042369
 33
0
  0
MTEXT
  5
EF
100
AcDbEntity
  8
dimensions
  6
CONTINUOUS
 62
    0
370
   -2
100
AcDbMText
 10
40.00000128652282
 20
27.75000037088939
 30
0
 40
3.5
 41
4.277777777777779
 71
    5
 72
    1
  1
20
  7
standard
210
0
220
0
230
1
 50
359.9999973437
 73
    2
 44
1
  0
ENDBLK
  5
85
330
83
100
AcDbEntity
  8
0
100
AcDbBlockEnd
  0
BLOCK
  5
87
330
86
100
AcDbEntity
  8
0
100
AcDbBlockBegin
  2
Ortho0011
 70
    0
 10
0
 20
0
  3
Ortho0011
  1

  0
ARC
  5
F0
100
AcDbEntity
  8
0
  6
ByBlock
 62
    0
370
   -1
100
AcDbCircle
 10
0
 20
0
 40
16
100
AcDbArc
 50
180
 51
1.89522e-13
  0
LINE
  5
F1
100
AcDbEntity
  8
0
  6
ByBlock
 62
    0
370
   -1
100
AcDbLine
 10
-16
 20
1.95943e-15
 11
-16
 21
30
  0
LINE
  5
F2
100
AcDbEntity
  8
0
  6
ByBlock
 62
    0
370
   -1
100
AcDbLine
 10
16
 20
30
 11
16
 21
0
  0
LINE
  5
F3
100
AcDbEntity
  8
0
  6
ByBlock
 62
    0
370
   -1
100
AcDbLine
 10
10.5
 20
30
 11
16
 21
30
  0
LINE
  5
F4
100
AcDbEntity
  8
0
  6
ByBlock
 62
    0
370
   -1
100
AcDbLine
 10
10.5
 20
50
 11
10.5
 21
30
  0
LINE
  5
F5
100
AcDbEntity
  8
0
  6
ByBlock
 62
    0
370
   -1
100
AcDbLine
 10
-10.5
 20
50
 11
10.5
 21
50
  0
LINE
  5
F6
100
AcDbEntity
  8
0
  6
ByBlock
 62
    0
370
   -1
100
AcDbLine
 10
-10.5
 20
50
 11
-10.5
 21
30
  0
LINE
  5
F7
100
AcDbEntity
  8
0
  6
ByBlock
 62
    0
370
   -1
100
AcDbLine
 10
-10.5
 20
30
 11
-16
 21
30
  0
CIRCLE
  5
F8
100
AcDbEntity
  8
0
  6
ByBlock
 62
    0
370
   -1
100
AcDbCircle
 10
0
 20
12.6
 40
1.5
  0
CIRCLE
  5
F9
100
AcDbEntity
  8
0
  6
ByBlock
 62
    0
370
   -1
100
AcDbCircle
 10
-4.5
 20
25
 40
1.5
  0
CIRCLE
  5
FA
100
AcDbEntity
  8
0
  6
ByBlock
 62
    0
370
   -1
100
AcDbCircle
 10
-4.5
 20
45
 40
1.5
  0
CIRCLE
  5
FB
100
AcDbEntity
  8
0
  6
ByBlock
 62
    0
370
   -1
100
AcDbCircle
 10
4.5
 20
45
 40
1.5
  0
CIRCLE
  5
FC
100
AcDbEntity
  8
0
  6
ByBlock
 62
    0
370
   -1
100
AcDbCircle
 10
4.5
 20
25
 40
1.5
  0
CIRCLE
  5
FD
100
AcDbEntity
  8
0
  6
ByBlock
 62
    0
370
   -1
100
AcDbCircle
 10
0
 20
0
 40
10.5
  0
CIRCLE
  5
FE
100
AcDbEntity
  8
0
  6
ByBlock
 62
    0
370
   -1
100
AcDbCircle
 10
10.9119
 20
-6.3
 40
1.5
  0
CIRCLE
  5
FF
100
AcDbEntity
  8
0
  6
ByBlock
 62
    0
370
   -1
100
AcDbCircle
 10
-10.9119
 20
-6.3
 40
1.5
  0
ENDBLK
  5
88
330
86
100
AcDbEntity
  8
0
100
AcDbBlockEnd
  0
ENDSEC
  0
SECTION
  2
ENTITIES
  0
INSERT
  5
100
100
AcDbEntity
  8
0
  6
ByLayer
 62
  256
370
   -1
100
AcDbBlockReference
  2
Ortho0011
 10
0
 20
0
 30
0
 41
1
 42
1
 43
0
 50
-90.0000026563
 70
    1
 71
    1
 44
0
 45
0
  0
DIMENSION
  5
101
100
AcDbEntity
  8
dimensions
  6
ByLayer
 62
  256
370
   -1
100
AcDbDimension
  2
*D1
 10
36.99999999999992
 20
15.99999828463632
 30
0
 11
34.24999987250668
 21
13.24999841212957
 31
0
 70
   33
 71
    5
  3
Standard
 53
0
210
0
220
0
230
1
100
AcDbAlignedDimension
 13
30.00000048679237
 23
10.49999860916456
 33
0
 14
30.00000074177886
 24
15.99999860916456
 34
0
  0
DIMENSION
  5
102
100
AcDbEntity
  8
dimensions
  6
ByLayer
 62
  256
370
   -1
100
AcDbDimension
  2
*D2
 10
50.00000115902957
 20
24.99999990727758
 30
0
 11
40.00000128652282
 21
27.75000037088939
 31
0
 70
   33
 71
    5
  3
Standard
 53
0
210
0
220
0
230
1
100
AcDbAlignedDimension
 13
30.00000048679237
 23
10.49999860916456
 33
0
 14
50.00000048679235
 24
10.49999768194095
 34
0
  0
DIMENSION
  5
103
100
AcDbEntity
  8
dimensions
  6
ByLayer
 62
  256
370
   -1
100
AcDbDimension
  2
*D3
 10
-0.9999999999999983
 20
25
 30
0
 11
14.5
 21
27.75
 31
0
 70
   33
 71
    5
  3
Standard
 53
0
210
0
220
0
230
1
100
AcDbAlignedDimension
 13
30
 23
16
 33
0
 14
-1
 24
16
 34
0
  0
LINE
  5
104
100
AcDbEntity
  8
symetrie
  6
ByLayer
 62
  256
370
   -1
100
AcDbLine
 10
0
 20
0
 11
50
 21
0
  0
DIMENSION
  5
105
100
AcDbEntity
  8
dimensions
  6
ByLayer
 62
  256
370
   -1
100
AcDbDimension
  2
*D4
 10
65.00000002318045
 20
-10.50000301347678
 30
0
 11
62.25000050997285
 21
-2.885983542918089e-06
 31
0
 70
   33
 71
    5
  3
Standard
 53
0
210
0
220
0
230
1
100
AcDbAlignedDimension
 13
50.00000048679235
 23
10.49999768194095
 33
0
 14
49.99999951320754
 24
-10.50000231805903
 34
0
  0
DIMENSION
  5
106
100
AcDbEntity
  8
dimensions
  6
ByLayer
 62
  256
370
   -1
100
AcDbDimension
  2
*D5
 10
57.00000002318047
 20
10.49999735741266
 30
0
 11
54.2499997797843
 21
5.249998643935453
 31
0
 70
   33
 71
    5
  3
Standard
 53
0
210
0
220
0
230
1
100
AcDbAlignedDimension
 13
50
 23
0
 33
0
 14
50.00000048679235
 24
10.49999768194095
 34
0
  0
DIMENSION
  5
107
100
AcDbEntity
  8
dimensions
  6
ByLayer
 62
  256
370
   -1
100
AcDbDimension
  2
*D6
 10
26.50000020862528
 20
7
 30
0
 11
25.00000020862528
 21
9.75
 31
0
 70
   33
 71
    5
  3
Standard
 53
0
210
0
220
0
230
1
100
AcDbAlignedDimension
 13
23.50000020862528
 23
4.499998840970473
 33
0
 14
26.50000020862528
 24
4.499998840970473
 34
0
  0
DIMENSION
  5
108
100
AcDbEntity
  8
dimensions
  6
ByLayer
 62
  256
370
   -1
100
AcDbDimension
  2
*D7
 10
46.50000020862527
 20
7
 30
0
 11
45.00000020862527
 21
9.75
 31
0
 70
   33
 71
    5
  3
Standard
 53
0
210
0
220
0
230
1
100
AcDbAlignedDimension
 13
43.50000020862527
 23
4.499997913746857
 33
0
 14
46.50000020862527
 24
4.499997913746857
 34
0
  0
DIMENSION
  5
109
100
AcDbEntity
  8
dimensions
  6
ByLayer
 62
  256
370
   -1
100
AcDbDimension
  2
*D8
 10
-4.799999494111423
 20
18
 30
0
 11
-6.299999494111423
 21
20.75
 31
0
 70
   33
 71
    5
  3
Standard
 53
0
210
0
220
0
230
1
100
AcDbAlignedDimension
 13
-7.799999494111423
 23
10.91190029207543
 33
0
 14
-4.799999494111423
 24
10.91190029207543
 34
0
  0
DIMENSION
  5
10A
100
AcDbEntity
  8
dimensions
  6
ByLayer
 62
  256
370
   -1
100
AcDbDimension
  2
*D9
 10
14.09999999999999
 20
4
 30
0
 11
12.59999999999999
 21
6.75
 31
0
 70
   33
 71
    5
  3
Standard
 53
0
210
0
220
0
230
1
100
AcDbAlignedDimension
 13
11.09999999999999
 23
-5.841508783128835e-07
 33
0
 14
14.09999999999999
 24
-5.841508784965805e-07
 34
0
  0
DIMENSION
  5
10B
100
AcDbEntity
  8
dimensions
  6
ByLayer
 62
  256
370
   -1
100
AcDbDimension
  2
*D10
 10
0
 20
0
 30
0
 11
-8.295876527378706
 21
-1.655576226721994
 31
0
 70
   36
 71
    5
  3
Standard
 53
0
210
0
220
0
230
1
100
AcDbRadialDimension
 15
-13.82046241437494
 25
-8.061936408385373
 35
0
 40
0
  0
DIMENSION
  5
10C
100
AcDbEntity
  8
dimensions
  6
ByLayer
 62
  256
370
   -1
100
AcDbDimension
  2
*D11
 10
7.424621202458747
 20
-7.42462120245875
 30
0
 11
1.944543648263005
 21
1.944543648263005
 31
0
 70
   35
 71
    5
  3
Standard
 53
0
210
0
220
0
230
1
100
AcDbDiametricDimension
 15
-7.424621202458749
 25
7.424621202458749
 35
0
 40
0
  0
DIMENSION
  5
10D
100
AcDbEntity
  8
positions
  6
ByLayer
 62
  256
370
   -1
100
AcDbDimension
  2
*D12
 10
50
 20
-17
 30
0
 11
47.5
 21
-14.25
 31
0
 70
   33
 71
    5
  3
Standard
 53
0
210
0
220
0
230
1
100
AcDbAlignedDimension
 13
45
 23
-4.5
 33
0
 14
50
 24
-4.5
 34
0
  0
DIMENSION
  5
10E
100
AcDbEntity
  8
positions
  6
ByLayer
 62
  256
370
   -1
100
AcDbDimension
  2
*D13
 10
57
 20
-10.5
 30
0
 11
54.25
 21
-7.500000000000004
 31
0
 70
   33
 71
    5
  3
Standard
 53
0
210
0
220
0
230
1
100
AcDbAlignedDimension
 13
45
 23
-4.5
 33
0
 14
45
 24
-10.5
 34
0
  0
DIMENSION
  5
10F
100
AcDbEntity
  8
positions
  6
ByLayer
 62
  256
370
   -1
100
AcDbDimension
  2
*D14
 10
50
 20
-24
 30
0
 11
37.49999999999999
 21
-21.25
 31
0
 70
   33
 71
    5
  3
Standard
 53
0
210
0
220
0
230
1
100
AcDbAlignedDimension
 13
25
 23
-4.500000000000001
 33
0
 14
50
 24
-4.5
 34
0
  0
DIMENSION
  5
110
100
AcDbEntity
  8
positions
  6
ByLayer
 62
  256
370
   -1
100
AcDbDimension
  2
*D15
 10
50
 20
-32
 30
0
 11
21.84999999999999
 21
-29.25
 31
0
 70
   33
 71
    5
  3
Standard
 53
0
210
0
220
0
230
1
100
AcDbAlignedDimension
 13
-6.300000000000001
 23
-10.9
 33
0
 14
50
 24
-10.9
 34
0
  0
DIMENSION
  5
111
100
AcDbEntity
  8
positions
  6
ByLayer
 62
  256
370
   -1
100
AcDbDimension
  2
*D16
 10
-16
 20
-16
 30
0
 11
-18.75
 21
-13.45
 31
0
 70
   33
 71
    5
  3
Standard
 53
0
210
0
220
0
230
1
100
AcDbAlignedDimension
 13
-6.300000000000001
 23
-10.9
 33
0
 14
-6.300000000000001
 24
-16
 34
0
  0
DIMENSION
  5
112
100
AcDbEntity
  8
positions
  6
ByLayer
 62
  256
370
   -1
100
AcDbDimension
  2
*D17
 10
50
 20
-2
 30
0
 11
31.3
 21
0.75
 31
0
 70
   33
 71
    5
  3
Standard
 53
0
210
0
220
0
230
1
100
AcDbAlignedDimension
 13
12.6
 23
1.110223024625157e-16
 33
0
 14
50
 24
0
 34
0
  0
DIMENSION
  5
113
100
AcDbEntity
  8
positions
  6
ByLayer
 62
  256
370
   -1
100
AcDbDimension
  2
*D18
 10
50
 20
33
 30
0
 11
25
 21
35.75
 31
0
 70
   33
 71
    5
  3
Standard
 53
0
210
0
220
0
230
1
100
AcDbAlignedDimension
 13
0
 23
0
 33
0
 14
50
 24
0
 34
0
  0
ENDSEC
  0
SECTION
  2
OBJECTS
  0
DICTIONARY
  5
C
330
0
100
AcDbDictionary
281
    1
  3
ACAD_GROUP
350
D
  0
DICTIONARY
  5
D
330
C
100
AcDbDictionary
281
    1
  0
ENDSEC
  0
EOF
