999
dxfrw 0.6.3
  0
SECTION
  2
HEADER
  9
$ACADVER
  1
AC1021
  9
$DWGCODEPAGE
  3
ANSI_1250
  9
$INSBASE
 10
0
 20
0
 30
0
  9
$EXTMIN
 10
-14.50000114731041
 20
-420
 30
0
  9
$EXTMAX
 10
594
 20
14.50000136520797
 30
0
  9
$LIMMIN
 10
0
 20
0
  9
$LIMMAX
 10
420
 20
297
  9
$ORTHOMODE
 70
    0
  9
$REGENMODE
 70
    1
  9
$FILLMODE
 70
    1
  9
$QTEXTMODE
 70
    0
  9
$MIRRTEXT
 70
    0
  9
$LTSCALE
 40
1
  9
$ATTMODE
 70
    0
  9
$TEXTSIZE
 40
2.5
  9
$TRACEWID
 40
15.68
  9
$TEXTSTYLE
  7
STANDARD
  9
$CLAYER
  8
positions
  9
$CELTYPE
  6
BYLAYER
  9
$CECOLOR
 62
  256
  9
$CELTSCALE
 40
1
  9
$DISPSILH
 70
    0
  9
$DIMSCALE
 40
1
  9
$DIMASZ
 40
3.5
  9
$DIMEXO
 40
0
  9
$DIMDLI
 40
3.75
  9
$DIMRND
 40
0
  9
$DIMDLE
 40
0
  9
$DIMEXE
 40
2
  9
$DIMTP
 40
0
  9
$DIMTM
 40
0
  9
$DIMTXT
 40
3.5
  9
$DIMCEN
 40
2.5
  9
$DIMTSZ
 40
0
  9
$DIMTOL
 70
    0
  9
$DIMLIM
 70
    0
  9
$DIMTIH
 70
    0
  9
$DIMTOH
 70
    0
  9
$DIMSE1
 70
    0
  9
$DIMSE2
 70
    0
  9
$DIMTAD
 70
    1
  9
$DIMZIN
 70
    8
  9
$DIMBLK
  1

  9
$DIMASO
 70
    1
  9
$DIMSHO
 70
    1
  9
$DIMPOST
  1

  9
$DIMAPOST
  1

  9
$DIMALT
 70
    0
  9
$DIMALTD
 70
    3
  9
$DIMALTF
 40
0.03937
  9
$DIMLFAC
 40
1
  9
$DIMTOFL
 70
    1
  9
$DIMTVP
 40
0
  9
$DIMTIX
 70
    0
  9
$DIMSOXD
 70
    0
  9
$DIMSAH
 70
    0
  9
$DIMBLK1
  1

  9
$DIMBLK2
  1

  9
$DIMSTYLE
  2
STANDARD
  9
$DIMCLRD
 70
    0
  9
$DIMCLRE
 70
    0
  9
$DIMCLRT
 70
    0
  9
$DIMTFAC
 40
1
  9
$DIMGAP
 40
1
  9
$DIMJUST
 70
    0
  9
$DIMSD1
 70
    0
  9
$DIMSD2
 70
    0
  9
$DIMTOLJ
 70
    0
  9
$DIMTZIN
 70
    8
  9
$DIMALTZ
 70
    0
  9
$DIMALTTZ
 70
    0
  9
$DIMUPT
 70
    0
  9
$DIMDEC
 70
    4
  9
$DIMTDEC
 70
    2
  9
$DIMALTU
 70
    2
  9
$DIMALTTD
 70
    3
  9
$DIMTXSTY
  7
STANDARD
  9
$DIMAUNIT
 70
    0
  9
$DIMADEC
 70
    0
  9
$DIMALTRND
 40
0
  9
$DIMAZIN
 70
    0
  9
$DIMDSEP
 70
   44
  9
$DIMATFIT
 70
    3
  9
$DIMFRAC
 70
    0
  9
$DIMLDRBLK
  1
STANDARD
  9
$DIMLUNIT
 70
    2
  9
$DIMLWD
 70
   -2
  9
$DIMLWE
 70
   -2
  9
$DIMTMOVE
 70
    0
  9
$DIMFXL
 40
1
  9
$DIMFXLON
 70
    0
  9
$DIMJOGANG
 40
0.7854
  9
$DIMTFILL
 70
    0
  9
$DIMTFILLCLR
 70
    0
  9
$DIMARCSYM
 70
    0
  9
$DIMLTYPE
  6

  9
$DIMLTEX1
  6

  9
$DIMLTEX2
  6

  9
$LUNITS
 70
    2
  9
$LUPREC
 70
    2
  9
$SKETCHINC
 40
1
  9
$FILLETRAD
 40
0
  9
$AUNITS
 70
    0
  9
$AUPREC
 70
    2
  9
$MENU
  1
.
  9
$ELEVATION
 40
0
  9
$PELEVATION
 40
0
  9
$THICKNESS
 40
0
  9
$LIMCHECK
 70
    0
  9
$CHAMFERA
 40
0
  9
$CHAMFERB
 40
0
  9
$CHAMFERC
 40
0
  9
$CHAMFERD
 40
0
  9
$SKPOLY
 70
    0
  9
$USRTIMER
 70
    1
  9
$ANGBASE
 50
0
  9
$ANGDIR
 70
    0
  9
$PDMODE
 70
   34
  9
$PDSIZE
 40
0
  9
$PLINEWID
 40
0
  9
$SPLFRAME
 70
    0
  9
$SPLINETYPE
 70
    2
  9
$SPLINESEGS
 70
    8
  9
$HANDSEED
  5
20000
  9
$SURFTAB1
 70
    6
  9
$SURFTAB2
 70
    6
  9
$SURFTYPE
 70
    6
  9
$SURFU
 70
    6
  9
$SURFV
 70
    6
  9
$UCSBASE
  2

  9
$UCSNAME
  2

  9
$UCSORG
 10
0
 20
0
 30
0
  9
$UCSXDIR
 10
1
 20
0
 30
0
  9
$UCSYDIR
 10
0
 20
1
 30
0
  9
$UCSORTHOREF
  2

  9
$UCSORTHOVIEW
 70
    0
  9
$UCSORGTOP
 10
0
 20
0
 30
0
  9
$UCSORGBOTTOM
 10
0
 20
0
 30
0
  9
$UCSORGLEFT
 10
0
 20
0
 30
0
  9
$UCSORGRIGHT
 10
0
 20
0
 30
0
  9
$UCSORGFRONT
 10
0
 20
0
 30
0
  9
$UCSORGBACK
 10
0
 20
0
 30
0
  9
$PUCSBASE
  2

  9
$PUCSNAME
  2

  9
$PUCSORG
 10
0
 20
0
 30
0
  9
$PUCSXDIR
 10
1
 20
0
 30
0
  9
$PUCSYDIR
 10
0
 20
1
 30
0
  9
$PUCSORTHOREF
  2

  9
$PUCSORTHOVIEW
 70
    0
  9
$PUCSORGTOP
 10
0
 20
0
 30
0
  9
$PUCSORGBOTTOM
 10
0
 20
0
 30
0
  9
$PUCSORGLEFT
 10
0
 20
0
 30
0
  9
$PUCSORGRIGHT
 10
0
 20
0
 30
0
  9
$PUCSORGFRONT
 10
0
 20
0
 30
0
  9
$PUCSORGBACK
 10
0
 20
0
 30
0
  9
$USERI1
 70
    0
  9
$USERI2
 70
    0
  9
$USERI3
 70
    0
  9
$USERI4
 70
    0
  9
$USERI5
 70
    0
  9
$USERR1
 40
0
  9
$USERR2
 40
0
  9
$USERR3
 40
0
  9
$USERR4
 40
0
  9
$USERR5
 40
0
  9
$WORLDVIEW
 70
    1
  9
$SHADEDGE
 70
    3
  9
$SHADEDIF
 70
   70
  9
$TILEMODE
 70
    1
  9
$MAXACTVP
 70
   64
  9
$PINSBASE
 10
0
 20
420
 30
0
  9
$PLIMCHECK
 70
    0
  9
$PEXTMIN
 10
0
 20
0
 30
0
  9
$PEXTMAX
 10
0
 20
0
 30
0
  9
$GRIDMODE
 70
    1
  9
$SNAPSTYLE
 70
    0
  9
$GRIDUNIT
 10
0
 20
0
  9
$PLIMMIN
 10
0
 20
0
  9
$PLIMMAX
 10
594
 20
420
  9
$UNITMODE
 70
    0
  9
$VISRETAIN
 70
    1
  9
$PLINEGEN
 70
    0
  9
$PSLTSCALE
 70
    1
  9
$TREEDEPTH
 70
 3020
  9
$CMLSTYLE
  2
Standard
  9
$CMLJUST
 70
    0
  9
$CMLSCALE
 40
20
  9
$PROXYGRAPHICS
 70
    1
  9
$MEASUREMENT
 70
    1
  9
$CELWEIGHT
370
   -1
  9
$ENDCAPS
280
    0
  9
$JOINSTYLE
280
    0
  9
$LWDISPLAY
290
    0
  9
$INSUNITS
 70
    4
  9
$HYPERLINKBASE
  1

  9
$STYLESHEET
  1

  9
$XEDIT
290
    1
  9
$CEPSNTYPE
380
    0
  9
$PSTYLEMODE
290
    1
  9
$EXTNAMES
290
    1
  9
$PSVPSCALE
 40
1
  9
$OLESTARTUP
290
    0
  9
$SORTENTS
280
  127
  9
$INDEXCTL
280
    0
  9
$HIDETEXT
280
    1
  9
$XCLIPFRAME
290
    0
  9
$HALOGAP
280
    0
  9
$OBSCOLOR
 70
  257
  9
$OBSLTYPE
280
    0
  9
$INTERSECTIONDISPLAY
280
    0
  9
$INTERSECTIONCOLOR
 70
  257
  9
$DIMASSOC
280
    1
  9
$PROJECTNAME
  1

  9
$CAMERADISPLAY
290
    0
  9
$LENSLENGTH
 40
50
  9
$CAMERAHEIGHT
 40
0
  9
$STEPSPERSEC
 40
2
  9
$STEPSIZE
 40
50
  9
$3DDWFPREC
 40
2
  9
$PSOLWIDTH
 40
5
  9
$PSOLHEIGHT
 40
80
  9
$LOFTANG1
 40
1.570796326794897
  9
$LOFTANG2
 40
1.570796326794897
  9
$LOFTMAG1
 40
0
  9
$LOFTMAG2
 40
0
  9
$LOFTPARAM
 70
    7
  9
$LOFTNORMALS
280
    1
  9
$LATITUDE
 40
1
  9
$LONGITUDE
 40
1
  9
$NORTHDIRECTION
 40
0
  9
$TIMEZONE
 70
-8000
  9
$LIGHTGLYPHDISPLAY
280
    1
  9
$TILEMODELIGHTSYNCH
280
    1
  9
$SOLIDHIST
280
    1
  9
$SHOWHIST
280
    1
  9
$DWFFRAME
280
    2
  9
$DGNFRAME
280
    0
  9
$REALWORLDSCALE
290
    1
  9
$INTERFERECOLOR
 62
    1
  9
$CSHADOW
280
    0
  9
$SHADOWPLANELOCATION
 40
0
  0
ENDSEC
  0
SECTION
  2
CLASSES
  0
ENDSEC
  0
SECTION
  2
TABLES
  0
TABLE
  2
VPORT
  5
8
330
0
100
AcDbSymbolTable
 70
    1
  0
VPORT
  5
31
330
2
100
AcDbSymbolTableRecord
100
AcDbViewportTableRecord
  2
*ACTIVE
 70
    0
 10
0
 20
0
 11
1
 21
1
 12
84.75441678503458
 22
-32.12866176035202
 13
0
 23
0
 14
10
 24
10
 15
10
 25
10
 16
0
 26
0
 36
1
 17
0
 27
0
 37
0
 40
98.15909023471787
 41
2.375722543352601
 42
50
 43
0
 44
0
 50
0
 51
0
 71
    0
 72
  100
 73
    1
 74
    3
 75
    0
 76
    1
 77
    0
 78
    0
281
    0
 65
    1
110
0
120
0
130
0
111
1
121
0
131
0
112
0
122
1
132
0
 79
    0
146
0
348
10020
 60
    7
 61
    5
292
1
282
    1
141
0
142
0
 63
  250
421
3358443
  0
ENDTAB
  0
TABLE
  2
LTYPE
  5
5
330
0
100
AcDbSymbolTable
 70
    4
  0
LTYPE
  5
14
330
5
100
AcDbSymbolTableRecord
100
AcDbLinetypeTableRecord
  2
ByBlock
 70
    0
  3

 72
   65
 73
    0
 40
0
  0
LTYPE
  5
15
330
5
100
AcDbSymbolTableRecord
100
AcDbLinetypeTableRecord
  2
ByLayer
 70
    0
  3

 72
   65
 73
    0
 40
0
  0
LTYPE
  5
16
330
5
100
AcDbSymbolTableRecord
100
AcDbLinetypeTableRecord
  2
Continuous
 70
    0
  3
Solid line
 72
   65
 73
    0
 40
0
  0
LTYPE
  5
32
330
5
100
AcDbSymbolTableRecord
100
AcDbLinetypeTableRecord
  2
DOT
 70
    0
  3
Dot . . . . . . . . . . . . . . . . . . . . . .
 72
   65
 73
    2
 40
6.35
 49
0
 74
    0
 49
-6.35
 74
    0
  0
LTYPE
  5
33
330
5
100
AcDbSymbolTableRecord
100
AcDbLinetypeTableRecord
  2
DOTTINY
 70
    0
  3
Dot (.15x) .....................................
 72
   65
 73
    2
 40
0.9525
 49
0
 74
    0
 49
-0.9525
 74
    0
  0
LTYPE
  5
34
330
5
100
AcDbSymbolTableRecord
100
AcDbLinetypeTableRecord
  2
DOT2
 70
    0
  3
Dot (.5x) .....................................
 72
   65
 73
    2
 40
3.175
 49
0
 74
    0
 49
-3.175
 74
    0
  0
LTYPE
  5
35
330
5
100
AcDbSymbolTableRecord
100
AcDbLinetypeTableRecord
  2
DOTX2
 70
    0
  3
Dot (2x) .  .  .  .  .  .  .  .  .  .  .  .  .
 72
   65
 73
    2
 40
12.7
 49
0
 74
    0
 49
-12.7
 74
    0
  0
LTYPE
  5
36
330
5
100
AcDbSymbolTableRecord
100
AcDbLinetypeTableRecord
  2
DASHED
 70
    0
  3
Dashed _ _ _ _ _ _ _ _ _ _ _ _ _ _ _ _ _
 72
   65
 73
    2
 40
19.05
 49
12.7
 74
    0
 49
-6.35
 74
    0
  0
LTYPE
  5
37
330
5
100
AcDbSymbolTableRecord
100
AcDbLinetypeTableRecord
  2
DASHEDTINY
 70
    0
  3
Dashed (.15x) _ _ _ _ _ _ _ _ _ _ _ _ _ _ _ _ _
 72
   65
 73
    2
 40
2.8575
 49
1.905
 74
    0
 49
-0.9525
 74
    0
  0
LTYPE
  5
38
330
5
100
AcDbSymbolTableRecord
100
AcDbLinetypeTableRecord
  2
DASHED2
 70
    0
  3
Dashed (.5x) _ _ _ _ _ _ _ _ _ _ _ _ _ _ _ _ _
 72
   65
 73
    2
 40
9.524999999999999
 49
6.35
 74
    0
 49
-3.175
 74
    0
  0
LTYPE
  5
39
330
5
100
AcDbSymbolTableRecord
100
AcDbLinetypeTableRecord
  2
DASHEDX2
 70
    0
  3
Dashed (2x) ____  ____  ____  ____  ____  ___
 72
   65
 73
    2
 40
38.09999999999999
 49
25.4
 74
    0
 49
-12.7
 74
    0
  0
LTYPE
  5
3A
330
5
100
AcDbSymbolTableRecord
100
AcDbLinetypeTableRecord
  2
DASHDOT
 70
    0
  3
Dash dot __ . __ . __ . __ . __ . __ . __ . __
 72
   65
 73
    4
 40
25.4
 49
12.7
 74
    0
 49
-6.35
 74
    0
 49
0
 74
    0
 49
-6.35
 74
    0
  0
LTYPE
  5
3B
330
5
100
AcDbSymbolTableRecord
100
AcDbLinetypeTableRecord
  2
DASHDOTTINY
 70
    0
  3
Dash dot (.15x) _._._._._._._._._._._._._._._.
 72
   65
 73
    4
 40
3.81
 49
1.905
 74
    0
 49
-0.9525
 74
    0
 49
0
 74
    0
 49
-0.9525
 74
    0
  0
LTYPE
  5
3C
330
5
100
AcDbSymbolTableRecord
100
AcDbLinetypeTableRecord
  2
DASHDOT2
 70
    0
  3
Dash dot (.5x) _._._._._._._._._._._._._._._.
 72
   65
 73
    4
 40
12.7
 49
6.35
 74
    0
 49
-3.175
 74
    0
 49
0
 74
    0
 49
-3.175
 74
    0
  0
LTYPE
  5
3D
330
5
100
AcDbSymbolTableRecord
100
AcDbLinetypeTableRecord
  2
DASHDOTX2
 70
    0
  3
Dash dot (2x) ____  .  ____  .  ____  .  ___
 72
   65
 73
    4
 40
50.8
 49
25.4
 74
    0
 49
-12.7
 74
    0
 49
0
 74
    0
 49
-12.7
 74
    0
  0
LTYPE
  5
3E
330
5
100
AcDbSymbolTableRecord
100
AcDbLinetypeTableRecord
  2
DIVIDE
 70
    0
  3
Divide ____ . . ____ . . ____ . . ____ . . ____
 72
   65
 73
    6
 40
31.75
 49
12.7
 74
    0
 49
-6.35
 74
    0
 49
0
 74
    0
 49
-6.35
 74
    0
 49
0
 74
    0
 49
-6.35
 74
    0
  0
LTYPE
  5
3F
330
5
100
AcDbSymbolTableRecord
100
AcDbLinetypeTableRecord
  2
DIVIDETINY
 70
    0
  3
Divide (.15x) __..__..__..__..__..__..__..__.._
 72
   65
 73
    6
 40
4.7625
 49
1.905
 74
    0
 49
-0.9525
 74
    0
 49
0
 74
    0
 49
-0.9525
 74
    0
 49
0
 74
    0
 49
-0.9525
 74
    0
  0
LTYPE
  5
40
330
5
100
AcDbSymbolTableRecord
100
AcDbLinetypeTableRecord
  2
DIVIDE2
 70
    0
  3
Divide (.5x) __..__..__..__..__..__..__..__.._
 72
   65
 73
    6
 40
15.875
 49
6.35
 74
    0
 49
-3.175
 74
    0
 49
0
 74
    0
 49
-3.175
 74
    0
 49
0
 74
    0
 49
-3.175
 74
    0
  0
LTYPE
  5
41
330
5
100
AcDbSymbolTableRecord
100
AcDbLinetypeTableRecord
  2
DIVIDEX2
 70
    0
  3
Divide (2x) ________  .  .  ________  .  .  _
 72
   65
 73
    6
 40
63.5
 49
25.4
 74
    0
 49
-12.7
 74
    0
 49
0
 74
    0
 49
-12.7
 74
    0
 49
0
 74
    0
 49
-12.7
 74
    0
  0
LTYPE
  5
42
330
5
100
AcDbSymbolTableRecord
100
AcDbLinetypeTableRecord
  2
BORDER
 70
    0
  3
Border __ __ . __ __ . __ __ . __ __ . __ __ .
 72
   65
 73
    6
 40
44.45
 49
12.7
 74
    0
 49
-6.35
 74
    0
 49
12.7
 74
    0
 49
-6.35
 74
    0
 49
0
 74
    0
 49
-6.35
 74
    0
  0
LTYPE
  5
43
330
5
100
AcDbSymbolTableRecord
100
AcDbLinetypeTableRecord
  2
BORDERTINY
 70
    0
  3
Border (.15x) __.__.__.__.__.__.__.__.__.__.__.
 72
   65
 73
    6
 40
6.6675
 49
1.905
 74
    0
 49
-0.9525
 74
    0
 49
1.905
 74
    0
 49
-0.9525
 74
    0
 49
0
 74
    0
 49
-0.9525
 74
    0
  0
LTYPE
  5
44
330
5
100
AcDbSymbolTableRecord
100
AcDbLinetypeTableRecord
  2
BORDER2
 70
    0
  3
Border (.5x) __.__.__.__.__.__.__.__.__.__.__.
 72
   65
 73
    6
 40
22.225
 49
6.35
 74
    0
 49
-3.175
 74
    0
 49
6.35
 74
    0
 49
-3.175
 74
    0
 49
0
 74
    0
 49
-3.175
 74
    0
  0
LTYPE
  5
45
330
5
100
AcDbSymbolTableRecord
100
AcDbLinetypeTableRecord
  2
BORDERX2
 70
    0
  3
Border (2x) ____  ____  .  ____  ____  .  ___
 72
   65
 73
    6
 40
88.89999999999999
 49
25.4
 74
    0
 49
-12.7
 74
    0
 49
25.4
 74
    0
 49
-12.7
 74
    0
 49
0
 74
    0
 49
-12.7
 74
    0
  0
LTYPE
  5
46
330
5
100
AcDbSymbolTableRecord
100
AcDbLinetypeTableRecord
  2
CENTER
 70
    0
  3
Center ____ _ ____ _ ____ _ ____ _ ____ _ ____
 72
   65
 73
    4
 40
50.8
 49
31.75
 74
    0
 49
-6.35
 74
    0
 49
6.35
 74
    0
 49
-6.35
 74
    0
  0
LTYPE
  5
47
330
5
100
AcDbSymbolTableRecord
100
AcDbLinetypeTableRecord
  2
CENTERTINY
 70
    0
  3
Center (.15x) ___ _ ___ _ ___ _ ___ _ ___ _ ___
 72
   65
 73
    4
 40
7.619999999999999
 49
4.7625
 74
    0
 49
-0.9525
 74
    0
 49
0.9525
 74
    0
 49
-0.9525
 74
    0
  0
LTYPE
  5
48
330
5
100
AcDbSymbolTableRecord
100
AcDbLinetypeTableRecord
  2
CENTER2
 70
    0
  3
Center (.5x) ___ _ ___ _ ___ _ ___ _ ___ _ ___
 72
   65
 73
    4
 40
28.575
 49
19.05
 74
    0
 49
-3.175
 74
    0
 49
3.175
 74
    0
 49
-3.175
 74
    0
  0
LTYPE
  5
49
330
5
100
AcDbSymbolTableRecord
100
AcDbLinetypeTableRecord
  2
CENTERX2
 70
    0
  3
Center (2x) ________  __  ________  __  _____
 72
   65
 73
    4
 40
101.6
 49
63.5
 74
    0
 49
-12.7
 74
    0
 49
12.7
 74
    0
 49
-12.7
 74
    0
  0
ENDTAB
  0
TABLE
  2
LAYER
  5
2
330
0
100
AcDbSymbolTable
 70
    1
  0
LAYER
  5
10
330
2
100
AcDbSymbolTableRecord
100
AcDbLayerTableRecord
  2
0
 70
    0
 62
    7
  6
CONTINUOUS
370
   35
390
F
  0
LAYER
  5
4A
330
2
100
AcDbSymbolTableRecord
100
AcDbLayerTableRecord
  2
dimensions
 70
    0
 62
    3
  6
CONTINUOUS
370
    0
390
F
  0
LAYER
  5
4B
330
2
100
AcDbSymbolTableRecord
100
AcDbLayerTableRecord
  2
positions
 70
    0
 62
    1
  6
CONTINUOUS
370
    0
390
F
  0
LAYER
  5
4C
330
2
100
AcDbSymbolTableRecord
100
AcDbLayerTableRecord
  2
symetrie
 70
    0
 62
    5
  6
DASHED
370
    0
390
F
1001
LibreCad
1070
    1
  0
ENDTAB
  0
TABLE
  2
STYLE
  5
3
330
0
100
AcDbSymbolTable
 70
    3
  0
STYLE
  5
4D
330
2
100
AcDbSymbolTableRecord
100
AcDbTextStyleTableRecord
  2
Standard
 70
    0
 40
0
 41
1
 50
0
 71
    0
 42
1
  3
txt
  4

  0
ENDTAB
  0
TABLE
  2
VIEW
  5
6
330
0
100
AcDbSymbolTable
 70
    0
  0
ENDTAB
  0
TABLE
  2
UCS
  5
7
330
0
100
AcDbSymbolTable
 70
    0
  0
ENDTAB
  0
TABLE
  2
APPID
  5
9
330
0
100
AcDbSymbolTable
 70
    1
  0
APPID
  5
12
330
9
100
AcDbSymbolTableRecord
100
AcDbRegAppTableRecord
  2
ACAD
 70
    0
  0
APPID
  5
4E
330
9
100
AcDbSymbolTableRecord
100
AcDbRegAppTableRecord
  2
LibreCad
 70
    0
  0
ENDTAB
  0
TABLE
  2
DIMSTYLE
  5
A
330
0
100
AcDbSymbolTable
 70
    1
100
AcDbDimStyleTable
 71
    1
  0
DIMSTYLE
105
4F
330
A
100
AcDbSymbolTableRecord
100
AcDbDimStyleTableRecord
  2
Standard
 70
    0
 40
1
 41
3.5
 42
0
 43
0.38
 44
2
 45
0
 46
0
 47
0
 48
0
 49
1
140
3.5
141
0.09
142
0
143
25.4
144
1
145
0
146
1
147
1
148
0
 71
    0
 72
    0
 73
    0
 74
    1
 75
    0
 76
    0
 77
    0
 78
    8
 79
    0
170
    0
171
    2
172
    0
173
    0
174
    0
175
    0
176
    0
177
    0
178
    0
179
    0
271
    4
272
    4
273
    2
274
    2
275
    0
276
    0
277
    2
278
   44
279
    0
280
    0
281
    0
282
    0
283
    1
284
    0
285
    0
286
    0
288
    0
289
    3
340
STANDARD
341

371
   -2
372
   -2
  0
ENDTAB
  0
TABLE
  2
BLOCK_RECORD
  5
1
330
0
100
AcDbSymbolTable
 70
    2
  0
BLOCK_RECORD
  5
1F
330
1
100
AcDbSymbolTableRecord
100
AcDbBlockTableRecord
  2
*Model_Space
 70
    0
280
    1
281
    0
  0
BLOCK_RECORD
  5
1E
330
1
100
AcDbSymbolTableRecord
100
AcDbBlockTableRecord
  2
*Paper_Space
 70
    0
280
    1
281
    0
  0
BLOCK_RECORD
  5
50
330
1
100
AcDbSymbolTableRecord
100
AcDbBlockTableRecord
  2
*D13
 70
    0
280
    1
281
    0
  0
BLOCK_RECORD
  5
53
330
1
100
AcDbSymbolTableRecord
100
AcDbBlockTableRecord
  2
*D8
 70
    0
280
    1
281
    0
  0
BLOCK_RECORD
  5
56
330
1
100
AcDbSymbolTableRecord
100
AcDbBlockTableRecord
  2
*D14
 70
    0
280
    1
281
    0
  0
BLOCK_RECORD
  5
59
330
1
100
AcDbSymbolTableRecord
100
AcDbBlockTableRecord
  2
*D17
 70
    0
280
    1
281
    0
  0
BLOCK_RECORD
  5
5C
330
1
100
AcDbSymbolTableRecord
100
AcDbBlockTableRecord
  2
*D5
 70
    0
280
    1
281
    0
  0
BLOCK_RECORD
  5
5F
330
1
100
AcDbSymbolTableRecord
100
AcDbBlockTableRecord
  2
*D3
 70
    0
280
    1
281
    0
  0
BLOCK_RECORD
  5
62
330
1
100
AcDbSymbolTableRecord
100
AcDbBlockTableRecord
  2
*D15
 70
    0
280
    1
281
    0
  0
BLOCK_RECORD
  5
65
330
1
100
AcDbSymbolTableRecord
100
AcDbBlockTableRecord
  2
*D1
 70
    0
280
    1
281
    0
  0
BLOCK_RECORD
  5
68
330
1
100
AcDbSymbolTableRecord
100
AcDbBlockTableRecord
  2
*D9
 70
    0
280
    1
281
    0
  0
BLOCK_RECORD
  5
6B
330
1
100
AcDbSymbolTableRecord
100
AcDbBlockTableRecord
  2
*D12
 70
    0
280
    1
281
    0
  0
BLOCK_RECORD
  5
6E
330
1
100
AcDbSymbolTableRecord
100
AcDbBlockTableRecord
  2
*D7
 70
    0
280
    1
281
    0
  0
BLOCK_RECORD
  5
71
330
1
100
AcDbSymbolTableRecord
100
AcDbBlockTableRecord
  2
*D16
 70
    0
280
    1
281
    0
  0
BLOCK_RECORD
  5
74
330
1
100
AcDbSymbolTableRecord
100
AcDbBlockTableRecord
  2
*D4
 70
    0
280
    1
281
    0
  0
BLOCK_RECORD
  5
77
330
1
100
AcDbSymbolTableRecord
100
AcDbBlockTableRecord
  2
*D2
 70
    0
280
    1
281
    0
  0
BLOCK_RECORD
  5
7A
330
1
100
AcDbSymbolTableRecord
100
AcDbBlockTableRecord
  2
*D6
 70
    0
280
    1
281
    0
  0
BLOCK_RECORD
  5
7D
330
1
100
AcDbSymbolTableRecord
100
AcDbBlockTableRecord
  2
*D11
 70
    0
280
    1
281
    0
  0
BLOCK_RECORD
  5
80
330
1
100
AcDbSymbolTableRecord
100
AcDbBlockTableRecord
  2
*D18
 70
    0
280
    1
281
    0
  0
BLOCK_RECORD
  5
83
330
1
100
AcDbSymbolTableRecord
100
AcDbBlockTableRecord
  2
*D10
 70
    0
280
    1
281
    0
  0
BLOCK_RECORD
  5
86
330
1
100
AcDbSymbolTableRecord
100
AcDbBlockTableRecord
  2
Ortho1
 70
    0
280
    1
281
    0
  0
BLOCK_RECORD
  5
89
330
1
100
AcDbSymbolTableRecord
100
AcDbBlockTableRecord
  2
Ortho0011
 70
    0
280
    1
281
    0
  0
BLOCK_RECORD
  5
8C
330
1
100
AcDbSymbolTableRecord
100
AcDbBlockTableRecord
  2
Ortho0031
 70
    0
280
    1
281
    0
  0
ENDTAB
  0
ENDSEC
  0
SECTION
  2
BLOCKS
  0
BLOCK
  5
20
330
1F
100
AcDbEntity
  8
0
100
AcDbBlockBegin
  2
*Model_Space
 70
    0
 10
0
 20
0
 30
0
  3
*Model_Space
  1

  0
ENDBLK
  5
21
330
1F
100
AcDbEntity
  8
0
100
AcDbBlockEnd
  0
BLOCK
  5
1C
330
1B
100
AcDbEntity
  8
0
100
AcDbBlockBegin
  2
*Paper_Space
 70
    0
 10
0
 20
0
 30
0
  3
*Paper_Space
  1

  0
ENDBLK
  5
1D
330
1F
100
AcDbEntity
  8
0
100
AcDbBlockEnd
  0
BLOCK
  5
51
330
50
100
AcDbEntity
  8
0
100
AcDbBlockBegin
  2
*D13
 70
    1
 10
0
 20
0
  3
*D13
  1

  0
LINE
  5
8F
100
AcDbEntity
  8
dimensions
  6
ByBlock
 62
    0
370
   -2
100
AcDbLine
 10
119.8000003708895
 20
-96.50000140010765
 11
114
 21
-96.50000140010765
  0
LINE
  5
90
100
AcDbEntity
  8
dimensions
  6
ByBlock
 62
    0
370
   -2
100
AcDbLine
 10
119.8000003708895
 20
-99.50000140010765
 11
114
 21
-99.50000140010765
  0
LINE
  5
91
100
AcDbEntity
  8
dimensions
  6
ByBlock
 62
    0
370
   -2
100
AcDbLine
 10
116
 20
-89.50000140010765
 11
116
 21
-106.5000014001076
  0
SOLID
  5
92
100
AcDbEntity
  8
dimensions
  6
ByBlock
 62
    0
370
   -2
100
AcDbTrace
 10
116
 20
-96.50000140010765
 30
0
 11
115.417201479118
 21
-93.00000140010765
 31
0
 12
116.582798520882
 22
-93.00000140010765
 32
0
 13
116.582798520882
 23
-93.00000140010765
 33
0
  0
SOLID
  5
93
100
AcDbEntity
  8
dimensions
  6
ByBlock
 62
    0
370
   -2
100
AcDbTrace
 10
116
 20
-99.50000140010765
 30
0
 11
116.582798520882
 21
-103.0000014001076
 31
0
 12
115.417201479118
 22
-103.0000014001076
 32
0
 13
115.417201479118
 23
-103.0000014001076
 33
0
  0
MTEXT
  5
94
100
AcDbEntity
  8
dimensions
  6
CONTINUOUS
 62
    0
370
   -2
100
AcDbMText
 10
113.25
 20
-98.00000140010765
 30
0
 40
3.5
 41
1.555555555555773
 71
    5
 72
    1
  1
3
  7
STANDARD
210
0
220
0
230
1
 50
90
 73
    2
 44
1
  0
ENDBLK
  5
52
330
50
100
AcDbEntity
  8
0
100
AcDbBlockEnd
  0
BLOCK
  5
54
330
53
100
AcDbEntity
  8
0
100
AcDbBlockBegin
  2
*D8
 70
    1
 10
0
 20
0
  3
*D8
  1

  0
LINE
  5
95
100
AcDbEntity
  8
positions
  6
ByBlock
 62
    0
370
   -2
100
AcDbLine
 10
5.65
 20
-36.65
 11
5.649999999999998
 21
-52
  0
LINE
  5
96
100
AcDbEntity
  8
positions
  6
ByBlock
 62
    0
370
   -2
100
AcDbLine
 10
-1.734723475976807e-17
 20
-36.65
 11
-2.837096489796549e-15
 21
-52
  0
LINE
  5
97
100
AcDbEntity
  8
positions
  6
ByBlock
 62
    0
370
   -2
100
AcDbLine
 10
12.65
 20
-50
 11
-7.000000000000003
 21
-50
  0
SOLID
  5
98
100
AcDbEntity
  8
positions
  6
ByBlock
 62
    0
370
   -2
100
AcDbTrace
 10
5.649999999999998
 20
-50
 30
0
 11
9.149999999999999
 21
-49.41720147911802
 31
0
 12
9.149999999999999
 22
-50.58279852088198
 32
0
 13
9.149999999999999
 23
-50.58279852088198
 33
0
  0
SOLID
  5
99
100
AcDbEntity
  8
positions
  6
ByBlock
 62
    0
370
   -2
100
AcDbTrace
 10
-2.469702450052343e-15
 20
-50
 30
0
 11
-3.500000000000003
 21
-50.58279852088198
 31
0
 12
-3.500000000000003
 22
-49.41720147911802
 32
0
 13
-3.500000000000003
 23
-49.41720147911802
 33
0
  0
MTEXT
  5
9A
100
AcDbEntity
  8
positions
  6
CONTINUOUS
 62
    0
370
   -2
100
AcDbMText
 10
10.83055555555588
 20
-47.25
 30
0
 40
3.5
 41
8.361111111111761
 71
    5
 72
    1
  1
5,65
  7
STANDARD
210
0
220
0
230
1
 50
360
 73
    2
 44
1
  0
ENDBLK
  5
55
330
53
100
AcDbEntity
  8
0
100
AcDbBlockEnd
  0
BLOCK
  5
57
330
56
100
AcDbEntity
  8
0
100
AcDbBlockBegin
  2
*D14
 70
    1
 10
0
 20
0
  3
*D14
  1

  0
LINE
  5
9B
100
AcDbEntity
  8
dimensions
  6
ByBlock
 62
    0
370
   -2
100
AcDbLine
 10
119.8000012053907
 20
-114.5000014001076
 11
114
 21
-114.5000014001076
  0
LINE
  5
9C
100
AcDbEntity
  8
dimensions
  6
ByBlock
 62
    0
370
   -2
100
AcDbLine
 10
119.8000012053907
 20
-117.5000014001076
 11
114
 21
-117.5000014001076
  0
LINE
  5
9D
100
AcDbEntity
  8
dimensions
  6
ByBlock
 62
    0
370
   -2
100
AcDbLine
 10
116
 20
-107.5000014001076
 11
116
 21
-124.5000014001076
  0
SOLID
  5
9E
100
AcDbEntity
  8
dimensions
  6
ByBlock
 62
    0
370
   -2
100
AcDbTrace
 10
116
 20
-114.5000014001076
 30
0
 11
115.417201479118
 21
-111.0000014001076
 31
0
 12
116.582798520882
 22
-111.0000014001076
 32
0
 13
116.582798520882
 23
-111.0000014001076
 33
0
  0
SOLID
  5
9F
100
AcDbEntity
  8
dimensions
  6
ByBlock
 62
    0
370
   -2
100
AcDbTrace
 10
116
 20
-117.5000014001076
 30
0
 11
116.582798520882
 21
-121.0000014001076
 31
0
 12
115.417201479118
 22
-121.0000014001076
 32
0
 13
115.417201479118
 23
-121.0000014001076
 33
0
  0
MTEXT
  5
A0
100
AcDbEntity
  8
dimensions
  6
CONTINUOUS
 62
    0
370
   -2
100
AcDbMText
 10
113.25
 20
-116.0000014001076
 30
0
 40
3.5
 41
1.555555555555773
 71
    5
 72
    1
  1
3
  7
STANDARD
210
0
220
0
230
1
 50
90
 73
    2
 44
1
  0
ENDBLK
  5
58
330
56
100
AcDbEntity
  8
0
100
AcDbBlockEnd
  0
BLOCK
  5
5A
330
59
100
AcDbEntity
  8
0
100
AcDbBlockBegin
  2
*D17
 70
    1
 10
0
 20
0
  3
*D17
  1

  0
LINE
  5
A1
100
AcDbEntity
  8
positions
  6
ByBlock
 62
    0
370
   -2
100
AcDbLine
 10
119.8
 20
-98
 11
127
 21
-98
  0
LINE
  5
A2
100
AcDbEntity
  8
positions
  6
ByBlock
 62
    0
370
   -2
100
AcDbLine
 10
119.8
 20
-87
 11
127
 21
-87
  0
LINE
  5
A3
100
AcDbEntity
  8
positions
  6
ByBlock
 62
    0
370
   -2
100
AcDbLine
 10
125
 20
-98
 11
125
 21
-87
  0
SOLID
  5
A4
100
AcDbEntity
  8
positions
  6
ByBlock
 62
    0
370
   -2
100
AcDbTrace
 10
125
 20
-98
 30
0
 11
124.417201479118
 21
-94.5
 31
0
 12
125.582798520882
 22
-94.5
 32
0
 13
125.582798520882
 23
-94.5
 33
0
  0
SOLID
  5
A5
100
AcDbEntity
  8
positions
  6
ByBlock
 62
    0
370
   -2
100
AcDbTrace
 10
125
 20
-87
 30
0
 11
125.582798520882
 21
-90.5
 31
0
 12
124.417201479118
 22
-90.5
 32
0
 13
124.417201479118
 23
-90.5
 33
0
  0
MTEXT
  5
A6
100
AcDbEntity
  8
positions
  6
CONTINUOUS
 62
    0
370
   -2
100
AcDbMText
 10
122.25
 20
-92.5
 30
0
 40
3.5
 41
2.722222222222222
 71
    5
 72
    1
  1
11
  7
STANDARD
210
0
220
0
230
1
 50
90
 73
    2
 44
1
  0
ENDBLK
  5
5B
330
59
100
AcDbEntity
  8
0
100
AcDbBlockEnd
  0
BLOCK
  5
5D
330
5C
100
AcDbEntity
  8
0
100
AcDbBlockBegin
  2
*D5
 70
    1
 10
0
 20
0
  3
*D5
  1

  0
LINE
  5
A7
100
AcDbEntity
  8
dimensions
  6
ByBlock
 62
    0
370
   -2
100
AcDbLine
 10
12.22075333892852
 20
-29.16676913090304
 11
30.07924469999347
 21
-13.13323283017485
  0
SOLID
  5
A8
100
AcDbEntity
  8
dimensions
  6
ByBlock
 62
    0
370
   -2
100
AcDbTrace
 10
12.22075333892852
 20
-29.16676913090304
 30
0
 11
14.43576994406
 21
-26.39488248911301
 31
0
 12
15.21446338077432
 22
-27.26220768498069
 32
0
 13
15.21446338077432
 23
-27.26220768498069
 33
0
  0
SOLID
  5
A9
100
AcDbEntity
  8
dimensions
  6
ByBlock
 62
    0
370
   -2
100
AcDbTrace
 10
30.07924469999347
 20
-13.13323283017485
 30
0
 11
27.864228094862
 21
-15.90511947196489
 31
0
 12
27.08553465814767
 22
-15.03779427609721
 32
0
 13
27.08553465814767
 23
-15.03779427609721
 33
0
  0
MTEXT
  5
AA
100
AcDbEntity
  8
dimensions
  6
CONTINUOUS
 62
    0
370
   -2
100
AcDbMText
 10
19.31282298500256
 20
-19.10371551208359
 30
0
 40
3.5
 41
4.666666666666667
 71
    5
 72
    1
  1
24
  7
STANDARD
210
0
220
0
230
1
 50
41.91781963952867
 73
    2
 44
1
  0
ENDBLK
  5
5E
330
5C
100
AcDbEntity
  8
0
100
AcDbBlockEnd
  0
BLOCK
  5
60
330
5F
100
AcDbEntity
  8
0
100
AcDbBlockBegin
  2
*D3
 70
    1
 10
0
 20
0
  3
*D3
  1

  0
LINE
  5
AB
100
AcDbEntity
  8
dimensions
  6
ByBlock
 62
    0
370
   -2
100
AcDbLine
 10
4.049999738059322
 20
-5.650000261940666
 11
4.049999738059322
 21
-10
  0
LINE
  5
AC
100
AcDbEntity
  8
dimensions
  6
ByBlock
 62
    0
370
   -2
100
AcDbLine
 10
7.249999738059323
 20
-5.650000261940666
 11
7.249999738059323
 21
-10
  0
LINE
  5
AD
100
AcDbEntity
  8
dimensions
  6
ByBlock
 62
    0
370
   -2
100
AcDbLine
 10
-2.950000261940678
 20
-7.999999999999999
 11
14.24999973805932
 21
-8
  0
SOLID
  5
AE
100
AcDbEntity
  8
dimensions
  6
ByBlock
 62
    0
370
   -2
100
AcDbTrace
 10
4.049999738059322
 20
-8
 30
0
 11
0.5499997380593218
 21
-8.582798520881976
 31
0
 12
0.5499997380593218
 22
-7.417201479118024
 32
0
 13
0.5499997380593218
 23
-7.417201479118024
 33
0
  0
SOLID
  5
AF
100
AcDbEntity
  8
dimensions
  6
ByBlock
 62
    0
370
   -2
100
AcDbTrace
 10
7.249999738059323
 20
-8
 30
0
 11
10.74999973805932
 21
-7.417201479118024
 31
0
 12
10.74999973805932
 22
-8.582798520881976
 32
0
 13
10.74999973805932
 23
-8.582798520881976
 33
0
  0
MTEXT
  5
B0
100
AcDbEntity
  8
dimensions
  6
CONTINUOUS
 62
    0
370
   -2
100
AcDbMText
 10
11.06944418250388
 20
-5.25
 30
0
 40
3.5
 41
5.638888888889106
 71
    5
 72
    1
  1
3,2
  7
STANDARD
210
0
220
0
230
1
 50
0
 73
    2
 44
1
  0
ENDBLK
  5
61
330
5F
100
AcDbEntity
  8
0
100
AcDbBlockEnd
  0
BLOCK
  5
63
330
62
100
AcDbEntity
  8
0
100
AcDbBlockBegin
  2
*D15
 70
    1
 10
0
 20
0
  3
*D15
  1

  0
LINE
  5
B1
100
AcDbEntity
  8
dimensions
  6
ByBlock
 62
    0
370
   -2
100
AcDbLine
 10
107.6999998609165
 20
-87.00000196107796
 11
101.9999999072777
 21
-87.00000222533667
  0
LINE
  5
B2
100
AcDbEntity
  8
dimensions
  6
ByBlock
 62
    0
370
   -2
100
AcDbLine
 10
107.7
 20
-90.00000196107796
 11
102.0000000463613
 21
-90.00000222533667
  0
LINE
  5
B3
100
AcDbEntity
  8
dimensions
  6
ByBlock
 62
    0
370
   -2
100
AcDbLine
 10
103.9999995827495
 20
-80.00000213261433
 11
104.0000003708895
 21
-97.0000021326143
  0
SOLID
  5
B4
100
AcDbEntity
  8
dimensions
  6
ByBlock
 62
    0
370
   -2
100
AcDbTrace
 10
103.9999999072777
 20
-87.00000213261431
 30
0
 11
103.4172012241316
 21
-83.50000215963354
 31
0
 12
104.5827982658956
 22
-83.50000210559509
 32
0
 13
104.5827982658956
 23
-83.50000210559509
 33
0
  0
SOLID
  5
B5
100
AcDbEntity
  8
dimensions
  6
ByBlock
 62
    0
370
   -2
100
AcDbTrace
 10
104.0000000463613
 20
-90.00000213261431
 30
0
 11
104.5827987295074
 21
-93.50000210559509
 31
0
 12
103.4172016877434
 22
-93.50000215963354
 32
0
 13
103.4172016877434
 23
-93.50000215963354
 33
0
  0
MTEXT
  5
B6
100
AcDbEntity
  8
dimensions
  6
CONTINUOUS
 62
    0
370
   -2
100
AcDbMText
 10
101.2499999768195
 20
-88.50000226010755
 30
0
 40
3.5
 41
1.555555555555773
 71
    5
 72
    1
  1
3
  7
STANDARD
210
0
220
0
230
1
 50
90.00000265629994
 73
    2
 44
1
  0
ENDBLK
  5
64
330
62
100
AcDbEntity
  8
0
100
AcDbBlockEnd
  0
BLOCK
  5
66
330
65
100
AcDbEntity
  8
0
100
AcDbBlockBegin
  2
*D1
 70
    1
 10
0
 20
0
  3
*D1
  1

  0
LINE
  5
B7
100
AcDbEntity
  8
dimensions
  6
ByBlock
 62
    0
370
   -2
100
AcDbLine
 10
0
 20
0
 11
5.563342815988094e-07
 21
12.00000231805902
  0
LINE
  5
B8
100
AcDbEntity
  8
dimensions
  6
ByBlock
 62
    0
370
   -2
100
AcDbLine
 10
48.29999999999994
 20
-2.239245034236892e-06
 11
48.30000055633422
 21
12.00000007881398
  0
LINE
  5
B9
100
AcDbEntity
  8
dimensions
  6
ByBlock
 62
    0
370
   -2
100
AcDbLine
 10
4.63611919243667e-07
 20
10.00000231805902
 11
48.30000046361186
 21
10.00000007881398
  0
SOLID
  5
BA
100
AcDbEntity
  8
dimensions
  6
ByBlock
 62
    0
370
   -2
100
AcDbTrace
 10
4.63611919243667e-07
 20
10.00000231805902
 30
0
 11
3.500000490631142
 21
10.58280067667686
 31
0
 12
3.500000436592687
 22
9.41720363491291
 32
0
 13
3.500000436592687
 23
9.41720363491291
 33
0
  0
SOLID
  5
BB
100
AcDbEntity
  8
dimensions
  6
ByBlock
 62
    0
370
   -2
100
AcDbTrace
 10
48.30000046361186
 20
10.00000007881398
 30
0
 11
44.80000043659263
 21
9.417201720196141
 31
0
 12
44.80000049063109
 22
10.58279876196009
 32
0
 13
44.80000049063109
 23
10.58279876196009
 33
0
  0
MTEXT
  5
BC
100
AcDbEntity
  8
dimensions
  6
CONTINUOUS
 62
    0
370
   -2
100
AcDbMText
 10
24.15000059110514
 20
12.7500011984365
 30
0
 40
3.5
 41
8.750000000000217
 71
    5
 72
    1
  1
48,3
  7
STANDARD
210
0
220
0
230
1
 50
359.9999973437
 73
    2
 44
1
  0
ENDBLK
  5
67
330
65
100
AcDbEntity
  8
0
100
AcDbBlockEnd
  0
BLOCK
  5
69
330
68
100
AcDbEntity
  8
0
100
AcDbBlockBegin
  2
*D9
 70
    1
 10
0
 20
0
  3
*D9
  1

  0
LINE
  5
BD
100
AcDbEntity
  8
positions
  6
ByBlock
 62
    0
370
   -2
100
AcDbLine
 10
5.65
 20
-36.65
 11
-6.000000000000002
 21
-36.65
  0
LINE
  5
BE
100
AcDbEntity
  8
positions
  6
ByBlock
 62
    0
370
   -2
100
AcDbLine
 10
5.65
 20
-42.3
 11
-6.000000000000002
 21
-42.3
  0
LINE
  5
BF
100
AcDbEntity
  8
positions
  6
ByBlock
 62
    0
370
   -2
100
AcDbLine
 10
-4.000000000000002
 20
-29.65
 11
-4.000000000000002
 21
-49.3
  0
SOLID
  5
C0
100
AcDbEntity
  8
positions
  6
ByBlock
 62
    0
370
   -2
100
AcDbTrace
 10
-4.000000000000002
 20
-36.65
 30
0
 11
-4.582798520881978
 21
-33.15
 31
0
 12
-3.417201479118025
 22
-33.15
 32
0
 13
-3.417201479118025
 23
-33.15
 33
0
  0
SOLID
  5
C1
100
AcDbEntity
  8
positions
  6
ByBlock
 62
    0
370
   -2
100
AcDbTrace
 10
-4.000000000000002
 20
-42.3
 30
0
 11
-3.417201479118025
 21
-45.8
 31
0
 12
-4.582798520881979
 22
-45.8
 32
0
 13
-4.582798520881979
 23
-45.8
 33
0
  0
MTEXT
  5
C2
100
AcDbEntity
  8
positions
  6
CONTINUOUS
 62
    0
370
   -2
100
AcDbMText
 10
-6.750000000000001
 20
-31.46944444444411
 30
0
 40
3.5
 41
8.361111111111761
 71
    5
 72
    1
  1
5,65
  7
STANDARD
210
0
220
0
230
1
 50
90
 73
    2
 44
1
  0
ENDBLK
  5
6A
330
68
100
AcDbEntity
  8
0
100
AcDbBlockEnd
  0
BLOCK
  5
6C
330
6B
100
AcDbEntity
  8
0
100
AcDbBlockBegin
  2
*D12
 70
    1
 10
0
 20
0
  3
*D12
  1

  0
LINE
  5
C3
100
AcDbEntity
  8
dimensions
  6
ByBlock
 62
    0
370
   -2
100
AcDbLine
 10
150
 20
-124
 11
157.0000001353245
 21
-123.9999999736869
  0
LINE
  5
C4
100
AcDbEntity
  8
dimensions
  6
ByBlock
 62
    0
370
   -2
100
AcDbLine
 10
149.9999998609165
 20
-87
 11
156.999999996241
 21
-86.9999999736869
  0
LINE
  5
C5
100
AcDbEntity
  8
dimensions
  6
ByBlock
 62
    0
370
   -2
100
AcDbLine
 10
155.0000001353245
 20
-123.9999999812049
 11
154.999999996241
 21
-86.99999998120492
  0
SOLID
  5
C6
100
AcDbEntity
  8
dimensions
  6
ByBlock
 62
    0
370
   -2
100
AcDbTrace
 10
155.0000001353245
 20
-123.9999999812049
 30
0
 11
154.417201601286
 21
-120.4999999833957
 31
0
 12
155.5827986430499
 22
-120.4999999790142
 32
0
 13
155.5827986430499
 23
-120.4999999790142
 33
0
  0
SOLID
  5
C7
100
AcDbEntity
  8
dimensions
  6
ByBlock
 62
    0
370
   -2
100
AcDbTrace
 10
154.999999996241
 20
-86.99999998120492
 30
0
 11
155.5827985302795
 21
-90.49999997901418
 31
0
 12
154.4172014885156
 22
-90.49999998339567
 32
0
 13
154.4172014885156
 23
-90.49999998339567
 33
0
  0
MTEXT
  5
C8
100
AcDbEntity
  8
dimensions
  6
CONTINUOUS
 62
    0
370
   -2
100
AcDbMText
 10
157.7500000657827
 20
-105.4999999708676
 30
0
 40
3.5
 41
4.277777777777995
 71
    5
 72
    1
  1
37
  7
STANDARD
210
0
220
0
230
1
 50
270.0000002153757
 73
    2
 44
1
  0
ENDBLK
  5
6D
330
6B
100
AcDbEntity
  8
0
100
AcDbBlockEnd
  0
BLOCK
  5
6F
330
6E
100
AcDbEntity
  8
0
100
AcDbBlockBegin
  2
*D7
 70
    1
 10
0
 20
0
  3
*D7
  1

  0
LINE
  5
C9
100
AcDbEntity
  8
positions
  6
ByBlock
 62
    0
370
   -2
100
AcDbLine
 10
36.75
 20
-36.65
 11
36.75
 21
-31
  0
LINE
  5
CA
100
AcDbEntity
  8
positions
  6
ByBlock
 62
    0
370
   -2
100
AcDbLine
 10
48.3
 20
-36.65
 11
48.3
 21
-31
  0
LINE
  5
CB
100
AcDbEntity
  8
positions
  6
ByBlock
 62
    0
370
   -2
100
AcDbLine
 10
36.75
 20
-33
 11
48.3
 21
-33
  0
SOLID
  5
CC
100
AcDbEntity
  8
positions
  6
ByBlock
 62
    0
370
   -2
100
AcDbTrace
 10
36.75
 20
-33
 30
0
 11
40.25
 21
-32.41720147911802
 31
0
 12
40.25
 22
-33.58279852088198
 32
0
 13
40.25
 23
-33.58279852088198
 33
0
  0
SOLID
  5
CD
100
AcDbEntity
  8
positions
  6
ByBlock
 62
    0
370
   -2
100
AcDbTrace
 10
48.3
 20
-33
 30
0
 11
44.8
 21
-33.58279852088198
 31
0
 12
44.8
 22
-32.41720147911802
 32
0
 13
44.8
 23
-32.41720147911802
 33
0
  0
MTEXT
  5
CE
100
AcDbEntity
  8
positions
  6
CONTINUOUS
 62
    0
370
   -2
100
AcDbMText
 10
42.525
 20
-30.25
 30
0
 40
3.5
 41
9.527777777778212
 71
    5
 72
    1
  1
11,55
  7
STANDARD
210
0
220
0
230
1
 50
0
 73
    2
 44
1
  0
ENDBLK
  5
70
330
6E
100
AcDbEntity
  8
0
100
AcDbBlockEnd
  0
BLOCK
  5
72
330
71
100
AcDbEntity
  8
0
100
AcDbBlockBegin
  2
*D16
 70
    1
 10
0
 20
0
  3
*D16
  1

  0
LINE
  5
CF
100
AcDbEntity
  8
positions
  6
ByBlock
 62
    0
370
   -2
100
AcDbLine
 10
119.8
 20
-98
 11
119.8
 21
-82
  0
LINE
  5
D0
100
AcDbEntity
  8
positions
  6
ByBlock
 62
    0
370
   -2
100
AcDbLine
 10
107.7
 20
-98
 11
107.7
 21
-82
  0
LINE
  5
D1
100
AcDbEntity
  8
positions
  6
ByBlock
 62
    0
370
   -2
100
AcDbLine
 10
119.8
 20
-84
 11
107.7
 21
-84
  0
SOLID
  5
D2
100
AcDbEntity
  8
positions
  6
ByBlock
 62
    0
370
   -2
100
AcDbTrace
 10
119.8
 20
-84
 30
0
 11
116.3
 21
-84.58279852088198
 31
0
 12
116.3
 22
-83.41720147911802
 32
0
 13
116.3
 23
-83.41720147911802
 33
0
  0
SOLID
  5
D3
100
AcDbEntity
  8
positions
  6
ByBlock
 62
    0
370
   -2
100
AcDbTrace
 10
107.7
 20
-84
 30
0
 11
111.2
 21
-83.41720147911802
 31
0
 12
111.2
 22
-84.58279852088198
 32
0
 13
111.2
 23
-84.58279852088198
 33
0
  0
MTEXT
  5
D4
100
AcDbEntity
  8
positions
  6
CONTINUOUS
 62
    0
370
   -2
100
AcDbMText
 10
113.75
 20
-81.25
 30
0
 40
3.5
 41
6.805555555555555
 71
    5
 72
    1
  1
12,1
  7
STANDARD
210
0
220
0
230
1
 50
360
 73
    2
 44
1
  0
ENDBLK
  5
73
330
71
100
AcDbEntity
  8
0
100
AcDbBlockEnd
  0
BLOCK
  5
75
330
74
100
AcDbEntity
  8
0
100
AcDbBlockBegin
  2
*D4
 70
    1
 10
0
 20
0
  3
*D4
  1

  0
LINE
  5
D5
100
AcDbEntity
  8
dimensions
  6
ByBlock
 62
    0
370
   -2
100
AcDbLine
 10
35.04999973805928
 20
-5.650001699137271
 11
35.04999973805928
 21
-10
  0
LINE
  5
D6
100
AcDbEntity
  8
dimensions
  6
ByBlock
 62
    0
370
   -2
100
AcDbLine
 10
38.24999973805929
 20
-5.650001699137271
 11
38.24999973805929
 21
-10
  0
LINE
  5
D7
100
AcDbEntity
  8
dimensions
  6
ByBlock
 62
    0
370
   -2
100
AcDbLine
 10
28.04999973805928
 20
-7.999999999999999
 11
45.24999973805929
 21
-8
  0
SOLID
  5
D8
100
AcDbEntity
  8
dimensions
  6
ByBlock
 62
    0
370
   -2
100
AcDbTrace
 10
35.04999973805928
 20
-8
 30
0
 11
31.54999973805928
 21
-8.582798520881976
 31
0
 12
31.54999973805928
 22
-7.417201479118024
 32
0
 13
31.54999973805928
 23
-7.417201479118024
 33
0
  0
SOLID
  5
D9
100
AcDbEntity
  8
dimensions
  6
ByBlock
 62
    0
370
   -2
100
AcDbTrace
 10
38.24999973805929
 20
-8
 30
0
 11
41.74999973805929
 21
-7.417201479118024
 31
0
 12
41.74999973805929
 22
-8.582798520881976
 32
0
 13
41.74999973805929
 23
-8.582798520881976
 33
0
  0
MTEXT
  5
DA
100
AcDbEntity
  8
dimensions
  6
CONTINUOUS
 62
    0
370
   -2
100
AcDbMText
 10
42.06944418250384
 20
-5.25
 30
0
 40
3.5
 41
5.638888888889106
 71
    5
 72
    1
  1
3,2
  7
STANDARD
210
0
220
0
230
1
 50
0
 73
    2
 44
1
  0
ENDBLK
  5
76
330
74
100
AcDbEntity
  8
0
100
AcDbBlockEnd
  0
BLOCK
  5
78
330
77
100
AcDbEntity
  8
0
100
AcDbBlockBegin
  2
*D2
 70
    1
 10
0
 20
0
  3
*D2
  1

  0
LINE
  5
DB
100
AcDbEntity
  8
dimensions
  6
ByBlock
 62
    0
370
   -2
100
AcDbLine
 10
-1.96107794923852e-06
 20
-42.29999999999995
 11
-12.00000196107792
 21
-42.29999944366578
  0
LINE
  5
DC
100
AcDbEntity
  8
dimensions
  6
ByBlock
 62
    0
370
   -2
100
AcDbLine
 10
0
 20
0
 11
-11.99999999999998
 21
5.563341695365718e-07
  0
LINE
  5
DD
100
AcDbEntity
  8
dimensions
  6
ByBlock
 62
    0
370
   -2
100
AcDbLine
 10
-10.00000196107793
 20
-42.29999953638814
 11
-9.999999999999977
 21
4.636118079471431e-07
  0
SOLID
  5
DE
100
AcDbEntity
  8
dimensions
  6
ByBlock
 62
    0
370
   -2
100
AcDbTrace
 10
-10.00000196107793
 20
-42.29999953638814
 30
0
 11
-10.58280031969577
 21
-38.79999950936892
 31
0
 12
-9.417203277931817
 22
-38.79999956340738
 32
0
 13
-9.417203277931817
 23
-38.79999956340738
 33
0
  0
SOLID
  5
DF
100
AcDbEntity
  8
dimensions
  6
ByBlock
 62
    0
370
   -2
100
AcDbTrace
 10
-9.999999999999977
 20
4.636118079471431e-07
 30
0
 11
-9.417201641382134
 21
-3.499999563407415
 31
0
 12
-10.58279868314609
 22
-3.499999509368961
 32
0
 13
-10.58279868314609
 23
-3.499999509368961
 33
0
  0
MTEXT
  5
E0
100
AcDbEntity
  8
dimensions
  6
CONTINUOUS
 62
    0
370
   -2
100
AcDbMText
 10
-12.75000098053895
 20
-21.14999940889492
 30
0
 40
3.5
 41
8.750000000000217
 71
    5
 72
    1
  1
42,3
  7
STANDARD
210
0
220
0
230
1
 50
89.99999734370002
 73
    2
 44
1
  0
ENDBLK
  5
79
330
77
100
AcDbEntity
  8
0
100
AcDbBlockEnd
  0
BLOCK
  5
7B
330
7A
100
AcDbEntity
  8
0
100
AcDbBlockBegin
  2
*D6
 70
    1
 10
0
 20
0
  3
*D6
  1

  0
LINE
  5
E1
100
AcDbEntity
  8
positions
  6
ByBlock
 62
    0
370
   -2
100
AcDbLine
 10
21.15
 20
-21.15
 11
21.15
 21
-52
  0
LINE
  5
E2
100
AcDbEntity
  8
positions
  6
ByBlock
 62
    0
370
   -2
100
AcDbLine
 10
48.3
 20
-21.15
 11
48.3
 21
-52
  0
LINE
  5
E3
100
AcDbEntity
  8
positions
  6
ByBlock
 62
    0
370
   -2
100
AcDbLine
 10
21.15
 20
-50
 11
48.3
 21
-50
  0
SOLID
  5
E4
100
AcDbEntity
  8
positions
  6
ByBlock
 62
    0
370
   -2
100
AcDbTrace
 10
21.15
 20
-50
 30
0
 11
24.65
 21
-49.41720147911802
 31
0
 12
24.65
 22
-50.58279852088198
 32
0
 13
24.65
 23
-50.58279852088198
 33
0
  0
SOLID
  5
E5
100
AcDbEntity
  8
positions
  6
ByBlock
 62
    0
370
   -2
100
AcDbTrace
 10
48.3
 20
-50
 30
0
 11
44.8
 21
-50.58279852088198
 31
0
 12
44.8
 22
-49.41720147911802
 32
0
 13
44.8
 23
-49.41720147911802
 33
0
  0
MTEXT
  5
E6
100
AcDbEntity
  8
positions
  6
CONTINUOUS
 62
    0
370
   -2
100
AcDbMText
 10
34.72499999999999
 20
-47.25
 30
0
 40
3.5
 41
10.30555555555577
 71
    5
 72
    1
  1
27,15
  7
STANDARD
210
0
220
0
230
1
 50
0
 73
    2
 44
1
  0
ENDBLK
  5
7C
330
7A
100
AcDbEntity
  8
0
100
AcDbBlockEnd
  0
BLOCK
  5
7E
330
7D
100
AcDbEntity
  8
0
100
AcDbBlockBegin
  2
*D11
 70
    1
 10
0
 20
0
  3
*D11
  1

  0
LINE
  5
E7
100
AcDbEntity
  8
dimensions
  6
ByBlock
 62
    0
370
   -2
100
AcDbLine
 10
107.7000015762802
 20
-124.0000019610779
 11
107.7000032452828
 21
-142.0000020677085
  0
LINE
  5
E8
100
AcDbEntity
  8
dimensions
  6
ByBlock
 62
    0
370
   -2
100
AcDbLine
 10
128.85
 20
-124
 11
128.8500016690026
 21
-142.0000001066306
  0
LINE
  5
E9
100
AcDbEntity
  8
dimensions
  6
ByBlock
 62
    0
370
   -2
100
AcDbLine
 10
107.7000030598381
 20
-140.0000020677085
 11
128.8500014835579
 21
-140.0000001066306
  0
SOLID
  5
EA
100
AcDbEntity
  8
dimensions
  6
ByBlock
 62
    0
370
   -2
100
AcDbTrace
 10
107.7000030598381
 20
-140.0000020677085
 30
0
 11
111.2000030057996
 21
-139.4172032222982
 31
0
 12
111.2000031138765
 22
-140.5828002640622
 32
0
 13
111.2000031138765
 23
-140.5828002640622
 33
0
  0
SOLID
  5
EB
100
AcDbEntity
  8
dimensions
  6
ByBlock
 62
    0
370
   -2
100
AcDbTrace
 10
128.8500014835579
 20
-140.0000001066306
 30
0
 11
125.3500015375963
 21
-140.5827989520408
 31
0
 12
125.3500014295194
 22
-139.4172019102769
 32
0
 13
125.3500014295194
 23
-139.4172019102769
 33
0
  0
MTEXT
  5
EC
100
AcDbEntity
  8
dimensions
  6
CONTINUOUS
 62
    0
370
   -2
100
AcDbMText
 10
118.2750020167115
 20
-137.2500010871695
 30
0
 40
3.5
 41
9.527777777777995
 71
    5
 72
    1
  1
21,15
  7
STANDARD
210
0
220
0
230
1
 50
5.312600200526722e-06
 73
    2
 44
1
  0
ENDBLK
  5
7F
330
7D
100
AcDbEntity
  8
0
100
AcDbBlockEnd
  0
BLOCK
  5
81
330
80
100
AcDbEntity
  8
0
100
AcDbBlockBegin
  2
*D18
 70
    1
 10
0
 20
0
  3
*D18
  1

  0
LINE
  5
ED
100
AcDbEntity
  8
positions
  6
ByBlock
 62
    0
370
   -2
100
AcDbLine
 10
119.8
 20
-116
 11
127
 21
-116
  0
LINE
  5
EE
100
AcDbEntity
  8
positions
  6
ByBlock
 62
    0
370
   -2
100
AcDbLine
 10
119.8
 20
-124
 11
127
 21
-124
  0
LINE
  5
EF
100
AcDbEntity
  8
positions
  6
ByBlock
 62
    0
370
   -2
100
AcDbLine
 10
125
 20
-109
 11
125
 21
-131
  0
SOLID
  5
F0
100
AcDbEntity
  8
positions
  6
ByBlock
 62
    0
370
   -2
100
AcDbTrace
 10
125
 20
-116
 30
0
 11
124.417201479118
 21
-112.5
 31
0
 12
125.582798520882
 22
-112.5
 32
0
 13
125.582798520882
 23
-112.5
 33
0
  0
SOLID
  5
F1
100
AcDbEntity
  8
positions
  6
ByBlock
 62
    0
370
   -2
100
AcDbTrace
 10
125
 20
-124
 30
0
 11
125.582798520882
 21
-127.5
 31
0
 12
124.417201479118
 22
-127.5
 32
0
 13
124.417201479118
 23
-127.5
 33
0
  0
MTEXT
  5
F2
100
AcDbEntity
  8
positions
  6
CONTINUOUS
 62
    0
370
   -2
100
AcDbMText
 10
122.25
 20
-120
 30
0
 40
3.5
 41
1.555555555555556
 71
    5
 72
    1
  1
8
  7
STANDARD
210
0
220
0
230
1
 50
90
 73
    2
 44
1
  0
ENDBLK
  5
82
330
80
100
AcDbEntity
  8
0
100
AcDbBlockEnd
  0
BLOCK
  5
84
330
83
100
AcDbEntity
  8
0
100
AcDbBlockBegin
  2
*D10
 70
    1
 10
0
 20
0
  3
*D10
  1

  0
LINE
  5
F3
100
AcDbEntity
  8
dimensions
  6
ByBlock
 62
    0
370
   -2
100
AcDbLine
 10
107.7000015762802
 20
-124.0000019610779
 11
107.700002039892
 21
-134.0000018683555
  0
LINE
  5
F4
100
AcDbEntity
  8
dimensions
  6
ByBlock
 62
    0
370
   -2
100
AcDbLine
 10
150
 20
-124
 11
150.0000004636118
 21
-133.9999999072776
  0
LINE
  5
F5
100
AcDbEntity
  8
dimensions
  6
ByBlock
 62
    0
370
   -2
100
AcDbLine
 10
107.7000019471696
 20
-132.0000018683555
 11
150.0000003708894
 21
-131.9999999072776
  0
SOLID
  5
F6
100
AcDbEntity
  8
dimensions
  6
ByBlock
 62
    0
370
   -2
100
AcDbTrace
 10
107.7000019471696
 20
-132.0000018683555
 30
0
 11
111.2000019201504
 21
-131.4172031852094
 31
0
 12
111.2000019741889
 22
-132.5828002269734
 32
0
 13
111.2000019741889
 23
-132.5828002269734
 33
0
  0
SOLID
  5
F7
100
AcDbEntity
  8
dimensions
  6
ByBlock
 62
    0
370
   -2
100
AcDbTrace
 10
150.0000003708894
 20
-131.9999999072776
 30
0
 11
146.5000003979087
 21
-132.5827985904237
 31
0
 12
146.5000003438702
 22
-131.4172015486598
 32
0
 13
146.5000003438702
 23
-131.4172015486598
 33
0
  0
MTEXT
  5
F8
100
AcDbEntity
  8
dimensions
  6
CONTINUOUS
 62
    0
370
   -2
100
AcDbMText
 10
128.8500010315363
 20
-129.2500008878166
 30
0
 40
3.5
 41
8.750000000000217
 71
    5
 72
    1
  1
42,3
  7
STANDARD
210
0
220
0
230
1
 50
2.656300036652267e-06
 73
    2
 44
1
  0
ENDBLK
  5
85
330
83
100
AcDbEntity
  8
0
100
AcDbBlockEnd
  0
BLOCK
  5
87
330
86
100
AcDbEntity
  8
0
100
AcDbBlockBegin
  2
Ortho1
 70
    0
 10
0
 20
0
  3
Ortho1
  1

  0
LINE
  5
F9
100
AcDbEntity
  8
0
  6
ByBlock
 62
    0
370
   -1
100
AcDbLine
 10
0
 20
0
 11
3
 21
0
  0
LINE
  5
FA
100
AcDbEntity
  8
0
  6
ByBlock
 62
    0
370
   -1
100
AcDbLine
 10
0
 20
0
 11
0
 21
-45.3
  0
LINE
  5
FB
100
AcDbEntity
  8
0
  6
ByBlock
 62
    0
370
   -1
100
AcDbLine
 10
3
 20
0
 11
3
 21
-48.3
  0
LINE
  5
FC
100
AcDbEntity
  8
0
  6
ByBlock
 62
    0
370
   -1
100
AcDbLine
 10
0
 20
-48.3
 11
0
 21
-45.3
  0
LINE
  5
FD
100
AcDbEntity
  8
0
  6
ByBlock
 62
    0
370
   -1
100
AcDbLine
 10
0
 20
-48.3
 11
3
 21
-48.3
  0
LINE
  5
FE
100
AcDbEntity
  8
0
  6
ByBlock
 62
    0
370
   -1
100
AcDbLine
 10
0
 20
-48.3
 11
-34
 21
-48.3
  0
LINE
  5
FF
100
AcDbEntity
  8
0
  6
ByBlock
 62
    0
370
   -1
100
AcDbLine
 10
-34
 20
-48.3
 11
-34
 21
-45.3
  0
LINE
  5
100
100
AcDbEntity
  8
0
  6
ByBlock
 62
    0
370
   -1
100
AcDbLine
 10
0
 20
-45.3
 11
-34
 21
-45.3
  0
SPLINE
  5
101
100
AcDbEntity
  8
0
  6
ByBlock
 62
    0
370
   -1
100
AcDbSpline
210
0
220
0
230
0
 70
    8
 71
    1
 72
   17
 73
   15
 74
    0
 42
1e-07
 43
1e-07
 40
0
 40
0
 40
0.07142857142857142
 40
0.1428571428571428
 40
0.2142857142857143
 40
0.2857142857142857
 40
0.3571428571428571
 40
0.4285714285714285
 40
0.5
 40
0.5714285714285714
 40
0.6428571428571428
 40
0.7142857142857142
 40
0.7857142857142857
 40
0.8571428571428571
 40
0.9285714285714285
 40
1
 40
1
 10
-24.5
 20
-45.3
 30
0
 10
-24.5376
 20
-45.3
 30
0
 10
-24.6485
 20
-45.3
 30
0
 10
-24.8273
 20
-45.3
 30
0
 10
-25.0648
 20
-45.3
 30
0
 10
-25.3492
 20
-45.3
 30
0
 10
-25.6662
 20
-45.3
 30
0
 10
-26
 20
-45.3
 30
0
 10
-26.3338
 20
-45.3
 30
0
 10
-26.6508
 20
-45.3
 30
0
 10
-26.9352
 20
-45.3
 30
0
 10
-27.1727
 20
-45.3
 30
0
 10
-27.3515
 20
-45.3
 30
0
 10
-27.4624
 20
-45.3
 30
0
 10
-27.5
 20
-45.3
 30
0
  0
SPLINE
  5
102
100
AcDbEntity
  8
0
  6
ByBlock
 62
    0
370
   -1
100
AcDbSpline
210
0
220
0
230
0
 70
    8
 71
    1
 72
   17
 73
   15
 74
    0
 42
1e-07
 43
1e-07
 40
0
 40
0
 40
0.07142857142857142
 40
0.1428571428571428
 40
0.2142857142857143
 40
0.2857142857142857
 40
0.3571428571428571
 40
0.4285714285714285
 40
0.5
 40
0.5714285714285714
 40
0.6428571428571428
 40
0.7142857142857142
 40
0.7857142857142857
 40
0.8571428571428571
 40
0.9285714285714285
 40
1
 40
1
 10
-6.5
 20
-45.3
 30
0
 10
-6.53761
 20
-45.3
 30
0
 10
-6.64855
 20
-45.3
 30
0
 10
-6.82725
 20
-45.3
 30
0
 10
-7.06477
 20
-45.3
 30
0
 10
-7.34917
 20
-45.3
 30
0
 10
-7.66622
 20
-45.3
 30
0
 10
-8
 20
-45.3
 30
0
 10
-8.333780000000001
 20
-45.3
 30
0
 10
-8.650829999999999
 20
-45.3
 30
0
 10
-8.935230000000001
 20
-45.3
 30
0
 10
-9.172750000000001
 20
-45.3
 30
0
 10
-9.35145
 20
-45.3
 30
0
 10
-9.462389999999999
 20
-45.3
 30
0
 10
-9.5
 20
-45.3
 30
0
  0
ENDBLK
  5
88
330
86
100
AcDbEntity
  8
0
100
AcDbBlockEnd
  0
BLOCK
  5
8A
330
89
100
AcDbEntity
  8
0
100
AcDbBlockBegin
  2
Ortho0011
 70
    0
 10
0
 20
0
  3
Ortho0011
  1

  0
LINE
  5
103
100
AcDbEntity
  8
0
  6
ByBlock
 62
    0
370
   -1
100
AcDbLine
 10
0
 20
0
 11
42.3
 21
0
  0
LINE
  5
104
100
AcDbEntity
  8
0
  6
ByBlock
 62
    0
370
   -1
100
AcDbLine
 10
0
 20
48.3
 11
0
 21
0
  0
LINE
  5
105
100
AcDbEntity
  8
0
  6
ByBlock
 62
    0
370
   -1
100
AcDbLine
 10
42.3
 20
0
 11
42.3
 21
48.3
  0
LINE
  5
106
100
AcDbEntity
  8
0
  6
ByBlock
 62
    0
370
   -1
100
AcDbLine
 10
42.3
 20
48.3
 11
0
 21
48.3
  0
CIRCLE
  5
107
100
AcDbEntity
  8
0
  6
ByBlock
 62
    0
370
   -1
100
AcDbCircle
 10
21.15
 20
21.15
 40
12
  0
CIRCLE
  5
108
100
AcDbEntity
  8
0
  6
ByBlock
 62
    0
370
   -1
100
AcDbCircle
 10
36.65
 20
36.65
 40
1.6
  0
CIRCLE
  5
109
100
AcDbEntity
  8
0
  6
ByBlock
 62
    0
370
   -1
100
AcDbCircle
 10
36.65
 20
5.65
 40
1.6
  0
CIRCLE
  5
10A
100
AcDbEntity
  8
0
  6
ByBlock
 62
    0
370
   -1
100
AcDbCircle
 10
5.65
 20
36.65
 40
1.6
  0
CIRCLE
  5
10B
100
AcDbEntity
  8
0
  6
ByBlock
 62
    0
370
   -1
100
AcDbCircle
 10
5.65
 20
5.65
 40
1.6
  0
ENDBLK
  5
8B
330
89
100
AcDbEntity
  8
0
100
AcDbBlockEnd
  0
BLOCK
  5
8D
330
8C
100
AcDbEntity
  8
0
100
AcDbBlockBegin
  2
Ortho0031
 70
    0
 10
0
 20
0
  3
Ortho0031
  1

  0
LINE
  5
10C
100
AcDbEntity
  8
0
  6
ByBlock
 62
    0
370
   -1
100
AcDbLine
 10
0
 20
0
 11
3
 21
0
  0
LINE
  5
10D
100
AcDbEntity
  8
0
  6
ByBlock
 62
    0
370
   -1
100
AcDbLine
 10
0
 20
42.3
 11
3
 21
42.3
  0
LINE
  5
10E
100
AcDbEntity
  8
0
  6
ByBlock
 62
    0
370
   -1
100
AcDbLine
 10
3
 20
42.3
 11
3
 21
0
  0
LINE
  5
10F
100
AcDbEntity
  8
0
  6
ByBlock
 62
    0
370
   -1
100
AcDbLine
 10
0
 20
0
 11
0
 21
42.3
  0
LINE
  5
110
100
AcDbEntity
  8
0
  6
ByBlock
 62
    0
370
   -1
100
AcDbLine
 10
0
 20
0
 11
-34
 21
0
  0
LINE
  5
111
100
AcDbEntity
  8
0
  6
ByBlock
 62
    0
370
   -1
100
AcDbLine
 10
0
 20
42.3
 11
-34
 21
42.3
  0
LINE
  5
112
100
AcDbEntity
  8
0
  6
ByBlock
 62
    0
370
   -1
100
AcDbLine
 10
-34
 20
0
 11
-34
 21
42.3
  0
CIRCLE
  5
113
100
AcDbEntity
  8
0
  6
ByBlock
 62
    0
370
   -1
100
AcDbCircle
 10
-26
 20
30.2
 40
1.5
  0
CIRCLE
  5
114
100
AcDbEntity
  8
0
  6
ByBlock
 62
    0
370
   -1
100
AcDbCircle
 10
-26
 20
12.1
 40
1.5
  0
CIRCLE
  5
115
100
AcDbEntity
  8
0
  6
ByBlock
 62
    0
370
   -1
100
AcDbCircle
 10
-8
 20
30.2
 40
1.5
  0
CIRCLE
  5
116
100
AcDbEntity
  8
0
  6
ByBlock
 62
    0
370
   -1
100
AcDbCircle
 10
-8
 20
12.1
 40
1.5
  0
ENDBLK
  5
8E
330
8C
100
AcDbEntity
  8
0
100
AcDbBlockEnd
  0
ENDSEC
  0
SECTION
  2
ENTITIES
  0
INSERT
  5
117
100
AcDbEntity
  8
0
  6
ByLayer
 62
  256
370
   -1
100
AcDbBlockReference
  2
Ortho0011
 10
0
 20
0
 30
0
 41
1
 42
1
 43
0
 50
-90.0000026563
 70
    1
 71
    1
 44
0
 45
0
  0
INSERT
  5
118
100
AcDbEntity
  8
0
  6
ByLayer
 62
  256
370
   -1
100
AcDbBlockReference
  2
Ortho1
 10
0
 20
-90
 30
0
 41
1
 42
1
 43
0
 50
90.0000026563
 70
    1
 71
    1
 44
0
 45
0
  0
INSERT
  5
119
100
AcDbEntity
  8
0
  6
ByLayer
 62
  256
370
   -1
100
AcDbBlockReference
  2
Ortho0031
 10
150
 20
-90
 30
0
 41
1
 42
1
 43
0
 50
90.0000026563
 70
    1
 71
    1
 44
0
 45
0
  0
LINE
  5
11A
100
AcDbEntity
  8
symetrie
  6
ByLayer
 62
  256
370
   -1
100
AcDbLine
 10
9.149999019460999
 20
-21.15000098053895
 11
33.149999019461
 21
-21.15000098053895
  0
DIMENSION
  5
11B
100
AcDbEntity
  8
dimensions
  6
ByLayer
 62
  256
370
   -1
100
AcDbDimension
  2
*D1
 10
48.30000046361186
 20
10.00000007881398
 30
0
 11
24.15000059110514
 21
12.7500011984365
 31
0
 70
   33
 71
    5
  3
Standard
 53
0
210
0
220
0
230
1
100
AcDbAlignedDimension
 13
0
 23
0
 33
0
 14
48.29999999999994
 24
-2.239245034236892e-06
 34
0
  0
DIMENSION
  5
11C
100
AcDbEntity
  8
dimensions
  6
ByLayer
 62
  256
370
   -1
100
AcDbDimension
  2
*D2
 10
-9.999999999999977
 20
4.636118079471432e-07
 30
0
 11
-12.75000098053895
 21
-21.14999940889492
 31
0
 70
   33
 71
    5
  3
Standard
 53
0
210
0
220
0
230
1
100
AcDbAlignedDimension
 13
-1.96107794923852e-06
 23
-42.29999999999995
 33
0
 14
0
 24
0
 34
0
  0
DIMENSION
  5
11D
100
AcDbEntity
  8
dimensions
  6
ByLayer
 62
  256
370
   -1
100
AcDbDimension
  2
*D3
 10
7.249999738059323
 20
-8
 30
0
 11
5.649999738059322
 21
-5.25
 31
0
 70
   33
 71
    5
  3
Standard
 53
0
210
0
220
0
230
1
100
AcDbAlignedDimension
 13
4.049999738059322
 23
-5.650000261940666
 33
0
 14
7.249999738059323
 24
-5.650000261940666
 34
0
  0
DIMENSION
  5
11E
100
AcDbEntity
  8
dimensions
  6
ByLayer
 62
  256
370
   -1
100
AcDbDimension
  2
*D4
 10
38.24999973805929
 20
-8
 30
0
 11
36.64999973805929
 21
-5.25
 31
0
 70
   33
 71
    5
  3
Standard
 53
0
210
0
220
0
230
1
100
AcDbAlignedDimension
 13
35.04999973805928
 23
-5.650001699137271
 33
0
 14
38.24999973805929
 24
-5.650001699137271
 34
0
  0
DIMENSION
  5
11F
100
AcDbEntity
  8
dimensions
  6
ByLayer
 62
  256
370
   -1
100
AcDbDimension
  2
*D5
 10
12.22075333892852
 20
-29.16676913090304
 30
0
 11
19.31282298500256
 21
-19.10371551208359
 31
0
 70
   35
 71
    5
  3
Standard
 53
0
210
0
220
0
230
1
100
AcDbDiametricDimension
 15
30.07924469999347
 25
-13.13323283017485
 35
0
 40
0
  0
DIMENSION
  5
120
100
AcDbEntity
  8
positions
  6
ByLayer
 62
  256
370
   -1
100
AcDbDimension
  2
*D6
 10
48.3
 20
-50
 30
0
 11
34.72499999999999
 21
-47.25
 31
0
 70
   33
 71
    5
  3
Standard
 53
0
210
0
220
0
230
1
100
AcDbAlignedDimension
 13
21.15
 23
-21.15
 33
0
 14
48.3
 24
-21.15
 34
0
  0
DIMENSION
  5
121
100
AcDbEntity
  8
positions
  6
ByLayer
 62
  256
370
   -1
100
AcDbDimension
  2
*D7
 10
48.3
 20
-33
 30
0
 11
42.525
 21
-30.25
 31
0
 70
   33
 71
    5
  3
Standard
 53
0
210
0
220
0
230
1
100
AcDbAlignedDimension
 13
36.75
 23
-36.65
 33
0
 14
48.3
 24
-36.65
 34
0
  0
DIMENSION
  5
122
100
AcDbEntity
  8
positions
  6
ByLayer
 62
  256
370
   -1
100
AcDbDimension
  2
*D8
 10
-2.469702450052343e-15
 20
-50
 30
0
 11
2.824999999999998
 21
-47.25
 31
0
 70
   33
 71
    5
  3
Standard
 53
0
210
0
220
0
230
1
100
AcDbAlignedDimension
 13
5.65
 23
-36.65
 33
0
 14
-1.734723475976807e-17
 24
-36.65
 34
0
  0
DIMENSION
  5
123
100
AcDbEntity
  8
positions
  6
ByLayer
 62
  256
370
   -1
100
AcDbDimension
  2
*D9
 10
-4.000000000000002
 20
-42.3
 30
0
 11
-6.750000000000002
 21
-39.47499999999999
 31
0
 70
   33
 71
    5
  3
Standard
 53
0
210
0
220
0
230
1
100
AcDbAlignedDimension
 13
5.65
 23
-36.65
 33
0
 14
5.65
 24
-42.3
 34
0
  0
DIMENSION
  5
124
100
AcDbEntity
  8
dimensions
  6
ByLayer
 62
  256
370
   -1
100
AcDbDimension
  2
*D10
 10
150.0000003708894
 20
-131.9999999072776
 30
0
 11
128.8500010315363
 21
-129.2500008878166
 31
0
 70
   33
 71
    5
  3
Standard
 53
0
210
0
220
0
230
1
100
AcDbAlignedDimension
 13
107.7000015762802
 23
-124.0000019610779
 33
0
 14
150
 24
-124
 34
0
  0
DIMENSION
  5
125
100
AcDbEntity
  8
dimensions
  6
ByLayer
 62
  256
370
   -1
100
AcDbDimension
  2
*D11
 10
128.8500014835579
 20
-140.0000001066306
 30
0
 11
118.2750020167115
 21
-137.2500010871695
 31
0
 70
   33
 71
    5
  3
Standard
 53
0
210
0
220
0
230
1
100
AcDbAlignedDimension
 13
107.7000015762802
 23
-124.0000019610779
 33
0
 14
128.85
 24
-124
 34
0
  0
LINE
  5
126
100
AcDbEntity
  8
symetrie
  6
ByLayer
 62
  256
370
   -1
100
AcDbLine
 10
128.85
 20
-124
 11
128.85
 21
-123.87
  0
DIMENSION
  5
127
100
AcDbEntity
  8
dimensions
  6
ByLayer
 62
  256
370
   -1
100
AcDbDimension
  2
*D12
 10
154.999999996241
 20
-86.99999998120492
 30
0
 11
157.7500000657827
 21
-105.4999999708676
 31
0
 70
   33
 71
    5
  3
Standard
 53
0
210
0
220
0
230
1
100
AcDbAlignedDimension
 13
150
 23
-124
 33
0
 14
149.9999998609165
 24
-87
 34
0
  0
DIMENSION
  5
128
100
AcDbEntity
  8
dimensions
  6
ByLayer
 62
  256
370
   -1
100
AcDbDimension
  2
*D13
 10
116
 20
-99.50000140010765
 30
0
 11
113.25
 21
-98.00000140010765
 31
0
 70
   33
 71
    5
  3
Standard
 53
0
210
0
220
0
230
1
100
AcDbAlignedDimension
 13
119.8000003708895
 23
-96.50000140010765
 33
0
 14
119.8000003708895
 24
-99.50000140010765
 34
0
  0
DIMENSION
  5
129
100
AcDbEntity
  8
dimensions
  6
ByLayer
 62
  256
370
   -1
100
AcDbDimension
  2
*D14
 10
116
 20
-117.5000014001076
 30
0
 11
113.25
 21
-116.0000014001076
 31
0
 70
   33
 71
    5
  3
Standard
 53
0
210
0
220
0
230
1
100
AcDbAlignedDimension
 13
119.8000012053907
 23
-114.5000014001076
 33
0
 14
119.8000012053907
 24
-117.5000014001076
 34
0
  0
DIMENSION
  5
12A
100
AcDbEntity
  8
dimensions
  6
ByLayer
 62
  256
370
   -1
100
AcDbDimension
  2
*D15
 10
104.0000000463613
 20
-90.00000213261431
 30
0
 11
101.2499999768195
 21
-88.50000226010755
 31
0
 70
   33
 71
    5
  3
Standard
 53
0
210
0
220
0
230
1
100
AcDbAlignedDimension
 13
107.6999998609165
 23
-87.00000196107796
 33
0
 14
107.7
 24
-90.00000196107796
 34
0
  0
DIMENSION
  5
12B
100
AcDbEntity
  8
positions
  6
ByLayer
 62
  256
370
   -1
100
AcDbDimension
  2
*D16
 10
107.7
 20
-84
 30
0
 11
113.75
 21
-81.25
 31
0
 70
   33
 71
    5
  3
Standard
 53
0
210
0
220
0
230
1
100
AcDbAlignedDimension
 13
119.8
 23
-98
 33
0
 14
107.7
 24
-98
 34
0
  0
DIMENSION
  5
12C
100
AcDbEntity
  8
positions
  6
ByLayer
 62
  256
370
   -1
100
AcDbDimension
  2
*D17
 10
125
 20
-87
 30
0
 11
122.25
 21
-92.5
 31
0
 70
   33
 71
    5
  3
Standard
 53
0
210
0
220
0
230
1
100
AcDbAlignedDimension
 13
119.8
 23
-98
 33
0
 14
119.8
 24
-87
 34
0
  0
DIMENSION
  5
12D
100
AcDbEntity
  8
positions
  6
ByLayer
 62
  256
370
   -1
100
AcDbDimension
  2
*D18
 10
125
 20
-124
 30
0
 11
122.25
 21
-120
 31
0
 70
   33
 71
    5
  3
Standard
 53
0
210
0
220
0
230
1
100
AcDbAlignedDimension
 13
119.8
 23
-116
 33
0
 14
119.8
 24
-124
 34
0
  0
ENDSEC
  0
SECTION
  2
OBJECTS
  0
DICTIONARY
  5
C
330
0
100
AcDbDictionary
281
    1
  3
ACAD_GROUP
350
D
  0
DICTIONARY
  5
D
330
C
100
AcDbDictionary
281
    1
  0
ENDSEC
  0
EOF
