999
dxfrw 0.6.3
  0
SECTION
  2
HEADER
  9
$ACADVER
  1
AC1021
  9
$DWGCODEPAGE
  3
ANSI_1250
  9
$INSBASE
 10
0
 20
0
 30
0
  9
$EXTMIN
 10
-14.5
 20
-226.6333560092944
 30
0
  9
$EXTMAX
 10
218.600013733
 20
8.500001087040895
 30
0
  9
$LIMMIN
 10
0
 20
0
  9
$LIMMAX
 10
420
 20
297
  9
$ORTHOMODE
 70
    0
  9
$REGENMODE
 70
    1
  9
$FILLMODE
 70
    1
  9
$QTEXTMODE
 70
    0
  9
$MIRRTEXT
 70
    0
  9
$LTSCALE
 40
1
  9
$ATTMODE
 70
    0
  9
$TEXTSIZE
 40
2.5
  9
$TRACEWID
 40
15.68
  9
$TEXTSTYLE
  7
STANDARD
  9
$CLAYER
  8
positions
  9
$CELTYPE
  6
BYLAYER
  9
$CECOLOR
 62
  256
  9
$CELTSCALE
 40
1
  9
$DISPSILH
 70
    0
  9
$DIMSCALE
 40
1
  9
$DIMASZ
 40
3.5
  9
$DIMEXO
 40
0
  9
$DIMDLI
 40
3.75
  9
$DIMRND
 40
0
  9
$DIMDLE
 40
0
  9
$DIMEXE
 40
2
  9
$DIMTP
 40
0
  9
$DIMTM
 40
0
  9
$DIMTXT
 40
3.5
  9
$DIMCEN
 40
2.5
  9
$DIMTSZ
 40
0
  9
$DIMTOL
 70
    0
  9
$DIMLIM
 70
    0
  9
$DIMTIH
 70
    0
  9
$DIMTOH
 70
    0
  9
$DIMSE1
 70
    0
  9
$DIMSE2
 70
    0
  9
$DIMTAD
 70
    1
  9
$DIMZIN
 70
    8
  9
$DIMBLK
  1

  9
$DIMASO
 70
    1
  9
$DIMSHO
 70
    1
  9
$DIMPOST
  1

  9
$DIMAPOST
  1

  9
$DIMALT
 70
    0
  9
$DIMALTD
 70
    3
  9
$DIMALTF
 40
0.03937
  9
$DIMLFAC
 40
1
  9
$DIMTOFL
 70
    1
  9
$DIMTVP
 40
0
  9
$DIMTIX
 70
    0
  9
$DIMSOXD
 70
    0
  9
$DIMSAH
 70
    0
  9
$DIMBLK1
  1

  9
$DIMBLK2
  1

  9
$DIMSTYLE
  2
STANDARD
  9
$DIMCLRD
 70
    0
  9
$DIMCLRE
 70
    0
  9
$DIMCLRT
 70
    0
  9
$DIMTFAC
 40
1
  9
$DIMGAP
 40
1
  9
$DIMJUST
 70
    0
  9
$DIMSD1
 70
    0
  9
$DIMSD2
 70
    0
  9
$DIMTOLJ
 70
    0
  9
$DIMTZIN
 70
    8
  9
$DIMALTZ
 70
    0
  9
$DIMALTTZ
 70
    0
  9
$DIMUPT
 70
    0
  9
$DIMDEC
 70
    4
  9
$DIMTDEC
 70
    2
  9
$DIMALTU
 70
    2
  9
$DIMALTTD
 70
    3
  9
$DIMTXSTY
  7
STANDARD
  9
$DIMAUNIT
 70
    0
  9
$DIMADEC
 70
    0
  9
$DIMALTRND
 40
0
  9
$DIMAZIN
 70
    0
  9
$DIMDSEP
 70
   44
  9
$DIMATFIT
 70
    3
  9
$DIMFRAC
 70
    0
  9
$DIMLDRBLK
  1
STANDARD
  9
$DIMLUNIT
 70
    2
  9
$DIMLWD
 70
   -2
  9
$DIMLWE
 70
   -2
  9
$DIMTMOVE
 70
    0
  9
$DIMFXL
 40
1
  9
$DIMFXLON
 70
    0
  9
$DIMJOGANG
 40
0.7854
  9
$DIMTFILL
 70
    0
  9
$DIMTFILLCLR
 70
    0
  9
$DIMARCSYM
 70
    0
  9
$DIMLTYPE
  6

  9
$DIMLTEX1
  6

  9
$DIMLTEX2
  6

  9
$LUNITS
 70
    2
  9
$LUPREC
 70
    2
  9
$SKETCHINC
 40
1
  9
$FILLETRAD
 40
0
  9
$AUNITS
 70
    0
  9
$AUPREC
 70
    2
  9
$MENU
  1
.
  9
$ELEVATION
 40
0
  9
$PELEVATION
 40
0
  9
$THICKNESS
 40
0
  9
$LIMCHECK
 70
    0
  9
$CHAMFERA
 40
0
  9
$CHAMFERB
 40
0
  9
$CHAMFERC
 40
0
  9
$CHAMFERD
 40
0
  9
$SKPOLY
 70
    0
  9
$USRTIMER
 70
    1
  9
$ANGBASE
 50
0
  9
$ANGDIR
 70
    0
  9
$PDMODE
 70
   34
  9
$PDSIZE
 40
0
  9
$PLINEWID
 40
0
  9
$SPLFRAME
 70
    0
  9
$SPLINETYPE
 70
    2
  9
$SPLINESEGS
 70
    8
  9
$HANDSEED
  5
20000
  9
$SURFTAB1
 70
    6
  9
$SURFTAB2
 70
    6
  9
$SURFTYPE
 70
    6
  9
$SURFU
 70
    6
  9
$SURFV
 70
    6
  9
$UCSBASE
  2

  9
$UCSNAME
  2

  9
$UCSORG
 10
0
 20
0
 30
0
  9
$UCSXDIR
 10
1
 20
0
 30
0
  9
$UCSYDIR
 10
0
 20
1
 30
0
  9
$UCSORTHOREF
  2

  9
$UCSORTHOVIEW
 70
    0
  9
$UCSORGTOP
 10
0
 20
0
 30
0
  9
$UCSORGBOTTOM
 10
0
 20
0
 30
0
  9
$UCSORGLEFT
 10
0
 20
0
 30
0
  9
$UCSORGRIGHT
 10
0
 20
0
 30
0
  9
$UCSORGFRONT
 10
0
 20
0
 30
0
  9
$UCSORGBACK
 10
0
 20
0
 30
0
  9
$PUCSBASE
  2

  9
$PUCSNAME
  2

  9
$PUCSORG
 10
0
 20
0
 30
0
  9
$PUCSXDIR
 10
1
 20
0
 30
0
  9
$PUCSYDIR
 10
0
 20
1
 30
0
  9
$PUCSORTHOREF
  2

  9
$PUCSORTHOVIEW
 70
    0
  9
$PUCSORGTOP
 10
0
 20
0
 30
0
  9
$PUCSORGBOTTOM
 10
0
 20
0
 30
0
  9
$PUCSORGLEFT
 10
0
 20
0
 30
0
  9
$PUCSORGRIGHT
 10
0
 20
0
 30
0
  9
$PUCSORGFRONT
 10
0
 20
0
 30
0
  9
$PUCSORGBACK
 10
0
 20
0
 30
0
  9
$USERI1
 70
    0
  9
$USERI2
 70
    0
  9
$USERI3
 70
    0
  9
$USERI4
 70
    0
  9
$USERI5
 70
    0
  9
$USERR1
 40
0
  9
$USERR2
 40
0
  9
$USERR3
 40
0
  9
$USERR4
 40
0
  9
$USERR5
 40
0
  9
$WORLDVIEW
 70
    1
  9
$SHADEDGE
 70
    3
  9
$SHADEDIF
 70
   70
  9
$TILEMODE
 70
    1
  9
$MAXACTVP
 70
   64
  9
$PINSBASE
 10
0
 20
420
 30
0
  9
$PLIMCHECK
 70
    0
  9
$PEXTMIN
 10
0
 20
0
 30
0
  9
$PEXTMAX
 10
0
 20
0
 30
0
  9
$GRIDMODE
 70
    1
  9
$SNAPSTYLE
 70
    0
  9
$GRIDUNIT
 10
0
 20
0
  9
$PLIMMIN
 10
0
 20
0
  9
$PLIMMAX
 10
594
 20
420
  9
$UNITMODE
 70
    0
  9
$VISRETAIN
 70
    1
  9
$PLINEGEN
 70
    0
  9
$PSLTSCALE
 70
    1
  9
$TREEDEPTH
 70
 3020
  9
$CMLSTYLE
  2
Standard
  9
$CMLJUST
 70
    0
  9
$CMLSCALE
 40
20
  9
$PROXYGRAPHICS
 70
    1
  9
$MEASUREMENT
 70
    1
  9
$CELWEIGHT
370
   -1
  9
$ENDCAPS
280
    0
  9
$JOINSTYLE
280
    0
  9
$LWDISPLAY
290
    0
  9
$INSUNITS
 70
    4
  9
$HYPERLINKBASE
  1

  9
$STYLESHEET
  1

  9
$XEDIT
290
    1
  9
$CEPSNTYPE
380
    0
  9
$PSTYLEMODE
290
    1
  9
$EXTNAMES
290
    1
  9
$PSVPSCALE
 40
1
  9
$OLESTARTUP
290
    0
  9
$SORTENTS
280
  127
  9
$INDEXCTL
280
    0
  9
$HIDETEXT
280
    1
  9
$XCLIPFRAME
290
    0
  9
$HALOGAP
280
    0
  9
$OBSCOLOR
 70
  257
  9
$OBSLTYPE
280
    0
  9
$INTERSECTIONDISPLAY
280
    0
  9
$INTERSECTIONCOLOR
 70
  257
  9
$DIMASSOC
280
    1
  9
$PROJECTNAME
  1

  9
$CAMERADISPLAY
290
    0
  9
$LENSLENGTH
 40
50
  9
$CAMERAHEIGHT
 40
0
  9
$STEPSPERSEC
 40
2
  9
$STEPSIZE
 40
50
  9
$3DDWFPREC
 40
2
  9
$PSOLWIDTH
 40
5
  9
$PSOLHEIGHT
 40
80
  9
$LOFTANG1
 40
1.570796326794897
  9
$LOFTANG2
 40
1.570796326794897
  9
$LOFTMAG1
 40
0
  9
$LOFTMAG2
 40
0
  9
$LOFTPARAM
 70
    7
  9
$LOFTNORMALS
280
    1
  9
$LATITUDE
 40
1
  9
$LONGITUDE
 40
1
  9
$NORTHDIRECTION
 40
0
  9
$TIMEZONE
 70
-8000
  9
$LIGHTGLYPHDISPLAY
280
    1
  9
$TILEMODELIGHTSYNCH
280
    1
  9
$SOLIDHIST
280
    1
  9
$SHOWHIST
280
    1
  9
$DWFFRAME
280
    2
  9
$DGNFRAME
280
    0
  9
$REALWORLDSCALE
290
    1
  9
$INTERFERECOLOR
 62
    1
  9
$CSHADOW
280
    0
  9
$SHADOWPLANELOCATION
 40
0
  0
ENDSEC
  0
SECTION
  2
CLASSES
  0
ENDSEC
  0
SECTION
  2
TABLES
  0
TABLE
  2
VPORT
  5
8
330
0
100
AcDbSymbolTable
 70
    1
  0
VPORT
  5
31
330
2
100
AcDbSymbolTableRecord
100
AcDbViewportTableRecord
  2
*ACTIVE
 70
    0
 10
0
 20
0
 11
1
 21
1
 12
176.7564000681916
 22
13.85238245048523
 13
0
 23
0
 14
10
 24
10
 15
10
 25
10
 16
0
 26
0
 36
1
 17
0
 27
0
 37
0
 40
191.7169731147156
 41
2.371387283236994
 42
50
 43
0
 44
0
 50
0
 51
0
 71
    0
 72
  100
 73
    1
 74
    3
 75
    0
 76
    1
 77
    0
 78
    0
281
    0
 65
    1
110
0
120
0
130
0
111
1
121
0
131
0
112
0
122
1
132
0
 79
    0
146
0
348
10020
 60
    7
 61
    5
292
1
282
    1
141
0
142
0
 63
  250
421
3358443
  0
ENDTAB
  0
TABLE
  2
LTYPE
  5
5
330
0
100
AcDbSymbolTable
 70
    4
  0
LTYPE
  5
14
330
5
100
AcDbSymbolTableRecord
100
AcDbLinetypeTableRecord
  2
ByBlock
 70
    0
  3

 72
   65
 73
    0
 40
0
  0
LTYPE
  5
15
330
5
100
AcDbSymbolTableRecord
100
AcDbLinetypeTableRecord
  2
ByLayer
 70
    0
  3

 72
   65
 73
    0
 40
0
  0
LTYPE
  5
16
330
5
100
AcDbSymbolTableRecord
100
AcDbLinetypeTableRecord
  2
Continuous
 70
    0
  3
Solid line
 72
   65
 73
    0
 40
0
  0
LTYPE
  5
32
330
5
100
AcDbSymbolTableRecord
100
AcDbLinetypeTableRecord
  2
DOT
 70
    0
  3
Dot . . . . . . . . . . . . . . . . . . . . . .
 72
   65
 73
    2
 40
6.35
 49
0
 74
    0
 49
-6.35
 74
    0
  0
LTYPE
  5
33
330
5
100
AcDbSymbolTableRecord
100
AcDbLinetypeTableRecord
  2
DOTTINY
 70
    0
  3
Dot (.15x) .....................................
 72
   65
 73
    2
 40
0.9525
 49
0
 74
    0
 49
-0.9525
 74
    0
  0
LTYPE
  5
34
330
5
100
AcDbSymbolTableRecord
100
AcDbLinetypeTableRecord
  2
DOT2
 70
    0
  3
Dot (.5x) .....................................
 72
   65
 73
    2
 40
3.175
 49
0
 74
    0
 49
-3.175
 74
    0
  0
LTYPE
  5
35
330
5
100
AcDbSymbolTableRecord
100
AcDbLinetypeTableRecord
  2
DOTX2
 70
    0
  3
Dot (2x) .  .  .  .  .  .  .  .  .  .  .  .  .
 72
   65
 73
    2
 40
12.7
 49
0
 74
    0
 49
-12.7
 74
    0
  0
LTYPE
  5
36
330
5
100
AcDbSymbolTableRecord
100
AcDbLinetypeTableRecord
  2
DASHED
 70
    0
  3
Dashed _ _ _ _ _ _ _ _ _ _ _ _ _ _ _ _ _
 72
   65
 73
    2
 40
19.05
 49
12.7
 74
    0
 49
-6.35
 74
    0
  0
LTYPE
  5
37
330
5
100
AcDbSymbolTableRecord
100
AcDbLinetypeTableRecord
  2
DASHEDTINY
 70
    0
  3
Dashed (.15x) _ _ _ _ _ _ _ _ _ _ _ _ _ _ _ _ _
 72
   65
 73
    2
 40
2.8575
 49
1.905
 74
    0
 49
-0.9525
 74
    0
  0
LTYPE
  5
38
330
5
100
AcDbSymbolTableRecord
100
AcDbLinetypeTableRecord
  2
DASHED2
 70
    0
  3
Dashed (.5x) _ _ _ _ _ _ _ _ _ _ _ _ _ _ _ _ _
 72
   65
 73
    2
 40
9.524999999999999
 49
6.35
 74
    0
 49
-3.175
 74
    0
  0
LTYPE
  5
39
330
5
100
AcDbSymbolTableRecord
100
AcDbLinetypeTableRecord
  2
DASHEDX2
 70
    0
  3
Dashed (2x) ____  ____  ____  ____  ____  ___
 72
   65
 73
    2
 40
38.09999999999999
 49
25.4
 74
    0
 49
-12.7
 74
    0
  0
LTYPE
  5
3A
330
5
100
AcDbSymbolTableRecord
100
AcDbLinetypeTableRecord
  2
DASHDOT
 70
    0
  3
Dash dot __ . __ . __ . __ . __ . __ . __ . __
 72
   65
 73
    4
 40
25.4
 49
12.7
 74
    0
 49
-6.35
 74
    0
 49
0
 74
    0
 49
-6.35
 74
    0
  0
LTYPE
  5
3B
330
5
100
AcDbSymbolTableRecord
100
AcDbLinetypeTableRecord
  2
DASHDOTTINY
 70
    0
  3
Dash dot (.15x) _._._._._._._._._._._._._._._.
 72
   65
 73
    4
 40
3.81
 49
1.905
 74
    0
 49
-0.9525
 74
    0
 49
0
 74
    0
 49
-0.9525
 74
    0
  0
LTYPE
  5
3C
330
5
100
AcDbSymbolTableRecord
100
AcDbLinetypeTableRecord
  2
DASHDOT2
 70
    0
  3
Dash dot (.5x) _._._._._._._._._._._._._._._.
 72
   65
 73
    4
 40
12.7
 49
6.35
 74
    0
 49
-3.175
 74
    0
 49
0
 74
    0
 49
-3.175
 74
    0
  0
LTYPE
  5
3D
330
5
100
AcDbSymbolTableRecord
100
AcDbLinetypeTableRecord
  2
DASHDOTX2
 70
    0
  3
Dash dot (2x) ____  .  ____  .  ____  .  ___
 72
   65
 73
    4
 40
50.8
 49
25.4
 74
    0
 49
-12.7
 74
    0
 49
0
 74
    0
 49
-12.7
 74
    0
  0
LTYPE
  5
3E
330
5
100
AcDbSymbolTableRecord
100
AcDbLinetypeTableRecord
  2
DIVIDE
 70
    0
  3
Divide ____ . . ____ . . ____ . . ____ . . ____
 72
   65
 73
    6
 40
31.75
 49
12.7
 74
    0
 49
-6.35
 74
    0
 49
0
 74
    0
 49
-6.35
 74
    0
 49
0
 74
    0
 49
-6.35
 74
    0
  0
LTYPE
  5
3F
330
5
100
AcDbSymbolTableRecord
100
AcDbLinetypeTableRecord
  2
DIVIDETINY
 70
    0
  3
Divide (.15x) __..__..__..__..__..__..__..__.._
 72
   65
 73
    6
 40
4.7625
 49
1.905
 74
    0
 49
-0.9525
 74
    0
 49
0
 74
    0
 49
-0.9525
 74
    0
 49
0
 74
    0
 49
-0.9525
 74
    0
  0
LTYPE
  5
40
330
5
100
AcDbSymbolTableRecord
100
AcDbLinetypeTableRecord
  2
DIVIDE2
 70
    0
  3
Divide (.5x) __..__..__..__..__..__..__..__.._
 72
   65
 73
    6
 40
15.875
 49
6.35
 74
    0
 49
-3.175
 74
    0
 49
0
 74
    0
 49
-3.175
 74
    0
 49
0
 74
    0
 49
-3.175
 74
    0
  0
LTYPE
  5
41
330
5
100
AcDbSymbolTableRecord
100
AcDbLinetypeTableRecord
  2
DIVIDEX2
 70
    0
  3
Divide (2x) ________  .  .  ________  .  .  _
 72
   65
 73
    6
 40
63.5
 49
25.4
 74
    0
 49
-12.7
 74
    0
 49
0
 74
    0
 49
-12.7
 74
    0
 49
0
 74
    0
 49
-12.7
 74
    0
  0
LTYPE
  5
42
330
5
100
AcDbSymbolTableRecord
100
AcDbLinetypeTableRecord
  2
BORDER
 70
    0
  3
Border __ __ . __ __ . __ __ . __ __ . __ __ .
 72
   65
 73
    6
 40
44.45
 49
12.7
 74
    0
 49
-6.35
 74
    0
 49
12.7
 74
    0
 49
-6.35
 74
    0
 49
0
 74
    0
 49
-6.35
 74
    0
  0
LTYPE
  5
43
330
5
100
AcDbSymbolTableRecord
100
AcDbLinetypeTableRecord
  2
BORDERTINY
 70
    0
  3
Border (.15x) __.__.__.__.__.__.__.__.__.__.__.
 72
   65
 73
    6
 40
6.6675
 49
1.905
 74
    0
 49
-0.9525
 74
    0
 49
1.905
 74
    0
 49
-0.9525
 74
    0
 49
0
 74
    0
 49
-0.9525
 74
    0
  0
LTYPE
  5
44
330
5
100
AcDbSymbolTableRecord
100
AcDbLinetypeTableRecord
  2
BORDER2
 70
    0
  3
Border (.5x) __.__.__.__.__.__.__.__.__.__.__.
 72
   65
 73
    6
 40
22.225
 49
6.35
 74
    0
 49
-3.175
 74
    0
 49
6.35
 74
    0
 49
-3.175
 74
    0
 49
0
 74
    0
 49
-3.175
 74
    0
  0
LTYPE
  5
45
330
5
100
AcDbSymbolTableRecord
100
AcDbLinetypeTableRecord
  2
BORDERX2
 70
    0
  3
Border (2x) ____  ____  .  ____  ____  .  ___
 72
   65
 73
    6
 40
88.89999999999999
 49
25.4
 74
    0
 49
-12.7
 74
    0
 49
25.4
 74
    0
 49
-12.7
 74
    0
 49
0
 74
    0
 49
-12.7
 74
    0
  0
LTYPE
  5
46
330
5
100
AcDbSymbolTableRecord
100
AcDbLinetypeTableRecord
  2
CENTER
 70
    0
  3
Center ____ _ ____ _ ____ _ ____ _ ____ _ ____
 72
   65
 73
    4
 40
50.8
 49
31.75
 74
    0
 49
-6.35
 74
    0
 49
6.35
 74
    0
 49
-6.35
 74
    0
  0
LTYPE
  5
47
330
5
100
AcDbSymbolTableRecord
100
AcDbLinetypeTableRecord
  2
CENTERTINY
 70
    0
  3
Center (.15x) ___ _ ___ _ ___ _ ___ _ ___ _ ___
 72
   65
 73
    4
 40
7.619999999999999
 49
4.7625
 74
    0
 49
-0.9525
 74
    0
 49
0.9525
 74
    0
 49
-0.9525
 74
    0
  0
LTYPE
  5
48
330
5
100
AcDbSymbolTableRecord
100
AcDbLinetypeTableRecord
  2
CENTER2
 70
    0
  3
Center (.5x) ___ _ ___ _ ___ _ ___ _ ___ _ ___
 72
   65
 73
    4
 40
28.575
 49
19.05
 74
    0
 49
-3.175
 74
    0
 49
3.175
 74
    0
 49
-3.175
 74
    0
  0
LTYPE
  5
49
330
5
100
AcDbSymbolTableRecord
100
AcDbLinetypeTableRecord
  2
CENTERX2
 70
    0
  3
Center (2x) ________  __  ________  __  _____
 72
   65
 73
    4
 40
101.6
 49
63.5
 74
    0
 49
-12.7
 74
    0
 49
12.7
 74
    0
 49
-12.7
 74
    0
  0
ENDTAB
  0
TABLE
  2
LAYER
  5
2
330
0
100
AcDbSymbolTable
 70
    1
  0
LAYER
  5
10
330
2
100
AcDbSymbolTableRecord
100
AcDbLayerTableRecord
  2
0
 70
    0
 62
    7
  6
CONTINUOUS
370
   35
390
F
  0
LAYER
  5
4A
330
2
100
AcDbSymbolTableRecord
100
AcDbLayerTableRecord
  2
dimensions
 70
    0
 62
    3
  6
CONTINUOUS
370
    0
390
F
  0
LAYER
  5
4B
330
2
100
AcDbSymbolTableRecord
100
AcDbLayerTableRecord
  2
positions
 70
    0
 62
    1
  6
CONTINUOUS
370
    0
390
F
  0
LAYER
  5
4C
330
2
100
AcDbSymbolTableRecord
100
AcDbLayerTableRecord
  2
symetrie
 70
    0
 62
    5
  6
DASHED
370
    0
390
F
1001
LibreCad
1070
    1
  0
ENDTAB
  0
TABLE
  2
STYLE
  5
3
330
0
100
AcDbSymbolTable
 70
    3
  0
STYLE
  5
4D
330
2
100
AcDbSymbolTableRecord
100
AcDbTextStyleTableRecord
  2
Standard
 70
    0
 40
0
 41
1
 50
0
 71
    0
 42
1
  3
txt
  4

  0
ENDTAB
  0
TABLE
  2
VIEW
  5
6
330
0
100
AcDbSymbolTable
 70
    0
  0
ENDTAB
  0
TABLE
  2
UCS
  5
7
330
0
100
AcDbSymbolTable
 70
    0
  0
ENDTAB
  0
TABLE
  2
APPID
  5
9
330
0
100
AcDbSymbolTable
 70
    1
  0
APPID
  5
12
330
9
100
AcDbSymbolTableRecord
100
AcDbRegAppTableRecord
  2
ACAD
 70
    0
  0
APPID
  5
4E
330
9
100
AcDbSymbolTableRecord
100
AcDbRegAppTableRecord
  2
LibreCad
 70
    0
  0
ENDTAB
  0
TABLE
  2
DIMSTYLE
  5
A
330
0
100
AcDbSymbolTable
 70
    1
100
AcDbDimStyleTable
 71
    1
  0
DIMSTYLE
105
4F
330
A
100
AcDbSymbolTableRecord
100
AcDbDimStyleTableRecord
  2
Standard
 70
    0
 40
1
 41
3.5
 42
0
 43
0.38
 44
2
 45
0
 46
0
 47
0
 48
0
 49
1
140
3.5
141
0.09
142
0
143
25.4
144
1
145
0
146
1
147
1
148
0
 71
    0
 72
    0
 73
    0
 74
    1
 75
    0
 76
    0
 77
    0
 78
    8
 79
    0
170
    0
171
    2
172
    0
173
    0
174
    0
175
    0
176
    0
177
    0
178
    0
179
    0
271
    4
272
    4
273
    2
274
    2
275
    0
276
    0
277
    2
278
   44
279
    0
280
    0
281
    0
282
    0
283
    1
284
    0
285
    0
286
    0
288
    0
289
    3
340
STANDARD
341

371
   -2
372
   -2
  0
ENDTAB
  0
TABLE
  2
BLOCK_RECORD
  5
1
330
0
100
AcDbSymbolTable
 70
    2
  0
BLOCK_RECORD
  5
1F
330
1
100
AcDbSymbolTableRecord
100
AcDbBlockTableRecord
  2
*Model_Space
 70
    0
280
    1
281
    0
  0
BLOCK_RECORD
  5
1E
330
1
100
AcDbSymbolTableRecord
100
AcDbBlockTableRecord
  2
*Paper_Space
 70
    0
280
    1
281
    0
  0
BLOCK_RECORD
  5
50
330
1
100
AcDbSymbolTableRecord
100
AcDbBlockTableRecord
  2
*D5
 70
    0
280
    1
281
    0
  0
BLOCK_RECORD
  5
53
330
1
100
AcDbSymbolTableRecord
100
AcDbBlockTableRecord
  2
*D6
 70
    0
280
    1
281
    0
  0
BLOCK_RECORD
  5
56
330
1
100
AcDbSymbolTableRecord
100
AcDbBlockTableRecord
  2
*D12
 70
    0
280
    1
281
    0
  0
BLOCK_RECORD
  5
59
330
1
100
AcDbSymbolTableRecord
100
AcDbBlockTableRecord
  2
*D2
 70
    0
280
    1
281
    0
  0
BLOCK_RECORD
  5
5C
330
1
100
AcDbSymbolTableRecord
100
AcDbBlockTableRecord
  2
*D15
 70
    0
280
    1
281
    0
  0
BLOCK_RECORD
  5
5F
330
1
100
AcDbSymbolTableRecord
100
AcDbBlockTableRecord
  2
*D17
 70
    0
280
    1
281
    0
  0
BLOCK_RECORD
  5
62
330
1
100
AcDbSymbolTableRecord
100
AcDbBlockTableRecord
  2
*D19
 70
    0
280
    1
281
    0
  0
BLOCK_RECORD
  5
65
330
1
100
AcDbSymbolTableRecord
100
AcDbBlockTableRecord
  2
*D9
 70
    0
280
    1
281
    0
  0
BLOCK_RECORD
  5
68
330
1
100
AcDbSymbolTableRecord
100
AcDbBlockTableRecord
  2
*D21
 70
    0
280
    1
281
    0
  0
BLOCK_RECORD
  5
6B
330
1
100
AcDbSymbolTableRecord
100
AcDbBlockTableRecord
  2
*D13
 70
    0
280
    1
281
    0
  0
BLOCK_RECORD
  5
6E
330
1
100
AcDbSymbolTableRecord
100
AcDbBlockTableRecord
  2
*D16
 70
    0
280
    1
281
    0
  0
BLOCK_RECORD
  5
71
330
1
100
AcDbSymbolTableRecord
100
AcDbBlockTableRecord
  2
*D18
 70
    0
280
    1
281
    0
  0
BLOCK_RECORD
  5
74
330
1
100
AcDbSymbolTableRecord
100
AcDbBlockTableRecord
  2
*D7
 70
    0
280
    1
281
    0
  0
BLOCK_RECORD
  5
77
330
1
100
AcDbSymbolTableRecord
100
AcDbBlockTableRecord
  2
*D23
 70
    0
280
    1
281
    0
  0
BLOCK_RECORD
  5
7A
330
1
100
AcDbSymbolTableRecord
100
AcDbBlockTableRecord
  2
*D3
 70
    0
280
    1
281
    0
  0
BLOCK_RECORD
  5
7D
330
1
100
AcDbSymbolTableRecord
100
AcDbBlockTableRecord
  2
*D1
 70
    0
280
    1
281
    0
  0
BLOCK_RECORD
  5
80
330
1
100
AcDbSymbolTableRecord
100
AcDbBlockTableRecord
  2
*D4
 70
    0
280
    1
281
    0
  0
BLOCK_RECORD
  5
83
330
1
100
AcDbSymbolTableRecord
100
AcDbBlockTableRecord
  2
*D20
 70
    0
280
    1
281
    0
  0
BLOCK_RECORD
  5
86
330
1
100
AcDbSymbolTableRecord
100
AcDbBlockTableRecord
  2
*D25
 70
    0
280
    1
281
    0
  0
BLOCK_RECORD
  5
89
330
1
100
AcDbSymbolTableRecord
100
AcDbBlockTableRecord
  2
*D8
 70
    0
280
    1
281
    0
  0
BLOCK_RECORD
  5
8C
330
1
100
AcDbSymbolTableRecord
100
AcDbBlockTableRecord
  2
*D11
 70
    0
280
    1
281
    0
  0
BLOCK_RECORD
  5
8F
330
1
100
AcDbSymbolTableRecord
100
AcDbBlockTableRecord
  2
*D22
 70
    0
280
    1
281
    0
  0
BLOCK_RECORD
  5
92
330
1
100
AcDbSymbolTableRecord
100
AcDbBlockTableRecord
  2
*D10
 70
    0
280
    1
281
    0
  0
BLOCK_RECORD
  5
95
330
1
100
AcDbSymbolTableRecord
100
AcDbBlockTableRecord
  2
*D14
 70
    0
280
    1
281
    0
  0
BLOCK_RECORD
  5
98
330
1
100
AcDbSymbolTableRecord
100
AcDbBlockTableRecord
  2
*D24
 70
    0
280
    1
281
    0
  0
BLOCK_RECORD
  5
9B
330
1
100
AcDbSymbolTableRecord
100
AcDbBlockTableRecord
  2
Ortho1
 70
    0
280
    1
281
    0
  0
BLOCK_RECORD
  5
9E
330
1
100
AcDbSymbolTableRecord
100
AcDbBlockTableRecord
  2
Ortho0011
 70
    0
280
    1
281
    0
  0
BLOCK_RECORD
  5
A1
330
1
100
AcDbSymbolTableRecord
100
AcDbBlockTableRecord
  2
Ortho0031
 70
    0
280
    1
281
    0
  0
ENDTAB
  0
ENDSEC
  0
SECTION
  2
BLOCKS
  0
BLOCK
  5
20
330
1F
100
AcDbEntity
  8
0
100
AcDbBlockBegin
  2
*Model_Space
 70
    0
 10
0
 20
0
 30
0
  3
*Model_Space
  1

  0
ENDBLK
  5
21
330
1F
100
AcDbEntity
  8
0
100
AcDbBlockEnd
  0
BLOCK
  5
1C
330
1B
100
AcDbEntity
  8
0
100
AcDbBlockBegin
  2
*Paper_Space
 70
    0
 10
0
 20
0
 30
0
  3
*Paper_Space
  1

  0
ENDBLK
  5
1D
330
1F
100
AcDbEntity
  8
0
100
AcDbBlockEnd
  0
BLOCK
  5
51
330
50
100
AcDbEntity
  8
0
100
AcDbBlockBegin
  2
*D5
 70
    1
 10
0
 20
0
  3
*D5
  1

  0
LINE
  5
A4
100
AcDbEntity
  8
dimensions
  6
ByBlock
 62
    0
370
   -2
100
AcDbLine
 10
48.2999998609164
 20
-3.000002239245031
 11
67.00000157628
 21
-3.00000310619921
  0
LINE
  5
A5
100
AcDbEntity
  8
dimensions
  6
ByBlock
 62
    0
370
   -2
100
AcDbLine
 10
48.29999817800553
 20
-39.30000223924499
 11
66.99999989336914
 21
-39.30000310619917
  0
LINE
  5
A6
100
AcDbEntity
  8
dimensions
  6
ByBlock
 62
    0
370
   -2
100
AcDbLine
 10
65.00000157628
 20
-3.000003013476846
 11
64.99999989336914
 21
-39.3000030134768
  0
SOLID
  5
A7
100
AcDbEntity
  8
dimensions
  6
ByBlock
 62
    0
370
   -2
100
AcDbTrace
 10
65.00000157628
 20
-3.000003013476846
 30
0
 11
65.58279993489785
 21
-6.50000304049607
 31
0
 12
64.41720289313389
 22
-6.500002986457615
 32
0
 13
64.41720289313389
 23
-6.500002986457615
 33
0
  0
SOLID
  5
A8
100
AcDbEntity
  8
dimensions
  6
ByBlock
 62
    0
370
   -2
100
AcDbTrace
 10
64.99999989336914
 20
-39.3000030134768
 30
0
 11
64.4172015347513
 21
-35.80000298645758
 31
0
 12
65.58279857651524
 22
-35.80000304049604
 32
0
 13
65.58279857651524
 23
-35.80000304049604
 33
0
  0
MTEXT
  5
A9
100
AcDbEntity
  8
dimensions
  6
CONTINUOUS
 62
    0
370
   -2
100
AcDbMText
 10
62.25000073482457
 20
-21.15000288598358
 30
0
 40
3.5
 41
8.361111111111761
 71
    5
 72
    1
  1
36,3
  7
STANDARD
210
0
220
0
230
1
 50
89.99999734370002
 73
    2
 44
1
  0
ENDBLK
  5
52
330
50
100
AcDbEntity
  8
0
100
AcDbBlockEnd
  0
BLOCK
  5
54
330
53
100
AcDbEntity
  8
0
100
AcDbBlockBegin
  2
*D6
 70
    1
 10
0
 20
0
  3
*D6
  1

  0
LINE
  5
AA
100
AcDbEntity
  8
dimensions
  6
ByBlock
 62
    0
370
   -2
100
AcDbLine
 10
0
 20
0
 11
-12
 21
1.469576158976824e-15
  0
LINE
  5
AB
100
AcDbEntity
  8
dimensions
  6
ByBlock
 62
    0
370
   -2
100
AcDbLine
 10
0
 20
-42
 11
-12
 21
-42
  0
LINE
  5
AC
100
AcDbEntity
  8
dimensions
  6
ByBlock
 62
    0
370
   -2
100
AcDbLine
 10
-10
 20
1.224646799147353e-15
 11
-10
 21
-42
  0
SOLID
  5
AD
100
AcDbEntity
  8
dimensions
  6
ByBlock
 62
    0
370
   -2
100
AcDbTrace
 10
-10
 20
1.224646799147353e-15
 30
0
 11
-9.417201479118024
 21
-3.499999999999999
 31
0
 12
-10.58279852088198
 22
-3.499999999999999
 32
0
 13
-10.58279852088198
 23
-3.499999999999999
 33
0
  0
SOLID
  5
AE
100
AcDbEntity
  8
dimensions
  6
ByBlock
 62
    0
370
   -2
100
AcDbTrace
 10
-10
 20
-42
 30
0
 11
-10.58279852088198
 21
-38.5
 31
0
 12
-9.417201479118022
 22
-38.5
 32
0
 13
-9.417201479118022
 23
-38.5
 33
0
  0
MTEXT
  5
AF
100
AcDbEntity
  8
dimensions
  6
CONTINUOUS
 62
    0
370
   -2
100
AcDbMText
 10
-12.75
 20
-21
 30
0
 40
3.5
 41
4.666666666666667
 71
    5
 72
    1
  1
42
  7
STANDARD
210
0
220
0
230
1
 50
90
 73
    2
 44
1
  0
ENDBLK
  5
55
330
53
100
AcDbEntity
  8
0
100
AcDbBlockEnd
  0
BLOCK
  5
57
330
56
100
AcDbEntity
  8
0
100
AcDbBlockBegin
  2
*D12
 70
    1
 10
0
 20
0
  3
*D12
  1

  0
LINE
  5
B0
100
AcDbEntity
  8
positions
  6
ByBlock
 62
    0
370
   -2
100
AcDbLine
 10
5.65
 20
-36.65
 11
-6.000000000000002
 21
-36.65
  0
LINE
  5
B1
100
AcDbEntity
  8
positions
  6
ByBlock
 62
    0
370
   -2
100
AcDbLine
 10
5.65
 20
-42.3
 11
-6.000000000000002
 21
-42.3
  0
LINE
  5
B2
100
AcDbEntity
  8
positions
  6
ByBlock
 62
    0
370
   -2
100
AcDbLine
 10
-4.000000000000002
 20
-29.65
 11
-4.000000000000002
 21
-49.3
  0
SOLID
  5
B3
100
AcDbEntity
  8
positions
  6
ByBlock
 62
    0
370
   -2
100
AcDbTrace
 10
-4.000000000000002
 20
-36.65
 30
0
 11
-4.582798520881978
 21
-33.15
 31
0
 12
-3.417201479118025
 22
-33.15
 32
0
 13
-3.417201479118025
 23
-33.15
 33
0
  0
SOLID
  5
B4
100
AcDbEntity
  8
positions
  6
ByBlock
 62
    0
370
   -2
100
AcDbTrace
 10
-4.000000000000002
 20
-42.3
 30
0
 11
-3.417201479118025
 21
-45.8
 31
0
 12
-4.582798520881979
 22
-45.8
 32
0
 13
-4.582798520881979
 23
-45.8
 33
0
  0
MTEXT
  5
B5
100
AcDbEntity
  8
positions
  6
CONTINUOUS
 62
    0
370
   -2
100
AcDbMText
 10
-6.750000000000001
 20
-31.46944444444412
 30
0
 40
3.5
 41
8.361111111111761
 71
    5
 72
    1
  1
5,65
  7
STANDARD
210
0
220
0
230
1
 50
90
 73
    2
 44
1
  0
ENDBLK
  5
58
330
56
100
AcDbEntity
  8
0
100
AcDbBlockEnd
  0
BLOCK
  5
5A
330
59
100
AcDbEntity
  8
0
100
AcDbBlockBegin
  2
*D2
 70
    1
 10
0
 20
0
  3
*D2
  1

  0
LINE
  5
B6
100
AcDbEntity
  8
dimensions
  6
ByBlock
 62
    0
370
   -2
100
AcDbLine
 10
40.29999986091642
 20
-3.000001868355584
 11
57.99999990727751
 21
-3.000002688948473
  0
LINE
  5
B7
100
AcDbEntity
  8
dimensions
  6
ByBlock
 62
    0
370
   -2
100
AcDbLine
 10
40.29999999999995
 20
-1.868355587572396e-06
 11
58.00000004636105
 21
-2.688948476235063e-06
  0
LINE
  5
B8
100
AcDbEntity
  8
dimensions
  6
ByBlock
 62
    0
370
   -2
100
AcDbLine
 10
55.99999958274925
 20
-10.00000259622611
 11
56.00000037088931
 21
6.999997403773876
  0
SOLID
  5
B9
100
AcDbEntity
  8
dimensions
  6
ByBlock
 62
    0
370
   -2
100
AcDbTrace
 10
55.99999990727751
 20
-3.000002596226113
 30
0
 11
56.58279826589536
 21
-6.500002623245337
 31
0
 12
55.4172012241314
 22
-6.500002569206882
 32
0
 13
55.4172012241314
 23
-6.500002569206882
 33
0
  0
SOLID
  5
BA
100
AcDbEntity
  8
dimensions
  6
ByBlock
 62
    0
370
   -2
100
AcDbTrace
 10
56.00000004636105
 20
-2.596226116177062e-06
 30
0
 11
55.41720168774321
 21
3.499997430793107
 31
0
 12
56.58279872950716
 22
3.499997376754653
 32
0
 13
56.58279872950716
 23
3.499997376754653
 33
0
  0
MTEXT
  5
BB
100
AcDbEntity
  8
dimensions
  6
CONTINUOUS
 62
    0
370
   -2
100
AcDbMText
 10
53.24999997681928
 20
-1.50000246873287
 30
0
 40
3.5
 41
1.555555555555773
 71
    5
 72
    1
  1
3
  7
STANDARD
210
0
220
0
230
1
 50
89.99999734370007
 73
    2
 44
1
  0
ENDBLK
  5
5B
330
59
100
AcDbEntity
  8
0
100
AcDbBlockEnd
  0
BLOCK
  5
5D
330
5C
100
AcDbEntity
  8
0
100
AcDbBlockBegin
  2
*D15
 70
    1
 10
0
 20
0
  3
*D15
  1

  0
LINE
  5
BC
100
AcDbEntity
  8
dimensions
  6
ByBlock
 62
    0
370
   -2
100
AcDbLine
 10
147.0000022253367
 20
-138.0000001390835
 11
156.0000020862531
 21
-137.9999997218329
  0
LINE
  5
BD
100
AcDbEntity
  8
dimensions
  6
ByBlock
 62
    0
370
   -2
100
AcDbLine
 10
146.9999998609165
 20
-87.00000013908354
 11
155.9999997218329
 21
-86.99999972183292
  0
LINE
  5
BE
100
AcDbEntity
  8
dimensions
  6
ByBlock
 62
    0
370
   -2
100
AcDbLine
 10
154.0000020862531
 20
-137.9999998145552
 11
153.9999997218329
 21
-86.99999981455528
  0
SOLID
  5
BF
100
AcDbEntity
  8
dimensions
  6
ByBlock
 62
    0
370
   -2
100
AcDbTrace
 10
154.0000020862531
 20
-137.9999998145552
 30
0
 11
153.417203403107
 21
-134.4999998415745
 31
0
 12
154.582800444871
 22
-134.499999787536
 32
0
 13
154.582800444871
 23
-134.499999787536
 33
0
  0
SOLID
  5
C0
100
AcDbEntity
  8
dimensions
  6
ByBlock
 62
    0
370
   -2
100
AcDbTrace
 10
153.9999997218329
 20
-86.99999981455528
 30
0
 11
154.582798404979
 21
-90.49999978753605
 31
0
 12
153.4172013632151
 22
-90.49999984157451
 32
0
 13
153.4172013632151
 23
-90.49999984157451
 33
0
  0
MTEXT
  5
C1
100
AcDbEntity
  8
dimensions
  6
CONTINUOUS
 62
    0
370
   -2
100
AcDbMText
 10
156.750000904043
 20
-112.499999687062
 30
0
 40
3.5
 41
3.500000000000217
 71
    5
 72
    1
  1
51
  7
STANDARD
210
0
220
0
230
1
 50
270.0000026563
 73
    2
 44
1
  0
ENDBLK
  5
5E
330
5C
100
AcDbEntity
  8
0
100
AcDbBlockEnd
  0
BLOCK
  5
60
330
5F
100
AcDbEntity
  8
0
100
AcDbBlockBegin
  2
*D17
 70
    1
 10
0
 20
0
  3
*D17
  1

  0
LINE
  5
C2
100
AcDbEntity
  8
dimensions
  6
ByBlock
 62
    0
370
   -2
100
AcDbLine
 10
121.3500022253367
 20
-138.0000013282478
 11
102.0000003708896
 21
-138.0000022253367
  0
LINE
  5
C3
100
AcDbEntity
  8
dimensions
  6
ByBlock
 62
    0
370
   -2
100
AcDbLine
 10
121.350001529919
 20
-123.0000013282478
 11
101.9999996754718
 21
-123.0000022253367
  0
LINE
  5
C4
100
AcDbEntity
  8
dimensions
  6
ByBlock
 62
    0
370
   -2
100
AcDbLine
 10
104.0000003708896
 20
-138.0000021326143
 11
103.9999996754718
 21
-123.0000021326144
  0
SOLID
  5
C5
100
AcDbEntity
  8
dimensions
  6
ByBlock
 62
    0
370
   -2
100
AcDbTrace
 10
104.0000003708896
 20
-138.0000021326143
 30
0
 11
103.4172016877434
 21
-134.5000021596336
 31
0
 12
104.5827987295074
 22
-134.5000021055951
 32
0
 13
104.5827987295074
 23
-134.5000021055951
 33
0
  0
SOLID
  5
C6
100
AcDbEntity
  8
dimensions
  6
ByBlock
 62
    0
370
   -2
100
AcDbTrace
 10
103.9999996754718
 20
-123.0000021326144
 30
0
 11
104.5827983586179
 21
-126.5000021055951
 31
0
 12
103.417201316854
 22
-126.5000021596336
 32
0
 13
103.417201316854
 23
-126.5000021596336
 33
0
  0
MTEXT
  5
C7
100
AcDbEntity
  8
dimensions
  6
CONTINUOUS
 62
    0
370
   -2
100
AcDbMText
 10
106.7500000231807
 20
-130.5000020051211
 30
0
 40
3.5
 41
3.500000000000217
 71
    5
 72
    1
  1
15
  7
STANDARD
210
0
220
0
230
1
 50
270.0000026563
 73
    2
 44
1
  0
ENDBLK
  5
61
330
5F
100
AcDbEntity
  8
0
100
AcDbBlockEnd
  0
BLOCK
  5
63
330
62
100
AcDbEntity
  8
0
100
AcDbBlockBegin
  2
*D19
 70
    1
 10
0
 20
0
  3
*D19
  1

  0
LINE
  5
C8
100
AcDbEntity
  8
dimensions
  6
ByBlock
 62
    0
370
   -2
100
AcDbLine
 10
121.350001529919
 20
-123.0000013282478
 11
121.3820175558731
 21
-147.0088269286852
  0
LINE
  5
C9
100
AcDbEntity
  8
dimensions
  6
ByBlock
 62
    0
370
   -2
100
AcDbLine
 10
128.85
 20
-122.99
 11
128.8820160259542
 21
-146.9988256004374
  0
LINE
  5
CA
100
AcDbEntity
  8
dimensions
  6
ByBlock
 62
    0
370
   -2
100
AcDbLine
 10
114.3793567607038
 20
-145.0181632735695
 11
135.8793427830459
 21
-144.9894928120499
  0
SOLID
  5
CB
100
AcDbEntity
  8
dimensions
  6
ByBlock
 62
    0
370
   -2
100
AcDbTrace
 10
121.3793505368343
 20
-145.0088287069336
 30
0
 11
117.8801308161446
 21
-145.5962939929533
 31
0
 12
117.8785764813936
 22
-144.4306979875498
 32
0
 13
117.8785764813936
 23
-144.4306979875498
 33
0
  0
SOLID
  5
CC
100
AcDbEntity
  8
dimensions
  6
ByBlock
 62
    0
370
   -2
100
AcDbTrace
 10
128.8793490069154
 20
-144.9988273786858
 30
0
 11
132.3785687276051
 21
-144.4113620926662
 31
0
 12
132.3801230623561
 22
-145.5769580980696
 32
0
 13
132.3801230623561
 23
-145.5769580980696
 33
0
  0
MTEXT
  5
CD
100
AcDbEntity
  8
dimensions
  6
CONTINUOUS
 62
    0
370
   -2
100
AcDbMText
 10
125.1256826206965
 20
-142.2538304879013
 30
0
 40
3.5
 41
5.638888888889106
 71
    5
 72
    1
  1
7,5
  7
STANDARD
210
0
220
0
230
1
 50
0.07640449004696485
 73
    2
 44
1
  0
ENDBLK
  5
64
330
62
100
AcDbEntity
  8
0
100
AcDbBlockEnd
  0
BLOCK
  5
66
330
65
100
AcDbEntity
  8
0
100
AcDbBlockBegin
  2
*D9
 70
    1
 10
0
 20
0
  3
*D9
  1

  0
LINE
  5
CE
100
AcDbEntity
  8
dimensions
  6
ByBlock
 62
    0
370
   -2
100
AcDbLine
 10
35.04999973805928
 20
-5.650001699137271
 11
35.04999973805928
 21
-10
  0
LINE
  5
CF
100
AcDbEntity
  8
dimensions
  6
ByBlock
 62
    0
370
   -2
100
AcDbLine
 10
38.24999973805929
 20
-5.650001699137271
 11
38.24999973805929
 21
-10
  0
LINE
  5
D0
100
AcDbEntity
  8
dimensions
  6
ByBlock
 62
    0
370
   -2
100
AcDbLine
 10
28.04999973805928
 20
-7.999999999999999
 11
45.24999973805929
 21
-8
  0
SOLID
  5
D1
100
AcDbEntity
  8
dimensions
  6
ByBlock
 62
    0
370
   -2
100
AcDbTrace
 10
35.04999973805928
 20
-8
 30
0
 11
31.54999973805928
 21
-8.582798520881976
 31
0
 12
31.54999973805928
 22
-7.417201479118024
 32
0
 13
31.54999973805928
 23
-7.417201479118024
 33
0
  0
SOLID
  5
D2
100
AcDbEntity
  8
dimensions
  6
ByBlock
 62
    0
370
   -2
100
AcDbTrace
 10
38.24999973805929
 20
-8
 30
0
 11
41.74999973805929
 21
-7.417201479118024
 31
0
 12
41.74999973805929
 22
-8.582798520881976
 32
0
 13
41.74999973805929
 23
-8.582798520881976
 33
0
  0
MTEXT
  5
D3
100
AcDbEntity
  8
dimensions
  6
CONTINUOUS
 62
    0
370
   -2
100
AcDbMText
 10
42.06944418250384
 20
-5.25
 30
0
 40
3.5
 41
5.638888888889106
 71
    5
 72
    1
  1
3,2
  7
STANDARD
210
0
220
0
230
1
 50
0
 73
    2
 44
1
  0
ENDBLK
  5
67
330
65
100
AcDbEntity
  8
0
100
AcDbBlockEnd
  0
BLOCK
  5
69
330
68
100
AcDbEntity
  8
0
100
AcDbBlockBegin
  2
*D21
 70
    1
 10
0
 20
0
  3
*D21
  1

  0
LINE
  5
D4
100
AcDbEntity
  8
dimensions
  6
ByBlock
 62
    0
370
   -2
100
AcDbLine
 10
114.7000017617249
 20
-128.0000015438273
 11
114.7000017617249
 21
-119
  0
LINE
  5
D5
100
AcDbEntity
  8
dimensions
  6
ByBlock
 62
    0
370
   -2
100
AcDbLine
 10
118.7000017617249
 20
-128.0000015438273
 11
118.7000017617249
 21
-119
  0
LINE
  5
D6
100
AcDbEntity
  8
dimensions
  6
ByBlock
 62
    0
370
   -2
100
AcDbLine
 10
107.7000017617249
 20
-121
 11
125.7000017617249
 21
-121
  0
SOLID
  5
D7
100
AcDbEntity
  8
dimensions
  6
ByBlock
 62
    0
370
   -2
100
AcDbTrace
 10
114.7000017617249
 20
-121
 30
0
 11
111.2000017617249
 21
-121.582798520882
 31
0
 12
111.2000017617249
 22
-120.417201479118
 32
0
 13
111.2000017617249
 23
-120.417201479118
 33
0
  0
SOLID
  5
D8
100
AcDbEntity
  8
dimensions
  6
ByBlock
 62
    0
370
   -2
100
AcDbTrace
 10
118.7000017617249
 20
-121
 30
0
 11
122.2000017617249
 21
-120.417201479118
 31
0
 12
122.2000017617249
 22
-121.582798520882
 32
0
 13
122.2000017617249
 23
-121.582798520882
 33
0
  0
MTEXT
  5
D9
100
AcDbEntity
  8
dimensions
  6
CONTINUOUS
 62
    0
370
   -2
100
AcDbMText
 10
116.7000017617249
 20
-118.25
 30
0
 40
3.5
 41
1.944444444444444
 71
    5
 72
    1
  1
4
  7
STANDARD
210
0
220
0
230
1
 50
0
 73
    2
 44
1
  0
ENDBLK
  5
6A
330
68
100
AcDbEntity
  8
0
100
AcDbBlockEnd
  0
BLOCK
  5
6C
330
6B
100
AcDbEntity
  8
0
100
AcDbBlockBegin
  2
*D13
 70
    1
 10
0
 20
0
  3
*D13
  1

  0
LINE
  5
DA
100
AcDbEntity
  8
positions
  6
ByBlock
 62
    0
370
   -2
100
AcDbLine
 10
36.65000000000001
 20
-36.65
 11
36.65000000000001
 21
-51
  0
LINE
  5
DB
100
AcDbEntity
  8
positions
  6
ByBlock
 62
    0
370
   -2
100
AcDbLine
 10
48.3
 20
-36.65
 11
48.3
 21
-51
  0
LINE
  5
DC
100
AcDbEntity
  8
positions
  6
ByBlock
 62
    0
370
   -2
100
AcDbLine
 10
36.65000000000001
 20
-49
 11
48.3
 21
-49
  0
SOLID
  5
DD
100
AcDbEntity
  8
positions
  6
ByBlock
 62
    0
370
   -2
100
AcDbTrace
 10
36.65000000000001
 20
-49
 30
0
 11
40.15000000000001
 21
-48.41720147911802
 31
0
 12
40.15000000000001
 22
-49.58279852088198
 32
0
 13
40.15000000000001
 23
-49.58279852088198
 33
0
  0
SOLID
  5
DE
100
AcDbEntity
  8
positions
  6
ByBlock
 62
    0
370
   -2
100
AcDbTrace
 10
48.3
 20
-49
 30
0
 11
44.8
 21
-49.58279852088198
 31
0
 12
44.8
 22
-48.41720147911802
 32
0
 13
44.8
 23
-48.41720147911802
 33
0
  0
MTEXT
  5
DF
100
AcDbEntity
  8
positions
  6
CONTINUOUS
 62
    0
370
   -2
100
AcDbMText
 10
42.47500000000001
 20
-46.25
 30
0
 40
3.5
 41
9.527777777778212
 71
    5
 72
    1
  1
11,65
  7
STANDARD
210
0
220
0
230
1
 50
0
 73
    2
 44
1
  0
ENDBLK
  5
6D
330
6B
100
AcDbEntity
  8
0
100
AcDbBlockEnd
  0
BLOCK
  5
6F
330
6E
100
AcDbEntity
  8
0
100
AcDbBlockBegin
  2
*D16
 70
    1
 10
0
 20
0
  3
*D16
  1

  0
LINE
  5
E0
100
AcDbEntity
  8
dimensions
  6
ByBlock
 62
    0
370
   -2
100
AcDbLine
 10
110.7
 20
-90.0000018219944
 11
97.99999768194107
 21
-90.00000241078149
  0
LINE
  5
E1
100
AcDbEntity
  8
dimensions
  6
ByBlock
 62
    0
370
   -2
100
AcDbLine
 10
110.7000022253367
 20
-138.0000018219943
 11
97.99999990727775
 21
-138.0000024107814
  0
LINE
  5
E2
100
AcDbEntity
  8
dimensions
  6
ByBlock
 62
    0
370
   -2
100
AcDbLine
 10
99.99999768194107
 20
-90.00000231805913
 11
99.99999990727775
 21
-138.0000023180591
  0
SOLID
  5
E3
100
AcDbEntity
  8
dimensions
  6
ByBlock
 62
    0
370
   -2
100
AcDbTrace
 10
99.99999768194107
 20
-90.00000231805913
 30
0
 11
100.5827963650872
 21
-93.50000229103991
 31
0
 12
99.41719932332323
 22
-93.50000234507836
 32
0
 13
99.41719932332323
 23
-93.50000234507836
 33
0
  0
SOLID
  5
E4
100
AcDbEntity
  8
dimensions
  6
ByBlock
 62
    0
370
   -2
100
AcDbTrace
 10
99.99999990727775
 20
-138.0000023180591
 30
0
 11
99.41720122413165
 21
-134.5000023450783
 31
0
 12
100.5827982658956
 22
-134.5000022910399
 32
0
 13
100.5827982658956
 23
-134.5000022910399
 33
0
  0
MTEXT
  5
E5
100
AcDbEntity
  8
dimensions
  6
CONTINUOUS
 62
    0
370
   -2
100
AcDbMText
 10
97.24999879460941
 20
-114.0000024455524
 30
0
 40
3.5
 41
4.666666666666667
 71
    5
 72
    1
  1
48
  7
STANDARD
210
0
220
0
230
1
 50
90.0000026563
 73
    2
 44
1
  0
ENDBLK
  5
70
330
6E
100
AcDbEntity
  8
0
100
AcDbBlockEnd
  0
BLOCK
  5
72
330
71
100
AcDbEntity
  8
0
100
AcDbBlockBegin
  2
*D18
 70
    1
 10
0
 20
0
  3
*D18
  1

  0
LINE
  5
E6
100
AcDbEntity
  8
dimensions
  6
ByBlock
 62
    0
370
   -2
100
AcDbLine
 10
110.7000022253367
 20
-138.0000018219943
 11
110.7000026425873
 21
-147.00000047752
  0
LINE
  5
E7
100
AcDbEntity
  8
dimensions
  6
ByBlock
 62
    0
370
   -2
100
AcDbLine
 10
121.3500022253367
 20
-138.0000013282478
 11
121.3500026425873
 21
-146.9999999837735
  0
LINE
  5
E8
100
AcDbEntity
  8
dimensions
  6
ByBlock
 62
    0
370
   -2
100
AcDbLine
 10
110.7000025498649
 20
-145.00000047752
 11
121.3500025498649
 21
-144.9999999837735
  0
SOLID
  5
E9
100
AcDbEntity
  8
dimensions
  6
ByBlock
 62
    0
370
   -2
100
AcDbTrace
 10
110.7000025498649
 20
-145.00000047752
 30
0
 11
114.2000025228457
 21
-144.4172017943739
 31
0
 12
114.2000025768842
 22
-145.5827988361379
 32
0
 13
114.2000025768842
 23
-145.5827988361379
 33
0
  0
SOLID
  5
EA
100
AcDbEntity
  8
dimensions
  6
ByBlock
 62
    0
370
   -2
100
AcDbTrace
 10
121.3500025498649
 20
-144.9999999837735
 30
0
 11
117.8500025768841
 21
-145.5827986669196
 31
0
 12
117.8500025228457
 22
-144.4172016251556
 32
0
 13
117.8500025228457
 23
-144.4172016251556
 33
0
  0
MTEXT
  5
EB
100
AcDbEntity
  8
dimensions
  6
CONTINUOUS
 62
    0
370
   -2
100
AcDbMText
 10
116.0250024223717
 20
-142.2500002306468
 30
0
 40
3.5
 41
10.30555555555599
 71
    5
 72
    1
  1
10,65
  7
STANDARD
210
0
220
0
230
1
 50
2.656299960318955e-06
 73
    2
 44
1
  0
ENDBLK
  5
73
330
71
100
AcDbEntity
  8
0
100
AcDbBlockEnd
  0
BLOCK
  5
75
330
74
100
AcDbEntity
  8
0
100
AcDbBlockBegin
  2
*D7
 70
    1
 10
0
 20
0
  3
*D7
  1

  0
LINE
  5
EC
100
AcDbEntity
  8
dimensions
  6
ByBlock
 62
    0
370
   -2
100
AcDbLine
 10
0
 20
-21
 11
-6
 21
-21
  0
LINE
  5
ED
100
AcDbEntity
  8
dimensions
  6
ByBlock
 62
    0
370
   -2
100
AcDbLine
 10
0
 20
0
 11
-6
 21
7.347880794884119e-16
  0
LINE
  5
EE
100
AcDbEntity
  8
dimensions
  6
ByBlock
 62
    0
370
   -2
100
AcDbLine
 10
-4
 20
-21
 11
-4
 21
4.898587196589413e-16
  0
SOLID
  5
EF
100
AcDbEntity
  8
dimensions
  6
ByBlock
 62
    0
370
   -2
100
AcDbTrace
 10
-4
 20
-21
 30
0
 11
-4.582798520881976
 21
-17.5
 31
0
 12
-3.417201479118023
 22
-17.5
 32
0
 13
-3.417201479118023
 23
-17.5
 33
0
  0
SOLID
  5
F0
100
AcDbEntity
  8
dimensions
  6
ByBlock
 62
    0
370
   -2
100
AcDbTrace
 10
-4
 20
4.898587196589413e-16
 30
0
 11
-3.417201479118023
 21
-3.5
 31
0
 12
-4.582798520881977
 22
-3.5
 32
0
 13
-4.582798520881977
 23
-3.5
 33
0
  0
MTEXT
  5
F1
100
AcDbEntity
  8
dimensions
  6
CONTINUOUS
 62
    0
370
   -2
100
AcDbMText
 10
-6.75
 20
-10.5
 30
0
 40
3.5
 41
3.5
 71
    5
 72
    1
  1
21
  7
STANDARD
210
0
220
0
230
1
 50
90
 73
    2
 44
1
  0
ENDBLK
  5
76
330
74
100
AcDbEntity
  8
0
100
AcDbBlockEnd
  0
BLOCK
  5
78
330
77
100
AcDbEntity
  8
0
100
AcDbBlockBegin
  2
*D23
 70
    1
 10
0
 20
0
  3
*D23
  1

  0
LINE
  5
F2
100
AcDbEntity
  8
positions
  6
ByBlock
 62
    0
370
   -2
100
AcDbLine
 10
116.7
 20
-97
 11
103
 21
-97
  0
LINE
  5
F3
100
AcDbEntity
  8
positions
  6
ByBlock
 62
    0
370
   -2
100
AcDbLine
 10
116.7
 20
-87
 11
103
 21
-87
  0
LINE
  5
F4
100
AcDbEntity
  8
positions
  6
ByBlock
 62
    0
370
   -2
100
AcDbLine
 10
105
 20
-97
 11
105
 21
-87
  0
SOLID
  5
F5
100
AcDbEntity
  8
positions
  6
ByBlock
 62
    0
370
   -2
100
AcDbTrace
 10
105
 20
-97
 30
0
 11
104.417201479118
 21
-93.5
 31
0
 12
105.582798520882
 22
-93.5
 32
0
 13
105.582798520882
 23
-93.5
 33
0
  0
SOLID
  5
F6
100
AcDbEntity
  8
positions
  6
ByBlock
 62
    0
370
   -2
100
AcDbTrace
 10
105
 20
-87
 30
0
 11
105.582798520882
 21
-90.5
 31
0
 12
104.417201479118
 22
-90.5
 32
0
 13
104.417201479118
 23
-90.5
 33
0
  0
MTEXT
  5
F7
100
AcDbEntity
  8
positions
  6
CONTINUOUS
 62
    0
370
   -2
100
AcDbMText
 10
102.25
 20
-92
 30
0
 40
3.5
 41
3.5
 71
    5
 72
    1
  1
10
  7
STANDARD
210
0
220
0
230
1
 50
90
 73
    2
 44
1
  0
ENDBLK
  5
79
330
77
100
AcDbEntity
  8
0
100
AcDbBlockEnd
  0
BLOCK
  5
7B
330
7A
100
AcDbEntity
  8
0
100
AcDbBlockBegin
  2
*D3
 70
    1
 10
0
 20
0
  3
*D3
  1

  0
LINE
  5
F8
100
AcDbEntity
  8
dimensions
  6
ByBlock
 62
    0
370
   -2
100
AcDbLine
 10
48.3
 20
-21
 11
58.00000013908362
 21
-20.99999992504938
  0
LINE
  5
F9
100
AcDbEntity
  8
dimensions
  6
ByBlock
 62
    0
370
   -2
100
AcDbLine
 10
48.2999998609164
 20
-3.000002239245031
 11
58.00000000000002
 21
-3.00000216429441
  0
LINE
  5
FA
100
AcDbEntity
  8
dimensions
  6
ByBlock
 62
    0
370
   -2
100
AcDbLine
 10
56.00000013908362
 20
-20.99999994050312
 11
56.00000000000002
 21
-3.000002179748146
  0
SOLID
  5
FB
100
AcDbEntity
  8
dimensions
  6
ByBlock
 62
    0
370
   -2
100
AcDbTrace
 10
56.00000013908362
 20
-20.99999994050312
 30
0
 11
55.41720159115761
 21
-17.49999994500633
 31
0
 12
56.58279863292157
 22
-17.49999993599991
 32
0
 13
56.58279863292157
 23
-17.49999993599991
 33
0
  0
SOLID
  5
FC
100
AcDbEntity
  8
dimensions
  6
ByBlock
 62
    0
370
   -2
100
AcDbTrace
 10
56.00000000000002
 20
-3.000002179748146
 30
0
 11
56.58279854792603
 21
-6.500002175244939
 31
0
 12
55.41720150616208
 22
-6.500002184251352
 32
0
 13
55.41720150616208
 23
-6.500002184251352
 33
0
  0
MTEXT
  5
FD
100
AcDbEntity
  8
dimensions
  6
CONTINUOUS
 62
    0
370
   -2
100
AcDbMText
 10
58.75000006954183
 20
-12.00000103887675
 30
0
 40
3.5
 41
3.5
 71
    5
 72
    1
  1
18
  7
STANDARD
210
0
220
0
230
1
 50
270.0000004427169
 73
    2
 44
1
  0
ENDBLK
  5
7C
330
7A
100
AcDbEntity
  8
0
100
AcDbBlockEnd
  0
BLOCK
  5
7E
330
7D
100
AcDbEntity
  8
0
100
AcDbBlockBegin
  2
*D1
 70
    1
 10
0
 20
0
  3
*D1
  1

  0
LINE
  5
FE
100
AcDbEntity
  8
dimensions
  6
ByBlock
 62
    0
370
   -2
100
AcDbLine
 10
48.2999998609164
 20
-3.000002239245031
 11
48.30000027816712
 21
5.99999980064691
  0
LINE
  5
FF
100
AcDbEntity
  8
dimensions
  6
ByBlock
 62
    0
370
   -2
100
AcDbLine
 10
40.29999986091642
 20
-3.000001868355584
 11
40.30000027816713
 21
6.000000171536357
  0
LINE
  5
100
100
AcDbEntity
  8
dimensions
  6
ByBlock
 62
    0
370
   -2
100
AcDbLine
 10
55.30000018544475
 20
3.999999476118646
 11
33.30000018544478
 21
4.000000496064626
  0
SOLID
  5
101
100
AcDbEntity
  8
dimensions
  6
ByBlock
 62
    0
370
   -2
100
AcDbTrace
 10
48.30000018544476
 20
3.999999800646913
 30
0
 11
51.80000021246398
 21
4.582798159264756
 31
0
 12
51.80000015842553
 22
3.417201117500804
 32
0
 13
51.80000015842553
 23
3.417201117500804
 33
0
  0
SOLID
  5
102
100
AcDbEntity
  8
dimensions
  6
ByBlock
 62
    0
370
   -2
100
AcDbTrace
 10
40.30000018544477
 20
4.000000171536359
 30
0
 11
36.80000015842555
 21
3.417201812918516
 31
0
 12
36.80000021246401
 22
4.582798854682468
 32
0
 13
36.80000021246401
 23
4.582798854682468
 33
0
  0
MTEXT
  5
103
100
AcDbEntity
  8
dimensions
  6
CONTINUOUS
 62
    0
370
   -2
100
AcDbMText
 10
44.30000031293801
 20
6.749999986091632
 30
0
 40
3.5
 41
1.555555555555556
 71
    5
 72
    1
  1
8
  7
STANDARD
210
0
220
0
230
1
 50
359.9999973437
 73
    2
 44
1
  0
ENDBLK
  5
7F
330
7D
100
AcDbEntity
  8
0
100
AcDbBlockEnd
  0
BLOCK
  5
81
330
80
100
AcDbEntity
  8
0
100
AcDbBlockBegin
  2
*D4
 70
    1
 10
0
 20
0
  3
*D4
  1

  0
LINE
  5
104
100
AcDbEntity
  8
dimensions
  6
ByBlock
 62
    0
370
   -2
100
AcDbLine
 10
0
 20
0
 11
2.781671743720594e-07
 21
6.000001854447222
  0
LINE
  5
105
100
AcDbEntity
  8
dimensions
  6
ByBlock
 62
    0
370
   -2
100
AcDbLine
 10
40.29999999999995
 20
-1.868355587572396e-06
 11
40.30000027816713
 21
5.999999986091634
  0
LINE
  5
106
100
AcDbEntity
  8
dimensions
  6
ByBlock
 62
    0
370
   -2
100
AcDbLine
 10
1.854448115728277e-07
 20
4.000001854447224
 11
40.30000018544477
 21
3.999999986091637
  0
SOLID
  5
107
100
AcDbEntity
  8
dimensions
  6
ByBlock
 62
    0
370
   -2
100
AcDbTrace
 10
1.854448115728277e-07
 20
4.000001854447224
 30
0
 11
3.500000212464035
 21
4.582800213065068
 31
0
 12
3.50000015842558
 22
3.417203171301115
 32
0
 13
3.50000015842558
 23
3.417203171301115
 33
0
  0
SOLID
  5
108
100
AcDbEntity
  8
dimensions
  6
ByBlock
 62
    0
370
   -2
100
AcDbTrace
 10
40.30000018544477
 20
3.999999986091637
 30
0
 11
36.80000015842554
 21
3.417201627473794
 31
0
 12
36.800000212464
 22
4.582798669237746
 32
0
 13
36.800000212464
 23
4.582798669237746
 33
0
  0
MTEXT
  5
109
100
AcDbEntity
  8
dimensions
  6
CONTINUOUS
 62
    0
370
   -2
100
AcDbMText
 10
20.15000031293804
 20
6.750000920269427
 30
0
 40
3.5
 41
8.750000000000217
 71
    5
 72
    1
  1
40,3
  7
STANDARD
210
0
220
0
230
1
 50
359.9999973437
 73
    2
 44
1
  0
ENDBLK
  5
82
330
80
100
AcDbEntity
  8
0
100
AcDbBlockEnd
  0
BLOCK
  5
84
330
83
100
AcDbEntity
  8
0
100
AcDbBlockBegin
  2
*D20
 70
    1
 10
0
 20
0
  3
*D20
  1

  0
LINE
  5
10A
100
AcDbEntity
  8
dimensions
  6
ByBlock
 62
    0
370
   -2
100
AcDbLine
 10
114.7000003245283
 20
-97.00000154382731
 11
114.7000003245283
 21
-106
  0
LINE
  5
10B
100
AcDbEntity
  8
dimensions
  6
ByBlock
 62
    0
370
   -2
100
AcDbLine
 10
118.7000003245283
 20
-97.00000154382731
 11
118.7000003245283
 21
-106
  0
LINE
  5
10C
100
AcDbEntity
  8
dimensions
  6
ByBlock
 62
    0
370
   -2
100
AcDbLine
 10
107.7000003245283
 20
-104
 11
125.7000003245283
 21
-104
  0
SOLID
  5
10D
100
AcDbEntity
  8
dimensions
  6
ByBlock
 62
    0
370
   -2
100
AcDbTrace
 10
114.7000003245283
 20
-104
 30
0
 11
111.2000003245283
 21
-104.582798520882
 31
0
 12
111.2000003245283
 22
-103.417201479118
 32
0
 13
111.2000003245283
 23
-103.417201479118
 33
0
  0
SOLID
  5
10E
100
AcDbEntity
  8
dimensions
  6
ByBlock
 62
    0
370
   -2
100
AcDbTrace
 10
118.7000003245283
 20
-104
 30
0
 11
122.2000003245283
 21
-103.417201479118
 31
0
 12
122.2000003245283
 22
-104.582798520882
 32
0
 13
122.2000003245283
 23
-104.582798520882
 33
0
  0
MTEXT
  5
10F
100
AcDbEntity
  8
dimensions
  6
CONTINUOUS
 62
    0
370
   -2
100
AcDbMText
 10
116.7000003245283
 20
-101.25
 30
0
 40
3.5
 41
1.944444444444444
 71
    5
 72
    1
  1
4
  7
STANDARD
210
0
220
0
230
1
 50
0
 73
    2
 44
1
  0
ENDBLK
  5
85
330
83
100
AcDbEntity
  8
0
100
AcDbBlockEnd
  0
BLOCK
  5
87
330
86
100
AcDbEntity
  8
0
100
AcDbBlockBegin
  2
*D25
 70
    1
 10
0
 20
0
  3
*D25
  1

  0
LINE
  5
110
100
AcDbEntity
  8
dimensions
  6
ByBlock
 62
    0
370
   -2
100
AcDbLine
 10
110.7000022253367
 20
-138.0000018219943
 11
110.7000031061991
 21
-157.000001497466
  0
LINE
  5
111
100
AcDbEntity
  8
dimensions
  6
ByBlock
 62
    0
370
   -2
100
AcDbLine
 10
147.0000022253367
 20
-138.0000001390835
 11
147.0000031061991
 21
-156.9999998145551
  0
LINE
  5
112
100
AcDbEntity
  8
dimensions
  6
ByBlock
 62
    0
370
   -2
100
AcDbLine
 10
110.7000030134768
 20
-155.000001497466
 11
147.0000030134767
 21
-154.9999998145551
  0
SOLID
  5
113
100
AcDbEntity
  8
dimensions
  6
ByBlock
 62
    0
370
   -2
100
AcDbTrace
 10
110.7000030134768
 20
-155.000001497466
 30
0
 11
114.2000029864576
 21
-154.4172028143199
 31
0
 12
114.200003040496
 22
-155.5827998560839
 32
0
 13
114.200003040496
 23
-155.5827998560839
 33
0
  0
SOLID
  5
114
100
AcDbEntity
  8
dimensions
  6
ByBlock
 62
    0
370
   -2
100
AcDbTrace
 10
147.0000030134767
 20
-154.9999998145551
 30
0
 11
143.500003040496
 21
-155.5827984977012
 31
0
 12
143.5000029864575
 22
-154.4172014559373
 32
0
 13
143.5000029864575
 23
-154.4172014559373
 33
0
  0
MTEXT
  5
115
100
AcDbEntity
  8
dimensions
  6
CONTINUOUS
 62
    0
370
   -2
100
AcDbMText
 10
128.8500028859835
 20
-152.2500006560106
 30
0
 40
3.5
 41
8.361111111111761
 71
    5
 72
    1
  1
36,3
  7
STANDARD
210
0
220
0
230
1
 50
2.656299985763393e-06
 73
    2
 44
1
  0
ENDBLK
  5
88
330
86
100
AcDbEntity
  8
0
100
AcDbBlockEnd
  0
BLOCK
  5
8A
330
89
100
AcDbEntity
  8
0
100
AcDbBlockBegin
  2
*D8
 70
    1
 10
0
 20
0
  3
*D8
  1

  0
LINE
  5
116
100
AcDbEntity
  8
dimensions
  6
ByBlock
 62
    0
370
   -2
100
AcDbLine
 10
4.049999738059322
 20
-5.650000261940666
 11
4.049999738059322
 21
-10
  0
LINE
  5
117
100
AcDbEntity
  8
dimensions
  6
ByBlock
 62
    0
370
   -2
100
AcDbLine
 10
7.249999738059323
 20
-5.650000261940666
 11
7.249999738059323
 21
-10
  0
LINE
  5
118
100
AcDbEntity
  8
dimensions
  6
ByBlock
 62
    0
370
   -2
100
AcDbLine
 10
-2.950000261940678
 20
-7.999999999999999
 11
14.24999973805932
 21
-8
  0
SOLID
  5
119
100
AcDbEntity
  8
dimensions
  6
ByBlock
 62
    0
370
   -2
100
AcDbTrace
 10
4.049999738059322
 20
-8
 30
0
 11
0.5499997380593218
 21
-8.582798520881976
 31
0
 12
0.5499997380593218
 22
-7.417201479118024
 32
0
 13
0.5499997380593218
 23
-7.417201479118024
 33
0
  0
SOLID
  5
11A
100
AcDbEntity
  8
dimensions
  6
ByBlock
 62
    0
370
   -2
100
AcDbTrace
 10
7.249999738059323
 20
-8
 30
0
 11
10.74999973805932
 21
-7.417201479118024
 31
0
 12
10.74999973805932
 22
-8.582798520881976
 32
0
 13
10.74999973805932
 23
-8.582798520881976
 33
0
  0
MTEXT
  5
11B
100
AcDbEntity
  8
dimensions
  6
CONTINUOUS
 62
    0
370
   -2
100
AcDbMText
 10
11.06944418250388
 20
-5.25
 30
0
 40
3.5
 41
5.638888888889106
 71
    5
 72
    1
  1
3,2
  7
STANDARD
210
0
220
0
230
1
 50
0
 73
    2
 44
1
  0
ENDBLK
  5
8B
330
89
100
AcDbEntity
  8
0
100
AcDbBlockEnd
  0
BLOCK
  5
8D
330
8C
100
AcDbEntity
  8
0
100
AcDbBlockBegin
  2
*D11
 70
    1
 10
0
 20
0
  3
*D11
  1

  0
LINE
  5
11C
100
AcDbEntity
  8
positions
  6
ByBlock
 62
    0
370
   -2
100
AcDbLine
 10
5.649999999999999
 20
-36.65
 11
5.649999999999997
 21
-51
  0
LINE
  5
11D
100
AcDbEntity
  8
positions
  6
ByBlock
 62
    0
370
   -2
100
AcDbLine
 10
-3.469446951953614e-18
 20
-36.65
 11
-2.639521682116631e-15
 21
-51
  0
LINE
  5
11E
100
AcDbEntity
  8
positions
  6
ByBlock
 62
    0
370
   -2
100
AcDbLine
 10
12.65
 20
-49
 11
-7.000000000000003
 21
-49
  0
SOLID
  5
11F
100
AcDbEntity
  8
positions
  6
ByBlock
 62
    0
370
   -2
100
AcDbTrace
 10
5.649999999999997
 20
-49
 30
0
 11
9.149999999999997
 21
-48.41720147911802
 31
0
 12
9.149999999999997
 22
-49.58279852088198
 32
0
 13
9.149999999999997
 23
-49.58279852088198
 33
0
  0
SOLID
  5
120
100
AcDbEntity
  8
positions
  6
ByBlock
 62
    0
370
   -2
100
AcDbTrace
 10
-2.272127642372426e-15
 20
-49
 30
0
 11
-3.500000000000002
 21
-49.58279852088198
 31
0
 12
-3.500000000000002
 22
-48.41720147911802
 32
0
 13
-3.500000000000002
 23
-48.41720147911802
 33
0
  0
MTEXT
  5
121
100
AcDbEntity
  8
positions
  6
CONTINUOUS
 62
    0
370
   -2
100
AcDbMText
 10
10.83055555555588
 20
-46.25
 30
0
 40
3.5
 41
8.361111111111761
 71
    5
 72
    1
  1
5,65
  7
STANDARD
210
0
220
0
230
1
 50
360
 73
    2
 44
1
  0
ENDBLK
  5
8E
330
8C
100
AcDbEntity
  8
0
100
AcDbBlockEnd
  0
BLOCK
  5
90
330
8F
100
AcDbEntity
  8
0
100
AcDbBlockBegin
  2
*D22
 70
    1
 10
0
 20
0
  3
*D22
  1

  0
LINE
  5
122
100
AcDbEntity
  8
positions
  6
ByBlock
 62
    0
370
   -2
100
AcDbLine
 10
116.7
 20
-96.90000000000001
 11
116.7
 21
-82
  0
LINE
  5
123
100
AcDbEntity
  8
positions
  6
ByBlock
 62
    0
370
   -2
100
AcDbLine
 10
110.7
 20
-96.90000000000001
 11
110.7
 21
-82
  0
LINE
  5
124
100
AcDbEntity
  8
positions
  6
ByBlock
 62
    0
370
   -2
100
AcDbLine
 10
123.7
 20
-84
 11
103.7
 21
-84
  0
SOLID
  5
125
100
AcDbEntity
  8
positions
  6
ByBlock
 62
    0
370
   -2
100
AcDbTrace
 10
116.7
 20
-84
 30
0
 11
120.2
 21
-83.41720147911802
 31
0
 12
120.2
 22
-84.58279852088198
 32
0
 13
120.2
 23
-84.58279852088198
 33
0
  0
SOLID
  5
126
100
AcDbEntity
  8
positions
  6
ByBlock
 62
    0
370
   -2
100
AcDbTrace
 10
110.7
 20
-84
 30
0
 11
107.2
 21
-84.58279852088198
 31
0
 12
107.2
 22
-83.41720147911802
 32
0
 13
107.2
 23
-83.41720147911802
 33
0
  0
MTEXT
  5
127
100
AcDbEntity
  8
positions
  6
CONTINUOUS
 62
    0
370
   -2
100
AcDbMText
 10
113.7
 20
-81.25
 30
0
 40
3.5
 41
1.555555555555773
 71
    5
 72
    1
  1
6
  7
STANDARD
210
0
220
0
230
1
 50
360
 73
    2
 44
1
  0
ENDBLK
  5
91
330
8F
100
AcDbEntity
  8
0
100
AcDbBlockEnd
  0
BLOCK
  5
93
330
92
100
AcDbEntity
  8
0
100
AcDbBlockBegin
  2
*D10
 70
    1
 10
0
 20
0
  3
*D10
  1

  0
LINE
  5
128
100
AcDbEntity
  8
dimensions
  6
ByBlock
 62
    0
370
   -2
100
AcDbLine
 10
12.82527985208117
 20
-29.79286224196499
 11
29.47471818684082
 21
-12.50713971911291
  0
SOLID
  5
129
100
AcDbEntity
  8
dimensions
  6
ByBlock
 62
    0
370
   -2
100
AcDbTrace
 10
12.82527985208117
 20
-29.79286224196499
 30
0
 11
14.83356904595468
 21
-26.86772487259016
 31
0
 12
15.67307683917922
 22
-27.67633054217463
 32
0
 13
15.67307683917922
 23
-27.67633054217463
 33
0
  0
SOLID
  5
12A
100
AcDbEntity
  8
dimensions
  6
ByBlock
 62
    0
370
   -2
100
AcDbTrace
 10
29.47471818684082
 20
-12.50713971911291
 30
0
 11
27.46642899296731
 21
-15.43227708848774
 31
0
 12
26.62692119974277
 22
-14.62367141890327
 32
0
 13
26.62692119974277
 23
-14.62367141890327
 33
0
  0
MTEXT
  5
12B
100
AcDbEntity
  8
dimensions
  6
CONTINUOUS
 62
    0
370
   -2
100
AcDbMText
 10
19.16934331371753
 20
-19.24225283801441
 30
0
 40
3.5
 41
4.666666666666667
 71
    5
 72
    1
  1
24
  7
STANDARD
210
0
220
0
230
1
 50
46.07416986674509
 73
    2
 44
1
  0
ENDBLK
  5
94
330
92
100
AcDbEntity
  8
0
100
AcDbBlockEnd
  0
BLOCK
  5
96
330
95
100
AcDbEntity
  8
0
100
AcDbBlockBegin
  2
*D14
 70
    1
 10
0
 20
0
  3
*D14
  1

  0
LINE
  5
12C
100
AcDbEntity
  8
positions
  6
ByBlock
 62
    0
370
   -2
100
AcDbLine
 10
21.1
 20
-21
 11
21.09999999999999
 21
-62
  0
LINE
  5
12D
100
AcDbEntity
  8
positions
  6
ByBlock
 62
    0
370
   -2
100
AcDbLine
 10
0
 20
-21
 11
-7.531577814756221e-15
 21
-62
  0
LINE
  5
12E
100
AcDbEntity
  8
positions
  6
ByBlock
 62
    0
370
   -2
100
AcDbLine
 10
21.09999999999999
 20
-60
 11
-7.164183775012016e-15
 21
-60
  0
SOLID
  5
12F
100
AcDbEntity
  8
positions
  6
ByBlock
 62
    0
370
   -2
100
AcDbTrace
 10
21.09999999999999
 20
-60
 30
0
 11
17.59999999999999
 21
-60.58279852088198
 31
0
 12
17.59999999999999
 22
-59.41720147911802
 32
0
 13
17.59999999999999
 23
-59.41720147911802
 33
0
  0
SOLID
  5
130
100
AcDbEntity
  8
positions
  6
ByBlock
 62
    0
370
   -2
100
AcDbTrace
 10
-7.164183775012016e-15
 20
-60
 30
0
 11
3.499999999999993
 21
-59.41720147911802
 31
0
 12
3.499999999999993
 22
-60.58279852088198
 32
0
 13
3.499999999999993
 23
-60.58279852088198
 33
0
  0
MTEXT
  5
131
100
AcDbEntity
  8
positions
  6
CONTINUOUS
 62
    0
370
   -2
100
AcDbMText
 10
10.54999999999999
 20
-57.25
 30
0
 40
3.5
 41
6.805555555555555
 71
    5
 72
    1
  1
21,1
  7
STANDARD
210
0
220
0
230
1
 50
360
 73
    2
 44
1
  0
ENDBLK
  5
97
330
95
100
AcDbEntity
  8
0
100
AcDbBlockEnd
  0
BLOCK
  5
99
330
98
100
AcDbEntity
  8
0
100
AcDbBlockBegin
  2
*D24
 70
    1
 10
0
 20
0
  3
*D24
  1

  0
LINE
  5
132
100
AcDbEntity
  8
positions
  6
ByBlock
 62
    0
370
   -2
100
AcDbLine
 10
116.7
 20
-128
 11
129
 21
-128
  0
LINE
  5
133
100
AcDbEntity
  8
positions
  6
ByBlock
 62
    0
370
   -2
100
AcDbLine
 10
116.7
 20
-138
 11
129
 21
-138
  0
LINE
  5
134
100
AcDbEntity
  8
positions
  6
ByBlock
 62
    0
370
   -2
100
AcDbLine
 10
127
 20
-128
 11
127
 21
-138
  0
SOLID
  5
135
100
AcDbEntity
  8
positions
  6
ByBlock
 62
    0
370
   -2
100
AcDbTrace
 10
127
 20
-128
 30
0
 11
127.582798520882
 21
-131.5
 31
0
 12
126.417201479118
 22
-131.5
 32
0
 13
126.417201479118
 23
-131.5
 33
0
  0
SOLID
  5
136
100
AcDbEntity
  8
positions
  6
ByBlock
 62
    0
370
   -2
100
AcDbTrace
 10
127
 20
-138
 30
0
 11
126.417201479118
 21
-134.5
 31
0
 12
127.582798520882
 22
-134.5
 32
0
 13
127.582798520882
 23
-134.5
 33
0
  0
MTEXT
  5
137
100
AcDbEntity
  8
positions
  6
CONTINUOUS
 62
    0
370
   -2
100
AcDbMText
 10
124.25
 20
-133
 30
0
 40
3.5
 41
3.5
 71
    5
 72
    1
  1
10
  7
STANDARD
210
0
220
0
230
1
 50
90.0000000000001
 73
    2
 44
1
  0
ENDBLK
  5
9A
330
98
100
AcDbEntity
  8
0
100
AcDbBlockEnd
  0
BLOCK
  5
9C
330
9B
100
AcDbEntity
  8
0
100
AcDbBlockBegin
  2
Ortho1
 70
    0
 10
0
 20
0
  3
Ortho1
  1

  0
LINE
  5
138
100
AcDbEntity
  8
0
  6
ByBlock
 62
    0
370
   -1
100
AcDbLine
 10
0
 20
0
 11
3
 21
0
  0
LINE
  5
139
100
AcDbEntity
  8
0
  6
ByBlock
 62
    0
370
   -1
100
AcDbLine
 10
0
 20
0
 11
0
 21
-40.3
  0
LINE
  5
13A
100
AcDbEntity
  8
0
  6
ByBlock
 62
    0
370
   -1
100
AcDbLine
 10
3
 20
-40.3
 11
0
 21
-40.3
  0
LINE
  5
13B
100
AcDbEntity
  8
0
  6
ByBlock
 62
    0
370
   -1
100
AcDbLine
 10
3
 20
0
 11
3
 21
-40.3
  0
LINE
  5
13C
100
AcDbEntity
  8
0
  6
ByBlock
 62
    0
370
   -1
100
AcDbLine
 10
0
 20
-40.3
 11
0
 21
-45.3
  0
LINE
  5
13D
100
AcDbEntity
  8
0
  6
ByBlock
 62
    0
370
   -1
100
AcDbLine
 10
3
 20
-48.3
 11
3
 21
-40.3
  0
LINE
  5
13E
100
AcDbEntity
  8
0
  6
ByBlock
 62
    0
370
   -1
100
AcDbLine
 10
0
 20
-40.3
 11
3
 21
-40.3
  0
LINE
  5
13F
100
AcDbEntity
  8
0
  6
ByBlock
 62
    0
370
   -1
100
AcDbLine
 10
-48
 20
-48.3
 11
0
 21
-48.3
  0
LINE
  5
140
100
AcDbEntity
  8
0
  6
ByBlock
 62
    0
370
   -1
100
AcDbLine
 10
0
 20
-48.3
 11
3
 21
-48.3
  0
LINE
  5
141
100
AcDbEntity
  8
0
  6
ByBlock
 62
    0
370
   -1
100
AcDbLine
 10
0
 20
-45.3
 11
-48
 21
-45.3
  0
LINE
  5
142
100
AcDbEntity
  8
0
  6
ByBlock
 62
    0
370
   -1
100
AcDbLine
 10
-48
 20
-48.3
 11
-48
 21
-45.3
  0
LINE
  5
143
100
AcDbEntity
  8
0
  6
ByBlock
 62
    0
370
   -1
100
AcDbLine
 10
-48
 20
-48.3
 11
-48
 21
-45.3
  0
ENDBLK
  5
9D
330
9B
100
AcDbEntity
  8
0
100
AcDbBlockEnd
  0
BLOCK
  5
9F
330
9E
100
AcDbEntity
  8
0
100
AcDbBlockBegin
  2
Ortho0011
 70
    0
 10
0
 20
0
  3
Ortho0011
  1

  0
LINE
  5
144
100
AcDbEntity
  8
0
  6
ByBlock
 62
    0
370
   -1
100
AcDbLine
 10
0
 20
0
 11
42.3
 21
0
  0
LINE
  5
145
100
AcDbEntity
  8
0
  6
ByBlock
 62
    0
370
   -1
100
AcDbLine
 10
0
 20
40.3
 11
0
 21
0
  0
LINE
  5
146
100
AcDbEntity
  8
0
  6
ByBlock
 62
    0
370
   -1
100
AcDbLine
 10
42.3
 20
0
 11
42.3
 21
40.3
  0
LINE
  5
147
100
AcDbEntity
  8
0
  6
ByBlock
 62
    0
370
   -1
100
AcDbLine
 10
39.3
 20
40.3
 11
42.3
 21
40.3
  0
LINE
  5
148
100
AcDbEntity
  8
0
  6
ByBlock
 62
    0
370
   -1
100
AcDbLine
 10
39.3
 20
48.3
 11
39.3
 21
40.3
  0
LINE
  5
149
100
AcDbEntity
  8
0
  6
ByBlock
 62
    0
370
   -1
100
AcDbLine
 10
3
 20
48.3
 11
39.3
 21
48.3
  0
LINE
  5
14A
100
AcDbEntity
  8
0
  6
ByBlock
 62
    0
370
   -1
100
AcDbLine
 10
3
 20
48.3
 11
3
 21
40.3
  0
LINE
  5
14B
100
AcDbEntity
  8
0
  6
ByBlock
 62
    0
370
   -1
100
AcDbLine
 10
3
 20
40.3
 11
0
 21
40.3
  0
CIRCLE
  5
14C
100
AcDbEntity
  8
0
  6
ByBlock
 62
    0
370
   -1
100
AcDbCircle
 10
5.65
 20
36.65
 40
1.6
  0
CIRCLE
  5
14D
100
AcDbEntity
  8
0
  6
ByBlock
 62
    0
370
   -1
100
AcDbCircle
 10
21.15
 20
21.15
 40
12
  0
CIRCLE
  5
14E
100
AcDbEntity
  8
0
  6
ByBlock
 62
    0
370
   -1
100
AcDbCircle
 10
5.65
 20
5.65
 40
1.6
  0
CIRCLE
  5
14F
100
AcDbEntity
  8
0
  6
ByBlock
 62
    0
370
   -1
100
AcDbCircle
 10
36.65
 20
5.65
 40
1.6
  0
CIRCLE
  5
150
100
AcDbEntity
  8
0
  6
ByBlock
 62
    0
370
   -1
100
AcDbCircle
 10
36.65
 20
36.65
 40
1.6
  0
ENDBLK
  5
A0
330
9E
100
AcDbEntity
  8
0
100
AcDbBlockEnd
  0
BLOCK
  5
A2
330
A1
100
AcDbEntity
  8
0
100
AcDbBlockBegin
  2
Ortho0031
 70
    0
 10
0
 20
0
  3
Ortho0031
  1

  0
LINE
  5
151
100
AcDbEntity
  8
0
  6
ByBlock
 62
    0
370
   -1
100
AcDbLine
 10
3
 20
0
 11
0
 21
0
  0
LINE
  5
152
100
AcDbEntity
  8
0
  6
ByBlock
 62
    0
370
   -1
100
AcDbLine
 10
3
 20
42.3
 11
0
 21
42.3
  0
LINE
  5
153
100
AcDbEntity
  8
0
  6
ByBlock
 62
    0
370
   -1
100
AcDbLine
 10
0
 20
42.3
 11
0
 21
39.3
  0
LINE
  5
154
100
AcDbEntity
  8
0
  6
ByBlock
 62
    0
370
   -1
100
AcDbLine
 10
0
 20
0
 11
0
 21
3
  0
LINE
  5
155
100
AcDbEntity
  8
0
  6
ByBlock
 62
    0
370
   -1
100
AcDbLine
 10
3
 20
39.3
 11
3
 21
42.3
  0
LINE
  5
156
100
AcDbEntity
  8
0
  6
ByBlock
 62
    0
370
   -1
100
AcDbLine
 10
3
 20
3
 11
3
 21
39.3
  0
LINE
  5
157
100
AcDbEntity
  8
0
  6
ByBlock
 62
    0
370
   -1
100
AcDbLine
 10
3
 20
3
 11
3
 21
0
  0
LINE
  5
158
100
AcDbEntity
  8
0
  6
ByBlock
 62
    0
370
   -1
100
AcDbLine
 10
0
 20
39.3
 11
3
 21
39.3
  0
LINE
  5
159
100
AcDbEntity
  8
0
  6
ByBlock
 62
    0
370
   -1
100
AcDbLine
 10
-48
 20
39.3
 11
0
 21
39.3
  0
LINE
  5
15A
100
AcDbEntity
  8
0
  6
ByBlock
 62
    0
370
   -1
100
AcDbLine
 10
0
 20
39.3
 11
3
 21
39.3
  0
LINE
  5
15B
100
AcDbEntity
  8
0
  6
ByBlock
 62
    0
370
   -1
100
AcDbLine
 10
-48
 20
3
 11
0
 21
3
  0
LINE
  5
15C
100
AcDbEntity
  8
0
  6
ByBlock
 62
    0
370
   -1
100
AcDbLine
 10
0
 20
3
 11
3
 21
3
  0
LINE
  5
15D
100
AcDbEntity
  8
0
  6
ByBlock
 62
    0
370
   -1
100
AcDbLine
 10
0
 20
39.3
 11
0
 21
3
  0
LINE
  5
15E
100
AcDbEntity
  8
0
  6
ByBlock
 62
    0
370
   -1
100
AcDbLine
 10
-48
 20
13.65
 11
-48
 21
3
  0
LINE
  5
15F
100
AcDbEntity
  8
0
  6
ByBlock
 62
    0
370
   -1
100
AcDbLine
 10
-48
 20
13.65
 11
-33
 21
13.65
  0
LINE
  5
160
100
AcDbEntity
  8
0
  6
ByBlock
 62
    0
370
   -1
100
AcDbLine
 10
-33
 20
13.65
 11
-33
 21
28.65
  0
LINE
  5
161
100
AcDbEntity
  8
0
  6
ByBlock
 62
    0
370
   -1
100
AcDbLine
 10
-33
 20
28.65
 11
-48
 21
28.65
  0
LINE
  5
162
100
AcDbEntity
  8
0
  6
ByBlock
 62
    0
370
   -1
100
AcDbLine
 10
-48
 20
39.3
 11
-48
 21
28.65
  0
CIRCLE
  5
163
100
AcDbEntity
  8
0
  6
ByBlock
 62
    0
370
   -1
100
AcDbCircle
 10
-7
 20
33.3
 40
2
  0
CIRCLE
  5
164
100
AcDbEntity
  8
0
  6
ByBlock
 62
    0
370
   -1
100
AcDbCircle
 10
-7
 20
9
 40
2
  0
CIRCLE
  5
165
100
AcDbEntity
  8
0
  6
ByBlock
 62
    0
370
   -1
100
AcDbCircle
 10
-38
 20
9
 40
2
  0
CIRCLE
  5
166
100
AcDbEntity
  8
0
  6
ByBlock
 62
    0
370
   -1
100
AcDbCircle
 10
-38
 20
33.3
 40
2
  0
ENDBLK
  5
A3
330
A1
100
AcDbEntity
  8
0
100
AcDbBlockEnd
  0
ENDSEC
  0
SECTION
  2
ENTITIES
  0
INSERT
  5
167
100
AcDbEntity
  8
0
  6
ByLayer
 62
  256
370
   -1
100
AcDbBlockReference
  2
Ortho0011
 10
0
 20
0
 30
0
 41
1
 42
1
 43
0
 50
-90.0000026563
 70
    1
 71
    1
 44
0
 45
0
  0
INSERT
  5
168
100
AcDbEntity
  8
0
  6
ByLayer
 62
  256
370
   -1
100
AcDbBlockReference
  2
Ortho1
 10
0
 20
-90
 30
0
 41
1
 42
1
 43
0
 50
90.0000026563
 70
    1
 71
    1
 44
0
 45
0
  0
LINE
  5
169
100
AcDbEntity
  8
symetrie
  6
ByLayer
 62
  256
370
   -1
100
AcDbLine
 10
14
 20
-21
 11
29
 21
-21
  0
INSERT
  5
16A
100
AcDbEntity
  8
0
  6
ByLayer
 62
  256
370
   -1
100
AcDbBlockReference
  2
Ortho0031
 10
150
 20
-90
 30
0
 41
1
 42
1
 43
0
 50
90.0000026563
 70
    1
 71
    1
 44
0
 45
0
  0
DIMENSION
  5
16B
100
AcDbEntity
  8
dimensions
  6
ByLayer
 62
  256
370
   -1
100
AcDbDimension
  2
*D1
 10
40.30000018544477
 20
4.00000017153636
 30
0
 11
44.30000031293801
 21
6.749999986091632
 31
0
 70
   33
 71
    5
  3
Standard
 53
0
210
0
220
0
230
1
100
AcDbAlignedDimension
 13
48.2999998609164
 23
-3.000002239245031
 33
0
 14
40.29999986091642
 24
-3.000001868355584
 34
0
  0
DIMENSION
  5
16C
100
AcDbEntity
  8
dimensions
  6
ByLayer
 62
  256
370
   -1
100
AcDbDimension
  2
*D2
 10
56.00000004636105
 20
-2.596226114254367e-06
 30
0
 11
53.24999997681928
 21
-1.50000246873287
 31
0
 70
   33
 71
    5
  3
Standard
 53
0
210
0
220
0
230
1
100
AcDbAlignedDimension
 13
40.29999986091642
 23
-3.000001868355584
 33
0
 14
40.29999999999995
 24
-1.868355587572396e-06
 34
0
  0
DIMENSION
  5
16D
100
AcDbEntity
  8
dimensions
  6
ByLayer
 62
  256
370
   -1
100
AcDbDimension
  2
*D3
 10
56.00000000000002
 20
-3.000002179748147
 30
0
 11
58.75000006954183
 21
-12.00000103887675
 31
0
 70
   33
 71
    5
  3
Standard
 53
0
210
0
220
0
230
1
100
AcDbAlignedDimension
 13
48.3
 23
-21
 33
0
 14
48.2999998609164
 24
-3.000002239245031
 34
0
  0
DIMENSION
  5
16E
100
AcDbEntity
  8
dimensions
  6
ByLayer
 62
  256
370
   -1
100
AcDbDimension
  2
*D4
 10
40.30000018544477
 20
3.999999986091637
 30
0
 11
20.15000031293804
 21
6.750000920269427
 31
0
 70
   33
 71
    5
  3
Standard
 53
0
210
0
220
0
230
1
100
AcDbAlignedDimension
 13
0
 23
0
 33
0
 14
40.29999999999995
 24
-1.868355587572396e-06
 34
0
  0
DIMENSION
  5
16F
100
AcDbEntity
  8
dimensions
  6
ByLayer
 62
  256
370
   -1
100
AcDbDimension
  2
*D5
 10
64.99999989336914
 20
-39.3000030134768
 30
0
 11
62.25000073482457
 21
-21.15000288598358
 31
0
 70
   33
 71
    5
  3
Standard
 53
0
210
0
220
0
230
1
100
AcDbAlignedDimension
 13
48.2999998609164
 23
-3.000002239245031
 33
0
 14
48.29999817800553
 24
-39.30000223924499
 34
0
  0
DIMENSION
  5
170
100
AcDbEntity
  8
dimensions
  6
ByLayer
 62
  256
370
   -1
100
AcDbDimension
  2
*D6
 10
-10
 20
-42
 30
0
 11
-12.75
 21
-21
 31
0
 70
   33
 71
    5
  3
Standard
 53
0
210
0
220
0
230
1
100
AcDbAlignedDimension
 13
0
 23
0
 33
0
 14
0
 24
-42
 34
0
  0
DIMENSION
  5
171
100
AcDbEntity
  8
dimensions
  6
ByLayer
 62
  256
370
   -1
100
AcDbDimension
  2
*D7
 10
-4
 20
4.898587196589413e-16
 30
0
 11
-6.75
 21
-10.5
 31
0
 70
   33
 71
    5
  3
Standard
 53
0
210
0
220
0
230
1
100
AcDbAlignedDimension
 13
0
 23
-21
 33
0
 14
0
 24
0
 34
0
  0
DIMENSION
  5
172
100
AcDbEntity
  8
dimensions
  6
ByLayer
 62
  256
370
   -1
100
AcDbDimension
  2
*D8
 10
7.249999738059323
 20
-8
 30
0
 11
5.649999738059322
 21
-5.25
 31
0
 70
   33
 71
    5
  3
Standard
 53
0
210
0
220
0
230
1
100
AcDbAlignedDimension
 13
4.049999738059322
 23
-5.650000261940666
 33
0
 14
7.249999738059323
 24
-5.650000261940666
 34
0
  0
DIMENSION
  5
173
100
AcDbEntity
  8
dimensions
  6
ByLayer
 62
  256
370
   -1
100
AcDbDimension
  2
*D9
 10
38.24999973805929
 20
-8
 30
0
 11
36.64999973805929
 21
-5.25
 31
0
 70
   33
 71
    5
  3
Standard
 53
0
210
0
220
0
230
1
100
AcDbAlignedDimension
 13
35.04999973805928
 23
-5.650001699137271
 33
0
 14
38.24999973805929
 24
-5.650001699137271
 34
0
  0
DIMENSION
  5
174
100
AcDbEntity
  8
dimensions
  6
ByLayer
 62
  256
370
   -1
100
AcDbDimension
  2
*D10
 10
12.82527985208117
 20
-29.79286224196499
 30
0
 11
19.16934331371753
 21
-19.24225283801441
 31
0
 70
   35
 71
    5
  3
Standard
 53
0
210
0
220
0
230
1
100
AcDbDiametricDimension
 15
29.47471818684082
 25
-12.50713971911291
 35
0
 40
0
  0
DIMENSION
  5
175
100
AcDbEntity
  8
positions
  6
ByLayer
 62
  256
370
   -1
100
AcDbDimension
  2
*D11
 10
-2.272127642372426e-15
 20
-49
 30
0
 11
2.824999999999997
 21
-46.25
 31
0
 70
   33
 71
    5
  3
Standard
 53
0
210
0
220
0
230
1
100
AcDbAlignedDimension
 13
5.649999999999999
 23
-36.65
 33
0
 14
-3.469446951953614e-18
 24
-36.65
 34
0
  0
DIMENSION
  5
176
100
AcDbEntity
  8
positions
  6
ByLayer
 62
  256
370
   -1
100
AcDbDimension
  2
*D12
 10
-4.000000000000002
 20
-42.3
 30
0
 11
-6.750000000000002
 21
-39.475
 31
0
 70
   33
 71
    5
  3
Standard
 53
0
210
0
220
0
230
1
100
AcDbAlignedDimension
 13
5.65
 23
-36.65
 33
0
 14
5.65
 24
-42.3
 34
0
  0
DIMENSION
  5
177
100
AcDbEntity
  8
positions
  6
ByLayer
 62
  256
370
   -1
100
AcDbDimension
  2
*D13
 10
48.3
 20
-49
 30
0
 11
42.47500000000001
 21
-46.25
 31
0
 70
   33
 71
    5
  3
Standard
 53
0
210
0
220
0
230
1
100
AcDbAlignedDimension
 13
36.65000000000001
 23
-36.65
 33
0
 14
48.3
 24
-36.65
 34
0
  0
DIMENSION
  5
178
100
AcDbEntity
  8
positions
  6
ByLayer
 62
  256
370
   -1
100
AcDbDimension
  2
*D14
 10
-7.164183775012016e-15
 20
-60
 30
0
 11
10.54999999999999
 21
-57.25
 31
0
 70
   33
 71
    5
  3
Standard
 53
0
210
0
220
0
230
1
100
AcDbAlignedDimension
 13
21.1
 23
-21
 33
0
 14
0
 24
-21
 34
0
  0
LINE
  5
179
100
AcDbEntity
  8
symetrie
  6
ByLayer
 62
  256
370
   -1
100
AcDbLine
 10
128.85
 20
-138
 11
128.85
 21
-137.92
  0
DIMENSION
  5
17A
100
AcDbEntity
  8
dimensions
  6
ByLayer
 62
  256
370
   -1
100
AcDbDimension
  2
*D15
 10
153.9999997218329
 20
-86.99999981455528
 30
0
 11
156.750000904043
 21
-112.499999687062
 31
0
 70
   33
 71
    5
  3
Standard
 53
0
210
0
220
0
230
1
100
AcDbAlignedDimension
 13
147.0000022253367
 23
-138.0000001390835
 33
0
 14
146.9999998609165
 24
-87.00000013908354
 34
0
  0
DIMENSION
  5
17B
100
AcDbEntity
  8
dimensions
  6
ByLayer
 62
  256
370
   -1
100
AcDbDimension
  2
*D16
 10
99.99999990727775
 20
-138.0000023180591
 30
0
 11
97.24999879460941
 21
-114.0000024455524
 31
0
 70
   33
 71
    5
  3
Standard
 53
0
210
0
220
0
230
1
100
AcDbAlignedDimension
 13
110.7
 23
-90.0000018219944
 33
0
 14
110.7000022253367
 24
-138.0000018219943
 34
0
  0
DIMENSION
  5
17C
100
AcDbEntity
  8
dimensions
  6
ByLayer
 62
  256
370
   -1
100
AcDbDimension
  2
*D17
 10
103.9999996754718
 20
-123.0000021326144
 30
0
 11
106.7500000231807
 21
-130.5000020051211
 31
0
 70
   33
 71
    5
  3
Standard
 53
0
210
0
220
0
230
1
100
AcDbAlignedDimension
 13
121.3500022253367
 23
-138.0000013282478
 33
0
 14
121.350001529919
 24
-123.0000013282478
 34
0
  0
DIMENSION
  5
17D
100
AcDbEntity
  8
dimensions
  6
ByLayer
 62
  256
370
   -1
100
AcDbDimension
  2
*D18
 10
121.3500025498649
 20
-144.9999999837735
 30
0
 11
116.0250024223717
 21
-142.2500002306468
 31
0
 70
   33
 71
    5
  3
Standard
 53
0
210
0
220
0
230
1
100
AcDbAlignedDimension
 13
110.7000022253367
 23
-138.0000018219943
 33
0
 14
121.3500022253367
 24
-138.0000013282478
 34
0
  0
DIMENSION
  5
17E
100
AcDbEntity
  8
dimensions
  6
ByLayer
 62
  256
370
   -1
100
AcDbDimension
  2
*D19
 10
128.8793490069154
 20
-144.9988273786858
 30
0
 11
125.1256826206965
 21
-142.2538304879013
 31
0
 70
   33
 71
    5
  3
Standard
 53
0
210
0
220
0
230
1
100
AcDbAlignedDimension
 13
121.350001529919
 23
-123.0000013282478
 33
0
 14
128.85
 24
-122.99
 34
0
  0
DIMENSION
  5
17F
100
AcDbEntity
  8
dimensions
  6
ByLayer
 62
  256
370
   -1
100
AcDbDimension
  2
*D20
 10
118.7000003245283
 20
-104
 30
0
 11
116.7000003245283
 21
-101.25
 31
0
 70
   33
 71
    5
  3
Standard
 53
0
210
0
220
0
230
1
100
AcDbAlignedDimension
 13
114.7000003245283
 23
-97.00000154382731
 33
0
 14
118.7000003245283
 24
-97.00000154382731
 34
0
  0
DIMENSION
  5
180
100
AcDbEntity
  8
dimensions
  6
ByLayer
 62
  256
370
   -1
100
AcDbDimension
  2
*D21
 10
118.7000017617249
 20
-121
 30
0
 11
116.7000017617249
 21
-118.25
 31
0
 70
   33
 71
    5
  3
Standard
 53
0
210
0
220
0
230
1
100
AcDbAlignedDimension
 13
114.7000017617249
 23
-128.0000015438273
 33
0
 14
118.7000017617249
 24
-128.0000015438273
 34
0
  0
DIMENSION
  5
181
100
AcDbEntity
  8
positions
  6
ByLayer
 62
  256
370
   -1
100
AcDbDimension
  2
*D22
 10
110.7
 20
-84
 30
0
 11
113.7
 21
-81.25
 31
0
 70
   33
 71
    5
  3
Standard
 53
0
210
0
220
0
230
1
100
AcDbAlignedDimension
 13
116.7
 23
-96.90000000000001
 33
0
 14
110.7
 24
-96.90000000000001
 34
0
  0
DIMENSION
  5
182
100
AcDbEntity
  8
positions
  6
ByLayer
 62
  256
370
   -1
100
AcDbDimension
  2
*D23
 10
105
 20
-87
 30
0
 11
102.25
 21
-92
 31
0
 70
   33
 71
    5
  3
Standard
 53
0
210
0
220
0
230
1
100
AcDbAlignedDimension
 13
116.7
 23
-97
 33
0
 14
116.7
 24
-87
 34
0
  0
DIMENSION
  5
183
100
AcDbEntity
  8
positions
  6
ByLayer
 62
  256
370
   -1
100
AcDbDimension
  2
*D24
 10
127
 20
-138
 30
0
 11
124.25
 21
-133
 31
0
 70
   33
 71
    5
  3
Standard
 53
0
210
0
220
0
230
1
100
AcDbAlignedDimension
 13
116.7
 23
-128
 33
0
 14
116.7
 24
-138
 34
0
  0
DIMENSION
  5
184
100
AcDbEntity
  8
dimensions
  6
ByLayer
 62
  256
370
   -1
100
AcDbDimension
  2
*D25
 10
147.0000030134767
 20
-154.9999998145551
 30
0
 11
128.8500028859835
 21
-152.2500006560106
 31
0
 70
   33
 71
    5
  3
Standard
 53
0
210
0
220
0
230
1
100
AcDbAlignedDimension
 13
110.7000022253367
 23
-138.0000018219943
 33
0
 14
147.0000022253367
 24
-138.0000001390835
 34
0
  0
ENDSEC
  0
SECTION
  2
OBJECTS
  0
DICTIONARY
  5
C
330
0
100
AcDbDictionary
281
    1
  3
ACAD_GROUP
350
D
  0
DICTIONARY
  5
D
330
C
100
AcDbDictionary
281
    1
  0
ENDSEC
  0
EOF
